{"asset":{"generator":"Khronos glTF Blender I/O v3.6.27","version":"2.0"},"scene":0,"scenes":[{"name":"Scene","nodes":[0,1,2,3,4,5,6,7,8,9,10,11,12,13,14,15,16,17,18,19,20,21,22,23,24,25,26,27,28,29,30,31,32,33,34,35]}],"nodes":[{"mesh":0,"name":"SM_xfcnebhqx_VarA","rotation":[0.7071068286895752,0,0,0.7071068286895752],"scale":[0.009999999776482582,0.009999999776482582,0.009999999776482582]},{"mesh":1,"name":"SM_xfcnebhqx_VarA_LOD1","rotation":[0.7071068286895752,0,0,0.7071068286895752],"scale":[0.009999999776482582,0.009999999776482582,0.009999999776482582],"extras":{"lod":{"index":1,"mesh":"SM_xfcnebhqx_VarA"}}},{"mesh":2,"name":"SM_xfcnebhqx_VarA_LOD2","rotation":[0.7071068286895752,0,0,0.7071068286895752],"scale":[0.009999999776482582,0.009999999776482582,0.009999999776482582],"extras":{"lod":{"index":2,"mesh":"SM_xfcnebhqx_VarA"}}},{"mesh":3,"name":"SM_xfcnebhqx_VarA_LOD3","rotation":[0.7071068286895752,0,0,0.7071068286895752],"scale":[0.009999999776482582,0.009999999776482582,0.009999999776482582],"extras":{"lod":{"index":3,"mesh":"SM_xfcnebhqx_VarA"}}},{"mesh":4,"name":"SM_xfcnebhqx_VarB","rotation":[0.7071068286895752,0,0,0.7071068286895752],"scale":[0.009999999776482582,0.009999999776482582,0.009999999776482582]},{"mesh":5,"name":"SM_xfcnebhqx_VarB_LOD1","rotation":[0.7071068286895752,0,0,0.7071068286895752],"scale":[0.009999999776482582,0.009999999776482582,0.009999999776482582],"extras":{"lod":{"index":1,"mesh":"SM_xfcnebhqx_VarB"}}},{"mesh":6,"name":"SM_xfcnebhqx_VarB_LOD2","rotation":[0.7071068286895752,0,0,0.7071068286895752],"scale":[0.009999999776482582,0.009999999776482582,0.009999999776482582],"extras":{"lod":{"index":2,"mesh":"SM_xfcnebhqx_VarB"}}},{"mesh":7,"name":"SM_xfcnebhqx_VarB_LOD3","rotation":[0.7071068286895752,0,0,0.7071068286895752],"scale":[0.009999999776482582,0.009999999776482582,0.009999999776482582],"extras":{"lod":{"index":3,"mesh":"SM_xfcnebhqx_VarB"}}},{"mesh":8,"name":"SM_xfcnebhqx_VarC","rotation":[0.7071068286895752,0,0,0.7071068286895752],"scale":[0.009999999776482582,0.009999999776482582,0.009999999776482582]},{"mesh":9,"name":"SM_xfcnebhqx_VarC_LOD1","rotation":[0.7071068286895752,0,0,0.7071068286895752],"scale":[0.009999999776482582,0.009999999776482582,0.009999999776482582],"extras":{"lod":{"index":1,"mesh":"SM_xfcnebhqx_VarC"}}},{"mesh":10,"name":"SM_xfcnebhqx_VarC_LOD2","rotation":[0.7071068286895752,0,0,0.7071068286895752],"scale":[0.009999999776482582,0.009999999776482582,0.009999999776482582],"extras":{"lod":{"index":2,"mesh":"SM_xfcnebhqx_VarC"}}},{"mesh":11,"name":"SM_xfcnebhqx_VarC_LOD3","rotation":[0.7071068286895752,0,0,0.7071068286895752],"scale":[0.009999999776482582,0.009999999776482582,0.009999999776482582],"extras":{"lod":{"index":3,"mesh":"SM_xfcnebhqx_VarC"}}},{"mesh":12,"name":"SM_xfcnebhqx_VarD","rotation":[0.7071068286895752,0,0,0.7071068286895752],"scale":[0.009999999776482582,0.009999999776482582,0.009999999776482582]},{"mesh":13,"name":"SM_xfcnebhqx_VarD_LOD1","rotation":[0.7071068286895752,0,0,0.7071068286895752],"scale":[0.009999999776482582,0.009999999776482582,0.009999999776482582],"extras":{"lod":{"index":1,"mesh":"SM_xfcnebhqx_VarD"}}},{"mesh":14,"name":"SM_xfcnebhqx_VarD_LOD2","rotation":[0.7071068286895752,0,0,0.7071068286895752],"scale":[0.009999999776482582,0.009999999776482582,0.009999999776482582],"extras":{"lod":{"index":2,"mesh":"SM_xfcnebhqx_VarD"}}},{"mesh":15,"name":"SM_xfcnebhqx_VarD_LOD3","rotation":[0.7071068286895752,0,0,0.7071068286895752],"scale":[0.009999999776482582,0.009999999776482582,0.009999999776482582],"extras":{"lod":{"index":3,"mesh":"SM_xfcnebhqx_VarD"}}},{"mesh":16,"name":"SM_xfcnebhqx_VarE","rotation":[0.7071068286895752,0,0,0.7071068286895752],"scale":[0.009999999776482582,0.009999999776482582,0.009999999776482582]},{"mesh":17,"name":"SM_xfcnebhqx_VarE_LOD1","rotation":[0.7071068286895752,0,0,0.7071068286895752],"scale":[0.009999999776482582,0.009999999776482582,0.009999999776482582],"extras":{"lod":{"index":1,"mesh":"SM_xfcnebhqx_VarE"}}},{"mesh":18,"name":"SM_xfcnebhqx_VarE_LOD2","rotation":[0.7071068286895752,0,0,0.7071068286895752],"scale":[0.009999999776482582,0.009999999776482582,0.009999999776482582],"extras":{"lod":{"index":2,"mesh":"SM_xfcnebhqx_VarE"}}},{"mesh":19,"name":"SM_xfcnebhqx_VarE_LOD3","rotation":[0.7071068286895752,0,0,0.7071068286895752],"scale":[0.009999999776482582,0.009999999776482582,0.009999999776482582],"extras":{"lod":{"index":3,"mesh":"SM_xfcnebhqx_VarE"}}},{"mesh":20,"name":"SM_xfcnebhqx_VarF","rotation":[0.7071068286895752,0,0,0.7071068286895752],"scale":[0.009999999776482582,0.009999999776482582,0.009999999776482582]},{"mesh":21,"name":"SM_xfcnebhqx_VarF_LOD1","rotation":[0.7071068286895752,0,0,0.7071068286895752],"scale":[0.009999999776482582,0.009999999776482582,0.009999999776482582],"extras":{"lod":{"index":1,"mesh":"SM_xfcnebhqx_VarF"}}},{"mesh":22,"name":"SM_xfcnebhqx_VarF_LOD2","rotation":[0.7071068286895752,0,0,0.7071068286895752],"scale":[0.009999999776482582,0.009999999776482582,0.009999999776482582],"extras":{"lod":{"index":2,"mesh":"SM_xfcnebhqx_VarF"}}},{"mesh":23,"name":"SM_xfcnebhqx_VarF_LOD3","rotation":[0.7071068286895752,0,0,0.7071068286895752],"scale":[0.009999999776482582,0.009999999776482582,0.009999999776482582],"extras":{"lod":{"index":3,"mesh":"SM_xfcnebhqx_VarF"}}},{"mesh":24,"name":"SM_xfcnebhqx_VarG","rotation":[0.7071068286895752,0,0,0.7071068286895752],"scale":[0.009999999776482582,0.009999999776482582,0.009999999776482582]},{"mesh":25,"name":"SM_xfcnebhqx_VarG_LOD1","rotation":[0.7071068286895752,0,0,0.7071068286895752],"scale":[0.009999999776482582,0.009999999776482582,0.009999999776482582],"extras":{"lod":{"index":1,"mesh":"SM_xfcnebhqx_VarG"}}},{"mesh":26,"name":"SM_xfcnebhqx_VarG_LOD2","rotation":[0.7071068286895752,0,0,0.7071068286895752],"scale":[0.009999999776482582,0.009999999776482582,0.009999999776482582],"extras":{"lod":{"index":2,"mesh":"SM_xfcnebhqx_VarG"}}},{"mesh":27,"name":"SM_xfcnebhqx_VarG_LOD3","rotation":[0.7071068286895752,0,0,0.7071068286895752],"scale":[0.009999999776482582,0.009999999776482582,0.009999999776482582],"extras":{"lod":{"index":3,"mesh":"SM_xfcnebhqx_VarG"}}},{"mesh":28,"name":"SM_xfcnebhqx_VarH","rotation":[0.7071068286895752,0,0,0.7071068286895752],"scale":[0.009999999776482582,0.009999999776482582,0.009999999776482582]},{"mesh":29,"name":"SM_xfcnebhqx_VarH_LOD1","rotation":[0.7071068286895752,0,0,0.7071068286895752],"scale":[0.009999999776482582,0.009999999776482582,0.009999999776482582],"extras":{"lod":{"index":1,"mesh":"SM_xfcnebhqx_VarH"}}},{"mesh":30,"name":"SM_xfcnebhqx_VarH_LOD2","rotation":[0.7071068286895752,0,0,0.7071068286895752],"scale":[0.009999999776482582,0.009999999776482582,0.009999999776482582],"extras":{"lod":{"index":2,"mesh":"SM_xfcnebhqx_VarH"}}},{"mesh":31,"name":"SM_xfcnebhqx_VarH_LOD3","rotation":[0.7071068286895752,0,0,0.7071068286895752],"scale":[0.009999999776482582,0.009999999776482582,0.009999999776482582],"extras":{"lod":{"index":3,"mesh":"SM_xfcnebhqx_VarH"}}},{"mesh":32,"name":"SM_xfcnebhqx_VarI","rotation":[0.7071068286895752,0,0,0.7071068286895752],"scale":[0.009999999776482582,0.009999999776482582,0.009999999776482582]},{"mesh":33,"name":"SM_xfcnebhqx_VarI_LOD1","rotation":[0.7071068286895752,0,0,0.7071068286895752],"scale":[0.009999999776482582,0.009999999776482582,0.009999999776482582],"extras":{"lod":{"index":1,"mesh":"SM_xfcnebhqx_VarI"}}},{"mesh":34,"name":"SM_xfcnebhqx_VarI_LOD2","rotation":[0.7071068286895752,0,0,0.7071068286895752],"scale":[0.009999999776482582,0.009999999776482582,0.009999999776482582],"extras":{"lod":{"index":2,"mesh":"SM_xfcnebhqx_VarI"}}},{"mesh":35,"name":"SM_xfcnebhqx_VarI_LOD3","rotation":[0.7071068286895752,0,0,0.7071068286895752],"scale":[0.009999999776482582,0.009999999776482582,0.009999999776482582],"extras":{"lod":{"index":3,"mesh":"SM_xfcnebhqx_VarI"}}}],"materials":[{"alphaMode":"MASK","doubleSided":true,"name":"MI_xfcnebhqx","normalTexture":{"index":0},"pbrMetallicRoughness":{"baseColorTexture":{"index":2},"metallicRoughnessTexture":{"index":1},"metallicFactor":0},"extras":{"params":[{"Name":"Normal Strength","Value":1.399999976158142},{"Name":"Roughness Branches","Value":0.699999988079071},{"Name":"Roughness Leaves","Value":0.6700000166893005},{"Name":"Health Offset","Value":7},{"Name":"Tint Leaf Backside","Value":true},{"Name":"Split Translucency Controls","Value":true},{"Name":"use Growth Effect","Value":false},{"Name":"Base Color Controls","Value":[1.100000023841858,1.2999999523162842,1,0]},{"Name":"Base Color Tint Leaf Backside","Value":[0.6039220094680786,0.556863009929657,0.6235290169715881,1]},{"Name":"Base Color Controls Leaf Backside","Value":[0.8500000238418579,1,1,0]},{"Name":"Translucency Tint Leaves","Value":[0.5575780272483826,0.7291669845581055,0.3190099895000458,1]},{"Name":"Translucency Controls Leaves","Value":[1.2000000476837158,8,0.5,0]}]},"alphaCutoff":0.5},{"alphaMode":"MASK","doubleSided":true,"name":"MI_xfcnebhqx_Billboard","normalTexture":{"index":3},"pbrMetallicRoughness":{"baseColorTexture":{"index":4},"metallicFactor":0,"roughnessFactor":0.8},"extras":{"billboardFacingCamera":true,"params":[{"Name":"is Camera Facing Billboard","Value":true},{"Name":"is Billboard","Value":true},{"Name":"Split Translucency Controls","Value":true},{"Name":"Base Color Controls","Value":[1,2,1,0]},{"Name":"Translucency Controls","Value":[1,1,1,0]},{"Name":"Translucency Tint Leaves","Value":[0.699999988079071,1,0.800000011920929,0]},{"Name":"Translucency Controls Leaves","Value":[1.2000000476837158,8,0.800000011920929,0]}]},"alphaCutoff":0.5}],"meshes":[{"name":"SM_xfcnebhqx_VarA","primitives":[{"attributes":{"COLOR_0":0,"POSITION":1,"TEXCOORD_0":2},"indices":3,"material":0}]},{"name":"SM_xfcnebhqx_VarA_LOD1","primitives":[{"attributes":{"COLOR_0":4,"POSITION":5,"TEXCOORD_0":6},"indices":7,"material":0}]},{"name":"SM_xfcnebhqx_VarA_LOD2","primitives":[{"attributes":{"COLOR_0":8,"POSITION":9,"TEXCOORD_0":10},"indices":11,"material":0}]},{"name":"SM_xfcnebhqx_VarA_LOD3","primitives":[{"attributes":{"COLOR_0":12,"POSITION":13,"TEXCOORD_0":14},"indices":15,"material":1}]},{"name":"SM_xfcnebhqx_VarB","primitives":[{"attributes":{"COLOR_0":16,"POSITION":17,"TEXCOORD_0":18},"indices":19,"material":0}]},{"name":"SM_xfcnebhqx_VarB_LOD1","primitives":[{"attributes":{"COLOR_0":20,"POSITION":21,"TEXCOORD_0":22},"indices":23,"material":0}]},{"name":"SM_xfcnebhqx_VarB_LOD2","primitives":[{"attributes":{"COLOR_0":24,"POSITION":25,"TEXCOORD_0":26},"indices":27,"material":0}]},{"name":"SM_xfcnebhqx_VarB_LOD3","primitives":[{"attributes":{"COLOR_0":28,"POSITION":29,"TEXCOORD_0":30},"indices":31,"material":1}]},{"name":"SM_xfcnebhqx_VarC","primitives":[{"attributes":{"COLOR_0":32,"POSITION":33,"TEXCOORD_0":34},"indices":35,"material":0}]},{"name":"SM_xfcnebhqx_VarC_LOD1","primitives":[{"attributes":{"COLOR_0":36,"POSITION":37,"TEXCOORD_0":38},"indices":39,"material":0}]},{"name":"SM_xfcnebhqx_VarC_LOD2","primitives":[{"attributes":{"COLOR_0":40,"POSITION":41,"TEXCOORD_0":42},"indices":43,"material":0}]},{"name":"SM_xfcnebhqx_VarC_LOD3","primitives":[{"attributes":{"COLOR_0":44,"POSITION":45,"TEXCOORD_0":46},"indices":47,"material":1}]},{"name":"SM_xfcnebhqx_VarD","primitives":[{"attributes":{"COLOR_0":48,"POSITION":49,"TEXCOORD_0":50},"indices":51,"material":0}]},{"name":"SM_xfcnebhqx_VarD_LOD1","primitives":[{"attributes":{"COLOR_0":52,"POSITION":53,"TEXCOORD_0":54},"indices":55,"material":0}]},{"name":"SM_xfcnebhqx_VarD_LOD2","primitives":[{"attributes":{"COLOR_0":56,"POSITION":57,"TEXCOORD_0":58},"indices":59,"material":0}]},{"name":"SM_xfcnebhqx_VarD_LOD3","primitives":[{"attributes":{"COLOR_0":60,"POSITION":61,"TEXCOORD_0":62},"indices":63,"material":1}]},{"name":"SM_xfcnebhqx_VarE","primitives":[{"attributes":{"COLOR_0":64,"POSITION":65,"TEXCOORD_0":66},"indices":67,"material":0}]},{"name":"SM_xfcnebhqx_VarE_LOD1","primitives":[{"attributes":{"COLOR_0":68,"POSITION":69,"TEXCOORD_0":70},"indices":71,"material":0}]},{"name":"SM_xfcnebhqx_VarE_LOD2","primitives":[{"attributes":{"COLOR_0":72,"POSITION":73,"TEXCOORD_0":74},"indices":75,"material":0}]},{"name":"SM_xfcnebhqx_VarE_LOD3","primitives":[{"attributes":{"COLOR_0":76,"POSITION":77,"TEXCOORD_0":78},"indices":79,"material":1}]},{"name":"SM_xfcnebhqx_VarF","primitives":[{"attributes":{"COLOR_0":80,"POSITION":81,"TEXCOORD_0":82},"indices":83,"material":0}]},{"name":"SM_xfcnebhqx_VarF_LOD1","primitives":[{"attributes":{"COLOR_0":84,"POSITION":85,"TEXCOORD_0":86},"indices":87,"material":0}]},{"name":"SM_xfcnebhqx_VarF_LOD2","primitives":[{"attributes":{"COLOR_0":88,"POSITION":89,"TEXCOORD_0":90},"indices":91,"material":0}]},{"name":"SM_xfcnebhqx_VarF_LOD3","primitives":[{"attributes":{"COLOR_0":92,"POSITION":93,"TEXCOORD_0":94},"indices":95,"material":1}]},{"name":"SM_xfcnebhqx_VarG","primitives":[{"attributes":{"COLOR_0":96,"POSITION":97,"TEXCOORD_0":98},"indices":99,"material":0}]},{"name":"SM_xfcnebhqx_VarG_LOD1","primitives":[{"attributes":{"COLOR_0":100,"POSITION":101,"TEXCOORD_0":102},"indices":103,"material":0}]},{"name":"SM_xfcnebhqx_VarG_LOD2","primitives":[{"attributes":{"COLOR_0":104,"POSITION":105,"TEXCOORD_0":106},"indices":107,"material":0}]},{"name":"SM_xfcnebhqx_VarG_LOD3","primitives":[{"attributes":{"COLOR_0":108,"POSITION":109,"TEXCOORD_0":110},"indices":111,"material":1}]},{"name":"SM_xfcnebhqx_VarH","primitives":[{"attributes":{"COLOR_0":112,"POSITION":113,"TEXCOORD_0":114},"indices":115,"material":0}]},{"name":"SM_xfcnebhqx_VarH_LOD1","primitives":[{"attributes":{"COLOR_0":116,"POSITION":117,"TEXCOORD_0":118},"indices":119,"material":0}]},{"name":"SM_xfcnebhqx_VarH_LOD2","primitives":[{"attributes":{"COLOR_0":120,"POSITION":121,"TEXCOORD_0":122},"indices":123,"material":0}]},{"name":"SM_xfcnebhqx_VarH_LOD3","primitives":[{"attributes":{"COLOR_0":124,"POSITION":125,"TEXCOORD_0":126},"indices":127,"material":1}]},{"name":"SM_xfcnebhqx_VarI","primitives":[{"attributes":{"COLOR_0":128,"POSITION":129,"TEXCOORD_0":130},"indices":131,"material":0}]},{"name":"SM_xfcnebhqx_VarI_LOD1","primitives":[{"attributes":{"COLOR_0":132,"POSITION":133,"TEXCOORD_0":134},"indices":135,"material":0}]},{"name":"SM_xfcnebhqx_VarI_LOD2","primitives":[{"attributes":{"COLOR_0":136,"POSITION":137,"TEXCOORD_0":138},"indices":139,"material":0}]},{"name":"SM_xfcnebhqx_VarI_LOD3","primitives":[{"attributes":{"COLOR_0":140,"POSITION":141,"TEXCOORD_0":142},"indices":143,"material":1}]}],"textures":[{"sampler":0,"source":0},{"sampler":0,"source":1},{"sampler":0,"source":2},{"sampler":0,"source":3},{"sampler":0,"source":4}],"images":[{"uri":"t0.jpg"},{"uri":"t1.jpg"},{"uri":"t2.png"},{"uri":"t3.png"},{"uri":"t4.png"}],"accessors":[{"bufferView":0,"componentType":5123,"count":18734,"normalized":true,"type":"VEC4"},{"bufferView":1,"componentType":5126,"count":18734,"max":[32.76263427734375,25.93528938293457,0.8381522297859192],"min":[-142.14515686035156,-124.09127807617188,-12.541439056396484],"type":"VEC3"},{"bufferView":2,"componentType":5126,"count":18734,"type":"VEC2"},{"bufferView":3,"componentType":5123,"count":62415,"type":"SCALAR"},{"bufferView":4,"componentType":5123,"count":4529,"normalized":true,"type":"VEC4"},{"bufferView":5,"componentType":5126,"count":4529,"max":[32.832763671875,25.873777389526367,0.8432183265686035],"min":[-142.20970153808594,-123.99085998535156,-12.628939628601074],"type":"VEC3"},{"bufferView":6,"componentType":5126,"count":4529,"type":"VEC2"},{"bufferView":7,"componentType":5123,"count":8169,"type":"SCALAR"},{"bufferView":8,"componentType":5123,"count":3448,"normalized":true,"type":"VEC4"},{"bufferView":9,"componentType":5126,"count":3448,"max":[32.72007751464844,26.033470153808594,0.8432183265686035],"min":[-142.68218994140625,-124.04956817626953,-12.766642570495605],"type":"VEC3"},{"bufferView":10,"componentType":5126,"count":3448,"type":"VEC2"},{"bufferView":11,"componentType":5123,"count":5475,"type":"SCALAR"},{"bufferView":12,"componentType":5123,"count":11,"normalized":true,"type":"VEC4"},{"bufferView":13,"componentType":5126,"count":11,"max":[32.629127502441406,25.968265533447266,0],"min":[-140.95556640625,-123.86538696289062,0],"type":"VEC3"},{"bufferView":14,"componentType":5126,"count":11,"type":"VEC2"},{"bufferView":15,"componentType":5123,"count":27,"type":"SCALAR"},{"bufferView":16,"componentType":5123,"count":1433,"normalized":true,"type":"VEC4"},{"bufferView":17,"componentType":5126,"count":1433,"max":[8.15284538269043,0.3968518376350403,0.018690582364797592],"min":[-9.634389877319336,-2.864694595336914,-73.42399597167969],"type":"VEC3"},{"bufferView":18,"componentType":5126,"count":1433,"type":"VEC2"},{"bufferView":19,"componentType":5123,"count":4692,"type":"SCALAR"},{"bufferView":20,"componentType":5123,"count":396,"normalized":true,"type":"VEC4"},{"bufferView":21,"componentType":5126,"count":396,"max":[8.122672080993652,0.360628217458725,0.04934956505894661],"min":[-9.659390449523926,-2.861788749694824,-73.4210433959961],"type":"VEC3"},{"bufferView":22,"componentType":5126,"count":396,"type":"VEC2"},{"bufferView":23,"componentType":5123,"count":678,"type":"SCALAR"},{"bufferView":24,"componentType":5123,"count":314,"normalized":true,"type":"VEC4"},{"bufferView":25,"componentType":5126,"count":314,"max":[8.124646186828613,0.3367740511894226,0.04716337099671364],"min":[-9.659390449523926,-2.861788749694824,-73.42880249023438],"type":"VEC3"},{"bufferView":26,"componentType":5126,"count":314,"type":"VEC2"},{"bufferView":27,"componentType":5123,"count":495,"type":"SCALAR"},{"bufferView":28,"componentType":5123,"count":8,"normalized":true,"type":"VEC4"},{"bufferView":29,"componentType":5126,"count":8,"max":[8.167767524719238,0,0.015483910217881203],"min":[-9.649621963500977,0,-73.44953155517578],"type":"VEC3"},{"bufferView":30,"componentType":5126,"count":8,"type":"VEC2"},{"bufferView":31,"componentType":5123,"count":18,"type":"SCALAR"},{"bufferView":32,"componentType":5123,"count":2666,"normalized":true,"type":"VEC4"},{"bufferView":33,"componentType":5126,"count":2666,"max":[4.781369209289551,4.928981304168701,0.029739851132035255],"min":[-11.455743789672852,-3.94577693939209,-75.72441864013672],"type":"VEC3"},{"bufferView":34,"componentType":5126,"count":2666,"type":"VEC2"},{"bufferView":35,"componentType":5123,"count":7491,"type":"SCALAR"},{"bufferView":36,"componentType":5123,"count":737,"normalized":true,"type":"VEC4"},{"bufferView":37,"componentType":5126,"count":737,"max":[4.929115295410156,4.995934009552002,0.07830578833818436],"min":[-11.546439170837402,-3.9354681968688965,-75.74771881103516],"type":"VEC3"},{"bufferView":38,"componentType":5126,"count":737,"type":"VEC2"},{"bufferView":39,"componentType":5123,"count":1218,"type":"SCALAR"},{"bufferView":40,"componentType":5123,"count":574,"normalized":true,"type":"VEC4"},{"bufferView":41,"componentType":5126,"count":574,"max":[4.925616264343262,4.967066764831543,0.08038124442100525],"min":[-11.50339126586914,-3.9497499465942383,-75.69830322265625],"type":"VEC3"},{"bufferView":42,"componentType":5126,"count":574,"type":"VEC2"},{"bufferView":43,"componentType":5123,"count":924,"type":"SCALAR"},{"bufferView":44,"componentType":5123,"count":8,"normalized":true,"type":"VEC4"},{"bufferView":45,"componentType":5126,"count":8,"max":[4.767396450042725,0,0.029490120708942413],"min":[-11.505690574645996,0,-75.72968292236328],"type":"VEC3"},{"bufferView":46,"componentType":5126,"count":8,"type":"VEC2"},{"bufferView":47,"componentType":5123,"count":18,"type":"SCALAR"},{"bufferView":48,"componentType":5123,"count":3028,"normalized":true,"type":"VEC4"},{"bufferView":49,"componentType":5126,"count":3028,"max":[7.506150722503662,6.649608135223389,3.119471311569214],"min":[-4.009005546569824,-4.156054973602295,-72.93244171142578],"type":"VEC3"},{"bufferView":50,"componentType":5126,"count":3028,"type":"VEC2"},{"bufferView":51,"componentType":5123,"count":8130,"type":"SCALAR"},{"bufferView":52,"componentType":5123,"count":793,"normalized":true,"type":"VEC4"},{"bufferView":53,"componentType":5126,"count":793,"max":[7.52861213684082,6.683185577392578,3.364704132080078],"min":[-4.18761682510376,-4.144960403442383,-72.92298889160156],"type":"VEC3"},{"bufferView":54,"componentType":5126,"count":793,"type":"VEC2"},{"bufferView":55,"componentType":5123,"count":1311,"type":"SCALAR"},{"bufferView":56,"componentType":5123,"count":612,"normalized":true,"type":"VEC4"},{"bufferView":57,"componentType":5126,"count":612,"max":[7.52861213684082,6.653192043304443,3.3212647438049316],"min":[-4.113544464111328,-4.214715957641602,-72.91925811767578],"type":"VEC3"},{"bufferView":58,"componentType":5126,"count":612,"type":"VEC2"},{"bufferView":59,"componentType":5123,"count":978,"type":"SCALAR"},{"bufferView":60,"componentType":5123,"count":5,"normalized":true,"type":"VEC4"},{"bufferView":61,"componentType":5126,"count":5,"max":[7.515777587890625,0,3.143040418624878],"min":[-4.00680685043335,0,-74.00337982177734],"type":"VEC3"},{"bufferView":62,"componentType":5126,"count":5,"type":"VEC2"},{"bufferView":63,"componentType":5123,"count":9,"type":"SCALAR"},{"bufferView":64,"componentType":5123,"count":6632,"normalized":true,"type":"VEC4"},{"bufferView":65,"componentType":5126,"count":6632,"max":[10.124945640563965,0.010645389556884766,0.5768542885780334],"min":[-75.02161407470703,-111.68793487548828,-11.018580436706543],"type":"VEC3"},{"bufferView":66,"componentType":5126,"count":6632,"type":"VEC2"},{"bufferView":67,"componentType":5123,"count":23883,"type":"SCALAR"},{"bufferView":68,"componentType":5123,"count":1461,"normalized":true,"type":"VEC4"},{"bufferView":69,"componentType":5126,"count":1461,"max":[10.23200798034668,0.02683401107788086,1.0491619110107422],"min":[-75.18573760986328,-111.59407806396484,-11.095808029174805],"type":"VEC3"},{"bufferView":70,"componentType":5126,"count":1461,"type":"VEC2"},{"bufferView":71,"componentType":5123,"count":2736,"type":"SCALAR"},{"bufferView":72,"componentType":5123,"count":1115,"normalized":true,"type":"VEC4"},{"bufferView":73,"componentType":5126,"count":1115,"max":[10.425800323486328,0.028717517852783203,1.118549108505249],"min":[-75.20954895019531,-111.63497161865234,-11.034612655639648],"type":"VEC3"},{"bufferView":74,"componentType":5126,"count":1115,"type":"VEC2"},{"bufferView":75,"componentType":5123,"count":1776,"type":"SCALAR"},{"bufferView":76,"componentType":5123,"count":8,"normalized":true,"type":"VEC4"},{"bufferView":77,"componentType":5126,"count":8,"max":[8.972458839416504,0.020611286163330078,0],"min":[-74.69791412353516,-111.46410369873047,0],"type":"VEC3"},{"bufferView":78,"componentType":5126,"count":8,"type":"VEC2"},{"bufferView":79,"componentType":5123,"count":18,"type":"SCALAR"},{"bufferView":80,"componentType":5123,"count":4390,"normalized":true,"type":"VEC4"},{"bufferView":81,"componentType":5126,"count":4390,"max":[58.887271881103516,18.688587188720703,2.2975549697875977],"min":[-0.30351147055625916,-25.195280075073242,-11.118743896484375],"type":"VEC3"},{"bufferView":82,"componentType":5126,"count":4390,"type":"VEC2"},{"bufferView":83,"componentType":5123,"count":14505,"type":"SCALAR"},{"bufferView":84,"componentType":5123,"count":1053,"normalized":true,"type":"VEC4"},{"bufferView":85,"componentType":5126,"count":1053,"max":[59.33024215698242,18.630903244018555,2.320690631866455],"min":[-0.5706155300140381,-25.204187393188477,-11.094078063964844],"type":"VEC3"},{"bufferView":86,"componentType":5126,"count":1053,"type":"VEC2"},{"bufferView":87,"componentType":5123,"count":1896,"type":"SCALAR"},{"bufferView":88,"componentType":5123,"count":760,"normalized":true,"type":"VEC4"},{"bufferView":89,"componentType":5126,"count":760,"max":[59.094886779785156,18.770214080810547,2.320690631866455],"min":[-0.5701270699501038,-25.573978424072266,-11.099918365478516],"type":"VEC3"},{"bufferView":90,"componentType":5126,"count":760,"type":"VEC2"},{"bufferView":91,"componentType":5123,"count":1236,"type":"SCALAR"},{"bufferView":92,"componentType":5123,"count":7,"normalized":true,"type":"VEC4"},{"bufferView":93,"componentType":5126,"count":7,"max":[58.9034423828125,18.726835250854492,0],"min":[-0.16885367035865784,-25.192880630493164,0],"type":"VEC3"},{"bufferView":94,"componentType":5126,"count":7,"type":"VEC2"},{"bufferView":95,"componentType":5123,"count":15,"type":"SCALAR"},{"bufferView":96,"componentType":5123,"count":2570,"normalized":true,"type":"VEC4"},{"bufferView":97,"componentType":5126,"count":2570,"max":[62.47233200073242,0.032770633697509766,2.2964072227478027],"min":[-0.704005241394043,-30.43718910217285,-11.11825180053711],"type":"VEC3"},{"bufferView":98,"componentType":5126,"count":2570,"type":"VEC2"},{"bufferView":99,"componentType":5123,"count":8238,"type":"SCALAR"},{"bufferView":100,"componentType":5123,"count":633,"normalized":true,"type":"VEC4"},{"bufferView":101,"componentType":5126,"count":633,"max":[62.912296295166016,0.08935332298278809,2.3195364475250244],"min":[-0.7457433342933655,-30.651737213134766,-11.096308708190918],"type":"VEC3"},{"bufferView":102,"componentType":5126,"count":633,"type":"VEC2"},{"bufferView":103,"componentType":5123,"count":1119,"type":"SCALAR"},{"bufferView":104,"componentType":5123,"count":452,"normalized":true,"type":"VEC4"},{"bufferView":105,"componentType":5126,"count":452,"max":[62.56486129760742,0.08713304996490479,2.3195364475250244],"min":[-0.5647125840187073,-30.70014762878418,-11.107175827026367],"type":"VEC3"},{"bufferView":106,"componentType":5126,"count":452,"type":"VEC2"},{"bufferView":107,"componentType":5123,"count":738,"type":"SCALAR"},{"bufferView":108,"componentType":5123,"count":7,"normalized":true,"type":"VEC4"},{"bufferView":109,"componentType":5126,"count":7,"max":[62.40279769897461,0.029611587524414062,0],"min":[-0.666588544845581,-29.75267791748047,0],"type":"VEC3"},{"bufferView":110,"componentType":5126,"count":7,"type":"VEC2"},{"bufferView":111,"componentType":5123,"count":15,"type":"SCALAR"},{"bufferView":112,"componentType":5123,"count":1175,"normalized":true,"type":"VEC4"},{"bufferView":113,"componentType":5126,"count":1175,"max":[2.693025827407837,18.742700576782227,0.8785589337348938],"min":[-16.990615844726562,-14.379204750061035,-11.86708927154541],"type":"VEC3"},{"bufferView":114,"componentType":5126,"count":1175,"type":"VEC2"},{"bufferView":115,"componentType":5123,"count":4260,"type":"SCALAR"},{"bufferView":116,"componentType":5123,"count":283,"normalized":true,"type":"VEC4"},{"bufferView":117,"componentType":5126,"count":283,"max":[2.6790499687194824,19.002147674560547,0.6866627335548401],"min":[-16.91391372680664,-14.849419593811035,-11.607495307922363],"type":"VEC3"},{"bufferView":118,"componentType":5126,"count":283,"type":"VEC2"},{"bufferView":119,"componentType":5123,"count":492,"type":"SCALAR"},{"bufferView":120,"componentType":5123,"count":189,"normalized":true,"type":"VEC4"},{"bufferView":121,"componentType":5126,"count":189,"max":[2.707634925842285,19.054153442382812,0.6613012552261353],"min":[-16.91681480407715,-14.591428756713867,-11.645182609558105],"type":"VEC3"},{"bufferView":122,"componentType":5126,"count":189,"type":"VEC2"},{"bufferView":123,"componentType":5123,"count":288,"type":"SCALAR"},{"bufferView":124,"componentType":5123,"count":8,"normalized":true,"type":"VEC4"},{"bufferView":125,"componentType":5126,"count":8,"max":[2.555838108062744,18.788209915161133,0],"min":[-16.7801570892334,-14.003799438476562,0],"type":"VEC3"},{"bufferView":126,"componentType":5126,"count":8,"type":"VEC2"},{"bufferView":127,"componentType":5123,"count":18,"type":"SCALAR"},{"bufferView":128,"componentType":5123,"count":420,"normalized":true,"type":"VEC4"},{"bufferView":129,"componentType":5126,"count":420,"max":[6.362958908081055,10.560078620910645,0.39543700218200684],"min":[-7.726093292236328,-6.938966274261475,-18.516006469726562],"type":"VEC3"},{"bufferView":130,"componentType":5126,"count":420,"type":"VEC2"},{"bufferView":131,"componentType":5123,"count":1308,"type":"SCALAR"},{"bufferView":132,"componentType":5123,"count":110,"normalized":true,"type":"VEC4"},{"bufferView":133,"componentType":5126,"count":110,"max":[6.2730231285095215,10.685935020446777,0.3875742554664612],"min":[-7.737834930419922,-7.025317668914795,-18.46678924560547],"type":"VEC3"},{"bufferView":134,"componentType":5126,"count":110,"type":"VEC2"},{"bufferView":135,"componentType":5123,"count":192,"type":"SCALAR"},{"bufferView":136,"componentType":5123,"count":75,"normalized":true,"type":"VEC4"},{"bufferView":137,"componentType":5126,"count":75,"max":[6.368086338043213,10.7355318069458,0.48353415727615356],"min":[-8.47042465209961,-7.082400321960449,-18.46737289428711],"type":"VEC3"},{"bufferView":138,"componentType":5126,"count":75,"type":"VEC2"},{"bufferView":139,"componentType":5123,"count":123,"type":"SCALAR"},{"bufferView":140,"componentType":5123,"count":6,"normalized":true,"type":"VEC4"},{"bufferView":141,"componentType":5126,"count":6,"max":[6.382631301879883,10.57544231414795,0],"min":[-7.651843070983887,-5.8848557472229,0],"type":"VEC3"},{"bufferView":142,"componentType":5126,"count":6,"type":"VEC2"},{"bufferView":143,"componentType":5123,"count":12,"type":"SCALAR"}],"bufferViews":[{"buffer":0,"byteLength":149872,"byteOffset":0,"target":34962},{"buffer":0,"byteLength":224808,"byteOffset":149872,"target":34962},{"buffer":0,"byteLength":149872,"byteOffset":374680,"target":34962},{"buffer":0,"byteLength":124830,"byteOffset":524552,"target":34963},{"buffer":0,"byteLength":36232,"byteOffset":649384,"target":34962},{"buffer":0,"byteLength":54348,"byteOffset":685616,"target":34962},{"buffer":0,"byteLength":36232,"byteOffset":739964,"target":34962},{"buffer":0,"byteLength":16338,"byteOffset":776196,"target":34963},{"buffer":0,"byteLength":27584,"byteOffset":792536,"target":34962},{"buffer":0,"byteLength":41376,"byteOffset":820120,"target":34962},{"buffer":0,"byteLength":27584,"byteOffset":861496,"target":34962},{"buffer":0,"byteLength":10950,"byteOffset":889080,"target":34963},{"buffer":0,"byteLength":88,"byteOffset":900032,"target":34962},{"buffer":0,"byteLength":132,"byteOffset":900120,"target":34962},{"buffer":0,"byteLength":88,"byteOffset":900252,"target":34962},{"buffer":0,"byteLength":54,"byteOffset":900340,"target":34963},{"buffer":0,"byteLength":11464,"byteOffset":900396,"target":34962},{"buffer":0,"byteLength":17196,"byteOffset":911860,"target":34962},{"buffer":0,"byteLength":11464,"byteOffset":929056,"target":34962},{"buffer":0,"byteLength":9384,"byteOffset":940520,"target":34963},{"buffer":0,"byteLength":3168,"byteOffset":949904,"target":34962},{"buffer":0,"byteLength":4752,"byteOffset":953072,"target":34962},{"buffer":0,"byteLength":3168,"byteOffset":957824,"target":34962},{"buffer":0,"byteLength":1356,"byteOffset":960992,"target":34963},{"buffer":0,"byteLength":2512,"byteOffset":962348,"target":34962},{"buffer":0,"byteLength":3768,"byteOffset":964860,"target":34962},{"buffer":0,"byteLength":2512,"byteOffset":968628,"target":34962},{"buffer":0,"byteLength":990,"byteOffset":971140,"target":34963},{"buffer":0,"byteLength":64,"byteOffset":972132,"target":34962},{"buffer":0,"byteLength":96,"byteOffset":972196,"target":34962},{"buffer":0,"byteLength":64,"byteOffset":972292,"target":34962},{"buffer":0,"byteLength":36,"byteOffset":972356,"target":34963},{"buffer":0,"byteLength":21328,"byteOffset":972392,"target":34962},{"buffer":0,"byteLength":31992,"byteOffset":993720,"target":34962},{"buffer":0,"byteLength":21328,"byteOffset":1025712,"target":34962},{"buffer":0,"byteLength":14982,"byteOffset":1047040,"target":34963},{"buffer":0,"byteLength":5896,"byteOffset":1062024,"target":34962},{"buffer":0,"byteLength":8844,"byteOffset":1067920,"target":34962},{"buffer":0,"byteLength":5896,"byteOffset":1076764,"target":34962},{"buffer":0,"byteLength":2436,"byteOffset":1082660,"target":34963},{"buffer":0,"byteLength":4592,"byteOffset":1085096,"target":34962},{"buffer":0,"byteLength":6888,"byteOffset":1089688,"target":34962},{"buffer":0,"byteLength":4592,"byteOffset":1096576,"target":34962},{"buffer":0,"byteLength":1848,"byteOffset":1101168,"target":34963},{"buffer":0,"byteLength":64,"byteOffset":1103016,"target":34962},{"buffer":0,"byteLength":96,"byteOffset":1103080,"target":34962},{"buffer":0,"byteLength":64,"byteOffset":1103176,"target":34962},{"buffer":0,"byteLength":36,"byteOffset":1103240,"target":34963},{"buffer":0,"byteLength":24224,"byteOffset":1103276,"target":34962},{"buffer":0,"byteLength":36336,"byteOffset":1127500,"target":34962},{"buffer":0,"byteLength":24224,"byteOffset":1163836,"target":34962},{"buffer":0,"byteLength":16260,"byteOffset":1188060,"target":34963},{"buffer":0,"byteLength":6344,"byteOffset":1204320,"target":34962},{"buffer":0,"byteLength":9516,"byteOffset":1210664,"target":34962},{"buffer":0,"byteLength":6344,"byteOffset":1220180,"target":34962},{"buffer":0,"byteLength":2622,"byteOffset":1226524,"target":34963},{"buffer":0,"byteLength":4896,"byteOffset":1229148,"target":34962},{"buffer":0,"byteLength":7344,"byteOffset":1234044,"target":34962},{"buffer":0,"byteLength":4896,"byteOffset":1241388,"target":34962},{"buffer":0,"byteLength":1956,"byteOffset":1246284,"target":34963},{"buffer":0,"byteLength":40,"byteOffset":1248240,"target":34962},{"buffer":0,"byteLength":60,"byteOffset":1248280,"target":34962},{"buffer":0,"byteLength":40,"byteOffset":1248340,"target":34962},{"buffer":0,"byteLength":18,"byteOffset":1248380,"target":34963},{"buffer":0,"byteLength":53056,"byteOffset":1248400,"target":34962},{"buffer":0,"byteLength":79584,"byteOffset":1301456,"target":34962},{"buffer":0,"byteLength":53056,"byteOffset":1381040,"target":34962},{"buffer":0,"byteLength":47766,"byteOffset":1434096,"target":34963},{"buffer":0,"byteLength":11688,"byteOffset":1481864,"target":34962},{"buffer":0,"byteLength":17532,"byteOffset":1493552,"target":34962},{"buffer":0,"byteLength":11688,"byteOffset":1511084,"target":34962},{"buffer":0,"byteLength":5472,"byteOffset":1522772,"target":34963},{"buffer":0,"byteLength":8920,"byteOffset":1528244,"target":34962},{"buffer":0,"byteLength":13380,"byteOffset":1537164,"target":34962},{"buffer":0,"byteLength":8920,"byteOffset":1550544,"target":34962},{"buffer":0,"byteLength":3552,"byteOffset":1559464,"target":34963},{"buffer":0,"byteLength":64,"byteOffset":1563016,"target":34962},{"buffer":0,"byteLength":96,"byteOffset":1563080,"target":34962},{"buffer":0,"byteLength":64,"byteOffset":1563176,"target":34962},{"buffer":0,"byteLength":36,"byteOffset":1563240,"target":34963},{"buffer":0,"byteLength":35120,"byteOffset":1563276,"target":34962},{"buffer":0,"byteLength":52680,"byteOffset":1598396,"target":34962},{"buffer":0,"byteLength":35120,"byteOffset":1651076,"target":34962},{"buffer":0,"byteLength":29010,"byteOffset":1686196,"target":34963},{"buffer":0,"byteLength":8424,"byteOffset":1715208,"target":34962},{"buffer":0,"byteLength":12636,"byteOffset":1723632,"target":34962},{"buffer":0,"byteLength":8424,"byteOffset":1736268,"target":34962},{"buffer":0,"byteLength":3792,"byteOffset":1744692,"target":34963},{"buffer":0,"byteLength":6080,"byteOffset":1748484,"target":34962},{"buffer":0,"byteLength":9120,"byteOffset":1754564,"target":34962},{"buffer":0,"byteLength":6080,"byteOffset":1763684,"target":34962},{"buffer":0,"byteLength":2472,"byteOffset":1769764,"target":34963},{"buffer":0,"byteLength":56,"byteOffset":1772236,"target":34962},{"buffer":0,"byteLength":84,"byteOffset":1772292,"target":34962},{"buffer":0,"byteLength":56,"byteOffset":1772376,"target":34962},{"buffer":0,"byteLength":30,"byteOffset":1772432,"target":34963},{"buffer":0,"byteLength":20560,"byteOffset":1772464,"target":34962},{"buffer":0,"byteLength":30840,"byteOffset":1793024,"target":34962},{"buffer":0,"byteLength":20560,"byteOffset":1823864,"target":34962},{"buffer":0,"byteLength":16476,"byteOffset":1844424,"target":34963},{"buffer":0,"byteLength":5064,"byteOffset":1860900,"target":34962},{"buffer":0,"byteLength":7596,"byteOffset":1865964,"target":34962},{"buffer":0,"byteLength":5064,"byteOffset":1873560,"target":34962},{"buffer":0,"byteLength":2238,"byteOffset":1878624,"target":34963},{"buffer":0,"byteLength":3616,"byteOffset":1880864,"target":34962},{"buffer":0,"byteLength":5424,"byteOffset":1884480,"target":34962},{"buffer":0,"byteLength":3616,"byteOffset":1889904,"target":34962},{"buffer":0,"byteLength":1476,"byteOffset":1893520,"target":34963},{"buffer":0,"byteLength":56,"byteOffset":1894996,"target":34962},{"buffer":0,"byteLength":84,"byteOffset":1895052,"target":34962},{"buffer":0,"byteLength":56,"byteOffset":1895136,"target":34962},{"buffer":0,"byteLength":30,"byteOffset":1895192,"target":34963},{"buffer":0,"byteLength":9400,"byteOffset":1895224,"target":34962},{"buffer":0,"byteLength":14100,"byteOffset":1904624,"target":34962},{"buffer":0,"byteLength":9400,"byteOffset":1918724,"target":34962},{"buffer":0,"byteLength":8520,"byteOffset":1928124,"target":34963},{"buffer":0,"byteLength":2264,"byteOffset":1936644,"target":34962},{"buffer":0,"byteLength":3396,"byteOffset":1938908,"target":34962},{"buffer":0,"byteLength":2264,"byteOffset":1942304,"target":34962},{"buffer":0,"byteLength":984,"byteOffset":1944568,"target":34963},{"buffer":0,"byteLength":1512,"byteOffset":1945552,"target":34962},{"buffer":0,"byteLength":2268,"byteOffset":1947064,"target":34962},{"buffer":0,"byteLength":1512,"byteOffset":1949332,"target":34962},{"buffer":0,"byteLength":576,"byteOffset":1950844,"target":34963},{"buffer":0,"byteLength":64,"byteOffset":1951420,"target":34962},{"buffer":0,"byteLength":96,"byteOffset":1951484,"target":34962},{"buffer":0,"byteLength":64,"byteOffset":1951580,"target":34962},{"buffer":0,"byteLength":36,"byteOffset":1951644,"target":34963},{"buffer":0,"byteLength":3360,"byteOffset":1951680,"target":34962},{"buffer":0,"byteLength":5040,"byteOffset":1955040,"target":34962},{"buffer":0,"byteLength":3360,"byteOffset":1960080,"target":34962},{"buffer":0,"byteLength":2616,"byteOffset":1963440,"target":34963},{"buffer":0,"byteLength":880,"byteOffset":1966056,"target":34962},{"buffer":0,"byteLength":1320,"byteOffset":1966936,"target":34962},{"buffer":0,"byteLength":880,"byteOffset":1968256,"target":34962},{"buffer":0,"byteLength":384,"byteOffset":1969136,"target":34963},{"buffer":0,"byteLength":600,"byteOffset":1969520,"target":34962},{"buffer":0,"byteLength":900,"byteOffset":1970120,"target":34962},{"buffer":0,"byteLength":600,"byteOffset":1971020,"target":34962},{"buffer":0,"byteLength":246,"byteOffset":1971620,"target":34963},{"buffer":0,"byteLength":48,"byteOffset":1971868,"target":34962},{"buffer":0,"byteLength":72,"byteOffset":1971916,"target":34962},{"buffer":0,"byteLength":48,"byteOffset":1971988,"target":34962},{"buffer":0,"byteLength":24,"byteOffset":1972036,"target":34963}],"samplers":[{"magFilter":9729,"minFilter":9987}],"buffers":[{"byteLength":1972060,"uri":"model.bin"}],"extras":{"tier":2}}