{"asset": {"generator": "Khronos glTF Blender I/O v4.4.56", "version": "2.0"}, "scene": 0, "scenes": [{"name": "Scene", "nodes": [0, 1, 2, 3, 4, 5]}], "nodes": [{"mesh": 0, "name": "coffee_flask", "translation": [0, 0, 0.4353030323982239]}, {"mesh": 1, "name": "cup", "translation": [0, 0, -0.5499505996704102]}, {"mesh": 2, "name": "plate", "translation": [2.9802322387695312e-06, 0, -0.27190884947776794]}, {"mesh": 3, "name": "wooden_spoon", "translation": [-0.10291771590709686, -0.005655013024806976, 0.39931750297546387]}, {"mesh": 4, "name": "spoon", "translation": [0.072858527302742, 0.005796860437840223, 0.2614496946334839]}, {"mesh": 5, "name": "fork", "translation": [0.021522246301174164, 0.01107589527964592, 0.26331865787506104]}], "materials": [{"doubleSided": true, "name": "coffee_flask", "normalTexture": {"index": 0}, "pbrMetallicRoughness": {"baseColorTexture": {"index": 1}, "metallicRoughnessTexture": {"index": 2}}}, {"doubleSided": true, "name": "dinnerware", "normalTexture": {"index": 3}, "pbrMetallicRoughness": {"baseColorTexture": {"index": 4}, "metallicRoughnessTexture": {"index": 5}}}], "meshes": [{"name": "coffee_flask", "primitives": [{"attributes": {"POSITION": 0, "NORMAL": 1, "TEXCOORD_0": 2}, "indices": 3, "material": 0}]}, {"name": "cup", "primitives": [{"attributes": {"POSITION": 4, "NORMAL": 5, "TEXCOORD_0": 6}, "indices": 7, "material": 1}]}, {"name": "plate", "primitives": [{"attributes": {"POSITION": 8, "NORMAL": 9, "TEXCOORD_0": 10}, "indices": 11, "material": 1}]}, {"name": "wooden_spoon", "primitives": [{"attributes": {"POSITION": 12, "NORMAL": 13, "TEXCOORD_0": 14}, "indices": 15, "material": 1}]}, {"name": "spoon", "primitives": [{"attributes": {"POSITION": 16, "NORMAL": 17, "TEXCOORD_0": 18}, "indices": 19, "material": 1}]}, {"name": "fork", "primitives": [{"attributes": {"POSITION": 20, "NORMAL": 21, "TEXCOORD_0": 22}, "indices": 23, "material": 1}]}], "textures": [{"sampler": 0, "source": 0}, {"sampler": 0, "source": 1}, {"sampler": 0, "source": 2}, {"sampler": 0, "source": 3}, {"sampler": 0, "source": 4}, {"sampler": 0, "source": 5}], "images": [{"mimeType": "image/png", "name": "coffee_flask_Normal_GL", "uri": "coffee_flask_Normal_GL.png"}, {"mimeType": "image/png", "name": "coffee_flask_BaseColor", "uri": "coffee_flask_BaseColor.png"}, {"mimeType": "image/png", "name": "coffee_flask_Metallic-coffee_flask_Roughness", "uri": "coffee_flask_Metallic-coffee_flask_Roughness.png"}, {"mimeType": "image/png", "name": "dinnerware_Normal_GL", "uri": "dinnerware_Normal_GL.png"}, {"mimeType": "image/png", "name": "dinnerware_BaseColor", "uri": "dinnerware_BaseColor.png"}, {"mimeType": "image/png", "name": "dinnerware_Metallic-dinnerware_Roughness", "uri": "dinnerware_Metallic-dinnerware_Roughness.png"}], "accessors": [{"bufferView": 0, "componentType": 5126, "count": 676, "max": [0.03999999910593033, 0.3190058171749115, 0.03999999910593033], "min": [-0.03999999910593033, -6.434972110724857e-09, -0.04000000283122063], "type": "VEC3"}, {"bufferView": 1, "componentType": 5126, "count": 676, "type": "VEC3"}, {"bufferView": 2, "componentType": 5126, "count": 676, "type": "VEC2"}, {"bufferView": 3, "componentType": 5123, "count": 2688, "type": "SCALAR"}, {"bufferView": 4, "componentType": 5126, "count": 504, "max": [0.058431606739759445, 0.15803496539592743, 0.058431584388017654], "min": [-0.058431610465049744, -7.103492460913685e-09, -0.05843163654208183], "type": "VEC3"}, {"bufferView": 5, "componentType": 5126, "count": 504, "type": "VEC3"}, {"bufferView": 6, "componentType": 5126, "count": 504, "type": "VEC2"}, {"bufferView": 7, "componentType": 5123, "count": 1920, "type": "SCALAR"}, {"bufferView": 8, "componentType": 5126, "count": 906, "max": [0.15265174210071564, 0.0433698445558548, 0.15286287665367126], "min": [-0.15307457745075226, -3.310432475700509e-06, -0.1528633087873459], "type": "VEC3"}, {"bufferView": 9, "componentType": 5126, "count": 906, "type": "VEC3"}, {"bufferView": 10, "componentType": 5126, "count": 906, "type": "VEC2"}, {"bufferView": 11, "componentType": 5123, "count": 3072, "type": "SCALAR"}, {"bufferView": 12, "componentType": 5126, "count": 270, "max": [0.043031007051467896, 0.005655194167047739, 6.580148648183126e-10], "min": [-0.043031007051467896, -0.017380738630890846, -0.4565843343734741], "type": "VEC3"}, {"bufferView": 13, "componentType": 5126, "count": 270, "type": "VEC3"}, {"bufferView": 14, "componentType": 5126, "count": 270, "type": "VEC2"}, {"bufferView": 15, "componentType": 5123, "count": 822, "type": "SCALAR"}, {"bufferView": 16, "componentType": 5126, "count": 369, "max": [0.02131466567516327, 0.0016107744304463267, 1.4781900972593576e-05], "min": [-0.02131466567516327, -0.022616812959313393, -0.2049199342727661], "type": "VEC3"}, {"bufferView": 17, "componentType": 5126, "count": 369, "type": "VEC3"}, {"bufferView": 18, "componentType": 5126, "count": 369, "type": "VEC2"}, {"bufferView": 19, "componentType": 5123, "count": 1248, "type": "SCALAR"}, {"bufferView": 20, "componentType": 5126, "count": 483, "max": [0.011409588158130646, 0.0011317700846120715, 3.707398354890756e-05], "min": [-0.01141020655632019, -0.011075754649937153, -0.202789306640625], "type": "VEC3"}, {"bufferView": 21, "componentType": 5126, "count": 483, "type": "VEC3"}, {"bufferView": 22, "componentType": 5126, "count": 483, "type": "VEC2"}, {"bufferView": 23, "componentType": 5123, "count": 1260, "type": "SCALAR"}], "bufferViews": [{"buffer": 0, "byteLength": 8112, "byteOffset": 0, "target": 34962}, {"buffer": 0, "byteLength": 8112, "byteOffset": 8112, "target": 34962}, {"buffer": 0, "byteLength": 5408, "byteOffset": 16224, "target": 34962}, {"buffer": 0, "byteLength": 5376, "byteOffset": 21632, "target": 34963}, {"buffer": 0, "byteLength": 6048, "byteOffset": 27008, "target": 34962}, {"buffer": 0, "byteLength": 6048, "byteOffset": 33056, "target": 34962}, {"buffer": 0, "byteLength": 4032, "byteOffset": 39104, "target": 34962}, {"buffer": 0, "byteLength": 3840, "byteOffset": 43136, "target": 34963}, {"buffer": 0, "byteLength": 10872, "byteOffset": 46976, "target": 34962}, {"buffer": 0, "byteLength": 10872, "byteOffset": 57848, "target": 34962}, {"buffer": 0, "byteLength": 7248, "byteOffset": 68720, "target": 34962}, {"buffer": 0, "byteLength": 6144, "byteOffset": 75968, "target": 34963}, {"buffer": 0, "byteLength": 3240, "byteOffset": 82112, "target": 34962}, {"buffer": 0, "byteLength": 3240, "byteOffset": 85352, "target": 34962}, {"buffer": 0, "byteLength": 2160, "byteOffset": 88592, "target": 34962}, {"buffer": 0, "byteLength": 1644, "byteOffset": 90752, "target": 34963}, {"buffer": 0, "byteLength": 4428, "byteOffset": 92396, "target": 34962}, {"buffer": 0, "byteLength": 4428, "byteOffset": 96824, "target": 34962}, {"buffer": 0, "byteLength": 2952, "byteOffset": 101252, "target": 34962}, {"buffer": 0, "byteLength": 2496, "byteOffset": 104204, "target": 34963}, {"buffer": 0, "byteLength": 5796, "byteOffset": 106700, "target": 34962}, {"buffer": 0, "byteLength": 5796, "byteOffset": 112496, "target": 34962}, {"buffer": 0, "byteLength": 3864, "byteOffset": 118292, "target": 34962}, {"buffer": 0, "byteLength": 2520, "byteOffset": 122156, "target": 34963}], "samplers": [{"magFilter": 9729, "minFilter": 9987}], "buffers": [{"byteLength": 124676, "uri": "model.bin"}]}