{"asset": {"generator": "Khronos glTF Blender I/O v3.6.27", "version": "2.0"}, "scene": 0, "scenes": [{"name": "Scene", "nodes": [0, 1, 2, 3, 4, 5, 6, 7, 8, 9, 10, 11, 12, 13, 14, 15, 16, 17, 18, 19, 20, 21, 22, 23, 24, 25, 26, 27]}], "nodes": [{"mesh": 0, "name": "SM_wfzobb2ia_VarA", "rotation": [0.7071068286895752, 0, 0, 0.7071068286895752], "scale": [0.009999999776482582, 0.009999999776482582, 0.009999999776482582]}, {"mesh": 1, "name": "SM_wfzobb2ia_VarA_LOD1", "rotation": [0.7071068286895752, 0, 0, 0.7071068286895752], "scale": [0.009999999776482582, 0.009999999776482582, 0.009999999776482582], "extras": {"lod": {"index": 1, "mesh": "SM_wfzobb2ia_VarA"}}}, {"mesh": 2, "name": "SM_wfzobb2ia_VarA_LOD2", "rotation": [0.7071068286895752, 0, 0, 0.7071068286895752], "scale": [0.009999999776482582, 0.009999999776482582, 0.009999999776482582], "extras": {"lod": {"index": 2, "mesh": "SM_wfzobb2ia_VarA"}}}, {"mesh": 3, "name": "SM_wfzobb2ia_VarA_LOD3", "rotation": [0.7071068286895752, 0, 0, 0.7071068286895752], "scale": [0.009999999776482582, 0.009999999776482582, 0.009999999776482582], "extras": {"lod": {"index": 3, "mesh": "SM_wfzobb2ia_VarA"}}}, {"mesh": 4, "name": "SM_wfzobb2ia_VarB", "rotation": [0.7071068286895752, 0, 0, 0.7071068286895752], "scale": [0.009999999776482582, 0.009999999776482582, 0.009999999776482582]}, {"mesh": 5, "name": "SM_wfzobb2ia_VarB_LOD1", "rotation": [0.7071068286895752, 0, 0, 0.7071068286895752], "scale": [0.009999999776482582, 0.009999999776482582, 0.009999999776482582], "extras": {"lod": {"index": 1, "mesh": "SM_wfzobb2ia_VarB"}}}, {"mesh": 6, "name": "SM_wfzobb2ia_VarB_LOD2", "rotation": [0.7071068286895752, 0, 0, 0.7071068286895752], "scale": [0.009999999776482582, 0.009999999776482582, 0.009999999776482582], "extras": {"lod": {"index": 2, "mesh": "SM_wfzobb2ia_VarB"}}}, {"mesh": 7, "name": "SM_wfzobb2ia_VarB_LOD3", "rotation": [0.7071068286895752, 0, 0, 0.7071068286895752], "scale": [0.009999999776482582, 0.009999999776482582, 0.009999999776482582], "extras": {"lod": {"index": 3, "mesh": "SM_wfzobb2ia_VarB"}}}, {"mesh": 8, "name": "SM_wfzobb2ia_VarC", "rotation": [0.7071068286895752, 0, 0, 0.7071068286895752], "scale": [0.009999999776482582, 0.009999999776482582, 0.009999999776482582]}, {"mesh": 9, "name": "SM_wfzobb2ia_VarC_LOD1", "rotation": [0.7071068286895752, 0, 0, 0.7071068286895752], "scale": [0.009999999776482582, 0.009999999776482582, 0.009999999776482582], "extras": {"lod": {"index": 1, "mesh": "SM_wfzobb2ia_VarC"}}}, {"mesh": 10, "name": "SM_wfzobb2ia_VarC_LOD2", "rotation": [0.7071068286895752, 0, 0, 0.7071068286895752], "scale": [0.009999999776482582, 0.009999999776482582, 0.009999999776482582], "extras": {"lod": {"index": 2, "mesh": "SM_wfzobb2ia_VarC"}}}, {"mesh": 11, "name": "SM_wfzobb2ia_VarC_LOD3", "rotation": [0.7071068286895752, 0, 0, 0.7071068286895752], "scale": [0.009999999776482582, 0.009999999776482582, 0.009999999776482582], "extras": {"lod": {"index": 3, "mesh": "SM_wfzobb2ia_VarC"}}}, {"mesh": 12, "name": "SM_wfzobb2ia_VarD", "rotation": [0.7071068286895752, 0, 0, 0.7071068286895752], "scale": [0.009999999776482582, 0.009999999776482582, 0.009999999776482582]}, {"mesh": 13, "name": "SM_wfzobb2ia_VarD_LOD1", "rotation": [0.7071068286895752, 0, 0, 0.7071068286895752], "scale": [0.009999999776482582, 0.009999999776482582, 0.009999999776482582], "extras": {"lod": {"index": 1, "mesh": "SM_wfzobb2ia_VarD"}}}, {"mesh": 14, "name": "SM_wfzobb2ia_VarD_LOD2", "rotation": [0.7071068286895752, 0, 0, 0.7071068286895752], "scale": [0.009999999776482582, 0.009999999776482582, 0.009999999776482582], "extras": {"lod": {"index": 2, "mesh": "SM_wfzobb2ia_VarD"}}}, {"mesh": 15, "name": "SM_wfzobb2ia_VarD_LOD3", "rotation": [0.7071068286895752, 0, 0, 0.7071068286895752], "scale": [0.009999999776482582, 0.009999999776482582, 0.009999999776482582], "extras": {"lod": {"index": 3, "mesh": "SM_wfzobb2ia_VarD"}}}, {"mesh": 16, "name": "SM_wfzobb2ia_VarE", "rotation": [0.7071068286895752, 0, 0, 0.7071068286895752], "scale": [0.009999999776482582, 0.009999999776482582, 0.009999999776482582]}, {"mesh": 17, "name": "SM_wfzobb2ia_VarE_LOD1", "rotation": [0.7071068286895752, 0, 0, 0.7071068286895752], "scale": [0.009999999776482582, 0.009999999776482582, 0.009999999776482582], "extras": {"lod": {"index": 1, "mesh": "SM_wfzobb2ia_VarE"}}}, {"mesh": 18, "name": "SM_wfzobb2ia_VarE_LOD2", "rotation": [0.7071068286895752, 0, 0, 0.7071068286895752], "scale": [0.009999999776482582, 0.009999999776482582, 0.009999999776482582], "extras": {"lod": {"index": 2, "mesh": "SM_wfzobb2ia_VarE"}}}, {"mesh": 19, "name": "SM_wfzobb2ia_VarE_LOD3", "rotation": [0.7071068286895752, 0, 0, 0.7071068286895752], "scale": [0.009999999776482582, 0.009999999776482582, 0.009999999776482582], "extras": {"lod": {"index": 3, "mesh": "SM_wfzobb2ia_VarE"}}}, {"mesh": 20, "name": "SM_wfzobb2ia_VarF", "rotation": [0.7071068286895752, 0, 0, 0.7071068286895752], "scale": [0.009999999776482582, 0.009999999776482582, 0.009999999776482582]}, {"mesh": 21, "name": "SM_wfzobb2ia_VarF_LOD1", "rotation": [0.7071068286895752, 0, 0, 0.7071068286895752], "scale": [0.009999999776482582, 0.009999999776482582, 0.009999999776482582], "extras": {"lod": {"index": 1, "mesh": "SM_wfzobb2ia_VarF"}}}, {"mesh": 22, "name": "SM_wfzobb2ia_VarF_LOD2", "rotation": [0.7071068286895752, 0, 0, 0.7071068286895752], "scale": [0.009999999776482582, 0.009999999776482582, 0.009999999776482582], "extras": {"lod": {"index": 2, "mesh": "SM_wfzobb2ia_VarF"}}}, {"mesh": 23, "name": "SM_wfzobb2ia_VarF_LOD3", "rotation": [0.7071068286895752, 0, 0, 0.7071068286895752], "scale": [0.009999999776482582, 0.009999999776482582, 0.009999999776482582], "extras": {"lod": {"index": 3, "mesh": "SM_wfzobb2ia_VarF"}}}, {"mesh": 24, "name": "SM_wfzobb2ia_VarG", "rotation": [0.7071068286895752, 0, 0, 0.7071068286895752], "scale": [0.009999999776482582, 0.009999999776482582, 0.009999999776482582]}, {"mesh": 25, "name": "SM_wfzobb2ia_VarG_LOD1", "rotation": [0.7071068286895752, 0, 0, 0.7071068286895752], "scale": [0.009999999776482582, 0.009999999776482582, 0.009999999776482582], "extras": {"lod": {"index": 1, "mesh": "SM_wfzobb2ia_VarG"}}}, {"mesh": 26, "name": "SM_wfzobb2ia_VarG_LOD2", "rotation": [0.7071068286895752, 0, 0, 0.7071068286895752], "scale": [0.009999999776482582, 0.009999999776482582, 0.009999999776482582], "extras": {"lod": {"index": 2, "mesh": "SM_wfzobb2ia_VarG"}}}, {"mesh": 27, "name": "SM_wfzobb2ia_VarG_LOD3", "rotation": [0.7071068286895752, 0, 0, 0.7071068286895752], "scale": [0.009999999776482582, 0.009999999776482582, 0.009999999776482582], "extras": {"lod": {"index": 3, "mesh": "SM_wfzobb2ia_VarG"}}}], "materials": [{"alphaMode": "MASK", "doubleSided": true, "name": "MI_wfzobb2ia", "normalTexture": {"index": 0}, "pbrMetallicRoughness": {"baseColorTexture": {"index": 2}, "metallicRoughnessTexture": {"index": 1}, "metallicFactor": 0}, "extras": {"params": [{"Name": "Twig Mask Strength", "Value": 0.699999988079071}, {"Name": "Specular Branches", "Value": 0.6000000238418579}, {"Name": "Specular Leaves", "Value": 0.6000000238418579}, {"Name": "Roughness Leaves", "Value": 0.6000000238418579}, {"Name": "Health Offset", "Value": 8}, {"Name": "use Gradient Branch Mask", "Value": true}, {"Name": "mask Branches Health", "Value": true}, {"Name": "Split Translucency Controls", "Value": true}, {"Name": "use Growth Effect", "Value": false}, {"Name": "Base Color Controls", "Value": [1, 1.5, 1, 0]}, {"Name": "Translucency Controls", "Value": [1.2000000476837158, 2, 1, 0]}, {"Name": "Translucency Tint Leaves", "Value": [0.6051499843597412, 0.800000011920929, 0.10000000149011612, 0.5]}, {"Name": "Translucency Controls Leaves", "Value": [1, 4, 0.699999988079071, 0]}]}}, {"alphaMode": "MASK", "doubleSided": true, "name": "MI_wfzobb2ia_Billboard", "normalTexture": {"index": 3}, "pbrMetallicRoughness": {"baseColorTexture": {"index": 4}, "metallicFactor": 0, "roughnessFactor": 0.8}, "extras": {"billboardFacingCamera": true, "params": [{"Name": "is Camera Facing Billboard", "Value": true}, {"Name": "is Billboard", "Value": true}, {"Name": "Split Translucency Controls", "Value": false}, {"Name": "Translucency Controls", "Value": [1.2000000476837158, 2, 1, 0]}, {"Name": "Translucency Tint Leaves", "Value": [0.5, 0.800000011920929, 0.5, 0.5]}, {"Name": "Translucency Controls Leaves", "Value": [1, 3, 1, 0]}]}}], "meshes": [{"name": "SM_wfzobb2ia_VarA", "primitives": [{"attributes": {"POSITION": 1, "TEXCOORD_0": 2, "_wind": 0}, "indices": 3, "material": 0}]}, {"name": "SM_wfzobb2ia_VarA_LOD1", "primitives": [{"attributes": {"POSITION": 5, "TEXCOORD_0": 6, "_wind": 4}, "indices": 7, "material": 0}]}, {"name": "SM_wfzobb2ia_VarA_LOD2", "primitives": [{"attributes": {"POSITION": 9, "TEXCOORD_0": 10, "_wind": 8}, "indices": 11, "material": 0}]}, {"name": "SM_wfzobb2ia_VarA_LOD3", "primitives": [{"attributes": {"POSITION": 13, "TEXCOORD_0": 14, "_wind": 12}, "indices": 15, "material": 1}]}, {"name": "SM_wfzobb2ia_VarB", "primitives": [{"attributes": {"POSITION": 17, "TEXCOORD_0": 18, "_wind": 16}, "indices": 19, "material": 0}]}, {"name": "SM_wfzobb2ia_VarB_LOD1", "primitives": [{"attributes": {"POSITION": 21, "TEXCOORD_0": 22, "_wind": 20}, "indices": 23, "material": 0}]}, {"name": "SM_wfzobb2ia_VarB_LOD2", "primitives": [{"attributes": {"POSITION": 25, "TEXCOORD_0": 26, "_wind": 24}, "indices": 27, "material": 0}]}, {"name": "SM_wfzobb2ia_VarB_LOD3", "primitives": [{"attributes": {"POSITION": 29, "TEXCOORD_0": 30, "_wind": 28}, "indices": 31, "material": 1}]}, {"name": "SM_wfzobb2ia_VarC", "primitives": [{"attributes": {"POSITION": 33, "TEXCOORD_0": 34, "_wind": 32}, "indices": 35, "material": 0}]}, {"name": "SM_wfzobb2ia_VarC_LOD1", "primitives": [{"attributes": {"POSITION": 37, "TEXCOORD_0": 38, "_wind": 36}, "indices": 39, "material": 0}]}, {"name": "SM_wfzobb2ia_VarC_LOD2", "primitives": [{"attributes": {"POSITION": 41, "TEXCOORD_0": 42, "_wind": 40}, "indices": 43, "material": 0}]}, {"name": "SM_wfzobb2ia_VarC_LOD3", "primitives": [{"attributes": {"POSITION": 45, "TEXCOORD_0": 46, "_wind": 44}, "indices": 47, "material": 1}]}, {"name": "SM_wfzobb2ia_VarD", "primitives": [{"attributes": {"POSITION": 49, "TEXCOORD_0": 50, "_wind": 48}, "indices": 51, "material": 0}]}, {"name": "SM_wfzobb2ia_VarD_LOD1", "primitives": [{"attributes": {"POSITION": 53, "TEXCOORD_0": 54, "_wind": 52}, "indices": 55, "material": 0}]}, {"name": "SM_wfzobb2ia_VarD_LOD2", "primitives": [{"attributes": {"POSITION": 57, "TEXCOORD_0": 58, "_wind": 56}, "indices": 59, "material": 0}]}, {"name": "SM_wfzobb2ia_VarD_LOD3", "primitives": [{"attributes": {"POSITION": 61, "TEXCOORD_0": 62, "_wind": 60}, "indices": 63, "material": 1}]}, {"name": "SM_wfzobb2ia_VarE", "primitives": [{"attributes": {"POSITION": 65, "TEXCOORD_0": 66, "_wind": 64}, "indices": 67, "material": 0}]}, {"name": "SM_wfzobb2ia_VarE_LOD1", "primitives": [{"attributes": {"POSITION": 69, "TEXCOORD_0": 70, "_wind": 68}, "indices": 71, "material": 0}]}, {"name": "SM_wfzobb2ia_VarE_LOD2", "primitives": [{"attributes": {"POSITION": 73, "TEXCOORD_0": 74, "_wind": 72}, "indices": 75, "material": 0}]}, {"name": "SM_wfzobb2ia_VarE_LOD3", "primitives": [{"attributes": {"POSITION": 77, "TEXCOORD_0": 78, "_wind": 76}, "indices": 79, "material": 1}]}, {"name": "SM_wfzobb2ia_VarF", "primitives": [{"attributes": {"POSITION": 81, "TEXCOORD_0": 82, "_wind": 80}, "indices": 83, "material": 0}]}, {"name": "SM_wfzobb2ia_VarF_LOD1", "primitives": [{"attributes": {"POSITION": 85, "TEXCOORD_0": 86, "_wind": 84}, "indices": 87, "material": 0}]}, {"name": "SM_wfzobb2ia_VarF_LOD2", "primitives": [{"attributes": {"POSITION": 89, "TEXCOORD_0": 90, "_wind": 88}, "indices": 91, "material": 0}]}, {"name": "SM_wfzobb2ia_VarF_LOD3", "primitives": [{"attributes": {"POSITION": 93, "TEXCOORD_0": 94, "_wind": 92}, "indices": 95, "material": 1}]}, {"name": "SM_wfzobb2ia_VarG", "primitives": [{"attributes": {"POSITION": 97, "TEXCOORD_0": 98, "_wind": 96}, "indices": 99, "material": 0}]}, {"name": "SM_wfzobb2ia_VarG_LOD1", "primitives": [{"attributes": {"POSITION": 101, "TEXCOORD_0": 102, "_wind": 100}, "indices": 103, "material": 0}]}, {"name": "SM_wfzobb2ia_VarG_LOD2", "primitives": [{"attributes": {"POSITION": 105, "TEXCOORD_0": 106, "_wind": 104}, "indices": 107, "material": 0}]}, {"name": "SM_wfzobb2ia_VarG_LOD3", "primitives": [{"attributes": {"POSITION": 109, "TEXCOORD_0": 110, "_wind": 108}, "indices": 111, "material": 1}]}], "textures": [{"sampler": 0, "source": 0}, {"sampler": 0, "source": 1}, {"sampler": 0, "source": 2}, {"sampler": 0, "source": 3}, {"sampler": 0, "source": 4}], "images": [{"mimeType": "image/jpeg", "name": "T_wfzobb2ia_2K_N", "uri": "t0.jpg", "extras": {"mipgen": "sharpen_4"}}, {"mimeType": "image/jpeg", "name": "T_wfzobb2ia_2K_ORT", "uri": "t1.jpg", "extras": {"compression": "mask", "textureSlot": "Mask", "materialIndex": 0, "mipgen": "sharpen_6", "alphaCoverage": [0.333, 0, 0, 0], "scaleMips": true}}, {"mimeType": "image/png", "name": "T_wfzobb2ia_2K_B-O", "uri": "t2.png", "extras": {"mipgen": "sharpen_4"}}, {"mimeType": "image/png", "name": "T_wfzobb2ia_2K_Billboard_N-T", "uri": "t3.png", "extras": {"compression": "mask", "mipgen": "sharpen_4"}}, {"mimeType": "image/png", "name": "T_wfzobb2ia_2K_Billboard_B-O", "uri": "t4.png", "extras": {"mipgen": "sharpen_4", "alphaCoverage": [0, 0, 0, 0.333], "scaleMips": true}}], "accessors": [{"bufferView": 0, "componentType": 5123, "count": 22540, "normalized": true, "type": "VEC4"}, {"bufferView": 1, "componentType": 5126, "count": 22540, "max": [49.70139694213867, 36.595909118652344, 0.20457559823989868], "min": [-60.13591384887695, -82.87294006347656, -118.9894790649414], "type": "VEC3"}, {"bufferView": 2, "componentType": 5126, "count": 22540, "type": "VEC2"}, {"bufferView": 3, "componentType": 5123, "count": 63912, "type": "SCALAR"}, {"bufferView": 4, "componentType": 5123, "count": 10074, "normalized": true, "type": "VEC4"}, {"bufferView": 5, "componentType": 5126, "count": 10074, "max": [49.885074615478516, 37.32588577270508, 0.20457559823989868], "min": [-60.70363998413086, -83.4181137084961, -118.97972869873047], "type": "VEC3"}, {"bufferView": 6, "componentType": 5126, "count": 10074, "type": "VEC2"}, {"bufferView": 7, "componentType": 5123, "count": 33810, "type": "SCALAR"}, {"bufferView": 8, "componentType": 5123, "count": 3481, "normalized": true, "type": "VEC4"}, {"bufferView": 9, "componentType": 5126, "count": 3481, "max": [50.80453872680664, 36.954750061035156, 0.20457559823989868], "min": [-60.55258560180664, -83.4181137084961, -119.2220687866211], "type": "VEC3"}, {"bufferView": 10, "componentType": 5126, "count": 3481, "type": "VEC2"}, {"bufferView": 11, "componentType": 5123, "count": 9450, "type": "SCALAR"}, {"bufferView": 12, "componentType": 5123, "count": 13, "normalized": true, "type": "VEC4"}, {"bufferView": 13, "componentType": 5126, "count": 13, "max": [49.509342193603516, 0, 0.04521450027823448], "min": [-60.18571853637695, 0, -119.16370391845703], "type": "VEC3"}, {"bufferView": 14, "componentType": 5126, "count": 13, "type": "VEC2"}, {"bufferView": 15, "componentType": 5123, "count": 33, "type": "SCALAR"}, {"bufferView": 16, "componentType": 5123, "count": 45674, "normalized": true, "type": "VEC4"}, {"bufferView": 17, "componentType": 5126, "count": 45674, "max": [102.18590545654297, 121.84374237060547, 5.252473831176758], "min": [-128.322021484375, -103.04931640625, -143.7715301513672], "type": "VEC3"}, {"bufferView": 18, "componentType": 5126, "count": 45674, "type": "VEC2"}, {"bufferView": 19, "componentType": 5123, "count": 131820, "type": "SCALAR"}, {"bufferView": 20, "componentType": 5123, "count": 21558, "normalized": true, "type": "VEC4"}, {"bufferView": 21, "componentType": 5126, "count": 21558, "max": [102.80963134765625, 122.47138977050781, 5.252473831176758], "min": [-128.83041381835938, -103.69999694824219, -142.8291015625], "type": "VEC3"}, {"bufferView": 22, "componentType": 5126, "count": 21558, "type": "VEC2"}, {"bufferView": 23, "componentType": 5123, "count": 73209, "type": "SCALAR"}, {"bufferView": 24, "componentType": 5123, "count": 5651, "normalized": true, "type": "VEC4"}, {"bufferView": 25, "componentType": 5126, "count": 5651, "max": [102.58267974853516, 122.28634643554688, 5.252473831176758], "min": [-128.6223907470703, -103.49800872802734, -142.7557830810547], "type": "VEC3"}, {"bufferView": 26, "componentType": 5126, "count": 5651, "type": "VEC2"}, {"bufferView": 27, "componentType": 5123, "count": 11904, "type": "SCALAR"}, {"bufferView": 28, "componentType": 5123, "count": 15, "normalized": true, "type": "VEC4"}, {"bufferView": 29, "componentType": 5126, "count": 15, "max": [102.03851318359375, 0, 4.995523452758789], "min": [-128.2088165283203, 0, -143.02645874023438], "type": "VEC3"}, {"bufferView": 30, "componentType": 5126, "count": 15, "type": "VEC2"}, {"bufferView": 31, "componentType": 5123, "count": 39, "type": "SCALAR"}, {"bufferView": 32, "componentType": 5123, "count": 8973, "normalized": true, "type": "VEC4"}, {"bufferView": 33, "componentType": 5126, "count": 8973, "max": [41.70573425292969, 54.77707290649414, 0.0842616856098175], "min": [-64.29367065429688, -70.22730255126953, -91.88236236572266], "type": "VEC3"}, {"bufferView": 34, "componentType": 5126, "count": 8973, "type": "VEC2"}, {"bufferView": 35, "componentType": 5123, "count": 30510, "type": "SCALAR"}, {"bufferView": 36, "componentType": 5123, "count": 2588, "normalized": true, "type": "VEC4"}, {"bufferView": 37, "componentType": 5126, "count": 2588, "max": [41.71689224243164, 55.59012985229492, 0.08272379636764526], "min": [-64.46186828613281, -70.9446029663086, -91.36979675292969], "type": "VEC3"}, {"bufferView": 38, "componentType": 5126, "count": 2588, "type": "VEC2"}, {"bufferView": 39, "componentType": 5123, "count": 9252, "type": "SCALAR"}, {"bufferView": 40, "componentType": 5123, "count": 1101, "normalized": true, "type": "VEC4"}, {"bufferView": 41, "componentType": 5126, "count": 1101, "max": [41.667236328125, 55.64644241333008, 0.8190624713897705], "min": [-64.43482971191406, -71.61784362792969, -90.85785675048828], "type": "VEC3"}, {"bufferView": 42, "componentType": 5126, "count": 1101, "type": "VEC2"}, {"bufferView": 43, "componentType": 5123, "count": 2553, "type": "SCALAR"}, {"bufferView": 44, "componentType": 5123, "count": 11, "normalized": true, "type": "VEC4"}, {"bufferView": 45, "componentType": 5126, "count": 11, "max": [41.80497360229492, 0, 0.0363597646355629], "min": [-64.30458068847656, 0, -91.75855255126953], "type": "VEC3"}, {"bufferView": 46, "componentType": 5126, "count": 11, "type": "VEC2"}, {"bufferView": 47, "componentType": 5123, "count": 27, "type": "SCALAR"}, {"bufferView": 48, "componentType": 5123, "count": 8819, "normalized": true, "type": "VEC4"}, {"bufferView": 49, "componentType": 5126, "count": 8819, "max": [58.3143424987793, 47.499420166015625, 0.005854410119354725], "min": [-44.660099029541016, -50.89567184448242, -89.71484375], "type": "VEC3"}, {"bufferView": 50, "componentType": 5126, "count": 8819, "type": "VEC2"}, {"bufferView": 51, "componentType": 5123, "count": 29775, "type": "SCALAR"}, {"bufferView": 52, "componentType": 5123, "count": 2708, "normalized": true, "type": "VEC4"}, {"bufferView": 53, "componentType": 5126, "count": 2708, "max": [58.912628173828125, 47.75096893310547, 0.1914564073085785], "min": [-45.57480239868164, -51.01557922363281, -88.54164123535156], "type": "VEC3"}, {"bufferView": 54, "componentType": 5126, "count": 2708, "type": "VEC2"}, {"bufferView": 55, "componentType": 5123, "count": 9633, "type": "SCALAR"}, {"bufferView": 56, "componentType": 5123, "count": 1152, "normalized": true, "type": "VEC4"}, {"bufferView": 57, "componentType": 5126, "count": 1152, "max": [58.709938049316406, 48.218570709228516, 0.1914564073085785], "min": [-45.27899169921875, -50.73172378540039, -88.60389709472656], "type": "VEC3"}, {"bufferView": 58, "componentType": 5126, "count": 1152, "type": "VEC2"}, {"bufferView": 59, "componentType": 5123, "count": 2649, "type": "SCALAR"}, {"bufferView": 60, "componentType": 5123, "count": 11, "normalized": true, "type": "VEC4"}, {"bufferView": 61, "componentType": 5126, "count": 11, "max": [58.276397705078125, 0, 0.0033319112844765186], "min": [-44.67835235595703, 0, -89.72920227050781], "type": "VEC3"}, {"bufferView": 62, "componentType": 5126, "count": 11, "type": "VEC2"}, {"bufferView": 63, "componentType": 5123, "count": 27, "type": "SCALAR"}, {"bufferView": 64, "componentType": 5123, "count": 6619, "normalized": true, "type": "VEC4"}, {"bufferView": 65, "componentType": 5126, "count": 6619, "max": [30.99178695678711, 52.0120849609375, 0.002205453347414732], "min": [-42.74652862548828, -66.45187377929688, -69.592529296875], "type": "VEC3"}, {"bufferView": 66, "componentType": 5126, "count": 6619, "type": "VEC2"}, {"bufferView": 67, "componentType": 5123, "count": 22269, "type": "SCALAR"}, {"bufferView": 68, "componentType": 5123, "count": 1843, "normalized": true, "type": "VEC4"}, {"bufferView": 69, "componentType": 5126, "count": 1843, "max": [31.278064727783203, 52.102684020996094, 0.17382238805294037], "min": [-42.67814254760742, -66.80033111572266, -69.592529296875], "type": "VEC3"}, {"bufferView": 70, "componentType": 5126, "count": 1843, "type": "VEC2"}, {"bufferView": 71, "componentType": 5123, "count": 6378, "type": "SCALAR"}, {"bufferView": 72, "componentType": 5123, "count": 980, "normalized": true, "type": "VEC4"}, {"bufferView": 73, "componentType": 5126, "count": 980, "max": [31.308443069458008, 52.10295867919922, 0.17382238805294037], "min": [-42.93071365356445, -65.95323181152344, -69.592529296875], "type": "VEC3"}, {"bufferView": 74, "componentType": 5126, "count": 980, "type": "VEC2"}, {"bufferView": 75, "componentType": 5123, "count": 2700, "type": "SCALAR"}, {"bufferView": 76, "componentType": 5123, "count": 11, "normalized": true, "type": "VEC4"}, {"bufferView": 77, "componentType": 5126, "count": 11, "max": [29.875347137451172, 0, 0.005022075492888689], "min": [-42.63037872314453, 0, -69.592529296875], "type": "VEC3"}, {"bufferView": 78, "componentType": 5126, "count": 11, "type": "VEC2"}, {"bufferView": 79, "componentType": 5123, "count": 27, "type": "SCALAR"}, {"bufferView": 80, "componentType": 5123, "count": 12248, "normalized": true, "type": "VEC4"}, {"bufferView": 81, "componentType": 5126, "count": 12248, "max": [39.630950927734375, 34.223915100097656, 0.0022054649889469147], "min": [-60.96609878540039, -51.60561752319336, -85.42894744873047], "type": "VEC3"}, {"bufferView": 82, "componentType": 5126, "count": 12248, "type": "VEC2"}, {"bufferView": 83, "componentType": 5123, "count": 41370, "type": "SCALAR"}, {"bufferView": 84, "componentType": 5123, "count": 3742, "normalized": true, "type": "VEC4"}, {"bufferView": 85, "componentType": 5126, "count": 3742, "max": [40.3538818359375, 34.34233856201172, 0.17382238805294037], "min": [-61.30193328857422, -51.66143035888672, -84.62007141113281], "type": "VEC3"}, {"bufferView": 86, "componentType": 5126, "count": 3742, "type": "VEC2"}, {"bufferView": 87, "componentType": 5123, "count": 13092, "type": "SCALAR"}, {"bufferView": 88, "componentType": 5123, "count": 1589, "normalized": true, "type": "VEC4"}, {"bufferView": 89, "componentType": 5126, "count": 1589, "max": [40.08662796020508, 34.48579406738281, 0.17382238805294037], "min": [-61.29012680053711, -51.630741119384766, -83.2728042602539], "type": "VEC3"}, {"bufferView": 90, "componentType": 5126, "count": 1589, "type": "VEC2"}, {"bufferView": 91, "componentType": 5123, "count": 3531, "type": "SCALAR"}, {"bufferView": 92, "componentType": 5123, "count": 10, "normalized": true, "type": "VEC4"}, {"bufferView": 93, "componentType": 5126, "count": 10, "max": [39.58765411376953, 0, 0.0014448072761297226], "min": [-60.99303436279297, 0, -85.46794891357422], "type": "VEC3"}, {"bufferView": 94, "componentType": 5126, "count": 10, "type": "VEC2"}, {"bufferView": 95, "componentType": 5123, "count": 24, "type": "SCALAR"}, {"bufferView": 96, "componentType": 5123, "count": 3539, "normalized": true, "type": "VEC4"}, {"bufferView": 97, "componentType": 5126, "count": 3539, "max": [27.940195083618164, 25.109928131103516, 0.0014942139387130737], "min": [-35.69212341308594, -36.79544448852539, -51.79704284667969], "type": "VEC3"}, {"bufferView": 98, "componentType": 5126, "count": 3539, "type": "VEC2"}, {"bufferView": 99, "componentType": 5123, "count": 11952, "type": "SCALAR"}, {"bufferView": 100, "componentType": 5123, "count": 1110, "normalized": true, "type": "VEC4"}, {"bufferView": 101, "componentType": 5126, "count": 1110, "max": [28.50429344177246, 25.378387451171875, 0.1177658662199974], "min": [-35.798370361328125, -37.581974029541016, -51.63273239135742], "type": "VEC3"}, {"bufferView": 102, "componentType": 5126, "count": 1110, "type": "VEC2"}, {"bufferView": 103, "componentType": 5123, "count": 3804, "type": "SCALAR"}, {"bufferView": 104, "componentType": 5123, "count": 475, "normalized": true, "type": "VEC4"}, {"bufferView": 105, "componentType": 5126, "count": 475, "max": [28.3594970703125, 25.26480484008789, 0.1177658662199974], "min": [-35.77800369262695, -37.421382904052734, -51.08977127075195], "type": "VEC3"}, {"bufferView": 106, "componentType": 5126, "count": 475, "type": "VEC2"}, {"bufferView": 107, "componentType": 5123, "count": 1041, "type": "SCALAR"}, {"bufferView": 108, "componentType": 5123, "count": 9, "normalized": true, "type": "VEC4"}, {"bufferView": 109, "componentType": 5126, "count": 9, "max": [27.899635314941406, 0, 0.003402493894100189], "min": [-35.678977966308594, 0, -51.81984329223633], "type": "VEC3"}, {"bufferView": 110, "componentType": 5126, "count": 9, "type": "VEC2"}, {"bufferView": 111, "componentType": 5123, "count": 21, "type": "SCALAR"}], "bufferViews": [{"buffer": 0, "byteLength": 180320, "byteOffset": 0, "target": 34962}, {"buffer": 0, "byteLength": 270480, "byteOffset": 180320, "target": 34962}, {"buffer": 0, "byteLength": 180320, "byteOffset": 450800, "target": 34962}, {"buffer": 0, "byteLength": 127824, "byteOffset": 631120, "target": 34963}, {"buffer": 0, "byteLength": 80592, "byteOffset": 758944, "target": 34962}, {"buffer": 0, "byteLength": 120888, "byteOffset": 839536, "target": 34962}, {"buffer": 0, "byteLength": 80592, "byteOffset": 960424, "target": 34962}, {"buffer": 0, "byteLength": 67620, "byteOffset": 1041016, "target": 34963}, {"buffer": 0, "byteLength": 27848, "byteOffset": 1108636, "target": 34962}, {"buffer": 0, "byteLength": 41772, "byteOffset": 1136484, "target": 34962}, {"buffer": 0, "byteLength": 27848, "byteOffset": 1178256, "target": 34962}, {"buffer": 0, "byteLength": 18900, "byteOffset": 1206104, "target": 34963}, {"buffer": 0, "byteLength": 104, "byteOffset": 1225004, "target": 34962}, {"buffer": 0, "byteLength": 156, "byteOffset": 1225108, "target": 34962}, {"buffer": 0, "byteLength": 104, "byteOffset": 1225264, "target": 34962}, {"buffer": 0, "byteLength": 66, "byteOffset": 1225368, "target": 34963}, {"buffer": 0, "byteLength": 365392, "byteOffset": 1225436, "target": 34962}, {"buffer": 0, "byteLength": 548088, "byteOffset": 1590828, "target": 34962}, {"buffer": 0, "byteLength": 365392, "byteOffset": 2138916, "target": 34962}, {"buffer": 0, "byteLength": 263640, "byteOffset": 2504308, "target": 34963}, {"buffer": 0, "byteLength": 172464, "byteOffset": 2767948, "target": 34962}, {"buffer": 0, "byteLength": 258696, "byteOffset": 2940412, "target": 34962}, {"buffer": 0, "byteLength": 172464, "byteOffset": 3199108, "target": 34962}, {"buffer": 0, "byteLength": 146418, "byteOffset": 3371572, "target": 34963}, {"buffer": 0, "byteLength": 45208, "byteOffset": 3517992, "target": 34962}, {"buffer": 0, "byteLength": 67812, "byteOffset": 3563200, "target": 34962}, {"buffer": 0, "byteLength": 45208, "byteOffset": 3631012, "target": 34962}, {"buffer": 0, "byteLength": 23808, "byteOffset": 3676220, "target": 34963}, {"buffer": 0, "byteLength": 120, "byteOffset": 3700028, "target": 34962}, {"buffer": 0, "byteLength": 180, "byteOffset": 3700148, "target": 34962}, {"buffer": 0, "byteLength": 120, "byteOffset": 3700328, "target": 34962}, {"buffer": 0, "byteLength": 78, "byteOffset": 3700448, "target": 34963}, {"buffer": 0, "byteLength": 71784, "byteOffset": 3700528, "target": 34962}, {"buffer": 0, "byteLength": 107676, "byteOffset": 3772312, "target": 34962}, {"buffer": 0, "byteLength": 71784, "byteOffset": 3879988, "target": 34962}, {"buffer": 0, "byteLength": 61020, "byteOffset": 3951772, "target": 34963}, {"buffer": 0, "byteLength": 20704, "byteOffset": 4012792, "target": 34962}, {"buffer": 0, "byteLength": 31056, "byteOffset": 4033496, "target": 34962}, {"buffer": 0, "byteLength": 20704, "byteOffset": 4064552, "target": 34962}, {"buffer": 0, "byteLength": 18504, "byteOffset": 4085256, "target": 34963}, {"buffer": 0, "byteLength": 8808, "byteOffset": 4103760, "target": 34962}, {"buffer": 0, "byteLength": 13212, "byteOffset": 4112568, "target": 34962}, {"buffer": 0, "byteLength": 8808, "byteOffset": 4125780, "target": 34962}, {"buffer": 0, "byteLength": 5106, "byteOffset": 4134588, "target": 34963}, {"buffer": 0, "byteLength": 88, "byteOffset": 4139696, "target": 34962}, {"buffer": 0, "byteLength": 132, "byteOffset": 4139784, "target": 34962}, {"buffer": 0, "byteLength": 88, "byteOffset": 4139916, "target": 34962}, {"buffer": 0, "byteLength": 54, "byteOffset": 4140004, "target": 34963}, {"buffer": 0, "byteLength": 70552, "byteOffset": 4140060, "target": 34962}, {"buffer": 0, "byteLength": 105828, "byteOffset": 4210612, "target": 34962}, {"buffer": 0, "byteLength": 70552, "byteOffset": 4316440, "target": 34962}, {"buffer": 0, "byteLength": 59550, "byteOffset": 4386992, "target": 34963}, {"buffer": 0, "byteLength": 21664, "byteOffset": 4446544, "target": 34962}, {"buffer": 0, "byteLength": 32496, "byteOffset": 4468208, "target": 34962}, {"buffer": 0, "byteLength": 21664, "byteOffset": 4500704, "target": 34962}, {"buffer": 0, "byteLength": 19266, "byteOffset": 4522368, "target": 34963}, {"buffer": 0, "byteLength": 9216, "byteOffset": 4541636, "target": 34962}, {"buffer": 0, "byteLength": 13824, "byteOffset": 4550852, "target": 34962}, {"buffer": 0, "byteLength": 9216, "byteOffset": 4564676, "target": 34962}, {"buffer": 0, "byteLength": 5298, "byteOffset": 4573892, "target": 34963}, {"buffer": 0, "byteLength": 88, "byteOffset": 4579192, "target": 34962}, {"buffer": 0, "byteLength": 132, "byteOffset": 4579280, "target": 34962}, {"buffer": 0, "byteLength": 88, "byteOffset": 4579412, "target": 34962}, {"buffer": 0, "byteLength": 54, "byteOffset": 4579500, "target": 34963}, {"buffer": 0, "byteLength": 52952, "byteOffset": 4579556, "target": 34962}, {"buffer": 0, "byteLength": 79428, "byteOffset": 4632508, "target": 34962}, {"buffer": 0, "byteLength": 52952, "byteOffset": 4711936, "target": 34962}, {"buffer": 0, "byteLength": 44538, "byteOffset": 4764888, "target": 34963}, {"buffer": 0, "byteLength": 14744, "byteOffset": 4809428, "target": 34962}, {"buffer": 0, "byteLength": 22116, "byteOffset": 4824172, "target": 34962}, {"buffer": 0, "byteLength": 14744, "byteOffset": 4846288, "target": 34962}, {"buffer": 0, "byteLength": 12756, "byteOffset": 4861032, "target": 34963}, {"buffer": 0, "byteLength": 7840, "byteOffset": 4873788, "target": 34962}, {"buffer": 0, "byteLength": 11760, "byteOffset": 4881628, "target": 34962}, {"buffer": 0, "byteLength": 7840, "byteOffset": 4893388, "target": 34962}, {"buffer": 0, "byteLength": 5400, "byteOffset": 4901228, "target": 34963}, {"buffer": 0, "byteLength": 88, "byteOffset": 4906628, "target": 34962}, {"buffer": 0, "byteLength": 132, "byteOffset": 4906716, "target": 34962}, {"buffer": 0, "byteLength": 88, "byteOffset": 4906848, "target": 34962}, {"buffer": 0, "byteLength": 54, "byteOffset": 4906936, "target": 34963}, {"buffer": 0, "byteLength": 97984, "byteOffset": 4906992, "target": 34962}, {"buffer": 0, "byteLength": 146976, "byteOffset": 5004976, "target": 34962}, {"buffer": 0, "byteLength": 97984, "byteOffset": 5151952, "target": 34962}, {"buffer": 0, "byteLength": 82740, "byteOffset": 5249936, "target": 34963}, {"buffer": 0, "byteLength": 29936, "byteOffset": 5332676, "target": 34962}, {"buffer": 0, "byteLength": 44904, "byteOffset": 5362612, "target": 34962}, {"buffer": 0, "byteLength": 29936, "byteOffset": 5407516, "target": 34962}, {"buffer": 0, "byteLength": 26184, "byteOffset": 5437452, "target": 34963}, {"buffer": 0, "byteLength": 12712, "byteOffset": 5463636, "target": 34962}, {"buffer": 0, "byteLength": 19068, "byteOffset": 5476348, "target": 34962}, {"buffer": 0, "byteLength": 12712, "byteOffset": 5495416, "target": 34962}, {"buffer": 0, "byteLength": 7062, "byteOffset": 5508128, "target": 34963}, {"buffer": 0, "byteLength": 80, "byteOffset": 5515192, "target": 34962}, {"buffer": 0, "byteLength": 120, "byteOffset": 5515272, "target": 34962}, {"buffer": 0, "byteLength": 80, "byteOffset": 5515392, "target": 34962}, {"buffer": 0, "byteLength": 48, "byteOffset": 5515472, "target": 34963}, {"buffer": 0, "byteLength": 28312, "byteOffset": 5515520, "target": 34962}, {"buffer": 0, "byteLength": 42468, "byteOffset": 5543832, "target": 34962}, {"buffer": 0, "byteLength": 28312, "byteOffset": 5586300, "target": 34962}, {"buffer": 0, "byteLength": 23904, "byteOffset": 5614612, "target": 34963}, {"buffer": 0, "byteLength": 8880, "byteOffset": 5638516, "target": 34962}, {"buffer": 0, "byteLength": 13320, "byteOffset": 5647396, "target": 34962}, {"buffer": 0, "byteLength": 8880, "byteOffset": 5660716, "target": 34962}, {"buffer": 0, "byteLength": 7608, "byteOffset": 5669596, "target": 34963}, {"buffer": 0, "byteLength": 3800, "byteOffset": 5677204, "target": 34962}, {"buffer": 0, "byteLength": 5700, "byteOffset": 5681004, "target": 34962}, {"buffer": 0, "byteLength": 3800, "byteOffset": 5686704, "target": 34962}, {"buffer": 0, "byteLength": 2082, "byteOffset": 5690504, "target": 34963}, {"buffer": 0, "byteLength": 72, "byteOffset": 5692588, "target": 34962}, {"buffer": 0, "byteLength": 108, "byteOffset": 5692660, "target": 34962}, {"buffer": 0, "byteLength": 72, "byteOffset": 5692768, "target": 34962}, {"buffer": 0, "byteLength": 42, "byteOffset": 5692840, "target": 34963}], "samplers": [{"magFilter": 9729, "minFilter": 9987}], "buffers": [{"byteLength": 5692884, "uri": "model.bin"}], "extras": {"tier": 2}}