{"asset": {"generator": "Khronos glTF Blender I/O v3.6.27", "version": "2.0"}, "scene": 0, "scenes": [{"name": "Scene", "nodes": [0]}], "nodes": [{"mesh": 0, "name": "vh1jeck_LOD0_TIER2_000", "rotation": [0.7071068286895752, 0, 0, 0.7071068286895752], "scale": [0.009999999776482582, 0.009999999776482582, 0.009999999776482582]}], "materials": [{"doubleSided": true, "name": "MI_vh1jeck", "normalTexture": {"index": 0}, "occlusionTexture": {"index": 1}, "pbrMetallicRoughness": {"baseColorTexture": {"index": 2}, "metallicRoughnessTexture": {"index": 1}}}], "meshes": [{"name": "S_vh1jeck_tier_2", "primitives": [{"attributes": {"POSITION": 0, "NORMAL": 1, "TEXCOORD_0": 2, "TANGENT": 3}, "indices": 4, "material": 0}]}], "textures": [{"sampler": 0, "source": 0}, {"sampler": 0, "source": 1}, {"sampler": 0, "source": 2}], "images": [{"mimeType": "image/jpeg", "name": "T_vh1jeck_2K_N", "uri": "t0.jpg"}, {"mimeType": "image/jpeg", "name": "T_vh1jeck_2K_ORM", "uri": "t1.jpg", "extras": {"compression": "mask"}}, {"mimeType": "image/jpeg", "name": "T_vh1jeck_2K_B", "uri": "t2.jpg"}], "accessors": [{"bufferView": 0, "componentType": 5126, "count": 4074, "max": [61.80885696411133, 59.1230583190918, 0.6147738695144653], "min": [-61.72313690185547, -59.12936782836914, -13.81724739074707], "type": "VEC3"}, {"bufferView": 1, "componentType": 5126, "count": 4074, "type": "VEC3"}, {"bufferView": 2, "componentType": 5126, "count": 4074, "type": "VEC2"}, {"bufferView": 3, "componentType": 5126, "count": 4074, "type": "VEC4"}, {"bufferView": 4, "componentType": 5123, "count": 15360, "type": "SCALAR"}], "bufferViews": [{"buffer": 0, "byteLength": 48888, "byteOffset": 0, "target": 34962}, {"buffer": 0, "byteLength": 48888, "byteOffset": 48888, "target": 34962}, {"buffer": 0, "byteLength": 32592, "byteOffset": 97776, "target": 34962}, {"buffer": 0, "byteLength": 65184, "byteOffset": 130368, "target": 34962}, {"buffer": 0, "byteLength": 30720, "byteOffset": 195552, "target": 34963}], "samplers": [{"magFilter": 9729, "minFilter": 9987}], "buffers": [{"byteLength": 226272, "uri": "model.bin"}]}