{"asset": {"generator": "Khronos glTF Blender I/O v3.6.27", "version": "2.0"}, "scene": 0, "scenes": [{"name": "Scene", "nodes": [0]}], "nodes": [{"mesh": 0, "name": "ujyjbehqx_LOD0_TIER2_000", "rotation": [0.7071068286895752, 0, 0, 0.7071068286895752], "scale": [0.009999999776482582, 0.009999999776482582, 0.009999999776482582]}], "materials": [{"doubleSided": true, "name": "MI_ujyjbehqx", "normalTexture": {"index": 0}, "occlusionTexture": {"index": 1}, "pbrMetallicRoughness": {"baseColorTexture": {"index": 2}, "metallicRoughnessTexture": {"index": 1}}, "extras": {"type": "fuzz"}}], "meshes": [{"name": "S_ujyjbehqx_tier_2", "primitives": [{"attributes": {"POSITION": 0, "NORMAL": 1, "TEXCOORD_0": 2, "TANGENT": 3}, "indices": 4, "material": 0}]}], "textures": [{"sampler": 0, "source": 0}, {"sampler": 0, "source": 1}, {"sampler": 0, "source": 2}, {"sampler": 0, "source": 3}], "images": [{"mimeType": "image/jpeg", "name": "T_ujyjbehqx_2K_N", "uri": "t0.jpg"}, {"mimeType": "image/jpeg", "name": "T_ujyjbehqx_2K_ORM", "uri": "t1.jpg", "extras": {"compression": "mask"}}, {"mimeType": "image/jpeg", "name": "T_ujyjbehqx_2K_B", "uri": "t2.jpg"}, {"mimeType": "image/jpeg", "name": "T_ujyjbehqx_2K_F", "uri": "t3.jpg"}], "accessors": [{"bufferView": 0, "componentType": 5126, "count": 8550, "max": [198.79469299316406, 33.03357696533203, 0.7188549637794495], "min": [-198.77452087402344, -29.74957275390625, -78.90350341796875], "type": "VEC3"}, {"bufferView": 1, "componentType": 5126, "count": 8550, "type": "VEC3"}, {"bufferView": 2, "componentType": 5126, "count": 8550, "type": "VEC2"}, {"bufferView": 3, "componentType": 5126, "count": 8550, "type": "VEC4"}, {"bufferView": 4, "componentType": 5123, "count": 35355, "type": "SCALAR"}], "bufferViews": [{"buffer": 0, "byteLength": 102600, "byteOffset": 0, "target": 34962}, {"buffer": 0, "byteLength": 102600, "byteOffset": 102600, "target": 34962}, {"buffer": 0, "byteLength": 68400, "byteOffset": 205200, "target": 34962}, {"buffer": 0, "byteLength": 136800, "byteOffset": 273600, "target": 34962}, {"buffer": 0, "byteLength": 70710, "byteOffset": 410400, "target": 34963}], "samplers": [{"magFilter": 9729, "minFilter": 9987}], "buffers": [{"byteLength": 481112, "uri": "model.bin"}]}