{"asset": {"generator": "Khronos glTF Blender I/O v3.6.27", "version": "2.0"}, "scene": 0, "scenes": [{"name": "Scene", "nodes": [0]}], "nodes": [{"mesh": 0, "name": "ujpheaova_LOD0_TIER2_000", "rotation": [0.7071068286895752, 0, 0, 0.7071068286895752], "scale": [0.009999999776482582, 0.009999999776482582, 0.009999999776482582]}], "materials": [{"doubleSided": true, "name": "MI_ujpheaova", "normalTexture": {"index": 0}, "occlusionTexture": {"index": 1}, "pbrMetallicRoughness": {"baseColorTexture": {"index": 2}, "metallicRoughnessTexture": {"index": 1}}}], "meshes": [{"name": "S_ujpheaova_tier_2", "primitives": [{"attributes": {"POSITION": 0, "NORMAL": 1, "TEXCOORD_0": 2, "TANGENT": 3}, "indices": 4, "material": 0}]}], "textures": [{"sampler": 0, "source": 0}, {"sampler": 0, "source": 1}, {"sampler": 0, "source": 2}], "images": [{"mimeType": "image/jpeg", "name": "T_ujpheaova_2K_N", "uri": "t0.jpg"}, {"mimeType": "image/jpeg", "name": "T_ujpheaova_2K_ORM", "uri": "t1.jpg", "extras": {"compression": "mask"}}, {"mimeType": "image/jpeg", "name": "T_ujpheaova_2K_B", "uri": "t2.jpg"}], "accessors": [{"bufferView": 0, "componentType": 5126, "count": 1575, "max": [4.3447489738464355, 2.6149520874023438, -2.499999936844688e-05], "min": [-6.011415958404541, -2.6149520874023438, -14.504175186157227], "type": "VEC3"}, {"bufferView": 1, "componentType": 5126, "count": 1575, "type": "VEC3"}, {"bufferView": 2, "componentType": 5126, "count": 1575, "type": "VEC2"}, {"bufferView": 3, "componentType": 5126, "count": 1575, "type": "VEC4"}, {"bufferView": 4, "componentType": 5123, "count": 7182, "type": "SCALAR"}], "bufferViews": [{"buffer": 0, "byteLength": 18900, "byteOffset": 0, "target": 34962}, {"buffer": 0, "byteLength": 18900, "byteOffset": 18900, "target": 34962}, {"buffer": 0, "byteLength": 12600, "byteOffset": 37800, "target": 34962}, {"buffer": 0, "byteLength": 25200, "byteOffset": 50400, "target": 34962}, {"buffer": 0, "byteLength": 14364, "byteOffset": 75600, "target": 34963}], "samplers": [{"magFilter": 9729, "minFilter": 9987}], "buffers": [{"byteLength": 89964, "uri": "model.bin"}]}