{"asset": {"generator": "Khronos glTF Blender I/O v3.6.27", "version": "2.0"}, "scene": 0, "scenes": [{"name": "Scene", "nodes": [0]}], "nodes": [{"mesh": 0, "name": "xeoocabdw_LOD0_TIER2_000", "rotation": [0.7071068286895752, 0, 0, 0.7071068286895752], "scale": [0.009999999776482582, 0.009999999776482582, 0.009999999776482582]}], "materials": [{"doubleSided": true, "name": "MI_xeoocabdw", "normalTexture": {"index": 0}, "occlusionTexture": {"index": 1}, "pbrMetallicRoughness": {"baseColorTexture": {"index": 2}, "metallicRoughnessTexture": {"index": 1}}}], "meshes": [{"name": "S_xeoocabdw_tier_2", "primitives": [{"attributes": {"POSITION": 0, "NORMAL": 1, "TEXCOORD_0": 2, "TANGENT": 3}, "indices": 4, "material": 0}]}], "textures": [{"sampler": 0, "source": 0}, {"sampler": 0, "source": 1}, {"sampler": 0, "source": 2}], "images": [{"mimeType": "image/jpeg", "name": "T_xeoocabdw_2K_N", "uri": "t0.jpg"}, {"mimeType": "image/jpeg", "name": "T_xeoocabdw_2K_ORM", "uri": "t1.jpg", "extras": {"compression": "mask"}}, {"mimeType": "image/jpeg", "name": "T_xeoocabdw_2K_B", "uri": "t2.jpg"}], "accessors": [{"bufferView": 0, "componentType": 5126, "count": 8266, "max": [60.000343322753906, 2.8275067806243896, 0.02169794961810112], "min": [-0.00012507662177085876, -3.2181715965270996, -29.907733917236328], "type": "VEC3"}, {"bufferView": 1, "componentType": 5126, "count": 8266, "type": "VEC3"}, {"bufferView": 2, "componentType": 5126, "count": 8266, "type": "VEC2"}, {"bufferView": 3, "componentType": 5126, "count": 8266, "type": "VEC4"}, {"bufferView": 4, "componentType": 5123, "count": 25902, "type": "SCALAR"}], "bufferViews": [{"buffer": 0, "byteLength": 99192, "byteOffset": 0, "target": 34962}, {"buffer": 0, "byteLength": 99192, "byteOffset": 99192, "target": 34962}, {"buffer": 0, "byteLength": 66128, "byteOffset": 198384, "target": 34962}, {"buffer": 0, "byteLength": 132256, "byteOffset": 264512, "target": 34962}, {"buffer": 0, "byteLength": 51804, "byteOffset": 396768, "target": 34963}], "samplers": [{"magFilter": 9729, "minFilter": 9987}], "buffers": [{"byteLength": 448572, "uri": "model.bin"}]}