{"asset": {"generator": "Khronos glTF Blender I/O v3.6.27", "version": "2.0"}, "scene": 0, "scenes": [{"name": "Scene", "nodes": [0]}], "nodes": [{"mesh": 0, "name": "vcblbchga_LOD0_TIER2_000", "rotation": [0.7071068286895752, 0, 0, 0.7071068286895752], "scale": [0.009999999776482582, 0.009999999776482582, 0.009999999776482582]}], "materials": [{"doubleSided": true, "name": "MI_vcblbchga", "normalTexture": {"index": 0}, "occlusionTexture": {"index": 1}, "pbrMetallicRoughness": {"baseColorTexture": {"index": 2}, "metallicRoughnessTexture": {"index": 1}}}], "meshes": [{"name": "S_vcblbchga_tier_2", "primitives": [{"attributes": {"POSITION": 0, "NORMAL": 1, "TEXCOORD_0": 2, "TANGENT": 3}, "indices": 4, "material": 0}]}], "textures": [{"sampler": 0, "source": 0}, {"sampler": 0, "source": 1}, {"sampler": 0, "source": 2}], "images": [{"mimeType": "image/jpeg", "name": "T_vcblbchga_2K_N", "uri": "t0.jpg"}, {"mimeType": "image/jpeg", "name": "T_vcblbchga_2K_ORM", "uri": "t1.jpg", "extras": {"compression": "mask"}}, {"mimeType": "image/jpeg", "name": "T_vcblbchga_2K_B", "uri": "t2.jpg"}], "accessors": [{"bufferView": 0, "componentType": 5126, "count": 1760, "max": [34.15373229980469, 25.66875648498535, 1.268539547920227], "min": [-34.11080551147461, -19.40434455871582, -43.05149459838867], "type": "VEC3"}, {"bufferView": 1, "componentType": 5126, "count": 1760, "type": "VEC3"}, {"bufferView": 2, "componentType": 5126, "count": 1760, "type": "VEC2"}, {"bufferView": 3, "componentType": 5126, "count": 1760, "type": "VEC4"}, {"bufferView": 4, "componentType": 5123, "count": 8406, "type": "SCALAR"}], "bufferViews": [{"buffer": 0, "byteLength": 21120, "byteOffset": 0, "target": 34962}, {"buffer": 0, "byteLength": 21120, "byteOffset": 21120, "target": 34962}, {"buffer": 0, "byteLength": 14080, "byteOffset": 42240, "target": 34962}, {"buffer": 0, "byteLength": 28160, "byteOffset": 56320, "target": 34962}, {"buffer": 0, "byteLength": 16812, "byteOffset": 84480, "target": 34963}], "samplers": [{"magFilter": 9729, "minFilter": 9987}], "buffers": [{"byteLength": 101292, "uri": "model.bin"}]}