{"asset": {"generator": "Khronos glTF Blender I/O v3.6.27", "version": "2.0"}, "scene": 0, "scenes": [{"name": "Scene", "nodes": [0]}], "nodes": [{"mesh": 0, "name": "ueqfdi0ga_LOD0_TIER2_000", "rotation": [0.7071068286895752, 0, 0, 0.7071068286895752], "scale": [0.009999999776482582, 0.009999999776482582, 0.009999999776482582]}], "materials": [{"doubleSided": true, "name": "MI_ueqfdi0ga", "normalTexture": {"index": 0}, "occlusionTexture": {"index": 1}, "pbrMetallicRoughness": {"baseColorTexture": {"index": 2}, "metallicRoughnessTexture": {"index": 1}}}], "meshes": [{"name": "S_ueqfdi0ga_tier_2", "primitives": [{"attributes": {"POSITION": 0, "NORMAL": 1, "TEXCOORD_0": 2, "TANGENT": 3}, "indices": 4, "material": 0}]}], "textures": [{"sampler": 0, "source": 0}, {"sampler": 0, "source": 1}, {"sampler": 0, "source": 2}], "images": [{"mimeType": "image/jpeg", "name": "T_ueqfdi0ga_2K_N", "uri": "t0.jpg"}, {"mimeType": "image/jpeg", "name": "T_ueqfdi0ga_2K_ORM", "uri": "t1.jpg", "extras": {"compression": "mask"}}, {"mimeType": "image/jpeg", "name": "T_ueqfdi0ga_2K_B", "uri": "t2.jpg"}], "accessors": [{"bufferView": 0, "componentType": 5126, "count": 9899, "max": [10.856464385986328, 236.5802001953125, 2.538083553314209], "min": [-11.443022727966309, -235.74427795410156, -15.427938461303711], "type": "VEC3"}, {"bufferView": 1, "componentType": 5126, "count": 9899, "type": "VEC3"}, {"bufferView": 2, "componentType": 5126, "count": 9899, "type": "VEC2"}, {"bufferView": 3, "componentType": 5126, "count": 9899, "type": "VEC4"}, {"bufferView": 4, "componentType": 5123, "count": 45792, "type": "SCALAR"}], "bufferViews": [{"buffer": 0, "byteLength": 118788, "byteOffset": 0, "target": 34962}, {"buffer": 0, "byteLength": 118788, "byteOffset": 118788, "target": 34962}, {"buffer": 0, "byteLength": 79192, "byteOffset": 237576, "target": 34962}, {"buffer": 0, "byteLength": 158384, "byteOffset": 316768, "target": 34962}, {"buffer": 0, "byteLength": 91584, "byteOffset": 475152, "target": 34963}], "samplers": [{"magFilter": 9729, "minFilter": 9987}], "buffers": [{"byteLength": 566736, "uri": "model.bin"}]}