{"asset": {"version": "2.0", "generator": "Houdini GLTF 2.0 Exporter"}, "accessors": [{"bufferView": 0, "componentType": 5123, "count": 23304, "type": "SCALAR", "min": [0], "max": [23303]}, {"bufferView": 1, "componentType": 5126, "count": 23304, "type": "VEC3", "min": [-0.24371694, -0.00309835048, -0.215094805], "max": [0.245567814, 0.5877496, 0.223467052]}, {"bufferView": 2, "componentType": 5126, "count": 23304, "type": "VEC3", "min": [-0.999835134, -0.9999246, -0.999997973], "max": [0.999986053, 0.999811292, 0.999823093]}, {"bufferView": 3, "componentType": 5126, "count": 23304, "type": "VEC2", "min": [0.00200000009, 0.0381369591], "max": [0.998000026, 0.998000026]}, {"bufferView": 4, "componentType": 5125, "count": 23304, "type": "SCALAR", "min": [0], "max": [0]}], "buffers": [{"uri": "model.bin", "byteLength": 885552, "name": "main_buffer"}], "bufferViews": [{"buffer": 0, "byteLength": 46608, "target": 34963}, {"buffer": 0, "byteOffset": 46608, "byteLength": 279648, "target": 34962}, {"buffer": 0, "byteOffset": 326256, "byteLength": 279648, "target": 34962}, {"buffer": 0, "byteOffset": 605904, "byteLength": 186432, "target": 34962}, {"buffer": 0, "byteOffset": 792336, "byteLength": 93216, "target": 34962}], "nodes": [{"mesh": 0, "name": "SM_ucynedrfa"}], "meshes": [{"primitives": [{"attributes": {"POSITION": 1, "NORMAL": 2, "TEXCOORD_0": 3, "_pieceCount": 4}, "indices": 0, "material": 0}], "name": "SM_ucynedrfa"}], "scenes": [{"nodes": [0], "name": "geo"}], "scene": 0, "images": [{"mimeType": "image/jpeg", "name": "T_ucynedrfa_2k_B", "uri": "t0.jpg"}, {"mimeType": "image/jpeg", "name": "T_ucynedrfa_2k_N", "uri": "t1.jpg"}, {"mimeType": "image/jpeg", "name": "T_ucynedrfa_2k_ORM", "uri": "t2.jpg", "extras": {"compression": "mask"}}], "textures": [{"sampler": 0, "source": 0}, {"sampler": 0, "source": 1}, {"sampler": 0, "source": 2}], "materials": [{"name": "MI_ucynedrfa", "alphaMode": "OPAQUE", "doubleSided": true, "pbrMetallicRoughness": {"baseColorTexture": {"index": 0}, "metallicRoughnessTexture": {"index": 2}}, "normalTexture": {"index": 1}, "occlusionTexture": {"index": 2}}], "samplers": [{"magFilter": 9729, "minFilter": 9987}], "extras": {"tier": 2, "asset_type": "3d asset"}}