{"asset": {"generator": "Khronos glTF Blender I/O v3.6.27", "version": "2.0"}, "scene": 0, "scenes": [{"name": "Scene", "nodes": [0]}], "nodes": [{"mesh": 0, "name": "vmfwcabdw_LOD0_TIER2_000", "rotation": [0.7071068286895752, 0, 0, 0.7071068286895752], "scale": [0.009999999776482582, 0.009999999776482582, 0.009999999776482582]}], "materials": [{"doubleSided": true, "name": "MI_vmfwcabdw", "normalTexture": {"index": 0}, "occlusionTexture": {"index": 1}, "pbrMetallicRoughness": {"baseColorTexture": {"index": 2}, "metallicRoughnessTexture": {"index": 1}}}], "meshes": [{"name": "S_vmfwcabdw_tier_2", "primitives": [{"attributes": {"POSITION": 0, "NORMAL": 1, "TEXCOORD_0": 2, "TANGENT": 3}, "indices": 4, "material": 0}]}], "textures": [{"sampler": 0, "source": 0}, {"sampler": 0, "source": 1}, {"sampler": 0, "source": 2}], "images": [{"mimeType": "image/jpeg", "name": "T_vmfwcabdw_2K_N", "uri": "t0.jpg"}, {"mimeType": "image/jpeg", "name": "T_vmfwcabdw_2K_ORM", "uri": "t1.jpg", "extras": {"compression": "mask"}}, {"mimeType": "image/jpeg", "name": "T_vmfwcabdw_2K_B", "uri": "t2.jpg"}], "accessors": [{"bufferView": 0, "componentType": 5126, "count": 4580, "max": [63.74692916870117, 5.212001800537109, 6.2606755818706e-05], "min": [-63.74687194824219, -5.26194429397583, -203.11032104492188], "type": "VEC3"}, {"bufferView": 1, "componentType": 5126, "count": 4580, "type": "VEC3"}, {"bufferView": 2, "componentType": 5126, "count": 4580, "type": "VEC2"}, {"bufferView": 3, "componentType": 5126, "count": 4580, "type": "VEC4"}, {"bufferView": 4, "componentType": 5123, "count": 15612, "type": "SCALAR"}], "bufferViews": [{"buffer": 0, "byteLength": 54960, "byteOffset": 0, "target": 34962}, {"buffer": 0, "byteLength": 54960, "byteOffset": 54960, "target": 34962}, {"buffer": 0, "byteLength": 36640, "byteOffset": 109920, "target": 34962}, {"buffer": 0, "byteLength": 73280, "byteOffset": 146560, "target": 34962}, {"buffer": 0, "byteLength": 31224, "byteOffset": 219840, "target": 34963}], "samplers": [{"magFilter": 9729, "minFilter": 9987}], "buffers": [{"byteLength": 251064, "uri": "model.bin"}]}