{"asset": {"generator": "Khronos glTF Blender I/O v4.4.56", "version": "2.0"}, "scene": 0, "scenes": [{"name": "Scene", "nodes": [0]}], "nodes": [{"mesh": 0, "name": "worn_jerrycan"}], "materials": [{"doubleSided": true, "name": "jerrycan_1", "normalTexture": {"index": 0}, "pbrMetallicRoughness": {"baseColorTexture": {"index": 1}, "metallicRoughnessTexture": {"index": 2}}}], "meshes": [{"name": "worn_jerrycan", "primitives": [{"attributes": {"POSITION": 0, "NORMAL": 1, "TEXCOORD_0": 2}, "indices": 3, "material": 0}]}], "textures": [{"sampler": 0, "source": 0}, {"sampler": 0, "source": 1}, {"sampler": 0, "source": 2}], "images": [{"mimeType": "image/jpeg", "name": "worn_jerrycan_Normal_GL", "uri": "t0.jpg"}, {"mimeType": "image/jpeg", "name": "worn_jerrycan_BaseColor", "uri": "t1.jpg"}, {"mimeType": "image/jpeg", "name": "worn_jerrycan_Metallic-worn_jerrycan_Roughness", "uri": "t2.jpg"}], "accessors": [{"bufferView": 0, "componentType": 5126, "count": 1897, "max": [0.08409366756677628, 0.47114261984825134, 0.1743774116039276], "min": [-0.08390980213880539, 0.0011425912380218506, -0.17346929013729095], "type": "VEC3"}, {"bufferView": 1, "componentType": 5126, "count": 1897, "type": "VEC3"}, {"bufferView": 2, "componentType": 5126, "count": 1897, "type": "VEC2"}, {"bufferView": 3, "componentType": 5123, "count": 5118, "type": "SCALAR"}], "bufferViews": [{"buffer": 0, "byteLength": 22764, "byteOffset": 0, "target": 34962}, {"buffer": 0, "byteLength": 22764, "byteOffset": 22764, "target": 34962}, {"buffer": 0, "byteLength": 15176, "byteOffset": 45528, "target": 34962}, {"buffer": 0, "byteLength": 10236, "byteOffset": 60704, "target": 34963}], "samplers": [{"magFilter": 9729, "minFilter": 9987}], "buffers": [{"byteLength": 70940, "uri": "model.bin"}]}