{"asset": {"generator": "Khronos glTF Blender I/O v3.6.27", "version": "2.0"}, "scene": 0, "scenes": [{"name": "Scene", "nodes": [0]}], "nodes": [{"mesh": 0, "name": "uflvddofa_LOD0_TIER2_000", "rotation": [0.7071068286895752, 0, 0, 0.7071068286895752], "scale": [0.009999999776482582, 0.009999999776482582, 0.009999999776482582]}], "materials": [{"doubleSided": true, "name": "MI_uflvddofa", "normalTexture": {"index": 0}, "occlusionTexture": {"index": 1}, "pbrMetallicRoughness": {"baseColorTexture": {"index": 2}, "metallicRoughnessTexture": {"index": 1}}}], "meshes": [{"name": "S_uflvddofa_tier_2", "primitives": [{"attributes": {"POSITION": 0, "NORMAL": 1, "TEXCOORD_0": 2, "TANGENT": 3}, "indices": 4, "material": 0}]}], "textures": [{"sampler": 0, "source": 0}, {"sampler": 0, "source": 1}, {"sampler": 0, "source": 2}], "images": [{"mimeType": "image/jpeg", "name": "T_uflvddofa_2K_N", "uri": "t0.jpg"}, {"mimeType": "image/jpeg", "name": "T_uflvddofa_2K_ORM", "uri": "t1.jpg", "extras": {"compression": "mask"}}, {"mimeType": "image/jpeg", "name": "T_uflvddofa_2K_B", "uri": "t2.jpg"}], "accessors": [{"bufferView": 0, "componentType": 5126, "count": 6330, "max": [105.45267486572266, 8.498985290527344, 0.023159556090831757], "min": [-0.0015113871777430177, -13.19636344909668, -189.9783935546875], "type": "VEC3"}, {"bufferView": 1, "componentType": 5126, "count": 6330, "type": "VEC3"}, {"bufferView": 2, "componentType": 5126, "count": 6330, "type": "VEC2"}, {"bufferView": 3, "componentType": 5126, "count": 6330, "type": "VEC4"}, {"bufferView": 4, "componentType": 5123, "count": 31338, "type": "SCALAR"}], "bufferViews": [{"buffer": 0, "byteLength": 75960, "byteOffset": 0, "target": 34962}, {"buffer": 0, "byteLength": 75960, "byteOffset": 75960, "target": 34962}, {"buffer": 0, "byteLength": 50640, "byteOffset": 151920, "target": 34962}, {"buffer": 0, "byteLength": 101280, "byteOffset": 202560, "target": 34962}, {"buffer": 0, "byteLength": 62676, "byteOffset": 303840, "target": 34963}], "samplers": [{"magFilter": 9729, "minFilter": 9987}], "buffers": [{"byteLength": 366516, "uri": "model.bin"}]}