{"asset": {"generator": "Khronos glTF Blender I/O v4.4.56", "version": "2.0"}, "scene": 0, "scenes": [{"name": "Scene", "nodes": [0, 1, 2, 3]}], "nodes": [{"mesh": 0, "name": "case"}, {"mesh": 1, "name": "tubes"}, {"mesh": 2, "name": "wires"}, {"mesh": 3, "name": "tuner"}], "materials": [{"doubleSided": true, "name": "case", "normalTexture": {"index": 0}, "pbrMetallicRoughness": {"baseColorTexture": {"index": 1}, "metallicRoughnessTexture": {"index": 2}}}, {"alphaMode": "BLEND", "doubleSided": true, "name": "tubes", "normalTexture": {"index": 3}, "pbrMetallicRoughness": {"baseColorTexture": {"index": 4}, "metallicRoughnessTexture": {"index": 5}}}, {"doubleSided": true, "name": "Wire", "normalTexture": {"index": 6}, "pbrMetallicRoughness": {"baseColorTexture": {"index": 7}, "metallicRoughnessTexture": {"index": 8}}}, {"doubleSided": true, "name": "Tuner", "normalTexture": {"index": 9}, "pbrMetallicRoughness": {"baseColorTexture": {"index": 10}, "metallicRoughnessTexture": {"index": 11}}}], "meshes": [{"name": "case", "primitives": [{"attributes": {"POSITION": 0, "NORMAL": 1, "TEXCOORD_0": 2}, "indices": 3, "material": 0}]}, {"name": "tubes", "primitives": [{"attributes": {"POSITION": 4, "NORMAL": 5, "TEXCOORD_0": 6}, "indices": 7, "material": 1}]}, {"name": "wires", "primitives": [{"attributes": {"POSITION": 8, "NORMAL": 9, "TEXCOORD_0": 10}, "indices": 11, "material": 2}]}, {"name": "tuner", "primitives": [{"attributes": {"POSITION": 12, "NORMAL": 13, "TEXCOORD_0": 14}, "indices": 15, "material": 3}]}], "textures": [{"sampler": 0, "source": 0}, {"sampler": 0, "source": 1}, {"sampler": 0, "source": 2}, {"sampler": 0, "source": 3}, {"sampler": 0, "source": 4}, {"sampler": 0, "source": 5}, {"sampler": 0, "source": 6}, {"sampler": 0, "source": 7}, {"sampler": 0, "source": 8}, {"sampler": 0, "source": 9}, {"sampler": 0, "source": 10}, {"sampler": 0, "source": 11}], "images": [{"mimeType": "image/jpeg", "name": "case_Normal_GL", "uri": "t0.jpg"}, {"mimeType": "image/jpeg", "name": "case_BaseColor", "uri": "t1.jpg"}, {"mimeType": "image/jpeg", "name": "case_Metallic-case_Roughness", "uri": "t2.jpg"}, {"mimeType": "image/jpeg", "name": "tubes_Normal_GL", "uri": "t3.jpg"}, {"mimeType": "image/png", "name": "tubes_BaseColorOpacity", "uri": "t4.png"}, {"mimeType": "image/jpeg", "name": "tubes_Metallic-tubes_Roughness", "uri": "t5.jpg"}, {"mimeType": "image/jpeg", "name": "Wire_Normal_GL", "uri": "t6.jpg"}, {"mimeType": "image/jpeg", "name": "Wire_BaseColor", "uri": "t7.jpg"}, {"mimeType": "image/jpeg", "name": "Wire_Metallic-Wire_Roughness", "uri": "t8.jpg"}, {"mimeType": "image/jpeg", "name": "Tuner_Normal_GL", "uri": "t9.jpg"}, {"mimeType": "image/jpeg", "name": "Tuner_BaseColor", "uri": "t10.jpg"}, {"mimeType": "image/jpeg", "name": "Tuner_Metallic-Tuner_Roughness", "uri": "t11.jpg"}], "accessors": [{"bufferView": 0, "componentType": 5126, "count": 51106, "max": [0.09591986238956451, 0.21857622265815735, 0.18547505140304565], "min": [-0.1076400950551033, 0.0014905630378052592, -0.18547505140304565], "type": "VEC3"}, {"bufferView": 1, "componentType": 5126, "count": 51106, "type": "VEC3"}, {"bufferView": 2, "componentType": 5126, "count": 51106, "type": "VEC2"}, {"bufferView": 3, "componentType": 5123, "count": 253314, "type": "SCALAR"}, {"bufferView": 4, "componentType": 5126, "count": 34679, "max": [0.07144440710544586, 0.1973886936903, 0.1445658802986145], "min": [-0.07294614613056183, 0.04164738953113556, -0.14212678372859955], "type": "VEC3"}, {"bufferView": 5, "componentType": 5126, "count": 34679, "type": "VEC3"}, {"bufferView": 6, "componentType": 5126, "count": 34679, "type": "VEC2"}, {"bufferView": 7, "componentType": 5123, "count": 145281, "type": "SCALAR"}, {"bufferView": 8, "componentType": 5126, "count": 21799, "max": [0.05322165787220001, 0.1917629987001419, 0.30584263801574707], "min": [-0.37524035573005676, -0.007447585463523865, -0.162209615111351], "type": "VEC3"}, {"bufferView": 9, "componentType": 5126, "count": 21799, "type": "VEC3"}, {"bufferView": 10, "componentType": 5126, "count": 21799, "type": "VEC2"}, {"bufferView": 11, "componentType": 5123, "count": 112602, "type": "SCALAR"}, {"bufferView": 12, "componentType": 5126, "count": 47749, "max": [0.04150475189089775, 0.21084292232990265, 0.16601909697055817], "min": [-0.09465982019901276, 0.006434909999370575, -0.16601909697055817], "type": "VEC3"}, {"bufferView": 13, "componentType": 5126, "count": 47749, "type": "VEC3"}, {"bufferView": 14, "componentType": 5126, "count": 47749, "type": "VEC2"}, {"bufferView": 15, "componentType": 5123, "count": 151374, "type": "SCALAR"}], "bufferViews": [{"buffer": 0, "byteLength": 613272, "byteOffset": 0, "target": 34962}, {"buffer": 0, "byteLength": 613272, "byteOffset": 613272, "target": 34962}, {"buffer": 0, "byteLength": 408848, "byteOffset": 1226544, "target": 34962}, {"buffer": 0, "byteLength": 506628, "byteOffset": 1635392, "target": 34963}, {"buffer": 0, "byteLength": 416148, "byteOffset": 2142020, "target": 34962}, {"buffer": 0, "byteLength": 416148, "byteOffset": 2558168, "target": 34962}, {"buffer": 0, "byteLength": 277432, "byteOffset": 2974316, "target": 34962}, {"buffer": 0, "byteLength": 290562, "byteOffset": 3251748, "target": 34963}, {"buffer": 0, "byteLength": 261588, "byteOffset": 3542312, "target": 34962}, {"buffer": 0, "byteLength": 261588, "byteOffset": 3803900, "target": 34962}, {"buffer": 0, "byteLength": 174392, "byteOffset": 4065488, "target": 34962}, {"buffer": 0, "byteLength": 225204, "byteOffset": 4239880, "target": 34963}, {"buffer": 0, "byteLength": 572988, "byteOffset": 4465084, "target": 34962}, {"buffer": 0, "byteLength": 572988, "byteOffset": 5038072, "target": 34962}, {"buffer": 0, "byteLength": 381992, "byteOffset": 5611060, "target": 34962}, {"buffer": 0, "byteLength": 302748, "byteOffset": 5993052, "target": 34963}], "samplers": [{"magFilter": 9729, "minFilter": 9987}], "buffers": [{"byteLength": 6295800, "uri": "model.bin"}]}