{"asset": {"generator": "Khronos glTF Blender I/O v3.6.27", "version": "2.0"}, "scene": 0, "scenes": [{"name": "Scene", "nodes": [0]}], "nodes": [{"mesh": 0, "name": "qlEtl_LOD0_TIER2_000", "rotation": [0.7071068286895752, 0, 0, 0.7071068286895752], "scale": [0.009999999776482582, 0.009999999776482582, 0.009999999776482582]}], "materials": [{"doubleSided": true, "name": "MI_qlEtl", "normalTexture": {"index": 0}, "occlusionTexture": {"index": 1}, "pbrMetallicRoughness": {"baseColorTexture": {"index": 2}, "metallicRoughnessTexture": {"index": 1}}}], "meshes": [{"name": "S_qlEtl_tier_2", "primitives": [{"attributes": {"POSITION": 0, "NORMAL": 1, "TEXCOORD_0": 2, "TANGENT": 3}, "indices": 4, "material": 0}]}], "textures": [{"sampler": 0, "source": 0}, {"sampler": 0, "source": 1}, {"sampler": 0, "source": 2}], "images": [{"mimeType": "image/jpeg", "name": "T_qlEtl_2K_N", "uri": "t0.jpg"}, {"mimeType": "image/jpeg", "name": "T_qlEtl_2K_ORM", "uri": "t1.jpg", "extras": {"compression": "mask"}}, {"mimeType": "image/jpeg", "name": "T_qlEtl_2K_B", "uri": "t2.jpg"}], "accessors": [{"bufferView": 0, "componentType": 5126, "count": 10036, "max": [101.33965301513672, 160.15982055664062, -0.7116826772689819], "min": [-113.66033935546875, -116.89743041992188, -621.755615234375], "type": "VEC3"}, {"bufferView": 1, "componentType": 5126, "count": 10036, "type": "VEC3"}, {"bufferView": 2, "componentType": 5126, "count": 10036, "type": "VEC2"}, {"bufferView": 3, "componentType": 5126, "count": 10036, "type": "VEC4"}, {"bufferView": 4, "componentType": 5123, "count": 50187, "type": "SCALAR"}], "bufferViews": [{"buffer": 0, "byteLength": 120432, "byteOffset": 0, "target": 34962}, {"buffer": 0, "byteLength": 120432, "byteOffset": 120432, "target": 34962}, {"buffer": 0, "byteLength": 80288, "byteOffset": 240864, "target": 34962}, {"buffer": 0, "byteLength": 160576, "byteOffset": 321152, "target": 34962}, {"buffer": 0, "byteLength": 100374, "byteOffset": 481728, "target": 34963}], "samplers": [{"magFilter": 9729, "minFilter": 9987}], "buffers": [{"byteLength": 582104, "uri": "model.bin"}]}