{"asset": {"generator": "Khronos glTF Blender I/O v3.6.27", "version": "2.0"}, "scene": 0, "scenes": [{"name": "Scene", "nodes": [0]}], "nodes": [{"mesh": 0, "name": "uhrhabqfa_LOD0_TIER2_000", "rotation": [0.7071068286895752, 0, 0, 0.7071068286895752], "scale": [0.009999999776482582, 0.009999999776482582, 0.009999999776482582]}], "materials": [{"doubleSided": true, "name": "MI_uhrhabqfa", "normalTexture": {"index": 0}, "occlusionTexture": {"index": 1}, "pbrMetallicRoughness": {"baseColorTexture": {"index": 2}, "metallicRoughnessTexture": {"index": 1}}}], "meshes": [{"name": "S_uhrhabqfa_tier_2", "primitives": [{"attributes": {"POSITION": 0, "NORMAL": 1, "TEXCOORD_0": 2, "TANGENT": 3}, "indices": 4, "material": 0}]}], "textures": [{"sampler": 0, "source": 0}, {"sampler": 0, "source": 1}, {"sampler": 0, "source": 2}], "images": [{"mimeType": "image/jpeg", "name": "T_uhrhabqfa_2K_N", "uri": "t0.jpg"}, {"mimeType": "image/jpeg", "name": "T_uhrhabqfa_2K_ORM", "uri": "t1.jpg", "extras": {"compression": "mask"}}, {"mimeType": "image/jpeg", "name": "T_uhrhabqfa_2K_B", "uri": "t2.jpg"}], "accessors": [{"bufferView": 0, "componentType": 5126, "count": 4378, "max": [17.714780807495117, 17.659582138061523, 0.12037669867277145], "min": [-17.70111656188965, -17.69611930847168, -68.65971374511719], "type": "VEC3"}, {"bufferView": 1, "componentType": 5126, "count": 4378, "type": "VEC3"}, {"bufferView": 2, "componentType": 5126, "count": 4378, "type": "VEC2"}, {"bufferView": 3, "componentType": 5126, "count": 4378, "type": "VEC4"}, {"bufferView": 4, "componentType": 5123, "count": 21948, "type": "SCALAR"}], "bufferViews": [{"buffer": 0, "byteLength": 52536, "byteOffset": 0, "target": 34962}, {"buffer": 0, "byteLength": 52536, "byteOffset": 52536, "target": 34962}, {"buffer": 0, "byteLength": 35024, "byteOffset": 105072, "target": 34962}, {"buffer": 0, "byteLength": 70048, "byteOffset": 140096, "target": 34962}, {"buffer": 0, "byteLength": 43896, "byteOffset": 210144, "target": 34963}], "samplers": [{"magFilter": 9729, "minFilter": 9987}], "buffers": [{"byteLength": 254040, "uri": "model.bin"}]}