{"asset":{"generator":"Khronos glTF Blender I/O v3.6.27","version":"2.0"},"scene":0,"scenes":[{"name":"Scene","nodes":[0,1,2,3,4,5,6,7,8,9,10,11,12,13,14]}],"nodes":[{"mesh":0,"name":"SM_tbbqejqr_VarA","rotation":[0.7071068286895752,0,0,0.7071068286895752],"scale":[0.009999999776482582,0.009999999776482582,0.009999999776482582]},{"mesh":1,"name":"SM_tbbqejqr_VarA_LOD1","rotation":[0.7071068286895752,0,0,0.7071068286895752],"scale":[0.009999999776482582,0.009999999776482582,0.009999999776482582],"extras":{"lod":{"index":1,"mesh":"SM_tbbqejqr_VarA"}}},{"mesh":2,"name":"SM_tbbqejqr_VarA_LOD2","rotation":[0.7071068286895752,0,0,0.7071068286895752],"scale":[0.009999999776482582,0.009999999776482582,0.009999999776482582],"extras":{"lod":{"index":2,"mesh":"SM_tbbqejqr_VarA"}}},{"mesh":3,"name":"SM_tbbqejqr_VarB","rotation":[0.7071068286895752,0,0,0.7071068286895752],"scale":[0.009999999776482582,0.009999999776482582,0.009999999776482582]},{"mesh":4,"name":"SM_tbbqejqr_VarB_LOD1","rotation":[0.7071068286895752,0,0,0.7071068286895752],"scale":[0.009999999776482582,0.009999999776482582,0.009999999776482582],"extras":{"lod":{"index":1,"mesh":"SM_tbbqejqr_VarB"}}},{"mesh":5,"name":"SM_tbbqejqr_VarB_LOD2","rotation":[0.7071068286895752,0,0,0.7071068286895752],"scale":[0.009999999776482582,0.009999999776482582,0.009999999776482582],"extras":{"lod":{"index":2,"mesh":"SM_tbbqejqr_VarB"}}},{"mesh":6,"name":"SM_tbbqejqr_VarC","rotation":[0.7071068286895752,0,0,0.7071068286895752],"scale":[0.009999999776482582,0.009999999776482582,0.009999999776482582]},{"mesh":7,"name":"SM_tbbqejqr_VarC_LOD1","rotation":[0.7071068286895752,0,0,0.7071068286895752],"scale":[0.009999999776482582,0.009999999776482582,0.009999999776482582],"extras":{"lod":{"index":1,"mesh":"SM_tbbqejqr_VarC"}}},{"mesh":8,"name":"SM_tbbqejqr_VarC_LOD2","rotation":[0.7071068286895752,0,0,0.7071068286895752],"scale":[0.009999999776482582,0.009999999776482582,0.009999999776482582],"extras":{"lod":{"index":2,"mesh":"SM_tbbqejqr_VarC"}}},{"mesh":9,"name":"SM_tbbqejqr_VarD","rotation":[0.7071068286895752,0,0,0.7071068286895752],"scale":[0.009999999776482582,0.009999999776482582,0.009999999776482582]},{"mesh":10,"name":"SM_tbbqejqr_VarD_LOD1","rotation":[0.7071068286895752,0,0,0.7071068286895752],"scale":[0.009999999776482582,0.009999999776482582,0.009999999776482582],"extras":{"lod":{"index":1,"mesh":"SM_tbbqejqr_VarD"}}},{"mesh":11,"name":"SM_tbbqejqr_VarD_LOD2","rotation":[0.7071068286895752,0,0,0.7071068286895752],"scale":[0.009999999776482582,0.009999999776482582,0.009999999776482582],"extras":{"lod":{"index":2,"mesh":"SM_tbbqejqr_VarD"}}},{"mesh":12,"name":"SM_tbbqejqr_VarE","rotation":[0.7071068286895752,0,0,0.7071068286895752],"scale":[0.009999999776482582,0.009999999776482582,0.009999999776482582]},{"mesh":13,"name":"SM_tbbqejqr_VarE_LOD1","rotation":[0.7071068286895752,0,0,0.7071068286895752],"scale":[0.009999999776482582,0.009999999776482582,0.009999999776482582],"extras":{"lod":{"index":1,"mesh":"SM_tbbqejqr_VarE"}}},{"mesh":14,"name":"SM_tbbqejqr_VarE_LOD2","rotation":[0.7071068286895752,0,0,0.7071068286895752],"scale":[0.009999999776482582,0.009999999776482582,0.009999999776482582],"extras":{"lod":{"index":2,"mesh":"SM_tbbqejqr_VarE"}}}],"materials":[{"alphaMode":"MASK","doubleSided":true,"name":"MI_tbbqejqr","normalTexture":{"index":0},"pbrMetallicRoughness":{"baseColorTexture":{"index":2},"metallicRoughnessTexture":{"index":1},"metallicFactor":0},"extras":{"params":[{"Name":"use Growth Effect","Value":false},{"Name":"Base Color Controls","Value":[1,0.800000011920929,1,0]}]},"alphaCutoff":0.5},{"alphaMode":"MASK","doubleSided":true,"name":"MI_tbbqejqr_Billboard","normalTexture":{"index":3},"pbrMetallicRoughness":{"baseColorTexture":{"index":4},"metallicFactor":0,"roughnessFactor":0.8},"extras":{"billboardFacingCamera":true,"params":[{"Name":"is Camera Facing Billboard","Value":true},{"Name":"is Billboard","Value":true}]},"alphaCutoff":0.5}],"meshes":[{"name":"SM_tbbqejqr_VarA","primitives":[{"attributes":{"COLOR_0":0,"POSITION":1,"TEXCOORD_0":2},"indices":3,"material":0}]},{"name":"SM_tbbqejqr_VarA_LOD1","primitives":[{"attributes":{"COLOR_0":4,"POSITION":5,"TEXCOORD_0":6},"indices":7,"material":0}]},{"name":"SM_tbbqejqr_VarA_LOD2","primitives":[{"attributes":{"COLOR_0":8,"POSITION":9,"TEXCOORD_0":10},"indices":11,"material":1}]},{"name":"SM_tbbqejqr_VarB","primitives":[{"attributes":{"COLOR_0":12,"POSITION":13,"TEXCOORD_0":14},"indices":15,"material":0}]},{"name":"SM_tbbqejqr_VarB_LOD1","primitives":[{"attributes":{"COLOR_0":16,"POSITION":17,"TEXCOORD_0":18},"indices":19,"material":0}]},{"name":"SM_tbbqejqr_VarB_LOD2","primitives":[{"attributes":{"COLOR_0":20,"POSITION":21,"TEXCOORD_0":22},"indices":23,"material":1}]},{"name":"SM_tbbqejqr_VarC","primitives":[{"attributes":{"COLOR_0":24,"POSITION":25,"TEXCOORD_0":26},"indices":27,"material":0}]},{"name":"SM_tbbqejqr_VarC_LOD1","primitives":[{"attributes":{"COLOR_0":28,"POSITION":29,"TEXCOORD_0":30},"indices":31,"material":0}]},{"name":"SM_tbbqejqr_VarC_LOD2","primitives":[{"attributes":{"COLOR_0":32,"POSITION":33,"TEXCOORD_0":34},"indices":23,"material":1}]},{"name":"SM_tbbqejqr_VarD","primitives":[{"attributes":{"COLOR_0":35,"POSITION":36,"TEXCOORD_0":37},"indices":38,"material":0}]},{"name":"SM_tbbqejqr_VarD_LOD1","primitives":[{"attributes":{"COLOR_0":39,"POSITION":40,"TEXCOORD_0":41},"indices":42,"material":0}]},{"name":"SM_tbbqejqr_VarD_LOD2","primitives":[{"attributes":{"COLOR_0":43,"POSITION":44,"TEXCOORD_0":45},"indices":46,"material":1}]},{"name":"SM_tbbqejqr_VarE","primitives":[{"attributes":{"COLOR_0":47,"POSITION":48,"TEXCOORD_0":49},"indices":50,"material":0}]},{"name":"SM_tbbqejqr_VarE_LOD1","primitives":[{"attributes":{"COLOR_0":51,"POSITION":52,"TEXCOORD_0":53},"indices":54,"material":0}]},{"name":"SM_tbbqejqr_VarE_LOD2","primitives":[{"attributes":{"COLOR_0":55,"POSITION":56,"TEXCOORD_0":57},"indices":58,"material":1}]}],"textures":[{"sampler":0,"source":0},{"sampler":0,"source":1},{"sampler":0,"source":2},{"sampler":0,"source":3},{"sampler":0,"source":4}],"images":[{"uri":"t0.jpg"},{"uri":"t1.jpg"},{"uri":"t2.png"},{"uri":"t3.png"},{"uri":"t4.png"}],"accessors":[{"bufferView":0,"componentType":5123,"count":1257,"normalized":true,"type":"VEC4"},{"bufferView":1,"componentType":5126,"count":1257,"max":[19.031282424926758,17.63669776916504,2.1867406368255615],"min":[-15.048165321350098,-19.510860443115234,-66.59664154052734],"type":"VEC3"},{"bufferView":2,"componentType":5126,"count":1257,"type":"VEC2"},{"bufferView":3,"componentType":5123,"count":3318,"type":"SCALAR"},{"bufferView":4,"componentType":5123,"count":582,"normalized":true,"type":"VEC4"},{"bufferView":5,"componentType":5126,"count":582,"max":[19.031282424926758,17.53020477294922,2.1867406368255615],"min":[-15.048165321350098,-19.510860443115234,-66.59664154052734],"type":"VEC3"},{"bufferView":6,"componentType":5126,"count":582,"type":"VEC2"},{"bufferView":7,"componentType":5123,"count":1374,"type":"SCALAR"},{"bufferView":8,"componentType":5123,"count":4,"normalized":true,"type":"VEC4"},{"bufferView":9,"componentType":5126,"count":4,"max":[19.031282424926758,0,0.018910318613052368],"min":[-15.048165321350098,0,-66.20584869384766],"type":"VEC3"},{"bufferView":10,"componentType":5126,"count":4,"type":"VEC2"},{"bufferView":11,"componentType":5123,"count":6,"type":"SCALAR"},{"bufferView":12,"componentType":5123,"count":977,"normalized":true,"type":"VEC4"},{"bufferView":13,"componentType":5126,"count":977,"max":[14.395671844482422,9.869255065917969,1.917413592338562],"min":[-16.319889068603516,-18.048686981201172,-57.89619064331055],"type":"VEC3"},{"bufferView":14,"componentType":5126,"count":977,"type":"VEC2"},{"bufferView":15,"componentType":5123,"count":2553,"type":"SCALAR"},{"bufferView":16,"componentType":5123,"count":451,"normalized":true,"type":"VEC4"},{"bufferView":17,"componentType":5126,"count":451,"max":[14.395671844482422,9.86927318572998,1.917413592338562],"min":[-16.319889068603516,-18.048686981201172,-57.89619064331055],"type":"VEC3"},{"bufferView":18,"componentType":5126,"count":451,"type":"VEC2"},{"bufferView":19,"componentType":5123,"count":1023,"type":"SCALAR"},{"bufferView":20,"componentType":5123,"count":6,"normalized":true,"type":"VEC4"},{"bufferView":21,"componentType":5126,"count":6,"max":[14.395671844482422,0,0.4544454514980316],"min":[-16.319889068603516,0,-57.89619064331055],"type":"VEC3"},{"bufferView":22,"componentType":5126,"count":6,"type":"VEC2"},{"bufferView":23,"componentType":5123,"count":12,"type":"SCALAR"},{"bufferView":24,"componentType":5123,"count":469,"normalized":true,"type":"VEC4"},{"bufferView":25,"componentType":5126,"count":469,"max":[7.840419769287109,7.8110785484313965,2.263690233230591],"min":[-13.219411849975586,-8.191778182983398,-45.74256134033203],"type":"VEC3"},{"bufferView":26,"componentType":5126,"count":469,"type":"VEC2"},{"bufferView":27,"componentType":5123,"count":1236,"type":"SCALAR"},{"bufferView":28,"componentType":5123,"count":166,"normalized":true,"type":"VEC4"},{"bufferView":29,"componentType":5126,"count":166,"max":[7.840419769287109,7.8110785484313965,2.2143988609313965],"min":[-13.219411849975586,-8.191802978515625,-45.67466735839844],"type":"VEC3"},{"bufferView":30,"componentType":5126,"count":166,"type":"VEC2"},{"bufferView":31,"componentType":5123,"count":384,"type":"SCALAR"},{"bufferView":32,"componentType":5123,"count":6,"normalized":true,"type":"VEC4"},{"bufferView":33,"componentType":5126,"count":6,"max":[7.840419769287109,0,2.092491626739502],"min":[-13.219411849975586,0,-45.67466735839844],"type":"VEC3"},{"bufferView":34,"componentType":5126,"count":6,"type":"VEC2"},{"bufferView":35,"componentType":5123,"count":560,"normalized":true,"type":"VEC4"},{"bufferView":36,"componentType":5126,"count":560,"max":[10.115447998046875,7.539443492889404,0.692288875579834],"min":[-12.054131507873535,-7.779617786407471,-13.2299165725708],"type":"VEC3"},{"bufferView":37,"componentType":5126,"count":560,"type":"VEC2"},{"bufferView":38,"componentType":5123,"count":1464,"type":"SCALAR"},{"bufferView":39,"componentType":5123,"count":246,"normalized":true,"type":"VEC4"},{"bufferView":40,"componentType":5126,"count":246,"max":[10.11544418334961,7.539430141448975,0.6922883987426758],"min":[-12.054137229919434,-7.779632568359375,-13.2299165725708],"type":"VEC3"},{"bufferView":41,"componentType":5126,"count":246,"type":"VEC2"},{"bufferView":42,"componentType":5123,"count":570,"type":"SCALAR"},{"bufferView":43,"componentType":5123,"count":5,"normalized":true,"type":"VEC4"},{"bufferView":44,"componentType":5126,"count":5,"max":[8.731668472290039,0,0.6922883987426758],"min":[-12.054137229919434,0,-13.216893196105957],"type":"VEC3"},{"bufferView":45,"componentType":5126,"count":5,"type":"VEC2"},{"bufferView":46,"componentType":5123,"count":9,"type":"SCALAR"},{"bufferView":47,"componentType":5123,"count":122,"normalized":true,"type":"VEC4"},{"bufferView":48,"componentType":5126,"count":122,"max":[12.134693145751953,18.14529800415039,1.5739573240280151],"min":[-15.099875450134277,-20.306474685668945,-2.284128189086914],"type":"VEC3"},{"bufferView":49,"componentType":5126,"count":122,"type":"VEC2"},{"bufferView":50,"componentType":5123,"count":300,"type":"SCALAR"},{"bufferView":51,"componentType":5123,"count":70,"normalized":true,"type":"VEC4"},{"bufferView":52,"componentType":5126,"count":70,"max":[12.134708404541016,18.145309448242188,1.5739573240280151],"min":[-15.099878311157227,-20.306468963623047,-2.284128189086914],"type":"VEC3"},{"bufferView":53,"componentType":5126,"count":70,"type":"VEC2"},{"bufferView":54,"componentType":5123,"count":150,"type":"SCALAR"},{"bufferView":55,"componentType":5123,"count":6,"normalized":true,"type":"VEC4"},{"bufferView":56,"componentType":5126,"count":6,"max":[12.134702682495117,18.14528465270996,0],"min":[-15.133892059326172,-20.306474685668945,0],"type":"VEC3"},{"bufferView":57,"componentType":5126,"count":6,"type":"VEC2"},{"bufferView":58,"componentType":5123,"count":12,"type":"SCALAR"}],"bufferViews":[{"buffer":0,"byteLength":10056,"byteOffset":0,"target":34962},{"buffer":0,"byteLength":15084,"byteOffset":10056,"target":34962},{"buffer":0,"byteLength":10056,"byteOffset":25140,"target":34962},{"buffer":0,"byteLength":6636,"byteOffset":35196,"target":34963},{"buffer":0,"byteLength":4656,"byteOffset":41832,"target":34962},{"buffer":0,"byteLength":6984,"byteOffset":46488,"target":34962},{"buffer":0,"byteLength":4656,"byteOffset":53472,"target":34962},{"buffer":0,"byteLength":2748,"byteOffset":58128,"target":34963},{"buffer":0,"byteLength":32,"byteOffset":60876,"target":34962},{"buffer":0,"byteLength":48,"byteOffset":60908,"target":34962},{"buffer":0,"byteLength":32,"byteOffset":60956,"target":34962},{"buffer":0,"byteLength":12,"byteOffset":60988,"target":34963},{"buffer":0,"byteLength":7816,"byteOffset":61000,"target":34962},{"buffer":0,"byteLength":11724,"byteOffset":68816,"target":34962},{"buffer":0,"byteLength":7816,"byteOffset":80540,"target":34962},{"buffer":0,"byteLength":5106,"byteOffset":88356,"target":34963},{"buffer":0,"byteLength":3608,"byteOffset":93464,"target":34962},{"buffer":0,"byteLength":5412,"byteOffset":97072,"target":34962},{"buffer":0,"byteLength":3608,"byteOffset":102484,"target":34962},{"buffer":0,"byteLength":2046,"byteOffset":106092,"target":34963},{"buffer":0,"byteLength":48,"byteOffset":108140,"target":34962},{"buffer":0,"byteLength":72,"byteOffset":108188,"target":34962},{"buffer":0,"byteLength":48,"byteOffset":108260,"target":34962},{"buffer":0,"byteLength":24,"byteOffset":108308,"target":34963},{"buffer":0,"byteLength":3752,"byteOffset":108332,"target":34962},{"buffer":0,"byteLength":5628,"byteOffset":112084,"target":34962},{"buffer":0,"byteLength":3752,"byteOffset":117712,"target":34962},{"buffer":0,"byteLength":2472,"byteOffset":121464,"target":34963},{"buffer":0,"byteLength":1328,"byteOffset":123936,"target":34962},{"buffer":0,"byteLength":1992,"byteOffset":125264,"target":34962},{"buffer":0,"byteLength":1328,"byteOffset":127256,"target":34962},{"buffer":0,"byteLength":768,"byteOffset":128584,"target":34963},{"buffer":0,"byteLength":48,"byteOffset":129352,"target":34962},{"buffer":0,"byteLength":72,"byteOffset":129400,"target":34962},{"buffer":0,"byteLength":48,"byteOffset":129472,"target":34962},{"buffer":0,"byteLength":4480,"byteOffset":129520,"target":34962},{"buffer":0,"byteLength":6720,"byteOffset":134000,"target":34962},{"buffer":0,"byteLength":4480,"byteOffset":140720,"target":34962},{"buffer":0,"byteLength":2928,"byteOffset":145200,"target":34963},{"buffer":0,"byteLength":1968,"byteOffset":148128,"target":34962},{"buffer":0,"byteLength":2952,"byteOffset":150096,"target":34962},{"buffer":0,"byteLength":1968,"byteOffset":153048,"target":34962},{"buffer":0,"byteLength":1140,"byteOffset":155016,"target":34963},{"buffer":0,"byteLength":40,"byteOffset":156156,"target":34962},{"buffer":0,"byteLength":60,"byteOffset":156196,"target":34962},{"buffer":0,"byteLength":40,"byteOffset":156256,"target":34962},{"buffer":0,"byteLength":18,"byteOffset":156296,"target":34963},{"buffer":0,"byteLength":976,"byteOffset":156316,"target":34962},{"buffer":0,"byteLength":1464,"byteOffset":157292,"target":34962},{"buffer":0,"byteLength":976,"byteOffset":158756,"target":34962},{"buffer":0,"byteLength":600,"byteOffset":159732,"target":34963},{"buffer":0,"byteLength":560,"byteOffset":160332,"target":34962},{"buffer":0,"byteLength":840,"byteOffset":160892,"target":34962},{"buffer":0,"byteLength":560,"byteOffset":161732,"target":34962},{"buffer":0,"byteLength":300,"byteOffset":162292,"target":34963},{"buffer":0,"byteLength":48,"byteOffset":162592,"target":34962},{"buffer":0,"byteLength":72,"byteOffset":162640,"target":34962},{"buffer":0,"byteLength":48,"byteOffset":162712,"target":34962},{"buffer":0,"byteLength":24,"byteOffset":162760,"target":34963}],"samplers":[{"magFilter":9729,"minFilter":9987}],"buffers":[{"byteLength":162784,"uri":"model.bin"}],"extras":{"tier":2}}