{"asset": {"generator": "Khronos glTF Blender I/O v3.6.27", "version": "2.0"}, "scene": 0, "scenes": [{"name": "Scene", "nodes": [0]}], "nodes": [{"mesh": 0, "name": "wdlmdgebw_LOD0_TIER1_000", "rotation": [0.7071068286895752, 0, 0, 0.7071068286895752], "scale": [0.009999999776482582, 0.009999999776482582, 0.009999999776482582]}], "materials": [{"doubleSided": true, "name": "MI_wdlmdgebw", "normalTexture": {"index": 0}, "occlusionTexture": {"index": 1}, "pbrMetallicRoughness": {"baseColorTexture": {"index": 2}, "metallicRoughnessTexture": {"index": 1}}}], "meshes": [{"name": "S_wdlmdgebw_tier_1", "primitives": [{"attributes": {"POSITION": 0, "NORMAL": 1, "TEXCOORD_0": 2, "TANGENT": 3}, "indices": 4, "material": 0}]}], "textures": [{"sampler": 0, "source": 0}, {"sampler": 0, "source": 1}, {"sampler": 0, "source": 2}, {"sampler": 0, "source": 3}], "images": [{"name": "T_wdlmdgebw_4K_N", "uri": "T_wdlmdgebw_1K_N.jpg"}, {"name": "T_wdlmdgebw_4K_ORM", "uri": "T_wdlmdgebw_1K_ORM.jpg", "extras": {"compression": "mask"}}, {"name": "T_wdlmdgebw_4K_B", "uri": "T_wdlmdgebw_1K_B.jpg"}, {"name": "T_wdlmdgebw_4K_H", "uri": "T_wdlmdgebw_1K_H.jpg", "extras": {"textureSlot": "HeightTexture", "compression": "displacement"}}], "accessors": [{"bufferView": 0, "componentType": 5126, "count": 5625, "max": [32.727577209472656, 31.599361419677734, 2.321150064468384], "min": [-31.413686752319336, -32.2286376953125, -2.2883388996124268], "type": "VEC3"}, {"bufferView": 1, "componentType": 5126, "count": 5625, "type": "VEC3"}, {"bufferView": 2, "componentType": 5126, "count": 5625, "type": "VEC2"}, {"bufferView": 3, "componentType": 5126, "count": 5625, "type": "VEC4"}, {"bufferView": 4, "componentType": 5123, "count": 31308, "type": "SCALAR"}], "bufferViews": [{"buffer": 0, "byteLength": 67500, "byteOffset": 0, "target": 34962}, {"buffer": 0, "byteLength": 67500, "byteOffset": 67500, "target": 34962}, {"buffer": 0, "byteLength": 45000, "byteOffset": 135000, "target": 34962}, {"buffer": 0, "byteLength": 90000, "byteOffset": 180000, "target": 34962}, {"buffer": 0, "byteLength": 62616, "byteOffset": 270000, "target": 34963}], "samplers": [{"magFilter": 9729, "minFilter": 9987}], "buffers": [{"byteLength": 332616, "uri": "wdlmdgebw_tier_1.bin"}]}