{"asset": {"generator": "Khronos glTF Blender I/O v3.6.27", "version": "2.0"}, "scene": 0, "scenes": [{"name": "Scene", "nodes": [0]}], "nodes": [{"mesh": 0, "name": "wjfjahl_LOD0_TIER1_000", "rotation": [0.7071068286895752, 0, 0, 0.7071068286895752], "scale": [0.009999999776482582, 0.009999999776482582, 0.009999999776482582]}], "materials": [{"doubleSided": true, "name": "MI_wjfjahl", "normalTexture": {"index": 0}, "occlusionTexture": {"index": 1}, "pbrMetallicRoughness": {"baseColorTexture": {"index": 2}, "metallicRoughnessTexture": {"index": 1}}}], "meshes": [{"name": "S_wjfjahl_tier_1", "primitives": [{"attributes": {"POSITION": 0, "NORMAL": 1, "TEXCOORD_0": 2, "TANGENT": 3}, "indices": 4, "material": 0}]}], "textures": [{"sampler": 0, "source": 0}, {"sampler": 0, "source": 1}, {"sampler": 0, "source": 2}, {"sampler": 0, "source": 3}], "images": [{"name": "T_wjfjahl_4K_N", "uri": "T_wjfjahl_1K_N.jpg"}, {"name": "T_wjfjahl_4K_ORM", "uri": "T_wjfjahl_1K_ORM.jpg", "extras": {"compression": "mask"}}, {"name": "T_wjfjahl_4K_B", "uri": "T_wjfjahl_1K_B.jpg"}, {"name": "T_wjfjahl_4K_H", "uri": "T_wjfjahl_1K_H.jpg", "extras": {"textureSlot": "HeightTexture", "compression": "displacement"}}], "accessors": [{"bufferView": 0, "componentType": 5126, "count": 3792, "max": [75.89836120605469, 15.363171577453613, 0.0838063657283783], "min": [-76.10047912597656, -15.868014335632324, -58.73849868774414], "type": "VEC3"}, {"bufferView": 1, "componentType": 5126, "count": 3792, "type": "VEC3"}, {"bufferView": 2, "componentType": 5126, "count": 3792, "type": "VEC2"}, {"bufferView": 3, "componentType": 5126, "count": 3792, "type": "VEC4"}, {"bufferView": 4, "componentType": 5123, "count": 19284, "type": "SCALAR"}], "bufferViews": [{"buffer": 0, "byteLength": 45504, "byteOffset": 0, "target": 34962}, {"buffer": 0, "byteLength": 45504, "byteOffset": 45504, "target": 34962}, {"buffer": 0, "byteLength": 30336, "byteOffset": 91008, "target": 34962}, {"buffer": 0, "byteLength": 60672, "byteOffset": 121344, "target": 34962}, {"buffer": 0, "byteLength": 38568, "byteOffset": 182016, "target": 34963}], "samplers": [{"magFilter": 9729, "minFilter": 9987}], "buffers": [{"byteLength": 220584, "uri": "wjfjahl_tier_1.bin"}]}