{"asset": {"version": "2.0", "generator": "Unreal Engine 5.2.1"}, "scene": 0, "accessors": [{"bufferView": 0, "count": 126276, "type": "SCALAR", "componentType": 5123}, {"bufferView": 1, "count": 27068, "type": "VEC3", "componentType": 5126, "min": [-0.481236547, -1.04004776, -0.120707393], "max": [0.611555159, 1.04004681, 0.132993773]}, {"bufferView": 2, "count": 27068, "type": "VEC3", "componentType": 5126}, {"bufferView": 3, "count": 27068, "type": "VEC4", "componentType": 5126}, {"bufferView": 4, "count": 27068, "type": "VEC2", "componentType": 5126}, {"bufferView": 5, "count": 27068, "type": "VEC2", "componentType": 5126}, {"bufferView": 6, "count": 3486, "type": "SCALAR", "componentType": 5123}, {"bufferView": 7, "count": 756, "type": "VEC3", "componentType": 5126, "min": [-0.112976961, -0.00478966394, -0.0764183626], "max": [0.112438813, 0.788032949, 0.0728748813]}, {"bufferView": 8, "count": 756, "type": "VEC3", "componentType": 5126}, {"bufferView": 9, "count": 756, "type": "VEC4", "componentType": 5126}, {"bufferView": 10, "count": 756, "type": "VEC2", "componentType": 5126}, {"bufferView": 11, "count": 36, "type": "SCALAR", "componentType": 5121}, {"bufferView": 12, "count": 24, "type": "VEC3", "componentType": 5126, "min": [0, -1.62920291e-08, -0.100000232], "max": [4, 4, 0.100000411]}, {"bufferView": 13, "count": 24, "type": "VEC3", "componentType": 5126}, {"bufferView": 14, "count": 24, "type": "VEC4", "componentType": 5126}, {"bufferView": 15, "count": 24, "type": "VEC2", "componentType": 5126}, {"bufferView": 16, "count": 24, "type": "VEC2", "componentType": 5126}, {"bufferView": 17, "count": 19512, "type": "SCALAR", "componentType": 5123}, {"bufferView": 18, "count": 4431, "type": "VEC3", "componentType": 5126, "min": [-0.29885754, -0.231798127, -0.396505684], "max": [0.303812355, 0.232682928, 0.332563162]}, {"bufferView": 19, "count": 4431, "type": "VEC3", "componentType": 5126}, {"bufferView": 20, "count": 4431, "type": "VEC4", "componentType": 5126}, {"bufferView": 21, "count": 4431, "type": "VEC2", "componentType": 5126}, {"bufferView": 22, "count": 25620, "type": "SCALAR", "componentType": 5123}, {"bufferView": 23, "count": 5508, "type": "VEC3", "componentType": 5126, "min": [-0.738430798, -0.00106555934, -0.740497828], "max": [0.738523304, 0.355668515, 0.740134418]}, {"bufferView": 24, "count": 5508, "type": "VEC3", "componentType": 5126}, {"bufferView": 25, "count": 5508, "type": "VEC4", "componentType": 5126}, {"bufferView": 26, "count": 5508, "type": "VEC2", "componentType": 5126}, {"bufferView": 27, "count": 7470, "type": "SCALAR", "componentType": 5123}, {"bufferView": 28, "count": 1564, "type": "VEC3", "componentType": 5126, "min": [-1.35794914, -0.0139049208, -0.0915314183], "max": [1.37171996, 0.973124743, 0.0912828147]}, {"bufferView": 29, "count": 1564, "type": "VEC3", "componentType": 5126}, {"bufferView": 30, "count": 1564, "type": "VEC4", "componentType": 5126}, {"bufferView": 31, "count": 1564, "type": "VEC2", "componentType": 5126}, {"bufferView": 32, "count": 24948, "type": "SCALAR", "componentType": 5123}, {"bufferView": 33, "count": 4543, "type": "VEC3", "componentType": 5126, "min": [-0.62209034, -0.00926507637, -0.605263591], "max": [0.625304818, 0.158579573, 0.615782797]}, {"bufferView": 34, "count": 4543, "type": "VEC3", "componentType": 5126}, {"bufferView": 35, "count": 4543, "type": "VEC4", "componentType": 5126}, {"bufferView": 36, "count": 4543, "type": "VEC2", "componentType": 5126}, {"bufferView": 37, "count": 11883, "type": "SCALAR", "componentType": 5123}, {"bufferView": 38, "count": 2235, "type": "VEC3", "componentType": 5126, "min": [-0.791710138, -0.0569769368, -0.620774269], "max": [0.808289945, 1.41695762, 0.696565151]}, {"bufferView": 39, "count": 2235, "type": "VEC3", "componentType": 5126}, {"bufferView": 40, "count": 2235, "type": "VEC4", "componentType": 5126}, {"bufferView": 41, "count": 2235, "type": "VEC2", "componentType": 5126}, {"bufferView": 42, "count": 28476, "type": "SCALAR", "componentType": 5123}, {"bufferView": 43, "count": 6272, "type": "VEC3", "componentType": 5126, "min": [-0.30017069, -0.000716972339, -0.736847997], "max": [0.300186336, 0.420743585, 0.669898808]}, {"bufferView": 44, "count": 6272, "type": "VEC3", "componentType": 5126}, {"bufferView": 45, "count": 6272, "type": "VEC4", "componentType": 5126}, {"bufferView": 46, "count": 6272, "type": "VEC2", "componentType": 5126}, {"bufferView": 47, "count": 19236, "type": "SCALAR", "componentType": 5123}, {"bufferView": 48, "count": 3450, "type": "VEC3", "componentType": 5126, "min": [-0.178684935, -0.00060498208, -0.183962181], "max": [0.189906567, 0.443546832, 0.181223765]}, {"bufferView": 49, "count": 3450, "type": "VEC3", "componentType": 5126}, {"bufferView": 50, "count": 3450, "type": "VEC4", "componentType": 5126}, {"bufferView": 51, "count": 3450, "type": "VEC2", "componentType": 5126}, {"bufferView": 52, "count": 5853, "type": "SCALAR", "componentType": 5123}, {"bufferView": 53, "count": 1423, "type": "VEC3", "componentType": 5126, "min": [-0.324974209, -0.00220985129, -0.307466686], "max": [0.32515952, 0.0974492729, 0.307554424]}, {"bufferView": 54, "count": 1423, "type": "VEC3", "componentType": 5126}, {"bufferView": 55, "count": 1423, "type": "VEC4", "componentType": 5126}, {"bufferView": 56, "count": 1423, "type": "VEC2", "componentType": 5126}], "buffers": [{"uri": "model.bin", "byteLength": 3511448}], "bufferViews": [{"buffer": 0, "byteLength": 252552, "target": 34963}, {"buffer": 0, "byteLength": 324816, "byteOffset": 252552, "target": 34962}, {"buffer": 0, "byteLength": 324816, "byteOffset": 577368, "target": 34962}, {"buffer": 0, "byteLength": 433088, "byteOffset": 902184, "target": 34962}, {"buffer": 0, "byteLength": 216544, "byteOffset": 1335272, "target": 34962}, {"buffer": 0, "byteLength": 216544, "byteOffset": 1551816, "target": 34962}, {"buffer": 0, "byteLength": 6972, "byteOffset": 1768360, "target": 34963}, {"buffer": 0, "byteLength": 9072, "byteOffset": 1775332, "target": 34962}, {"buffer": 0, "byteLength": 9072, "byteOffset": 1784404, "target": 34962}, {"buffer": 0, "byteLength": 12096, "byteOffset": 1793476, "target": 34962}, {"buffer": 0, "byteLength": 6048, "byteOffset": 1805572, "target": 34962}, {"buffer": 0, "byteLength": 36, "byteOffset": 1811620, "target": 34963}, {"buffer": 0, "byteLength": 288, "byteOffset": 1811656, "target": 34962}, {"buffer": 0, "byteLength": 288, "byteOffset": 1811944, "target": 34962}, {"buffer": 0, "byteLength": 384, "byteOffset": 1812232, "target": 34962}, {"buffer": 0, "byteLength": 192, "byteOffset": 1812616, "target": 34962}, {"buffer": 0, "byteLength": 192, "byteOffset": 1812808, "target": 34962}, {"buffer": 0, "byteLength": 39024, "byteOffset": 1813000, "target": 34963}, {"buffer": 0, "byteLength": 53172, "byteOffset": 1852024, "target": 34962}, {"buffer": 0, "byteLength": 53172, "byteOffset": 1905196, "target": 34962}, {"buffer": 0, "byteLength": 70896, "byteOffset": 1958368, "target": 34962}, {"buffer": 0, "byteLength": 35448, "byteOffset": 2029264, "target": 34962}, {"buffer": 0, "byteLength": 51240, "byteOffset": 2064712, "target": 34963}, {"buffer": 0, "byteLength": 66096, "byteOffset": 2115952, "target": 34962}, {"buffer": 0, "byteLength": 66096, "byteOffset": 2182048, "target": 34962}, {"buffer": 0, "byteLength": 88128, "byteOffset": 2248144, "target": 34962}, {"buffer": 0, "byteLength": 44064, "byteOffset": 2336272, "target": 34962}, {"buffer": 0, "byteLength": 14940, "byteOffset": 2380336, "target": 34963}, {"buffer": 0, "byteLength": 18768, "byteOffset": 2395276, "target": 34962}, {"buffer": 0, "byteLength": 18768, "byteOffset": 2414044, "target": 34962}, {"buffer": 0, "byteLength": 25024, "byteOffset": 2432812, "target": 34962}, {"buffer": 0, "byteLength": 12512, "byteOffset": 2457836, "target": 34962}, {"buffer": 0, "byteLength": 49896, "byteOffset": 2470348, "target": 34963}, {"buffer": 0, "byteLength": 54516, "byteOffset": 2520244, "target": 34962}, {"buffer": 0, "byteLength": 54516, "byteOffset": 2574760, "target": 34962}, {"buffer": 0, "byteLength": 72688, "byteOffset": 2629276, "target": 34962}, {"buffer": 0, "byteLength": 36344, "byteOffset": 2701964, "target": 34962}, {"buffer": 0, "byteLength": 23766, "byteOffset": 2738308, "target": 34963}, {"buffer": 0, "byteLength": 26820, "byteOffset": 2762076, "target": 34962}, {"buffer": 0, "byteLength": 26820, "byteOffset": 2788896, "target": 34962}, {"buffer": 0, "byteLength": 35760, "byteOffset": 2815716, "target": 34962}, {"buffer": 0, "byteLength": 17880, "byteOffset": 2851476, "target": 34962}, {"buffer": 0, "byteLength": 56952, "byteOffset": 2869356, "target": 34963}, {"buffer": 0, "byteLength": 75264, "byteOffset": 2926308, "target": 34962}, {"buffer": 0, "byteLength": 75264, "byteOffset": 3001572, "target": 34962}, {"buffer": 0, "byteLength": 100352, "byteOffset": 3076836, "target": 34962}, {"buffer": 0, "byteLength": 50176, "byteOffset": 3177188, "target": 34962}, {"buffer": 0, "byteLength": 38472, "byteOffset": 3227364, "target": 34963}, {"buffer": 0, "byteLength": 41400, "byteOffset": 3265836, "target": 34962}, {"buffer": 0, "byteLength": 41400, "byteOffset": 3307236, "target": 34962}, {"buffer": 0, "byteLength": 55200, "byteOffset": 3348636, "target": 34962}, {"buffer": 0, "byteLength": 27600, "byteOffset": 3403836, "target": 34962}, {"buffer": 0, "byteLength": 11706, "byteOffset": 3431436, "target": 34963}, {"buffer": 0, "byteLength": 17076, "byteOffset": 3443144, "target": 34962}, {"buffer": 0, "byteLength": 17076, "byteOffset": 3460220, "target": 34962}, {"buffer": 0, "byteLength": 22768, "byteOffset": 3477296, "target": 34962}, {"buffer": 0, "byteLength": 11384, "byteOffset": 3500064, "target": 34962}], "images": [{"uri": "t0.jpg", "mimeType": "image/jpeg"}, {"uri": "t1.jpg", "mimeType": "image/jpeg"}, {"uri": "t2.jpg", "mimeType": "image/jpeg"}, {"uri": "t3.jpg", "mimeType": "image/jpeg"}, {"uri": "t4.jpg", "mimeType": "image/jpeg"}, {"uri": "t5.jpg", "mimeType": "image/jpeg"}, {"uri": "t6.jpg", "mimeType": "image/jpeg"}, {"uri": "t7.jpg", "mimeType": "image/jpeg"}, {"uri": "t8.jpg", "mimeType": "image/jpeg"}, {"uri": "t9.jpg", "mimeType": "image/jpeg"}, {"uri": "t10.jpg", "mimeType": "image/jpeg"}, {"uri": "t11.jpg", "mimeType": "image/jpeg"}, {"uri": "t12.jpg", "mimeType": "image/jpeg"}, {"uri": "t13.jpg", "mimeType": "image/jpeg"}, {"uri": "t14.jpg", "mimeType": "image/jpeg"}, {"uri": "t15.jpg", "mimeType": "image/jpeg"}, {"uri": "t16.jpg", "mimeType": "image/jpeg"}, {"uri": "t17.jpg", "mimeType": "image/jpeg"}, {"uri": "t18.jpg", "mimeType": "image/jpeg"}, {"uri": "t19.jpg", "mimeType": "image/jpeg"}, {"uri": "t20.jpg", "mimeType": "image/jpeg"}, {"uri": "t21.jpg", "mimeType": "image/jpeg"}, {"uri": "t22.jpg", "mimeType": "image/jpeg"}, {"uri": "t23.jpg", "mimeType": "image/jpeg"}, {"uri": "t24.jpg", "mimeType": "image/jpeg"}, {"uri": "t25.jpg", "mimeType": "image/jpeg"}, {"uri": "t26.jpg", "mimeType": "image/jpeg"}, {"uri": "t27.jpg", "mimeType": "image/jpeg"}, {"uri": "t28.jpg", "mimeType": "image/jpeg"}, {"uri": "t29.jpg", "mimeType": "image/jpeg"}, {"uri": "t30.jpg", "mimeType": "image/jpeg"}, {"uri": "t31.jpg", "mimeType": "image/jpeg"}, {"uri": "t32.jpg", "mimeType": "image/jpeg"}, {"uri": "t33.jpg", "mimeType": "image/jpeg"}, {"uri": "t34.jpg", "mimeType": "image/jpeg"}, {"uri": "t35.jpg", "mimeType": "image/jpeg"}, {"uri": "t36.jpg", "mimeType": "image/jpeg"}, {"uri": "t37.jpg", "mimeType": "image/jpeg"}, {"uri": "t38.jpg", "mimeType": "image/jpeg"}], "materials": [{"name": "MI_Mossy_Stone_Wall_ujyjbehqx_4K", "pbrMetallicRoughness": {"baseColorTexture": {"index": 0}, "metallicRoughnessTexture": {"index": 1}}, "normalTexture": {"index": 2}, "occlusionTexture": {"index": 3}}, {"name": "MI_Wooden_Bollard_tlttae1fa_2K", "pbrMetallicRoughness": {"baseColorTexture": {"index": 4}, "metallicRoughnessTexture": {"index": 5}}, "normalTexture": {"index": 6}}, {"name": "MI_Fresh_Harvest_tmjmbhsl_4K", "pbrMetallicRoughness": {"baseColorTexture": {"index": 7}, "metallicRoughnessTexture": {"index": 8}}, "normalTexture": {"index": 9}, "occlusionTexture": {"index": 10}}, {"name": "MI_Old_Saddle_ufmhecrga_2K", "pbrMetallicRoughness": {"baseColorTexture": {"index": 11}, "metallicRoughnessTexture": {"index": 12}}, "normalTexture": {"index": 13}}, {"name": "MI_Wooden_Wheel_ugciag2ga_2K", "pbrMetallicRoughness": {"baseColorTexture": {"index": 14}, "metallicRoughnessTexture": {"index": 15}}, "normalTexture": {"index": 16}}, {"name": "MI_Trampled_Sandy_Soil_ubinaeukw_4K", "pbrMetallicRoughness": {"baseColorTexture": {"index": 17}, "metallicRoughnessTexture": {"index": 18}}, "normalTexture": {"index": 19}, "occlusionTexture": {"index": 20}}, {"name": "MI_Horse_Hitching_Post_udeuahzqx_2K", "pbrMetallicRoughness": {"baseColorTexture": {"index": 21}, "metallicRoughnessTexture": {"index": 22}}, "normalTexture": {"index": 23}}, {"name": "MI_Wooden_Wheel_ugljehkga_2K", "pbrMetallicRoughness": {"baseColorTexture": {"index": 24}, "metallicRoughnessTexture": {"index": 25}}, "normalTexture": {"index": 26}}, {"name": "MI_Round_Hay_Bale_rlCay_2K", "pbrMetallicRoughness": {"baseColorTexture": {"index": 27}, "metallicRoughnessTexture": {"index": 28}}, "normalTexture": {"index": 29}}, {"name": "MI_Wooden_Wheelbarrow_tmruaaeda_2K", "pbrMetallicRoughness": {"baseColorTexture": {"index": 30}, "metallicRoughnessTexture": {"index": 31}}, "normalTexture": {"index": 32}}, {"name": "MI_Wooden_Barrel_udlmcdhqx_2K", "pbrMetallicRoughness": {"baseColorTexture": {"index": 33}, "metallicRoughnessTexture": {"index": 34}}, "normalTexture": {"index": 35}}, {"name": "MI_Horse_Manure_uhqibgfga_2K", "pbrMetallicRoughness": {"baseColorTexture": {"index": 36}, "metallicRoughnessTexture": {"index": 37}}, "normalTexture": {"index": 38}}], "meshes": [{"name": "duvar", "primitives": [{"attributes": {"POSITION": 1, "NORMAL": 2, "TANGENT": 3, "TEXCOORD_0": 4, "TEXCOORD_1": 5}, "indices": 0, "material": 0}]}, {"name": "S_Wooden_Bollard_tlttae1fa_lod3", "primitives": [{"attributes": {"POSITION": 7, "NORMAL": 8, "TANGENT": 9, "TEXCOORD_0": 10}, "indices": 6, "material": 1}]}, {"name": "Wall_400x400", "primitives": [{"attributes": {"POSITION": 12, "NORMAL": 13, "TANGENT": 14, "TEXCOORD_0": 15, "TEXCOORD_1": 16}, "indices": 11, "material": 2}]}, {"name": "S_Old_Saddle_ufmhecrga_lod3_Var1", "primitives": [{"attributes": {"POSITION": 18, "NORMAL": 19, "TANGENT": 20, "TEXCOORD_0": 21}, "indices": 17, "material": 3}]}, {"name": "S_Wooden_Wheel_ugciag2ga_lod3_Var1", "primitives": [{"attributes": {"POSITION": 23, "NORMAL": 24, "TANGENT": 25, "TEXCOORD_0": 26}, "indices": 22, "material": 4}]}, {"name": "Wall_400x400", "primitives": [{"attributes": {"POSITION": 12, "NORMAL": 13, "TANGENT": 14, "TEXCOORD_0": 15, "TEXCOORD_1": 16}, "indices": 11, "material": 5}]}, {"name": "S_Horse_Hitching_Post_udeuahzqx_lod3", "primitives": [{"attributes": {"POSITION": 28, "NORMAL": 29, "TANGENT": 30, "TEXCOORD_0": 31}, "indices": 27, "material": 6}]}, {"name": "S_Wooden_Wheel_ugljehkga_lod3_Var1", "primitives": [{"attributes": {"POSITION": 33, "NORMAL": 34, "TANGENT": 35, "TEXCOORD_0": 36}, "indices": 32, "material": 7}]}, {"name": "S_Round_Hay_Bale_rlCay_lod3", "primitives": [{"attributes": {"POSITION": 38, "NORMAL": 39, "TANGENT": 40, "TEXCOORD_0": 41}, "indices": 37, "material": 8}]}, {"name": "S_Wooden_Wheelbarrow_tmruaaeda_lod3", "primitives": [{"attributes": {"POSITION": 43, "NORMAL": 44, "TANGENT": 45, "TEXCOORD_0": 46}, "indices": 42, "material": 9}]}, {"name": "S_Wooden_Barrel_udlmcdhqx_lod3", "primitives": [{"attributes": {"POSITION": 48, "NORMAL": 49, "TANGENT": 50, "TEXCOORD_0": 51}, "indices": 47, "material": 10}]}, {"name": "S_Horse_Manure_uhqibgfga_lod3_Var1", "primitives": [{"attributes": {"POSITION": 53, "NORMAL": 54, "TANGENT": 55, "TEXCOORD_0": 56}, "indices": 52, "material": 11}]}], "nodes": [{"name": "duvar", "translation": [-13.1735935, 1.40899241, 8.51479053], "rotation": [-1.72081016e-08, -1.72081016e-08, 0.707106829, 0.707106829], "scale": [0.849875987, 1.09418213, 1.09418213], "mesh": 0}, {"name": "duvar2", "translation": [-13.1735935, 1.40899229, 10.7875509], "rotation": [-0.707106829, -0.707106829, -2.71160658e-08, -2.71160658e-08], "scale": [0.849875867, 1.09418201, 1.09418201], "mesh": 0}, {"name": "duvar3", "translation": [-14.2412558, 1.40899229, 9.12621975], "rotation": [-0.5, -0.5, -0.5, -0.5], "scale": [0.849875867, 0.691823661, 1.09418201], "mesh": 0}, {"name": "duvar4", "translation": [-12.0691652, 1.40899229, 9.62434673], "rotation": [-0.50000006, -0.50000006, 0.5, 0.5], "scale": [0.849875867, 1.09418201, 1.09418201], "mesh": 0}, {"name": "duvar8", "translation": [-13.875824, 2.04963398, 9.07871723], "rotation": [-5.21591904e-17, -0.813781381, -0.581171095, 3.79941426e-17], "scale": [0.849875987, 0.633229077, 1.09418201], "mesh": 0}, {"name": "duvar9", "translation": [-13.9844208, 2.04963398, 10.2471361], "rotation": [-0.581171095, 9.90206228e-09, 7.07166947e-09, 0.813781381], "scale": [0.849875987, 0.633229017, 1.09418201], "mesh": 0}, {"name": "duvar10", "translation": [-13.1326733, 2.04963374, 9.07871723], "rotation": [-3.5586468e-17, -0.813781381, -0.581171095, 4.98297373e-17], "scale": [0.849875987, 0.633229017, 1.09418201], "mesh": 0}, {"name": "duvar11", "translation": [-13.2412691, 2.04963374, 10.2471361], "rotation": [-0.581171095, 7.10158199e-09, 5.07167464e-09, 0.813781381], "scale": [0.849875987, 0.633229017, 1.09418201], "mesh": 0}, {"name": "duvar12", "translation": [-12.3771553, 2.04963374, 9.07871723], "rotation": [-3.5586468e-17, -0.813781381, -0.581171095, 4.98297373e-17], "scale": [0.849875987, 0.633229017, 1.09418201], "mesh": 0}, {"name": "duvar13", "translation": [-12.4857521, 2.04963374, 10.2471361], "rotation": [-0.581171095, 7.10158199e-09, 5.07167464e-09, 0.813781381], "scale": [0.849875987, 0.633229017, 1.09418201], "mesh": 0}, {"name": "S_Wooden_Bollard_tlttae1fa_lod3", "translation": [-14.2306967, 1.93950164, 8.81119061], "rotation": [-0.5, -0.5, -0.5, -0.5], "scale": [0.716167092, 2.25482631, 1], "mesh": 1}, {"name": "S_Wooden_Bollard_tlttae1fa_lod4", "translation": [-14.2306967, 2.0914104, 9.16372204], "rotation": [-0.5, -0.5, -0.5, -0.5], "scale": [0.716166973, 1.22570276, 1], "mesh": 1}, {"name": "S_Wooden_Bollard_tlttae1fa_lod5", "translation": [-12.1033163, 1.93950164, 8.81119061], "rotation": [-0.5, -0.5, -0.5, -0.5], "scale": [0.716166973, 2.25482607, 1], "mesh": 1}, {"name": "S_Wooden_Bollard_tlttae1fa_lod6", "translation": [-12.1033163, 2.0914104, 9.16372204], "rotation": [-0.5, -0.5, -0.5, -0.5], "scale": [0.716166973, 1.225703, 1], "mesh": 1}, {"name": "S_Wooden_Bollard_tlttae1fa_lod7", "translation": [-12.1033163, 2.21540976, 9.60012054], "rotation": [-0.5, -0.5, -0.5, -0.5], "scale": [0.716166973, 0.19570291, 1], "mesh": 1}, {"name": "S_Wooden_Bollard_tlttae1fa_lod8", "translation": [-12.1033163, 2.04529786, 10.0957918], "rotation": [-0.5, -0.5, -0.5, -0.5], "scale": [0.444875866, 0.195703, 1], "mesh": 1}, {"name": "S_Wooden_Bollard_tlttae1fa_lod9", "translation": [-14.2781715, 1.00266826, 9.37814617], "rotation": [-1.8686459e-09, 0.707106829, 1.04726965e-08, 0.707106829], "scale": [0.393118531, 1.0980953, 0.889590621], "mesh": 1}, {"name": "S_Wooden_Bollard_tlttae1fa_lod10", "translation": [-14.2859917, 1.0478636, 9.39902592], "rotation": [0.5, 0.5, 0.5, 0.5], "scale": [0.42364943, 0.496023387, 0.889590979], "mesh": 1}, {"name": "S_Wooden_Bollard_tlttae1fa_lod11", "translation": [-14.2781715, 1.00266826, 9.80258369], "rotation": [1.55794456e-17, 0.707106829, 1.23413431e-08, 0.707106829], "scale": [0.393119007, 1.09809506, 0.889590979], "mesh": 1}, {"name": "S_Wooden_Bollard_tlttae1fa_lod12", "translation": [-14.2859917, 1.82144141, 9.39902592], "rotation": [0.5, 0.5, 0.5, 0.5], "scale": [0.423649013, 0.496022999, 0.889590979], "mesh": 1}, {"name": "S_Wooden_Bollard_tlttae1fa_lod13", "translation": [-14.2781715, 1.00266826, 8.4539032], "rotation": [1.55794456e-17, 0.707106829, 1.23413431e-08, 0.707106829], "scale": [0.569727719, 1.09809506, 0.96914047], "mesh": 1}, {"name": "S_Wooden_Bollard_tlttae1fa_lod14", "translation": [-14.282094, 1.00266826, 10.8330536], "rotation": [1.55794456e-17, 0.707106829, 1.23413431e-08, 0.707106829], "scale": [0.569728017, 1.09809506, 0.969139993], "mesh": 1}, {"name": "S_Wooden_Bollard_tlttae1fa_lod15", "translation": [-14.2781715, 1.03880906, 9.36697197], "rotation": [-0.5, 0.5, -0.5, 0.5], "scale": [0.345148742, 1.09809506, 0.969139993], "mesh": 1}, {"name": "S_Wooden_Bollard_tlttae1fa_lod16", "translation": [-14.2781715, 1.03880906, 10.8462782], "rotation": [0.702899575, -0.702899575, 0.0770207569, -0.0770207569], "scale": [0.34514901, 1.26768553, 0.627032816], "mesh": 1}, {"name": "S_Wooden_Bollard_tlttae1fa_lod17", "translation": [-14.2781715, 1.83469582, 9.36697197], "rotation": [-0.5, 0.5, -0.5, 0.5], "scale": [0.34514901, 1.09809506, 0.969139993], "mesh": 1}, {"name": "S_Wooden_Bollard_tlttae1fa_lod19", "translation": [-12.0341883, 1.00266826, 10.843318], "rotation": [1.55794456e-17, 0.707106829, 1.23413431e-08, 0.707106829], "scale": [0.569728017, 1.09809506, 0.969139993], "mesh": 1}, {"name": "S_Wooden_Bollard_tlttae1fa_lod20", "translation": [-12.0174646, 1.00266826, 8.4539032], "rotation": [1.55794456e-17, 0.707106829, 1.23413431e-08, 0.707106829], "scale": [0.569728017, 1.09809506, 0.969139993], "mesh": 1}, {"name": "S_Wooden_Bollard_tlttae1fa_lod21", "translation": [-14.2781715, 1.83469582, 8.4654541], "rotation": [1.8686459e-09, -1.8686459e-09, -0.707106829, 0.707106829], "scale": [0.34514901, 2.88974237, 0.969139993], "mesh": 1}, {"name": "S_Wooden_Bollard_tlttae1fa_lod22", "translation": [-14.2781715, 1.03880906, 8.4654541], "rotation": [5.55111578e-17, -6.93889457e-17, -0.707106829, 0.707106829], "scale": [0.34514901, 2.8897419, 0.969139993], "mesh": 1}, {"name": "S_Wooden_Bollard_tlttae1fa_lod23", "translation": [-14.2781715, 1.8346957, 10.8330345], "rotation": [5.55111578e-17, -6.93889457e-17, -0.707106829, 0.707106829], "scale": [0.34514901, 2.8897419, 0.969139993], "mesh": 1}, {"name": "S_Wooden_Bollard_tlttae1fa_lod24", "translation": [-14.2781715, 1.03880906, 10.8330345], "rotation": [5.55111578e-17, -6.93889457e-17, -0.707106829, 0.707106829], "scale": [0.34514901, 2.8897419, 0.969139993], "mesh": 1}, {"name": "S_Wooden_Bollard_tlttae1fa_lod25", "translation": [-12.0477667, 1.8346957, 8.4654541], "rotation": [0.5, -0.5, -0.5, 0.5], "scale": [0.483507127, 3.03963733, 0.969139993], "mesh": 1}, {"name": "S_Wooden_Bollard_tlttae1fa_lod26", "translation": [-12.0369186, 1.03880906, 8.4654541], "rotation": [0.5, -0.5, -0.5, 0.5], "scale": [0.34514901, 3.03963733, 0.969139993], "mesh": 1}, {"name": "S_Wooden_Bollard_tlttae1fa_lod27", "translation": [-14.2781715, 1.56711543, 9.80588531], "rotation": [-0.5, 0.5, -0.5, 0.5], "scale": [0.34514901, 1.75757408, 0.969139993], "mesh": 1}, {"name": "S_Wooden_Bollard_tlttae1fa_lod29", "translation": [-14.2781715, 1.16948009, 10.8462782], "rotation": [0.702899575, -0.702899575, 0.0770207569, -0.0770207569], "scale": [0.34514901, 1.26768601, 0.627032816], "mesh": 1}, {"name": "S_Wooden_Bollard_tlttae1fa_lod30", "translation": [-14.2781715, 1.26660287, 9.80588531], "rotation": [-0.5, 0.5, -0.5, 0.5], "scale": [0.34514901, 1.75757408, 0.969139993], "mesh": 1}, {"name": "S_Wooden_Bollard_tlttae1fa_lod55", "translation": [-14.2781715, 1.00266826, 8.93780708], "rotation": [1.55794456e-17, 0.707106829, 1.23413431e-08, 0.707106829], "scale": [0.569728017, 1.09809506, 0.969139993], "mesh": 1}, {"name": "S_Wooden_Bollard_tlttae1fa_lod57", "translation": [-14.2781715, 1.27462792, 8.4654541], "rotation": [5.55111578e-17, -6.93889457e-17, -0.707106829, 0.707106829], "scale": [0.34514901, 2.8897419, 0.969139993], "mesh": 1}, {"name": "S_Wooden_Bollard_tlttae1fa_lod58", "translation": [-14.2781715, 1.59484923, 8.4654541], "rotation": [5.55111578e-17, -6.93889457e-17, -0.707106829, 0.707106829], "scale": [0.34514901, 2.8897419, 0.969139993], "mesh": 1}, {"name": "S_Wooden_Bollard_tlttae1fa_lod59", "translation": [-14.2781715, 1.28269041, 10.8330345], "rotation": [5.55111578e-17, -6.93889457e-17, -0.707106829, 0.707106829], "scale": [0.34514901, 2.8897419, 0.969139993], "mesh": 1}, {"name": "S_Wooden_Bollard_tlttae1fa_lod60", "translation": [-14.2781715, 1.60425138, 10.8330345], "rotation": [5.55111578e-17, -6.93889457e-17, -0.707106829, 0.707106829], "scale": [0.34514901, 2.8897419, 0.969139993], "mesh": 1}, {"name": "S_Wooden_Bollard_tlttae1fa_lod61", "translation": [-12.0369186, 1.24884546, 8.4654541], "rotation": [0.5, -0.5, -0.5, 0.5], "scale": [0.34514901, 3.03963709, 0.969139993], "mesh": 1}, {"name": "S_Wooden_Bollard_tlttae1fa_lod62", "translation": [-12.0369186, 1.60185373, 8.4654541], "rotation": [0.5, -0.5, -0.5, 0.5], "scale": [0.34514901, 3.03963709, 0.969139993], "mesh": 1}, {"name": "S_Wooden_Bollard_tlttae1fa_lod63", "translation": [-12.0341883, 1.00266826, 9.63550091], "rotation": [1.55794456e-17, 0.707106829, 1.23413431e-08, 0.707106829], "scale": [0.569728017, 1.09809506, 0.969139993], "mesh": 1}, {"name": "S_Wooden_Bollard_tlttae1fa_lod64", "translation": [-13.1984425, 1.00266826, 8.4539032], "rotation": [1.55794456e-17, 0.707106829, 1.23413431e-08, 0.707106829], "scale": [0.569728017, 1.09809506, 0.969139993], "mesh": 1}, {"name": "S_Wooden_Bollard_tlttae1fa_lod65", "translation": [-13.1441231, 1.00266826, 10.8350573], "rotation": [1.55794456e-17, 0.707106829, 1.23413431e-08, 0.707106829], "scale": [0.569728017, 1.09809506, 0.969139993], "mesh": 1}, {"name": "duvar7", "translation": [-12.9128723, 2.27138829, 9.99180603], "rotation": [2.43359288e-08, 2.61799382e-08, -1, 6.3711309e-16], "scale": [0.328292996, 0.270410001, 0.519677997], "mesh": 0}, {"name": "duvar14", "translation": [-12.6096764, 2.27138829, 9.99180603], "rotation": [2.08946105e-08, 2.61799382e-08, -1, 5.47019648e-16], "scale": [0.328292996, 0.270410001, 0.519677997], "mesh": 0}, {"name": "duvar15", "translation": [-13.0753107, 2.27138829, 10.4131374], "rotation": [0.707106829, -1.85120133e-08, 0.707106829, 1.85120133e-08], "scale": [0.328292996, 0.270410001, 0.519677997], "mesh": 0}, {"name": "duvar16", "translation": [-13.0753107, 2.27138829, 10.1099415], "rotation": [0.707106829, -1.85120133e-08, 0.707106829, 1.85120133e-08], "scale": [0.328292996, 0.270410001, 0.519677997], "mesh": 0}, {"name": "duvar17", "translation": [-12.4840403, 2.27138829, 10.1446505], "rotation": [0.707106829, 1.85120133e-08, -0.707106829, 1.8512015e-08], "scale": [0.328292996, 0.270410001, 0.519677997], "mesh": 0}, {"name": "duvar18", "translation": [-12.4840403, 2.27138829, 10.4478455], "rotation": [0.707106829, 1.85120133e-08, -0.707106829, 1.8512015e-08], "scale": [0.328292996, 0.270410001, 0.519677997], "mesh": 0}, {"name": "duvar19", "translation": [-12.6351843, 2.27138829, 10.571434], "rotation": [1, -2.28463076e-16, 8.72664607e-09, 2.61799382e-08], "scale": [0.328292996, 0.270410001, 0.519677997], "mesh": 0}, {"name": "duvar20", "translation": [-12.9383783, 2.27138829, 10.571434], "rotation": [1, -2.28463076e-16, 8.72664607e-09, 2.61799382e-08], "scale": [0.328292996, 0.270410001, 0.519677997], "mesh": 0}, {"name": "S_Wooden_Bollard_tlttae1fa_lod66", "translation": [-13.7655392, 1.00266814, 10.8350573], "rotation": [1.55794456e-17, 0.707106829, 1.23413431e-08, 0.707106829], "scale": [0.569728017, 1.09809506, 0.969139993], "mesh": 1}, {"name": "S_Wooden_Bollard_tlttae1fa_lod67", "translation": [-12.4932613, 1.00266814, 10.8350573], "rotation": [1.55794456e-17, 0.707106829, 1.23413431e-08, 0.707106829], "scale": [0.569728017, 1.09809506, 0.969139993], "mesh": 1}, {"name": "S_Wooden_Bollard_tlttae1fa_lod68", "translation": [-13.7909985, 1.00266826, 8.4539032], "rotation": [1.55794456e-17, 0.707106829, 1.23413431e-08, 0.707106829], "scale": [0.569728017, 1.09809506, 0.969139993], "mesh": 1}, {"name": "S_Wooden_Bollard_tlttae1fa_lod69", "translation": [-12.5639124, 1.00266826, 8.4539032], "rotation": [1.55794456e-17, 0.707106829, 1.23413431e-08, 0.707106829], "scale": [0.569728017, 1.09809506, 0.969139993], "mesh": 1}, {"name": "S_Wooden_Bollard_tlttae1fa_lod70", "translation": [-12.0341883, 1.00266826, 8.95571423], "rotation": [1.55794456e-17, 0.707106829, 1.23413431e-08, 0.707106829], "scale": [0.569728017, 1.09809506, 0.969139993], "mesh": 1}, {"name": "S_Wooden_Bollard_tlttae1fa_lod71", "translation": [-12.0341883, 1.00266826, 10.306797], "rotation": [1.55794456e-17, 0.707106829, 1.23413431e-08, 0.707106829], "scale": [0.569728017, 1.09809506, 0.969139993], "mesh": 1}, {"name": "S_Wooden_Bollard_tlttae1fa_lod18", "translation": [-14.2781715, 1.29879236, 10.8462782], "rotation": [0.702899575, -0.702899575, 0.0770207569, -0.0770207569], "scale": [0.34514901, 1.26768601, 0.627032995], "mesh": 1}, {"name": "S_Wooden_Bollard_tlttae1fa_lod31", "translation": [-14.2781715, 1.42946351, 10.8462782], "rotation": [0.702899575, -0.702899575, 0.0770207569, -0.0770207569], "scale": [0.34514901, 1.26768601, 0.627032995], "mesh": 1}, {"name": "S_Wooden_Bollard_tlttae1fa_lod28", "translation": [-14.2781715, 1.54786205, 10.8462782], "rotation": [0.702899575, -0.702899575, 0.0770207569, -0.0770207569], "scale": [0.34514901, 1.26768601, 0.627032995], "mesh": 1}, {"name": "S_Wooden_Bollard_tlttae1fa_lod32", "translation": [-14.2781715, 1.67853308, 10.8462782], "rotation": [0.702899575, -0.702899575, 0.0770207569, -0.0770207569], "scale": [0.34514901, 1.26768601, 0.627032995], "mesh": 1}, {"name": "S_Wooden_Bollard_tlttae1fa_lod33", "translation": [-14.2781715, 1.81264079, 10.8462782], "rotation": [0.702899575, -0.702899575, 0.0770207569, -0.0770207569], "scale": [0.34514901, 1.26768601, 0.627032995], "mesh": 1}, {"name": "S_Wooden_Bollard_tlttae1fa_lod34", "translation": [-15.2200956, 1.01770973, 10.6362925], "rotation": [7.69719188e-18, -0.117430888, 9.10185499e-19, 0.993081152], "scale": [0.34514901, 1.04409707, 0.578351021], "mesh": 1}, {"name": "Wall_400x400", "translation": [-14.3156023, 1.00806093, 10.802516], "rotation": [-0.707106829, 0, 0, 0.707106829], "scale": [0.580060244, 0.587544918, 0.00747377053], "mesh": 2}, {"name": "S_Wooden_Bollard_tlttae1fa_lod35", "translation": [-13.5052834, 1.36695015, 9.28697586], "rotation": [4.32978096e-17, -0.707106829, 0.707106829, 4.32978096e-17], "scale": [0.266144782, 0.988969028, 0.48006475], "mesh": 1}, {"name": "S_Wooden_Bollard_tlttae1fa_lod36", "translation": [-13.5052834, 1.26649833, 9.28697586], "rotation": [4.32978096e-17, -0.707106829, 0.707106829, 4.32978096e-17], "scale": [0.266144991, 0.988968551, 0.480064988], "mesh": 1}, {"name": "S_Wooden_Bollard_tlttae1fa_lod37", "translation": [-13.5052834, 1.17736757, 9.28697586], "rotation": [4.32978096e-17, -0.707106829, 0.707106829, 4.32978096e-17], "scale": [0.266144991, 0.988968551, 0.480064988], "mesh": 1}, {"name": "S_Wooden_Bollard_tlttae1fa_lod38", "translation": [-13.5052834, 1.07749188, 9.28697586], "rotation": [4.32978096e-17, -0.707106829, 0.707106829, 4.32978096e-17], "scale": [0.266144991, 0.988968551, 0.480064988], "mesh": 1}, {"name": "S_Wooden_Bollard_tlttae1fa_lod39", "translation": [-13.5037203, 1.01075196, 9.2762537], "rotation": [9.06889386e-25, -1, 1.48106283e-08, 6.12323426e-17], "scale": [0.296447784, 0.524479926, 0.480064988], "mesh": 1}, {"name": "S_Wooden_Bollard_tlttae1fa_lod40", "translation": [-13.4945955, 1.36695039, 9.65736103], "rotation": [0.5, 0.5, -0.5, 0.5], "scale": [0.266144991, 1.71732402, 0.480064988], "mesh": 1}, {"name": "S_Wooden_Bollard_tlttae1fa_lod41", "translation": [-13.4945955, 1.26649833, 9.65736103], "rotation": [0.5, 0.5, -0.5, 0.5], "scale": [0.266144991, 1.71732402, 0.480064988], "mesh": 1}, {"name": "S_Wooden_Bollard_tlttae1fa_lod42", "translation": [-13.4945955, 1.17736757, 9.65736103], "rotation": [0.5, 0.5, -0.5, 0.5], "scale": [0.266144991, 1.71732402, 0.480064988], "mesh": 1}, {"name": "S_Wooden_Bollard_tlttae1fa_lod43", "translation": [-13.4945955, 1.07749188, 9.65736103], "rotation": [0.5, 0.5, -0.5, 0.5], "scale": [0.266144991, 1.71732402, 0.480064988], "mesh": 1}, {"name": "S_Wooden_Bollard_tlttae1fa_lod44", "translation": [-13.4934177, 1.01075196, 9.6589241], "rotation": [1.23413431e-08, 0.707106829, -1.23413431e-08, 0.707106829], "scale": [0.296447992, 0.524479985, 0.480064988], "mesh": 1}, {"name": "S_Wooden_Bollard_tlttae1fa_lod45", "translation": [-13.3059931, 1.36695015, 10.2303963], "rotation": [0.5, 0.5, -0.5, 0.5], "scale": [0.266144991, 1.48597705, 0.480064988], "mesh": 1}, {"name": "S_Wooden_Bollard_tlttae1fa_lod46", "translation": [-13.3059931, 1.26649833, 10.2303963], "rotation": [0.5, 0.5, -0.5, 0.5], "scale": [0.266144991, 1.48597705, 0.480064988], "mesh": 1}, {"name": "S_Wooden_Bollard_tlttae1fa_lod47", "translation": [-13.3059931, 1.17736757, 10.2303963], "rotation": [0.5, 0.5, -0.5, 0.5], "scale": [0.266144991, 1.48597705, 0.480064988], "mesh": 1}, {"name": "S_Wooden_Bollard_tlttae1fa_lod48", "translation": [-13.3059931, 1.07749176, 10.2303963], "rotation": [0.5, 0.5, -0.5, 0.5], "scale": [0.266144991, 1.48597705, 0.480064988], "mesh": 1}, {"name": "S_Wooden_Bollard_tlttae1fa_lod49", "translation": [-13.3280392, 1.01075196, 10.2319593], "rotation": [1.23413431e-08, 0.707106829, -1.23413431e-08, 0.707106829], "scale": [0.296447992, 0.524479985, 0.480064988], "mesh": 1}, {"name": "S_Old_Saddle_ufmhecrga_lod3_Var1", "translation": [-13.5009966, 1.37804484, 9.089921], "rotation": [0, 1, 0, 1.21679644e-08], "scale": [0.274089783, 0.364491284, 0.364491284], "mesh": 3}, {"name": "S_Wooden_Wheel_ugciag2ga_lod3_Var1", "translation": [-13.4449415, 1.14532864, 10.6323471], "rotation": [-0.541584849, 0.20863539, 0.14087832, 0.802066386], "scale": [0.232872456, 0.232872456, 0.232872456], "mesh": 4}, {"name": "Wall_400x401", "translation": [-13.5144968, 1.00955689, 9.67828655], "rotation": [-0.707106829, 0, 0, 0.707106829], "scale": [0.375699937, 0.297384471, 0.0074740001], "mesh": 5}, {"name": "S_Wooden_Bollard_tlttae1fa_lod50", "translation": [-13.5052834, 1.04529011, 9.28697586], "rotation": [4.32978096e-17, -0.707106829, 0.707106829, 4.32978096e-17], "scale": [0.266144991, 0.988968909, 0.480064988], "mesh": 1}, {"name": "S_Wooden_Bollard_tlttae1fa_lod51", "translation": [-13.4945955, 1.03324497, 9.65736103], "rotation": [0.5, 0.5, -0.5, 0.5], "scale": [0.266144991, 1.71732402, 0.480064988], "mesh": 1}, {"name": "S_Horse_Hitching_Post_udeuahzqx_lod3", "translation": [-13.5103731, 1.21530414, 9.63345718], "rotation": [-0.5, -0.5, 0.5, 0.5], "scale": [0.193201497, 0.340275615, 0.470514387], "mesh": 6}, {"name": "S_Wooden_Wheel_ugljehkga_lod3_Var1", "translation": [-14.0656977, 1.19838023, 10.6255474], "rotation": [-0.60876143, 0, 0, 0.793353319], "scale": [0.284158498, 0.373527437, 0.322720587], "mesh": 7}, {"name": "S_Round_Hay_Bale_rlCay_lod3", "translation": [-12.3000669, 1.01806867, 10.6085119], "rotation": [0, 0.707106829, 0, 0.707106829], "scale": [0.162510961, 0.162510961, 0.162510961], "mesh": 8}, {"name": "S_Round_Hay_Bale_rlCay_lod4", "translation": [-12.3000669, 1.01806867, 10.3948288], "rotation": [0, 0.707106829, 0, 0.707106829], "scale": [0.162511006, 0.162511006, 0.162511006], "mesh": 8}, {"name": "S_Round_Hay_Bale_rlCay_lod5", "translation": [-12.3000669, 1.2164396, 10.6085119], "rotation": [0, 0.707106829, 0, 0.707106829], "scale": [0.162511006, 0.162511006, 0.162511006], "mesh": 8}, {"name": "S_Round_Hay_Bale_rlCay_lod6", "translation": [-12.3000669, 1.2164396, 10.3948288], "rotation": [0, 0.707106829, 0, 0.707106829], "scale": [0.162511006, 0.162511006, 0.162511006], "mesh": 8}, {"name": "S_Round_Hay_Bale_rlCay_lod7", "translation": [-12.3000669, 1.40489531, 10.5123463], "rotation": [0, 0.707106829, 0, 0.707106829], "scale": [0.162511006, 0.162511006, 0.162511006], "mesh": 8}, {"name": "S_Wooden_Wheelbarrow_tmruaaeda_lod3", "translation": [-13.2155237, 1.08997011, 9.75937653], "rotation": [0.310401857, 0, 0, 0.950605452], "scale": [0.355934203, 0.355934203, 0.27050215], "mesh": 9}, {"name": "S_Wooden_Barrel_udlmcdhqx_lod3", "translation": [-12.2822666, 1.00917232, 9.83324528], "scale": [0.600107729, 0.600107729, 0.600107729], "mesh": 10}, {"name": "S_Wooden_Barrel_udlmcdhqx_lod4", "translation": [-12.2822666, 1.00917232, 10.0407696], "scale": [0.600108027, 0.600108027, 0.600108027], "mesh": 10}, {"name": "S_Wooden_Barrel_udlmcdhqx_lod5", "translation": [-12.2822666, 1.26320803, 9.83324528], "scale": [0.600108027, 0.600108027, 0.600108027], "mesh": 10}, {"name": "S_Wooden_Barrel_udlmcdhqx_lod6", "translation": [-12.2822666, 1.26320803, 10.0407696], "scale": [0.600108027, 0.600108027, 0.600108027], "mesh": 10}, {"name": "S_Wooden_Barrel_udlmcdhqx_lod7", "translation": [-12.2822666, 1.5253495, 9.83585358], "scale": [0.600108027, 0.600108027, 0.600108027], "mesh": 10}, {"name": "S_Wooden_Barrel_udlmcdhqx_lod8", "translation": [-14.0211134, 1.00917232, 8.73398399], "scale": [0.600108027, 0.600108027, 0.600108027], "mesh": 10}, {"name": "S_Wooden_Barrel_udlmcdhqx_lod9", "translation": [-14.0211134, 1.00917232, 8.94150829], "scale": [0.600108027, 0.600108027, 0.600108027], "mesh": 10}, {"name": "S_Wooden_Barrel_udlmcdhqx_lod10", "translation": [-14.0211134, 1.26320803, 8.73398399], "scale": [0.600108027, 0.600108027, 0.600108027], "mesh": 10}, {"name": "S_Wooden_Barrel_udlmcdhqx_lod11", "translation": [-14.0211134, 1.26320803, 8.94150829], "scale": [0.600108027, 0.600108027, 0.600108027], "mesh": 10}, {"name": "S_Wooden_Barrel_udlmcdhqx_lod12", "translation": [-14.0211134, 1.52428186, 8.83430862], "scale": [0.600108027, 0.600108027, 0.600108027], "mesh": 10}, {"name": "S_Wooden_Barrel_udlmcdhqx_lod13", "translation": [-14.0484018, 1.06536067, 9.27995777], "rotation": [-0.382683486, 0, 0, 0.923879623], "scale": [0.600108027, 0.600108027, 0.600108027], "mesh": 10}, {"name": "S_Wooden_Barrel_udlmcdhqx_lod14", "translation": [-14.06499, 1.10742509, 9.58430004], "rotation": [-0.707106829, 0, 0, 0.707106829], "scale": [0.600108027, 0.600108027, 0.600108027], "mesh": 10}, {"name": "S_Round_Hay_Bale_rlCay_lod8", "translation": [-13.7426281, 1.1220088, 8.59500313], "rotation": [0.707106829, -1.8686459e-09, -1.8686459e-09, 0.707106829], "scale": [0.162511006, 0.162511006, 0.162511006], "mesh": 8}, {"name": "S_Round_Hay_Bale_rlCay_lod9", "translation": [-13.7191706, 1.31402111, 8.59500313], "rotation": [0.707106829, 0, 0, 0.707106829], "scale": [0.162511006, 0.162511006, 0.162511006], "mesh": 8}, {"name": "S_Round_Hay_Bale_rlCay_lod10", "translation": [-13.7498436, 1.50147331, 8.59500313], "rotation": [0.707106829, 0, 0, 0.707106829], "scale": [0.162511006, 0.162511006, 0.162511006], "mesh": 8}, {"name": "S_Wooden_Wheel_ugljehkga_lod3_Var2", "translation": [-13.5636349, 1.12751007, 8.98614883], "rotation": [-0.43045938, 0.560985565, 0.43045938, 0.560985565], "scale": [0.21850878, 0.37352699, 0.226494879], "mesh": 7}, {"name": "S_Round_Hay_Bale_rlCay_lod11", "translation": [-12.5170898, 1.01806867, 10.6085119], "scale": [0.162511006, 0.162511006, 0.162511006], "mesh": 8}, {"name": "S_Round_Hay_Bale_rlCay_lod12", "translation": [-12.7446375, 1.01806867, 10.6085119], "scale": [0.162511006, 0.162511006, 0.162511006], "mesh": 8}, {"name": "S_Round_Hay_Bale_rlCay_lod13", "translation": [-12.6440382, 1.20421493, 10.6085119], "scale": [0.162511006, 0.162511006, 0.162511006], "mesh": 8}, {"name": "S_Round_Hay_Bale_rlCay_lod14", "translation": [-12.9756212, 1.01806867, 10.6085119], "scale": [0.162511006, 0.162511006, 0.162511006], "mesh": 8}, {"name": "S_Round_Hay_Bale_rlCay_lod15", "translation": [-12.8690119, 1.20421493, 10.6085119], "scale": [0.162511006, 0.162511006, 0.162511006], "mesh": 8}, {"name": "S_Round_Hay_Bale_rlCay_lod16", "translation": [-12.7617388, 1.39711022, 10.6085119], "scale": [0.162511006, 0.162511006, 0.162511006], "mesh": 8}, {"name": "S_Round_Hay_Bale_rlCay_lod17", "translation": [-13.20504, 1.01806867, 10.6085119], "scale": [0.162511006, 0.162511006, 0.162511006], "mesh": 8}, {"name": "S_Round_Hay_Bale_rlCay_lod18", "translation": [-13.0930347, 1.20421493, 10.6085119], "scale": [0.162511006, 0.162511006, 0.162511006], "mesh": 8}, {"name": "S_Round_Hay_Bale_rlCay_lod19", "translation": [-12.9934978, 1.39711022, 10.6085119], "scale": [0.162511006, 0.162511006, 0.162511006], "mesh": 8}, {"name": "S_Wooden_Barrel_udlmcdhqx_lod15", "translation": [-14.0561008, 1.00917232, 9.69129181], "scale": [0.600108027, 0.600108027, 0.600108027], "mesh": 10}, {"name": "S_Wooden_Barrel_udlmcdhqx_lod16", "translation": [-12.2822666, 1.5253495, 10.0473299], "scale": [0.600108027, 0.600108027, 0.600108027], "mesh": 10}, {"name": "S_Wooden_Barrel_udlmcdhqx_lod18", "translation": [-12.5010986, 1.00917232, 9.83324528], "scale": [0.600108027, 0.600108027, 0.600108027], "mesh": 10}, {"name": "S_Wooden_Barrel_udlmcdhqx_lod19", "translation": [-12.5010986, 1.00917232, 10.0407696], "scale": [0.600108027, 0.600108027, 0.600108027], "mesh": 10}, {"name": "S_Wooden_Barrel_udlmcdhqx_lod20", "translation": [-12.5010986, 1.26320803, 9.84759903], "scale": [0.600108027, 0.600108027, 0.600108027], "mesh": 10}, {"name": "S_Wooden_Barrel_udlmcdhqx_lod21", "translation": [-12.5010986, 1.26320803, 10.0587072], "scale": [0.600108027, 0.600108027, 0.600108027], "mesh": 10}, {"name": "S_Wooden_Barrel_udlmcdhqx_lod22", "translation": [-12.6747618, 1.00917232, 9.81570625], "scale": [0.600108027, 0.600108027, 0.600108027], "mesh": 10}, {"name": "S_Wooden_Barrel_udlmcdhqx_lod23", "translation": [-12.6747618, 1.00917232, 10.1087008], "scale": [0.600108027, 0.600108027, 0.600108027], "mesh": 10}, {"name": "S_Horse_Manure_uhqibgfga_lod3_Var11", "translation": [-13.4540377, 0.999995112, 10.6968699], "rotation": [0, 0.707106829, 0, 0.707106829], "scale": [0.279529005, 0.279529005, 0.279529005], "mesh": 11}, {"name": "S_Horse_Manure_uhqibgfga_lod3_Var12", "translation": [-13.4613972, 0.995594621, 10.5296202], "rotation": [0, 0.363871366, 0, 0.931449234], "scale": [0.279529005, 0.279529005, 0.279529005], "mesh": 11}, {"name": "S_Horse_Manure_uhqibgfga_lod3_Var14", "translation": [-13.4292107, 0.995594621, 10.3492537], "rotation": [0, -0.401436627, 0, 0.915886819], "scale": [0.279529005, 0.279529005, 0.279529005], "mesh": 11}, {"name": "S_Horse_Manure_uhqibgfga_lod3_Var15", "translation": [-13.1067486, 0.995594621, 9.91260624], "rotation": [0, 0.363871366, 0, 0.931449234], "scale": [0.279529005, 0.279529005, 0.279529005], "mesh": 11}, {"name": "S_Horse_Manure_uhqibgfga_lod3_Var16", "translation": [-13.2219038, 0.995594621, 9.83460617], "rotation": [0, -0.401436627, 0, 0.915886819], "scale": [0.279529005, 0.279529005, 0.279529005], "mesh": 11}, {"name": "S_Horse_Manure_uhqibgfga_lod3_Var17", "translation": [-13.0371265, 0.999995112, 10.003396], "rotation": [0, 0.707106829, 0, 0.707106829], "scale": [0.279529005, 0.279529005, 0.279529005], "mesh": 11}, {"name": "S_Horse_Manure_uhqibgfga_lod3_Var18", "translation": [-12.536294, 0.999995112, 10.3281116], "rotation": [0, 0.972972989, 0, 0.230919033], "scale": [0.279529005, 0.279529005, 0.279529005], "mesh": 11}, {"name": "S_Horse_Manure_uhqibgfga_lod3_Var19", "translation": [-12.536294, 0.999995112, 10.3973141], "rotation": [0, 0.972972989, 0, 0.230919033], "scale": [0.279529005, 0.279529005, 0.279529005], "mesh": 11}, {"name": "S_Horse_Manure_uhqibgfga_lod3_Var20", "translation": [-12.7530012, 0.999995112, 10.3973141], "rotation": [0, 0.972972989, 0, 0.230919033], "scale": [0.279529005, 0.279529005, 0.279529005], "mesh": 11}, {"name": "S_Horse_Manure_uhqibgfga_lod3_Var21", "translation": [-12.9734335, 0.999995112, 10.2408504], "rotation": [0, 0.972972989, 0, 0.230919033], "scale": [0.279529005, 0.279529005, 0.279529005], "mesh": 11}, {"name": "S_Horse_Manure_uhqibgfga_lod3_Var22", "translation": [-13.1101885, 0.999995112, 10.3973141], "rotation": [0, 0.972972989, 0, 0.230919033], "scale": [0.279529005, 0.279529005, 0.279529005], "mesh": 11}, {"name": "S_Horse_Manure_uhqibgfga_lod3_Var23", "translation": [-13.3039284, 0.999995112, 10.3269262], "rotation": [0, 0.972972989, 0, 0.230919033], "scale": [0.279529005, 0.279529005, 0.279529005], "mesh": 11}, {"name": "S_Horse_Manure_uhqibgfga_lod3_Var25", "translation": [-13.2521667, 0.999995112, 10.0956774], "rotation": [0, 0.972972989, 0, 0.230919033], "scale": [0.279529005, 0.279529005, 0.279529005], "mesh": 11}, {"name": "S_Horse_Manure_uhqibgfga_lod3_Var26", "translation": [-12.8599052, 0.999995112, 9.83106041], "rotation": [0, 0.707106829, 0, 0.707106829], "scale": [0.279529005, 0.279529005, 0.279529005], "mesh": 11}, {"name": "S_Horse_Manure_uhqibgfga_lod3_Var27", "translation": [-12.8599052, 0.999995112, 10.0593586], "rotation": [0, 0.707106829, 0, 0.707106829], "scale": [0.279529005, 0.279529005, 0.279529005], "mesh": 11}, {"name": "S_Horse_Manure_uhqibgfga_lod3_Var28", "translation": [-13.6458626, 0.999994993, 9.13564587], "rotation": [0, 0.972972989, 0, 0.230919033], "scale": [0.279529005, 0.279529005, 0.279529005], "mesh": 11}, {"name": "S_Horse_Manure_uhqibgfga_lod3_Var29", "translation": [-13.7356586, 0.999995112, 8.89920807], "rotation": [0, 0.707106829, 0, 0.707106829], "scale": [0.279529005, 0.279529005, 0.279529005], "mesh": 11}, {"name": "S_Horse_Manure_uhqibgfga_lod3_Var30", "translation": [-13.8729, 0.999994993, 9.13564587], "rotation": [0, 0.972972989, 0, 0.230919033], "scale": [0.279529005, 0.279529005, 0.279529005], "mesh": 11}, {"name": "S_Horse_Manure_uhqibgfga_lod3_Var31", "translation": [-13.843586, 0.999994993, 8.8431406], "rotation": [0, 0.972972989, 0, 0.230919033], "scale": [0.279529005, 0.279529005, 0.279529005], "mesh": 11}, {"name": "S_Horse_Manure_uhqibgfga_lod3_Var32", "translation": [-13.799365, 0.999994993, 9.3225069], "rotation": [0, 0.972972989, 0, 0.230919033], "scale": [0.279529005, 0.279529005, 0.279529005], "mesh": 11}, {"name": "S_Horse_Manure_uhqibgfga_lod3_Var33", "translation": [-13.9105978, 0.999994993, 9.3225069], "rotation": [0, 0.972972989, 0, 0.230919033], "scale": [0.279529005, 0.279529005, 0.279529005], "mesh": 11}, {"name": "S_Horse_Manure_uhqibgfga_lod3_Var34", "translation": [-13.9105978, 0.999994993, 9.40979099], "rotation": [0, 0.972972989, 0, 0.230919033], "scale": [0.279529005, 0.279529005, 0.279529005], "mesh": 11}, {"name": "S_Round_Hay_Bale_rlCay_lod20", "translation": [-12.905282, 1.5741806, 10.6085119], "scale": [0.162511006, 0.162511006, 0.162511006], "mesh": 8}, {"name": "S_Wooden_Wheel_ugljehkga_lod3_Var3", "translation": [-14.1011925, 1.34640062, 9.45584011], "rotation": [-0.478722662, -0.520408154, -0.478722692, 0.520408094], "scale": [0.218509004, 0.37352699, 0.226494998], "mesh": 7}, {"name": "S_Horse_Manure_uhqibgfga_lod3_Var35", "translation": [-13.4453011, 0.999995112, 9.98065948], "rotation": [0, 0.972972989, 0, 0.230919033], "scale": [0.279529005, 0.279529005, 0.279529005], "mesh": 11}, {"name": "S_Wooden_Barrel_udlmcdhqx_lod24", "translation": [-12.9670563, 1.00917232, 9.79836655], "scale": [0.600108027, 0.600108027, 0.600108027], "mesh": 10}, {"name": "S_Old_Saddle_ufmhecrga_lod3_Var2", "translation": [-13.2909021, 1.37804484, 9.65799236], "rotation": [0, 0.707106829, 0, 0.707106829], "scale": [0.274089992, 0.364490986, 0.364490986], "mesh": 3}, {"name": "S_Old_Saddle_ufmhecrga_lod3_Var3", "translation": [-13.0014, 1.37804484, 9.65799236], "rotation": [0, -0.707106829, 0, 0.707106829], "scale": [0.274089992, 0.364490986, 0.364490986], "mesh": 3}], "samplers": [{"minFilter": 9987, "magFilter": 9729}, {"minFilter": 9984, "magFilter": 9728, "wrapS": 33071, "wrapT": 33071}], "scenes": [{"name": "ssss", "nodes": [0, 1, 2, 3, 4, 5, 6, 7, 8, 9, 10, 11, 12, 13, 14, 15, 16, 17, 18, 19, 20, 21, 22, 23, 24, 25, 26, 27, 28, 29, 30, 31, 32, 33, 34, 35, 36, 37, 38, 39, 40, 41, 42, 43, 44, 45, 46, 47, 48, 49, 50, 51, 52, 53, 54, 55, 56, 57, 58, 59, 60, 61, 62, 63, 64, 65, 66, 67, 68, 69, 70, 71, 72, 73, 74, 75, 76, 77, 78, 79, 80, 81, 82, 83, 84, 85, 86, 87, 88, 89, 90, 91, 92, 93, 94, 95, 96, 97, 98, 99, 100, 101, 102, 103, 104, 105, 106, 107, 108, 109, 110, 111, 112, 113, 114, 115, 116, 117, 118, 119, 120, 121, 122, 123, 124, 125, 126, 127, 128, 129, 130, 131, 132, 133, 134, 135, 136, 137, 138, 139, 140, 141, 142, 143, 144, 145, 146, 147, 148, 149, 150, 151, 152, 153, 154, 155]}], "textures": [{"name": "MI_Mossy_Stone_Wall_ujyjbehqx_4K_BaseColor", "sampler": 0, "source": 0}, {"name": "MI_Mossy_Stone_Wall_ujyjbehqx_4K_MetallicRoughness", "sampler": 0, "source": 1}, {"name": "MI_Mossy_Stone_Wall_ujyjbehqx_4K_Normal", "sampler": 0, "source": 2}, {"name": "MI_Mossy_Stone_Wall_ujyjbehqx_4K_Occlusion", "sampler": 1, "source": 3}, {"name": "MI_Wooden_Bollard_tlttae1fa_2K_BaseColor", "sampler": 0, "source": 4}, {"name": "MI_Wooden_Bollard_tlttae1fa_2K_MetallicRoughness", "sampler": 0, "source": 5}, {"name": "MI_Wooden_Bollard_tlttae1fa_2K_Normal", "sampler": 0, "source": 6}, {"name": "MI_Fresh_Harvest_tmjmbhsl_4K_BaseColor", "sampler": 0, "source": 7}, {"name": "MI_Fresh_Harvest_tmjmbhsl_4K_MetallicRoughness", "sampler": 0, "source": 8}, {"name": "MI_Fresh_Harvest_tmjmbhsl_4K_Normal", "sampler": 0, "source": 9}, {"name": "MI_Fresh_Harvest_tmjmbhsl_4K_Occlusion", "sampler": 0, "source": 10}, {"name": "MI_Old_Saddle_ufmhecrga_2K_BaseColor", "sampler": 0, "source": 11}, {"name": "MI_Old_Saddle_ufmhecrga_2K_MetallicRoughness", "sampler": 0, "source": 12}, {"name": "MI_Old_Saddle_ufmhecrga_2K_Normal", "sampler": 0, "source": 13}, {"name": "MI_Wooden_Wheel_ugciag2ga_2K_BaseColor", "sampler": 0, "source": 14}, {"name": "MI_Wooden_Wheel_ugciag2ga_2K_MetallicRoughness", "sampler": 0, "source": 15}, {"name": "MI_Wooden_Wheel_ugciag2ga_2K_Normal", "sampler": 0, "source": 16}, {"name": "MI_Trampled_Sandy_Soil_ubinaeukw_4K_BaseColor", "sampler": 0, "source": 17}, {"name": "MI_Trampled_Sandy_Soil_ubinaeukw_4K_MetallicRoughness", "sampler": 0, "source": 18}, {"name": "MI_Trampled_Sandy_Soil_ubinaeukw_4K_Normal", "sampler": 0, "source": 19}, {"name": "MI_Trampled_Sandy_Soil_ubinaeukw_4K_Occlusion", "sampler": 0, "source": 20}, {"name": "MI_Horse_Hitching_Post_udeuahzqx_2K_BaseColor", "sampler": 0, "source": 21}, {"name": "MI_Horse_Hitching_Post_udeuahzqx_2K_MetallicRoughness", "sampler": 0, "source": 22}, {"name": "MI_Horse_Hitching_Post_udeuahzqx_2K_Normal", "sampler": 0, "source": 23}, {"name": "MI_Wooden_Wheel_ugljehkga_2K_BaseColor", "sampler": 0, "source": 24}, {"name": "MI_Wooden_Wheel_ugljehkga_2K_MetallicRoughness", "sampler": 0, "source": 25}, {"name": "MI_Wooden_Wheel_ugljehkga_2K_Normal", "sampler": 0, "source": 26}, {"name": "MI_Round_Hay_Bale_rlCay_2K_BaseColor", "sampler": 0, "source": 27}, {"name": "MI_Round_Hay_Bale_rlCay_2K_MetallicRoughness", "sampler": 0, "source": 28}, {"name": "MI_Round_Hay_Bale_rlCay_2K_Normal", "sampler": 0, "source": 29}, {"name": "MI_Wooden_Wheelbarrow_tmruaaeda_2K_BaseColor", "sampler": 0, "source": 30}, {"name": "MI_Wooden_Wheelbarrow_tmruaaeda_2K_MetallicRoughness", "sampler": 0, "source": 31}, {"name": "MI_Wooden_Wheelbarrow_tmruaaeda_2K_Normal", "sampler": 0, "source": 32}, {"name": "MI_Wooden_Barrel_udlmcdhqx_2K_BaseColor", "sampler": 0, "source": 33}, {"name": "MI_Wooden_Barrel_udlmcdhqx_2K_MetallicRoughness", "sampler": 0, "source": 34}, {"name": "MI_Wooden_Barrel_udlmcdhqx_2K_Normal", "sampler": 0, "source": 35}, {"name": "MI_Horse_Manure_uhqibgfga_2K_BaseColor", "sampler": 0, "source": 36}, {"name": "MI_Horse_Manure_uhqibgfga_2K_MetallicRoughness", "sampler": 0, "source": 37}, {"name": "MI_Horse_Manure_uhqibgfga_2K_Normal", "sampler": 0, "source": 38}]}