{"asset":{"generator":"Khronos glTF Blender I/O v3.6.27","version":"2.0"},"scene":0,"scenes":[{"name":"Scene","nodes":[0,1,2,3,4,5,6,7,8,9,10,11,12,13,14,15,16,17,18,19,20,21,22,23,24,25,26,27,28,29,30,31]}],"nodes":[{"mesh":0,"name":"SM_vmkpdbeia_VarA","rotation":[0.7071068286895752,0,0,0.7071068286895752],"scale":[0.009999999776482582,0.009999999776482582,0.009999999776482582]},{"mesh":1,"name":"SM_vmkpdbeia_VarA_LOD1","rotation":[0.7071068286895752,0,0,0.7071068286895752],"scale":[0.009999999776482582,0.009999999776482582,0.009999999776482582],"extras":{"lod":{"index":1,"mesh":"SM_vmkpdbeia_VarA"}}},{"mesh":2,"name":"SM_vmkpdbeia_VarA_LOD2","rotation":[0.7071068286895752,0,0,0.7071068286895752],"scale":[0.009999999776482582,0.009999999776482582,0.009999999776482582],"extras":{"lod":{"index":2,"mesh":"SM_vmkpdbeia_VarA"}}},{"mesh":3,"name":"SM_vmkpdbeia_VarA_LOD3","rotation":[0.7071068286895752,0,0,0.7071068286895752],"scale":[0.009999999776482582,0.009999999776482582,0.009999999776482582],"extras":{"lod":{"index":3,"mesh":"SM_vmkpdbeia_VarA"}}},{"mesh":4,"name":"SM_vmkpdbeia_VarB","rotation":[0.7071068286895752,0,0,0.7071068286895752],"scale":[0.009999999776482582,0.009999999776482582,0.009999999776482582]},{"mesh":5,"name":"SM_vmkpdbeia_VarB_LOD1","rotation":[0.7071068286895752,0,0,0.7071068286895752],"scale":[0.009999999776482582,0.009999999776482582,0.009999999776482582],"extras":{"lod":{"index":1,"mesh":"SM_vmkpdbeia_VarB"}}},{"mesh":6,"name":"SM_vmkpdbeia_VarB_LOD2","rotation":[0.7071068286895752,0,0,0.7071068286895752],"scale":[0.009999999776482582,0.009999999776482582,0.009999999776482582],"extras":{"lod":{"index":2,"mesh":"SM_vmkpdbeia_VarB"}}},{"mesh":7,"name":"SM_vmkpdbeia_VarB_LOD3","rotation":[0.7071068286895752,0,0,0.7071068286895752],"scale":[0.009999999776482582,0.009999999776482582,0.009999999776482582],"extras":{"lod":{"index":3,"mesh":"SM_vmkpdbeia_VarB"}}},{"mesh":8,"name":"SM_vmkpdbeia_VarC","rotation":[0.7071068286895752,0,0,0.7071068286895752],"scale":[0.009999999776482582,0.009999999776482582,0.009999999776482582]},{"mesh":9,"name":"SM_vmkpdbeia_VarC_LOD1","rotation":[0.7071068286895752,0,0,0.7071068286895752],"scale":[0.009999999776482582,0.009999999776482582,0.009999999776482582],"extras":{"lod":{"index":1,"mesh":"SM_vmkpdbeia_VarC"}}},{"mesh":10,"name":"SM_vmkpdbeia_VarC_LOD2","rotation":[0.7071068286895752,0,0,0.7071068286895752],"scale":[0.009999999776482582,0.009999999776482582,0.009999999776482582],"extras":{"lod":{"index":2,"mesh":"SM_vmkpdbeia_VarC"}}},{"mesh":11,"name":"SM_vmkpdbeia_VarC_LOD3","rotation":[0.7071068286895752,0,0,0.7071068286895752],"scale":[0.009999999776482582,0.009999999776482582,0.009999999776482582],"extras":{"lod":{"index":3,"mesh":"SM_vmkpdbeia_VarC"}}},{"mesh":12,"name":"SM_vmkpdbeia_VarD","rotation":[0.7071068286895752,0,0,0.7071068286895752],"scale":[0.009999999776482582,0.009999999776482582,0.009999999776482582]},{"mesh":13,"name":"SM_vmkpdbeia_VarD_LOD1","rotation":[0.7071068286895752,0,0,0.7071068286895752],"scale":[0.009999999776482582,0.009999999776482582,0.009999999776482582],"extras":{"lod":{"index":1,"mesh":"SM_vmkpdbeia_VarD"}}},{"mesh":14,"name":"SM_vmkpdbeia_VarD_LOD2","rotation":[0.7071068286895752,0,0,0.7071068286895752],"scale":[0.009999999776482582,0.009999999776482582,0.009999999776482582],"extras":{"lod":{"index":2,"mesh":"SM_vmkpdbeia_VarD"}}},{"mesh":15,"name":"SM_vmkpdbeia_VarD_LOD3","rotation":[0.7071068286895752,0,0,0.7071068286895752],"scale":[0.009999999776482582,0.009999999776482582,0.009999999776482582],"extras":{"lod":{"index":3,"mesh":"SM_vmkpdbeia_VarD"}}},{"mesh":16,"name":"SM_vmkpdbeia_VarE","rotation":[0.7071068286895752,0,0,0.7071068286895752],"scale":[0.009999999776482582,0.009999999776482582,0.009999999776482582]},{"mesh":17,"name":"SM_vmkpdbeia_VarE_LOD1","rotation":[0.7071068286895752,0,0,0.7071068286895752],"scale":[0.009999999776482582,0.009999999776482582,0.009999999776482582],"extras":{"lod":{"index":1,"mesh":"SM_vmkpdbeia_VarE"}}},{"mesh":18,"name":"SM_vmkpdbeia_VarE_LOD2","rotation":[0.7071068286895752,0,0,0.7071068286895752],"scale":[0.009999999776482582,0.009999999776482582,0.009999999776482582],"extras":{"lod":{"index":2,"mesh":"SM_vmkpdbeia_VarE"}}},{"mesh":19,"name":"SM_vmkpdbeia_VarE_LOD3","rotation":[0.7071068286895752,0,0,0.7071068286895752],"scale":[0.009999999776482582,0.009999999776482582,0.009999999776482582],"extras":{"lod":{"index":3,"mesh":"SM_vmkpdbeia_VarE"}}},{"mesh":20,"name":"SM_vmkpdbeia_VarF","rotation":[0.7071068286895752,0,0,0.7071068286895752],"scale":[0.009999999776482582,0.009999999776482582,0.009999999776482582]},{"mesh":21,"name":"SM_vmkpdbeia_VarF_LOD1","rotation":[0.7071068286895752,0,0,0.7071068286895752],"scale":[0.009999999776482582,0.009999999776482582,0.009999999776482582],"extras":{"lod":{"index":1,"mesh":"SM_vmkpdbeia_VarF"}}},{"mesh":22,"name":"SM_vmkpdbeia_VarF_LOD2","rotation":[0.7071068286895752,0,0,0.7071068286895752],"scale":[0.009999999776482582,0.009999999776482582,0.009999999776482582],"extras":{"lod":{"index":2,"mesh":"SM_vmkpdbeia_VarF"}}},{"mesh":23,"name":"SM_vmkpdbeia_VarF_LOD3","rotation":[0.7071068286895752,0,0,0.7071068286895752],"scale":[0.009999999776482582,0.009999999776482582,0.009999999776482582],"extras":{"lod":{"index":3,"mesh":"SM_vmkpdbeia_VarF"}}},{"mesh":24,"name":"SM_vmkpdbeia_VarG","rotation":[0.7071068286895752,0,0,0.7071068286895752],"scale":[0.009999999776482582,0.009999999776482582,0.009999999776482582]},{"mesh":25,"name":"SM_vmkpdbeia_VarG_LOD1","rotation":[0.7071068286895752,0,0,0.7071068286895752],"scale":[0.009999999776482582,0.009999999776482582,0.009999999776482582],"extras":{"lod":{"index":1,"mesh":"SM_vmkpdbeia_VarG"}}},{"mesh":26,"name":"SM_vmkpdbeia_VarG_LOD2","rotation":[0.7071068286895752,0,0,0.7071068286895752],"scale":[0.009999999776482582,0.009999999776482582,0.009999999776482582],"extras":{"lod":{"index":2,"mesh":"SM_vmkpdbeia_VarG"}}},{"mesh":27,"name":"SM_vmkpdbeia_VarG_LOD3","rotation":[0.7071068286895752,0,0,0.7071068286895752],"scale":[0.009999999776482582,0.009999999776482582,0.009999999776482582],"extras":{"lod":{"index":3,"mesh":"SM_vmkpdbeia_VarG"}}},{"mesh":28,"name":"SM_vmkpdbeia_VarH","rotation":[0.7071068286895752,0,0,0.7071068286895752],"scale":[0.009999999776482582,0.009999999776482582,0.009999999776482582]},{"mesh":29,"name":"SM_vmkpdbeia_VarH_LOD1","rotation":[0.7071068286895752,0,0,0.7071068286895752],"scale":[0.009999999776482582,0.009999999776482582,0.009999999776482582],"extras":{"lod":{"index":1,"mesh":"SM_vmkpdbeia_VarH"}}},{"mesh":30,"name":"SM_vmkpdbeia_VarH_LOD2","rotation":[0.7071068286895752,0,0,0.7071068286895752],"scale":[0.009999999776482582,0.009999999776482582,0.009999999776482582],"extras":{"lod":{"index":2,"mesh":"SM_vmkpdbeia_VarH"}}},{"mesh":31,"name":"SM_vmkpdbeia_VarH_LOD3","rotation":[0.7071068286895752,0,0,0.7071068286895752],"scale":[0.009999999776482582,0.009999999776482582,0.009999999776482582],"extras":{"lod":{"index":3,"mesh":"SM_vmkpdbeia_VarH"}}}],"materials":[{"alphaMode":"MASK","doubleSided":true,"name":"MI_vmkpdbeia","normalTexture":{"index":0},"pbrMetallicRoughness":{"baseColorTexture":{"index":2},"metallicRoughnessTexture":{"index":1},"metallicFactor":0},"extras":{"params":[{"Name":"Twig Mask Threshold","Value":0},{"Name":"Twig Mask Strength","Value":1},{"Name":"Normal Strength","Value":4},{"Name":"Roughness Branches","Value":0.75},{"Name":"Roughness Leaves","Value":0.6000000238418579},{"Name":"use Gradient Branch Mask","Value":false},{"Name":"use Growth Effect","Value":false},{"Name":"Base Color Controls","Value":[0.8999999761581421,0.800000011920929,1.100000023841858,0]},{"Name":"Translucency Controls","Value":[1,3,0.800000011920929,0]}]},"alphaCutoff":0.5},{"alphaMode":"MASK","doubleSided":true,"name":"MI_vmkpdbeia_Billboard","normalTexture":{"index":3},"pbrMetallicRoughness":{"baseColorTexture":{"index":4},"metallicFactor":0,"roughnessFactor":0.8},"extras":{"billboardFacingCamera":true,"params":[{"Name":"is Camera Facing Billboard","Value":true},{"Name":"is Billboard","Value":true},{"Name":"Base Color Controls","Value":[0.8999999761581421,0.800000011920929,1.100000023841858,0]},{"Name":"Translucency Controls","Value":[1,3,0.800000011920929,0]}]},"alphaCutoff":0.5}],"meshes":[{"name":"SM_vmkpdbeia_VarA","primitives":[{"attributes":{"COLOR_0":0,"POSITION":1,"TEXCOORD_0":2},"indices":3,"material":0}]},{"name":"SM_vmkpdbeia_VarA_LOD1","primitives":[{"attributes":{"COLOR_0":4,"POSITION":5,"TEXCOORD_0":6},"indices":7,"material":0}]},{"name":"SM_vmkpdbeia_VarA_LOD2","primitives":[{"attributes":{"COLOR_0":8,"POSITION":9,"TEXCOORD_0":10},"indices":11,"material":0}]},{"name":"SM_vmkpdbeia_VarA_LOD3","primitives":[{"attributes":{"COLOR_0":12,"POSITION":13,"TEXCOORD_0":14},"indices":15,"material":1}]},{"name":"SM_vmkpdbeia_VarB","primitives":[{"attributes":{"COLOR_0":16,"POSITION":17,"TEXCOORD_0":18},"indices":19,"material":0}]},{"name":"SM_vmkpdbeia_VarB_LOD1","primitives":[{"attributes":{"COLOR_0":20,"POSITION":21,"TEXCOORD_0":22},"indices":23,"material":0}]},{"name":"SM_vmkpdbeia_VarB_LOD2","primitives":[{"attributes":{"COLOR_0":24,"POSITION":25,"TEXCOORD_0":26},"indices":23,"material":0}]},{"name":"SM_vmkpdbeia_VarB_LOD3","primitives":[{"attributes":{"COLOR_0":27,"POSITION":28,"TEXCOORD_0":29},"indices":30,"material":1}]},{"name":"SM_vmkpdbeia_VarC","primitives":[{"attributes":{"COLOR_0":31,"POSITION":32,"TEXCOORD_0":33},"indices":34,"material":0}]},{"name":"SM_vmkpdbeia_VarC_LOD1","primitives":[{"attributes":{"COLOR_0":35,"POSITION":36,"TEXCOORD_0":37},"indices":38,"material":0}]},{"name":"SM_vmkpdbeia_VarC_LOD2","primitives":[{"attributes":{"COLOR_0":39,"POSITION":40,"TEXCOORD_0":41},"indices":38,"material":0}]},{"name":"SM_vmkpdbeia_VarC_LOD3","primitives":[{"attributes":{"COLOR_0":42,"POSITION":43,"TEXCOORD_0":44},"indices":45,"material":1}]},{"name":"SM_vmkpdbeia_VarD","primitives":[{"attributes":{"COLOR_0":46,"POSITION":47,"TEXCOORD_0":48},"indices":49,"material":0}]},{"name":"SM_vmkpdbeia_VarD_LOD1","primitives":[{"attributes":{"COLOR_0":50,"POSITION":51,"TEXCOORD_0":52},"indices":53,"material":0}]},{"name":"SM_vmkpdbeia_VarD_LOD2","primitives":[{"attributes":{"COLOR_0":54,"POSITION":55,"TEXCOORD_0":56},"indices":57,"material":0}]},{"name":"SM_vmkpdbeia_VarD_LOD3","primitives":[{"attributes":{"COLOR_0":58,"POSITION":59,"TEXCOORD_0":60},"indices":61,"material":1}]},{"name":"SM_vmkpdbeia_VarE","primitives":[{"attributes":{"COLOR_0":62,"POSITION":63,"TEXCOORD_0":64},"indices":65,"material":0}]},{"name":"SM_vmkpdbeia_VarE_LOD1","primitives":[{"attributes":{"COLOR_0":66,"POSITION":67,"TEXCOORD_0":68},"indices":69,"material":0}]},{"name":"SM_vmkpdbeia_VarE_LOD2","primitives":[{"attributes":{"COLOR_0":70,"POSITION":71,"TEXCOORD_0":72},"indices":73,"material":0}]},{"name":"SM_vmkpdbeia_VarE_LOD3","primitives":[{"attributes":{"COLOR_0":74,"POSITION":75,"TEXCOORD_0":76},"indices":77,"material":1}]},{"name":"SM_vmkpdbeia_VarF","primitives":[{"attributes":{"COLOR_0":78,"POSITION":79,"TEXCOORD_0":80},"indices":81,"material":0}]},{"name":"SM_vmkpdbeia_VarF_LOD1","primitives":[{"attributes":{"COLOR_0":82,"POSITION":83,"TEXCOORD_0":84},"indices":85,"material":0}]},{"name":"SM_vmkpdbeia_VarF_LOD2","primitives":[{"attributes":{"COLOR_0":86,"POSITION":87,"TEXCOORD_0":88},"indices":89,"material":0}]},{"name":"SM_vmkpdbeia_VarF_LOD3","primitives":[{"attributes":{"COLOR_0":90,"POSITION":91,"TEXCOORD_0":92},"indices":93,"material":1}]},{"name":"SM_vmkpdbeia_VarG","primitives":[{"attributes":{"COLOR_0":94,"POSITION":95,"TEXCOORD_0":96},"indices":97,"material":0}]},{"name":"SM_vmkpdbeia_VarG_LOD1","primitives":[{"attributes":{"COLOR_0":98,"POSITION":99,"TEXCOORD_0":100},"indices":101,"material":0}]},{"name":"SM_vmkpdbeia_VarG_LOD2","primitives":[{"attributes":{"COLOR_0":102,"POSITION":103,"TEXCOORD_0":104},"indices":105,"material":0}]},{"name":"SM_vmkpdbeia_VarG_LOD3","primitives":[{"attributes":{"COLOR_0":106,"POSITION":107,"TEXCOORD_0":108},"indices":109,"material":1}]},{"name":"SM_vmkpdbeia_VarH","primitives":[{"attributes":{"COLOR_0":110,"POSITION":111,"TEXCOORD_0":112},"indices":113,"material":0}]},{"name":"SM_vmkpdbeia_VarH_LOD1","primitives":[{"attributes":{"COLOR_0":114,"POSITION":115,"TEXCOORD_0":116},"indices":117,"material":0}]},{"name":"SM_vmkpdbeia_VarH_LOD2","primitives":[{"attributes":{"COLOR_0":118,"POSITION":119,"TEXCOORD_0":120},"indices":121,"material":0}]},{"name":"SM_vmkpdbeia_VarH_LOD3","primitives":[{"attributes":{"COLOR_0":122,"POSITION":123,"TEXCOORD_0":124},"indices":125,"material":1}]}],"textures":[{"sampler":0,"source":0},{"sampler":0,"source":1},{"sampler":0,"source":2},{"sampler":0,"source":3},{"sampler":0,"source":4}],"images":[{"uri":"t0.jpg"},{"uri":"t1.jpg"},{"uri":"t2.png"},{"uri":"t3.png"},{"uri":"t4.png"}],"accessors":[{"bufferView":0,"componentType":5123,"count":2535,"normalized":true,"type":"VEC4"},{"bufferView":1,"componentType":5126,"count":2535,"max":[56.81648254394531,62.560035705566406,4.6013383865356445],"min":[-66.17000579833984,-62.74013900756836,-49.522335052490234],"type":"VEC3"},{"bufferView":2,"componentType":5126,"count":2535,"type":"VEC2"},{"bufferView":3,"componentType":5123,"count":10011,"type":"SCALAR"},{"bufferView":4,"componentType":5123,"count":1280,"normalized":true,"type":"VEC4"},{"bufferView":5,"componentType":5126,"count":1280,"max":[56.81745147705078,62.639766693115234,5.290123462677002],"min":[-66.09613800048828,-62.888248443603516,-49.395172119140625],"type":"VEC3"},{"bufferView":6,"componentType":5126,"count":1280,"type":"VEC2"},{"bufferView":7,"componentType":5123,"count":3294,"type":"SCALAR"},{"bufferView":8,"componentType":5123,"count":1152,"normalized":true,"type":"VEC4"},{"bufferView":9,"componentType":5126,"count":1152,"max":[56.81745147705078,62.639766693115234,4.521811485290527],"min":[-66.09613800048828,-62.888248443603516,-49.395172119140625],"type":"VEC3"},{"bufferView":10,"componentType":5126,"count":1152,"type":"VEC2"},{"bufferView":11,"componentType":5123,"count":2934,"type":"SCALAR"},{"bufferView":12,"componentType":5123,"count":7,"normalized":true,"type":"VEC4"},{"bufferView":13,"componentType":5126,"count":7,"max":[56.85060501098633,0,4.631636619567871],"min":[-66.0693588256836,0,-48.511444091796875],"type":"VEC3"},{"bufferView":14,"componentType":5126,"count":7,"type":"VEC2"},{"bufferView":15,"componentType":5123,"count":15,"type":"SCALAR"},{"bufferView":16,"componentType":5123,"count":17,"normalized":true,"type":"VEC4"},{"bufferView":17,"componentType":5126,"count":17,"max":[3.572495222091675,1.7069354057312012,0.18625986576080322],"min":[-11.106670379638672,-16.538644790649414,-13.585240364074707],"type":"VEC3"},{"bufferView":18,"componentType":5126,"count":17,"type":"VEC2"},{"bufferView":19,"componentType":5123,"count":57,"type":"SCALAR"},{"bufferView":20,"componentType":5123,"count":8,"normalized":true,"type":"VEC4"},{"bufferView":21,"componentType":5126,"count":8,"max":[3.127962350845337,1.4965012073516846,0.2353711724281311],"min":[-11.408360481262207,-16.71236228942871,-13.58096981048584],"type":"VEC3"},{"bufferView":22,"componentType":5126,"count":8,"type":"VEC2"},{"bufferView":23,"componentType":5123,"count":18,"type":"SCALAR"},{"bufferView":24,"componentType":5123,"count":8,"normalized":true,"type":"VEC4"},{"bufferView":25,"componentType":5126,"count":8,"max":[3.127962350845337,1.4965012073516846,0.2353711724281311],"min":[-11.408360481262207,-16.71236228942871,-13.58096981048584],"type":"VEC3"},{"bufferView":26,"componentType":5126,"count":8,"type":"VEC2"},{"bufferView":27,"componentType":5123,"count":4,"normalized":true,"type":"VEC4"},{"bufferView":28,"componentType":5126,"count":4,"max":[0.9730532765388489,0,-0.3926039934158325],"min":[-13.479854583740234,0,-13.574951171875],"type":"VEC3"},{"bufferView":29,"componentType":5126,"count":4,"type":"VEC2"},{"bufferView":30,"componentType":5123,"count":6,"type":"SCALAR"},{"bufferView":31,"componentType":5123,"count":51,"normalized":true,"type":"VEC4"},{"bufferView":32,"componentType":5126,"count":51,"max":[14.913844108581543,16.365970611572266,1.6360539197921753],"min":[-20.297075271606445,-24.0936222076416,-12.40772533416748],"type":"VEC3"},{"bufferView":33,"componentType":5126,"count":51,"type":"VEC2"},{"bufferView":34,"componentType":5123,"count":171,"type":"SCALAR"},{"bufferView":35,"componentType":5123,"count":24,"normalized":true,"type":"VEC4"},{"bufferView":36,"componentType":5126,"count":24,"max":[14.811938285827637,16.263317108154297,2.2287490367889404],"min":[-20.474624633789062,-24.1829833984375,-12.38815689086914],"type":"VEC3"},{"bufferView":37,"componentType":5126,"count":24,"type":"VEC2"},{"bufferView":38,"componentType":5123,"count":54,"type":"SCALAR"},{"bufferView":39,"componentType":5123,"count":24,"normalized":true,"type":"VEC4"},{"bufferView":40,"componentType":5126,"count":24,"max":[14.811938285827637,16.263317108154297,2.2287490367889404],"min":[-20.474624633789062,-24.1829833984375,-12.38815689086914],"type":"VEC3"},{"bufferView":41,"componentType":5126,"count":24,"type":"VEC2"},{"bufferView":42,"componentType":5123,"count":5,"normalized":true,"type":"VEC4"},{"bufferView":43,"componentType":5126,"count":5,"max":[14.785666465759277,0,0.9264331459999084],"min":[-20.366680145263672,0,-12.24630355834961],"type":"VEC3"},{"bufferView":44,"componentType":5126,"count":5,"type":"VEC2"},{"bufferView":45,"componentType":5123,"count":9,"type":"SCALAR"},{"bufferView":46,"componentType":5123,"count":1813,"normalized":true,"type":"VEC4"},{"bufferView":47,"componentType":5126,"count":1813,"max":[53.744476318359375,49.24067306518555,3.230938196182251],"min":[-62.65202331542969,-48.717010498046875,-56.66951370239258],"type":"VEC3"},{"bufferView":48,"componentType":5126,"count":1813,"type":"VEC2"},{"bufferView":49,"componentType":5123,"count":7122,"type":"SCALAR"},{"bufferView":50,"componentType":5123,"count":941,"normalized":true,"type":"VEC4"},{"bufferView":51,"componentType":5126,"count":941,"max":[53.88069152832031,49.34206008911133,3.8274126052856445],"min":[-62.67161560058594,-48.717010498046875,-56.66951370239258],"type":"VEC3"},{"bufferView":52,"componentType":5126,"count":941,"type":"VEC2"},{"bufferView":53,"componentType":5123,"count":2424,"type":"SCALAR"},{"bufferView":54,"componentType":5123,"count":845,"normalized":true,"type":"VEC4"},{"bufferView":55,"componentType":5126,"count":845,"max":[53.88069152832031,49.34206008911133,3.4992411136627197],"min":[-62.67161560058594,-48.717010498046875,-56.66951370239258],"type":"VEC3"},{"bufferView":56,"componentType":5126,"count":845,"type":"VEC2"},{"bufferView":57,"componentType":5123,"count":2154,"type":"SCALAR"},{"bufferView":58,"componentType":5123,"count":5,"normalized":true,"type":"VEC4"},{"bufferView":59,"componentType":5126,"count":5,"max":[50.28599548339844,0,3.2415192127227783],"min":[-61.98434066772461,0,-56.66952896118164],"type":"VEC3"},{"bufferView":60,"componentType":5126,"count":5,"type":"VEC2"},{"bufferView":61,"componentType":5123,"count":9,"type":"SCALAR"},{"bufferView":62,"componentType":5123,"count":1998,"normalized":true,"type":"VEC4"},{"bufferView":63,"componentType":5126,"count":1998,"max":[40.475624084472656,54.542205810546875,5.52562952041626],"min":[-39.260276794433594,-46.2479248046875,-49.3269157409668],"type":"VEC3"},{"bufferView":64,"componentType":5126,"count":1998,"type":"VEC2"},{"bufferView":65,"componentType":5123,"count":7542,"type":"SCALAR"},{"bufferView":66,"componentType":5123,"count":1110,"normalized":true,"type":"VEC4"},{"bufferView":67,"componentType":5126,"count":1110,"max":[40.475624084472656,54.56865310668945,5.8582048416137695],"min":[-39.336944580078125,-46.292057037353516,-49.13093948364258],"type":"VEC3"},{"bufferView":68,"componentType":5126,"count":1110,"type":"VEC2"},{"bufferView":69,"componentType":5123,"count":2706,"type":"SCALAR"},{"bufferView":70,"componentType":5123,"count":982,"normalized":true,"type":"VEC4"},{"bufferView":71,"componentType":5126,"count":982,"max":[40.475624084472656,54.56865310668945,5.715234756469727],"min":[-39.336944580078125,-46.292057037353516,-49.13093948364258],"type":"VEC3"},{"bufferView":72,"componentType":5126,"count":982,"type":"VEC2"},{"bufferView":73,"componentType":5123,"count":2346,"type":"SCALAR"},{"bufferView":74,"componentType":5123,"count":7,"normalized":true,"type":"VEC4"},{"bufferView":75,"componentType":5126,"count":7,"max":[40.475624084472656,0,5.525715351104736],"min":[-38.83858871459961,0,-48.8371696472168],"type":"VEC3"},{"bufferView":76,"componentType":5126,"count":7,"type":"VEC2"},{"bufferView":77,"componentType":5123,"count":15,"type":"SCALAR"},{"bufferView":78,"componentType":5123,"count":2525,"normalized":true,"type":"VEC4"},{"bufferView":79,"componentType":5126,"count":2525,"max":[41.43549346923828,26.261367797851562,4.385510444641113],"min":[-45.56894302368164,-46.8795166015625,-43.59832763671875],"type":"VEC3"},{"bufferView":80,"componentType":5126,"count":2525,"type":"VEC2"},{"bufferView":81,"componentType":5123,"count":9606,"type":"SCALAR"},{"bufferView":82,"componentType":5123,"count":1430,"normalized":true,"type":"VEC4"},{"bufferView":83,"componentType":5126,"count":1430,"max":[41.507198333740234,26.261367797851562,4.607252597808838],"min":[-45.56894302368164,-46.8795166015625,-43.02098083496094],"type":"VEC3"},{"bufferView":84,"componentType":5126,"count":1430,"type":"VEC2"},{"bufferView":85,"componentType":5123,"count":3504,"type":"SCALAR"},{"bufferView":86,"componentType":5123,"count":1238,"normalized":true,"type":"VEC4"},{"bufferView":87,"componentType":5126,"count":1238,"max":[41.507198333740234,26.261367797851562,4.373039722442627],"min":[-45.56894302368164,-46.8795166015625,-43.02098083496094],"type":"VEC3"},{"bufferView":88,"componentType":5126,"count":1238,"type":"VEC2"},{"bufferView":89,"componentType":5123,"count":2964,"type":"SCALAR"},{"bufferView":90,"componentType":5123,"count":7,"normalized":true,"type":"VEC4"},{"bufferView":91,"componentType":5126,"count":7,"max":[41.10881805419922,0,4.360194206237793],"min":[-45.568931579589844,0,-43.59834671020508],"type":"VEC3"},{"bufferView":92,"componentType":5126,"count":7,"type":"VEC2"},{"bufferView":93,"componentType":5123,"count":15,"type":"SCALAR"},{"bufferView":94,"componentType":5123,"count":1707,"normalized":true,"type":"VEC4"},{"bufferView":95,"componentType":5126,"count":1707,"max":[33.905982971191406,24.301502227783203,3.995457649230957],"min":[-30.91636085510254,-35.483070373535156,-41.7660026550293],"type":"VEC3"},{"bufferView":96,"componentType":5126,"count":1707,"type":"VEC2"},{"bufferView":97,"componentType":5123,"count":6324,"type":"SCALAR"},{"bufferView":98,"componentType":5123,"count":929,"normalized":true,"type":"VEC4"},{"bufferView":99,"componentType":5126,"count":929,"max":[33.905982971191406,24.413501739501953,4.2514472007751465],"min":[-30.903615951538086,-35.483070373535156,-41.66680145263672],"type":"VEC3"},{"bufferView":100,"componentType":5126,"count":929,"type":"VEC2"},{"bufferView":101,"componentType":5123,"count":2274,"type":"SCALAR"},{"bufferView":102,"componentType":5123,"count":833,"normalized":true,"type":"VEC4"},{"bufferView":103,"componentType":5126,"count":833,"max":[33.905982971191406,24.413501739501953,3.976802349090576],"min":[-30.903615951538086,-35.483070373535156,-41.66680145263672],"type":"VEC3"},{"bufferView":104,"componentType":5126,"count":833,"type":"VEC2"},{"bufferView":105,"componentType":5123,"count":2004,"type":"SCALAR"},{"bufferView":106,"componentType":5123,"count":6,"normalized":true,"type":"VEC4"},{"bufferView":107,"componentType":5126,"count":6,"max":[32.65041732788086,0,3.8478260040283203],"min":[-30.766983032226562,0,-41.908966064453125],"type":"VEC3"},{"bufferView":108,"componentType":5126,"count":6,"type":"VEC2"},{"bufferView":109,"componentType":5123,"count":12,"type":"SCALAR"},{"bufferView":110,"componentType":5123,"count":443,"normalized":true,"type":"VEC4"},{"bufferView":111,"componentType":5126,"count":443,"max":[-0.6578359603881836,10.985746383666992,1.2540395259857178],"min":[-31.50149154663086,-20.035303115844727,-23.41087532043457],"type":"VEC3"},{"bufferView":112,"componentType":5126,"count":443,"type":"VEC2"},{"bufferView":113,"componentType":5123,"count":1692,"type":"SCALAR"},{"bufferView":114,"componentType":5123,"count":249,"normalized":true,"type":"VEC4"},{"bufferView":115,"componentType":5126,"count":249,"max":[-0.34581685066223145,11.083602905273438,1.6045587062835693],"min":[-31.50149154663086,-20.062786102294922,-23.0382080078125],"type":"VEC3"},{"bufferView":116,"componentType":5126,"count":249,"type":"VEC2"},{"bufferView":117,"componentType":5123,"count":624,"type":"SCALAR"},{"bufferView":118,"componentType":5123,"count":217,"normalized":true,"type":"VEC4"},{"bufferView":119,"componentType":5126,"count":217,"max":[-0.6628054976463318,11.083602905273438,1.1803842782974243],"min":[-31.50149154663086,-20.062786102294922,-23.0382080078125],"type":"VEC3"},{"bufferView":120,"componentType":5126,"count":217,"type":"VEC2"},{"bufferView":121,"componentType":5123,"count":534,"type":"SCALAR"},{"bufferView":122,"componentType":5123,"count":4,"normalized":true,"type":"VEC4"},{"bufferView":123,"componentType":5126,"count":4,"max":[-0.9893122911453247,0,1.2548608779907227],"min":[-31.50149154663086,0,-21.12301254272461],"type":"VEC3"},{"bufferView":124,"componentType":5126,"count":4,"type":"VEC2"},{"bufferView":125,"componentType":5123,"count":6,"type":"SCALAR"}],"bufferViews":[{"buffer":0,"byteLength":20280,"byteOffset":0,"target":34962},{"buffer":0,"byteLength":30420,"byteOffset":20280,"target":34962},{"buffer":0,"byteLength":20280,"byteOffset":50700,"target":34962},{"buffer":0,"byteLength":20022,"byteOffset":70980,"target":34963},{"buffer":0,"byteLength":10240,"byteOffset":91004,"target":34962},{"buffer":0,"byteLength":15360,"byteOffset":101244,"target":34962},{"buffer":0,"byteLength":10240,"byteOffset":116604,"target":34962},{"buffer":0,"byteLength":6588,"byteOffset":126844,"target":34963},{"buffer":0,"byteLength":9216,"byteOffset":133432,"target":34962},{"buffer":0,"byteLength":13824,"byteOffset":142648,"target":34962},{"buffer":0,"byteLength":9216,"byteOffset":156472,"target":34962},{"buffer":0,"byteLength":5868,"byteOffset":165688,"target":34963},{"buffer":0,"byteLength":56,"byteOffset":171556,"target":34962},{"buffer":0,"byteLength":84,"byteOffset":171612,"target":34962},{"buffer":0,"byteLength":56,"byteOffset":171696,"target":34962},{"buffer":0,"byteLength":30,"byteOffset":171752,"target":34963},{"buffer":0,"byteLength":136,"byteOffset":171784,"target":34962},{"buffer":0,"byteLength":204,"byteOffset":171920,"target":34962},{"buffer":0,"byteLength":136,"byteOffset":172124,"target":34962},{"buffer":0,"byteLength":114,"byteOffset":172260,"target":34963},{"buffer":0,"byteLength":64,"byteOffset":172376,"target":34962},{"buffer":0,"byteLength":96,"byteOffset":172440,"target":34962},{"buffer":0,"byteLength":64,"byteOffset":172536,"target":34962},{"buffer":0,"byteLength":36,"byteOffset":172600,"target":34963},{"buffer":0,"byteLength":64,"byteOffset":172636,"target":34962},{"buffer":0,"byteLength":96,"byteOffset":172700,"target":34962},{"buffer":0,"byteLength":64,"byteOffset":172796,"target":34962},{"buffer":0,"byteLength":32,"byteOffset":172860,"target":34962},{"buffer":0,"byteLength":48,"byteOffset":172892,"target":34962},{"buffer":0,"byteLength":32,"byteOffset":172940,"target":34962},{"buffer":0,"byteLength":12,"byteOffset":172972,"target":34963},{"buffer":0,"byteLength":408,"byteOffset":172984,"target":34962},{"buffer":0,"byteLength":612,"byteOffset":173392,"target":34962},{"buffer":0,"byteLength":408,"byteOffset":174004,"target":34962},{"buffer":0,"byteLength":342,"byteOffset":174412,"target":34963},{"buffer":0,"byteLength":192,"byteOffset":174756,"target":34962},{"buffer":0,"byteLength":288,"byteOffset":174948,"target":34962},{"buffer":0,"byteLength":192,"byteOffset":175236,"target":34962},{"buffer":0,"byteLength":108,"byteOffset":175428,"target":34963},{"buffer":0,"byteLength":192,"byteOffset":175536,"target":34962},{"buffer":0,"byteLength":288,"byteOffset":175728,"target":34962},{"buffer":0,"byteLength":192,"byteOffset":176016,"target":34962},{"buffer":0,"byteLength":40,"byteOffset":176208,"target":34962},{"buffer":0,"byteLength":60,"byteOffset":176248,"target":34962},{"buffer":0,"byteLength":40,"byteOffset":176308,"target":34962},{"buffer":0,"byteLength":18,"byteOffset":176348,"target":34963},{"buffer":0,"byteLength":14504,"byteOffset":176368,"target":34962},{"buffer":0,"byteLength":21756,"byteOffset":190872,"target":34962},{"buffer":0,"byteLength":14504,"byteOffset":212628,"target":34962},{"buffer":0,"byteLength":14244,"byteOffset":227132,"target":34963},{"buffer":0,"byteLength":7528,"byteOffset":241376,"target":34962},{"buffer":0,"byteLength":11292,"byteOffset":248904,"target":34962},{"buffer":0,"byteLength":7528,"byteOffset":260196,"target":34962},{"buffer":0,"byteLength":4848,"byteOffset":267724,"target":34963},{"buffer":0,"byteLength":6760,"byteOffset":272572,"target":34962},{"buffer":0,"byteLength":10140,"byteOffset":279332,"target":34962},{"buffer":0,"byteLength":6760,"byteOffset":289472,"target":34962},{"buffer":0,"byteLength":4308,"byteOffset":296232,"target":34963},{"buffer":0,"byteLength":40,"byteOffset":300540,"target":34962},{"buffer":0,"byteLength":60,"byteOffset":300580,"target":34962},{"buffer":0,"byteLength":40,"byteOffset":300640,"target":34962},{"buffer":0,"byteLength":18,"byteOffset":300680,"target":34963},{"buffer":0,"byteLength":15984,"byteOffset":300700,"target":34962},{"buffer":0,"byteLength":23976,"byteOffset":316684,"target":34962},{"buffer":0,"byteLength":15984,"byteOffset":340660,"target":34962},{"buffer":0,"byteLength":15084,"byteOffset":356644,"target":34963},{"buffer":0,"byteLength":8880,"byteOffset":371728,"target":34962},{"buffer":0,"byteLength":13320,"byteOffset":380608,"target":34962},{"buffer":0,"byteLength":8880,"byteOffset":393928,"target":34962},{"buffer":0,"byteLength":5412,"byteOffset":402808,"target":34963},{"buffer":0,"byteLength":7856,"byteOffset":408220,"target":34962},{"buffer":0,"byteLength":11784,"byteOffset":416076,"target":34962},{"buffer":0,"byteLength":7856,"byteOffset":427860,"target":34962},{"buffer":0,"byteLength":4692,"byteOffset":435716,"target":34963},{"buffer":0,"byteLength":56,"byteOffset":440408,"target":34962},{"buffer":0,"byteLength":84,"byteOffset":440464,"target":34962},{"buffer":0,"byteLength":56,"byteOffset":440548,"target":34962},{"buffer":0,"byteLength":30,"byteOffset":440604,"target":34963},{"buffer":0,"byteLength":20200,"byteOffset":440636,"target":34962},{"buffer":0,"byteLength":30300,"byteOffset":460836,"target":34962},{"buffer":0,"byteLength":20200,"byteOffset":491136,"target":34962},{"buffer":0,"byteLength":19212,"byteOffset":511336,"target":34963},{"buffer":0,"byteLength":11440,"byteOffset":530548,"target":34962},{"buffer":0,"byteLength":17160,"byteOffset":541988,"target":34962},{"buffer":0,"byteLength":11440,"byteOffset":559148,"target":34962},{"buffer":0,"byteLength":7008,"byteOffset":570588,"target":34963},{"buffer":0,"byteLength":9904,"byteOffset":577596,"target":34962},{"buffer":0,"byteLength":14856,"byteOffset":587500,"target":34962},{"buffer":0,"byteLength":9904,"byteOffset":602356,"target":34962},{"buffer":0,"byteLength":5928,"byteOffset":612260,"target":34963},{"buffer":0,"byteLength":56,"byteOffset":618188,"target":34962},{"buffer":0,"byteLength":84,"byteOffset":618244,"target":34962},{"buffer":0,"byteLength":56,"byteOffset":618328,"target":34962},{"buffer":0,"byteLength":30,"byteOffset":618384,"target":34963},{"buffer":0,"byteLength":13656,"byteOffset":618416,"target":34962},{"buffer":0,"byteLength":20484,"byteOffset":632072,"target":34962},{"buffer":0,"byteLength":13656,"byteOffset":652556,"target":34962},{"buffer":0,"byteLength":12648,"byteOffset":666212,"target":34963},{"buffer":0,"byteLength":7432,"byteOffset":678860,"target":34962},{"buffer":0,"byteLength":11148,"byteOffset":686292,"target":34962},{"buffer":0,"byteLength":7432,"byteOffset":697440,"target":34962},{"buffer":0,"byteLength":4548,"byteOffset":704872,"target":34963},{"buffer":0,"byteLength":6664,"byteOffset":709420,"target":34962},{"buffer":0,"byteLength":9996,"byteOffset":716084,"target":34962},{"buffer":0,"byteLength":6664,"byteOffset":726080,"target":34962},{"buffer":0,"byteLength":4008,"byteOffset":732744,"target":34963},{"buffer":0,"byteLength":48,"byteOffset":736752,"target":34962},{"buffer":0,"byteLength":72,"byteOffset":736800,"target":34962},{"buffer":0,"byteLength":48,"byteOffset":736872,"target":34962},{"buffer":0,"byteLength":24,"byteOffset":736920,"target":34963},{"buffer":0,"byteLength":3544,"byteOffset":736944,"target":34962},{"buffer":0,"byteLength":5316,"byteOffset":740488,"target":34962},{"buffer":0,"byteLength":3544,"byteOffset":745804,"target":34962},{"buffer":0,"byteLength":3384,"byteOffset":749348,"target":34963},{"buffer":0,"byteLength":1992,"byteOffset":752732,"target":34962},{"buffer":0,"byteLength":2988,"byteOffset":754724,"target":34962},{"buffer":0,"byteLength":1992,"byteOffset":757712,"target":34962},{"buffer":0,"byteLength":1248,"byteOffset":759704,"target":34963},{"buffer":0,"byteLength":1736,"byteOffset":760952,"target":34962},{"buffer":0,"byteLength":2604,"byteOffset":762688,"target":34962},{"buffer":0,"byteLength":1736,"byteOffset":765292,"target":34962},{"buffer":0,"byteLength":1068,"byteOffset":767028,"target":34963},{"buffer":0,"byteLength":32,"byteOffset":768096,"target":34962},{"buffer":0,"byteLength":48,"byteOffset":768128,"target":34962},{"buffer":0,"byteLength":32,"byteOffset":768176,"target":34962},{"buffer":0,"byteLength":12,"byteOffset":768208,"target":34963}],"samplers":[{"magFilter":9729,"minFilter":9987}],"buffers":[{"byteLength":768220,"uri":"model.bin"}],"extras":{"tier":2}}