{"asset": {"generator": "Khronos glTF Blender I/O v3.6.27", "version": "2.0"}, "scene": 0, "scenes": [{"name": "Scene", "nodes": [0, 1, 2, 3, 4, 5, 6, 7, 8, 9, 10, 11, 12, 13, 14, 15, 16, 17, 18, 19, 20, 21, 22, 23, 24, 25, 26, 27, 28, 29, 30, 31, 32, 33, 34, 35, 36, 37, 38, 39]}], "nodes": [{"mesh": 0, "name": "SM_wk1ncbxja_VarA", "rotation": [0.7071068286895752, 0, 0, 0.7071068286895752], "scale": [0.009999999776482582, 0.009999999776482582, 0.009999999776482582]}, {"mesh": 1, "name": "SM_wk1ncbxja_VarA_LOD1", "rotation": [0.7071068286895752, 0, 0, 0.7071068286895752], "scale": [0.009999999776482582, 0.009999999776482582, 0.009999999776482582], "extras": {"lod": {"index": 1, "mesh": "SM_wk1ncbxja_VarA"}}}, {"mesh": 2, "name": "SM_wk1ncbxja_VarA_LOD2", "rotation": [0.7071068286895752, 0, 0, 0.7071068286895752], "scale": [0.009999999776482582, 0.009999999776482582, 0.009999999776482582], "extras": {"lod": {"index": 2, "mesh": "SM_wk1ncbxja_VarA"}}}, {"mesh": 3, "name": "SM_wk1ncbxja_VarA_LOD3", "rotation": [0.7071068286895752, 0, 0, 0.7071068286895752], "scale": [0.009999999776482582, 0.009999999776482582, 0.009999999776482582], "extras": {"lod": {"index": 3, "mesh": "SM_wk1ncbxja_VarA"}}}, {"mesh": 4, "name": "SM_wk1ncbxja_VarB", "rotation": [0.7071068286895752, 0, 0, 0.7071068286895752], "scale": [0.009999999776482582, 0.009999999776482582, 0.009999999776482582]}, {"mesh": 5, "name": "SM_wk1ncbxja_VarB_LOD1", "rotation": [0.7071068286895752, 0, 0, 0.7071068286895752], "scale": [0.009999999776482582, 0.009999999776482582, 0.009999999776482582], "extras": {"lod": {"index": 1, "mesh": "SM_wk1ncbxja_VarB"}}}, {"mesh": 6, "name": "SM_wk1ncbxja_VarB_LOD2", "rotation": [0.7071068286895752, 0, 0, 0.7071068286895752], "scale": [0.009999999776482582, 0.009999999776482582, 0.009999999776482582], "extras": {"lod": {"index": 2, "mesh": "SM_wk1ncbxja_VarB"}}}, {"mesh": 7, "name": "SM_wk1ncbxja_VarB_LOD3", "rotation": [0.7071068286895752, 0, 0, 0.7071068286895752], "scale": [0.009999999776482582, 0.009999999776482582, 0.009999999776482582], "extras": {"lod": {"index": 3, "mesh": "SM_wk1ncbxja_VarB"}}}, {"mesh": 8, "name": "SM_wk1ncbxja_VarC", "rotation": [0.7071068286895752, 0, 0, 0.7071068286895752], "scale": [0.009999999776482582, 0.009999999776482582, 0.009999999776482582]}, {"mesh": 9, "name": "SM_wk1ncbxja_VarC_LOD1", "rotation": [0.7071068286895752, 0, 0, 0.7071068286895752], "scale": [0.009999999776482582, 0.009999999776482582, 0.009999999776482582], "extras": {"lod": {"index": 1, "mesh": "SM_wk1ncbxja_VarC"}}}, {"mesh": 10, "name": "SM_wk1ncbxja_VarC_LOD2", "rotation": [0.7071068286895752, 0, 0, 0.7071068286895752], "scale": [0.009999999776482582, 0.009999999776482582, 0.009999999776482582], "extras": {"lod": {"index": 2, "mesh": "SM_wk1ncbxja_VarC"}}}, {"mesh": 11, "name": "SM_wk1ncbxja_VarC_LOD3", "rotation": [0.7071068286895752, 0, 0, 0.7071068286895752], "scale": [0.009999999776482582, 0.009999999776482582, 0.009999999776482582], "extras": {"lod": {"index": 3, "mesh": "SM_wk1ncbxja_VarC"}}}, {"mesh": 12, "name": "SM_wk1ncbxja_VarD", "rotation": [0.7071068286895752, 0, 0, 0.7071068286895752], "scale": [0.009999999776482582, 0.009999999776482582, 0.009999999776482582]}, {"mesh": 13, "name": "SM_wk1ncbxja_VarD_LOD1", "rotation": [0.7071068286895752, 0, 0, 0.7071068286895752], "scale": [0.009999999776482582, 0.009999999776482582, 0.009999999776482582], "extras": {"lod": {"index": 1, "mesh": "SM_wk1ncbxja_VarD"}}}, {"mesh": 14, "name": "SM_wk1ncbxja_VarD_LOD2", "rotation": [0.7071068286895752, 0, 0, 0.7071068286895752], "scale": [0.009999999776482582, 0.009999999776482582, 0.009999999776482582], "extras": {"lod": {"index": 2, "mesh": "SM_wk1ncbxja_VarD"}}}, {"mesh": 15, "name": "SM_wk1ncbxja_VarD_LOD3", "rotation": [0.7071068286895752, 0, 0, 0.7071068286895752], "scale": [0.009999999776482582, 0.009999999776482582, 0.009999999776482582], "extras": {"lod": {"index": 3, "mesh": "SM_wk1ncbxja_VarD"}}}, {"mesh": 16, "name": "SM_wk1ncbxja_VarE", "rotation": [0.7071068286895752, 0, 0, 0.7071068286895752], "scale": [0.009999999776482582, 0.009999999776482582, 0.009999999776482582]}, {"mesh": 17, "name": "SM_wk1ncbxja_VarE_LOD1", "rotation": [0.7071068286895752, 0, 0, 0.7071068286895752], "scale": [0.009999999776482582, 0.009999999776482582, 0.009999999776482582], "extras": {"lod": {"index": 1, "mesh": "SM_wk1ncbxja_VarE"}}}, {"mesh": 18, "name": "SM_wk1ncbxja_VarE_LOD2", "rotation": [0.7071068286895752, 0, 0, 0.7071068286895752], "scale": [0.009999999776482582, 0.009999999776482582, 0.009999999776482582], "extras": {"lod": {"index": 2, "mesh": "SM_wk1ncbxja_VarE"}}}, {"mesh": 19, "name": "SM_wk1ncbxja_VarE_LOD3", "rotation": [0.7071068286895752, 0, 0, 0.7071068286895752], "scale": [0.009999999776482582, 0.009999999776482582, 0.009999999776482582], "extras": {"lod": {"index": 3, "mesh": "SM_wk1ncbxja_VarE"}}}, {"mesh": 20, "name": "SM_wk1ncbxja_VarF", "rotation": [0.7071068286895752, 0, 0, 0.7071068286895752], "scale": [0.009999999776482582, 0.009999999776482582, 0.009999999776482582]}, {"mesh": 21, "name": "SM_wk1ncbxja_VarF_LOD1", "rotation": [0.7071068286895752, 0, 0, 0.7071068286895752], "scale": [0.009999999776482582, 0.009999999776482582, 0.009999999776482582], "extras": {"lod": {"index": 1, "mesh": "SM_wk1ncbxja_VarF"}}}, {"mesh": 22, "name": "SM_wk1ncbxja_VarF_LOD2", "rotation": [0.7071068286895752, 0, 0, 0.7071068286895752], "scale": [0.009999999776482582, 0.009999999776482582, 0.009999999776482582], "extras": {"lod": {"index": 2, "mesh": "SM_wk1ncbxja_VarF"}}}, {"mesh": 23, "name": "SM_wk1ncbxja_VarF_LOD3", "rotation": [0.7071068286895752, 0, 0, 0.7071068286895752], "scale": [0.009999999776482582, 0.009999999776482582, 0.009999999776482582], "extras": {"lod": {"index": 3, "mesh": "SM_wk1ncbxja_VarF"}}}, {"mesh": 24, "name": "SM_wk1ncbxja_VarG", "rotation": [0.7071068286895752, 0, 0, 0.7071068286895752], "scale": [0.009999999776482582, 0.009999999776482582, 0.009999999776482582]}, {"mesh": 25, "name": "SM_wk1ncbxja_VarG_LOD1", "rotation": [0.7071068286895752, 0, 0, 0.7071068286895752], "scale": [0.009999999776482582, 0.009999999776482582, 0.009999999776482582], "extras": {"lod": {"index": 1, "mesh": "SM_wk1ncbxja_VarG"}}}, {"mesh": 26, "name": "SM_wk1ncbxja_VarG_LOD2", "rotation": [0.7071068286895752, 0, 0, 0.7071068286895752], "scale": [0.009999999776482582, 0.009999999776482582, 0.009999999776482582], "extras": {"lod": {"index": 2, "mesh": "SM_wk1ncbxja_VarG"}}}, {"mesh": 27, "name": "SM_wk1ncbxja_VarG_LOD3", "rotation": [0.7071068286895752, 0, 0, 0.7071068286895752], "scale": [0.009999999776482582, 0.009999999776482582, 0.009999999776482582], "extras": {"lod": {"index": 3, "mesh": "SM_wk1ncbxja_VarG"}}}, {"mesh": 28, "name": "SM_wk1ncbxja_VarH", "rotation": [0.7071068286895752, 0, 0, 0.7071068286895752], "scale": [0.009999999776482582, 0.009999999776482582, 0.009999999776482582]}, {"mesh": 29, "name": "SM_wk1ncbxja_VarH_LOD1", "rotation": [0.7071068286895752, 0, 0, 0.7071068286895752], "scale": [0.009999999776482582, 0.009999999776482582, 0.009999999776482582], "extras": {"lod": {"index": 1, "mesh": "SM_wk1ncbxja_VarH"}}}, {"mesh": 30, "name": "SM_wk1ncbxja_VarH_LOD2", "rotation": [0.7071068286895752, 0, 0, 0.7071068286895752], "scale": [0.009999999776482582, 0.009999999776482582, 0.009999999776482582], "extras": {"lod": {"index": 2, "mesh": "SM_wk1ncbxja_VarH"}}}, {"mesh": 31, "name": "SM_wk1ncbxja_VarH_LOD3", "rotation": [0.7071068286895752, 0, 0, 0.7071068286895752], "scale": [0.009999999776482582, 0.009999999776482582, 0.009999999776482582], "extras": {"lod": {"index": 3, "mesh": "SM_wk1ncbxja_VarH"}}}, {"mesh": 32, "name": "SM_wk1ncbxja_VarI", "rotation": [0.7071068286895752, 0, 0, 0.7071068286895752], "scale": [0.009999999776482582, 0.009999999776482582, 0.009999999776482582]}, {"mesh": 33, "name": "SM_wk1ncbxja_VarI_LOD1", "rotation": [0.7071068286895752, 0, 0, 0.7071068286895752], "scale": [0.009999999776482582, 0.009999999776482582, 0.009999999776482582], "extras": {"lod": {"index": 1, "mesh": "SM_wk1ncbxja_VarI"}}}, {"mesh": 34, "name": "SM_wk1ncbxja_VarI_LOD2", "rotation": [0.7071068286895752, 0, 0, 0.7071068286895752], "scale": [0.009999999776482582, 0.009999999776482582, 0.009999999776482582], "extras": {"lod": {"index": 2, "mesh": "SM_wk1ncbxja_VarI"}}}, {"mesh": 35, "name": "SM_wk1ncbxja_VarI_LOD3", "rotation": [0.7071068286895752, 0, 0, 0.7071068286895752], "scale": [0.009999999776482582, 0.009999999776482582, 0.009999999776482582], "extras": {"lod": {"index": 3, "mesh": "SM_wk1ncbxja_VarI"}}}, {"mesh": 36, "name": "SM_wk1ncbxja_VarJ", "rotation": [0.7071068286895752, 0, 0, 0.7071068286895752], "scale": [0.009999999776482582, 0.009999999776482582, 0.009999999776482582]}, {"mesh": 37, "name": "SM_wk1ncbxja_VarJ_LOD1", "rotation": [0.7071068286895752, 0, 0, 0.7071068286895752], "scale": [0.009999999776482582, 0.009999999776482582, 0.009999999776482582], "extras": {"lod": {"index": 1, "mesh": "SM_wk1ncbxja_VarJ"}}}, {"mesh": 38, "name": "SM_wk1ncbxja_VarJ_LOD2", "rotation": [0.7071068286895752, 0, 0, 0.7071068286895752], "scale": [0.009999999776482582, 0.009999999776482582, 0.009999999776482582], "extras": {"lod": {"index": 2, "mesh": "SM_wk1ncbxja_VarJ"}}}, {"mesh": 39, "name": "SM_wk1ncbxja_VarJ_LOD3", "rotation": [0.7071068286895752, 0, 0, 0.7071068286895752], "scale": [0.009999999776482582, 0.009999999776482582, 0.009999999776482582], "extras": {"lod": {"index": 3, "mesh": "SM_wk1ncbxja_VarJ"}}}], "materials": [{"alphaMode": "MASK", "doubleSided": true, "name": "MI_wk1ncbxja", "normalTexture": {"index": 0}, "pbrMetallicRoughness": {"baseColorTexture": {"index": 2}, "metallicRoughnessTexture": {"index": 1}, "metallicFactor": 0}, "extras": {"params": [{"Name": "Twig Mask Strength", "Value": 0.6000000238418579}, {"Name": "Specular Branches", "Value": 0.5}, {"Name": "Constant Specular", "Value": 0.5}, {"Name": "Specular Leaves", "Value": 0.5099999904632568}, {"Name": "Normal Strength", "Value": 1.5}, {"Name": "Roughness Leaves", "Value": 0.6000000238418579}, {"Name": "use Gradient Branch Mask", "Value": true}, {"Name": "Split Base Color Controls", "Value": true}, {"Name": "Tint Leaf Backside", "Value": false}, {"Name": "mask Branches Health", "Value": true}, {"Name": "Tint Translucency", "Value": true}, {"Name": "Split Translucency Controls", "Value": true}, {"Name": "use Growth Effect", "Value": false}, {"Name": "Base Color Tint Leaves", "Value": [0.39479199051856995, 0.40602099895477295, 0.5, 1]}, {"Name": "Base Color Controls Leaves", "Value": [0.75, 1, 1, 0]}, {"Name": "Base Color Tint Branches", "Value": [0.35331499576568604, 0.33193400502204895, 0.40208300948143005, 1]}, {"Name": "Translucency Tint", "Value": [0.8701390027999878, 0.9479169845581055, 0.5351210236549377, 1]}, {"Name": "Translucency Controls", "Value": [1, 12, 0.6000000238418579, 0]}, {"Name": "Translucency Tint Leaves", "Value": [0.7051010131835938, 0.8645830154418945, 0.36924898624420166, 1]}, {"Name": "Translucency Controls Leaves", "Value": [1.0499999523162842, 6, 0.6000000238418579, 0]}, {"Name": "Translucency Tint Branches", "Value": [0.5, 0.5, 0.5, 0]}, {"Name": "Translucency Controls Branches", "Value": [1, 4, 1, 0]}]}}, {"alphaMode": "MASK", "doubleSided": true, "name": "MI_wk1ncbxja_Billboard", "normalTexture": {"index": 3}, "pbrMetallicRoughness": {"baseColorTexture": {"index": 4}, "metallicFactor": 0, "roughnessFactor": 0.8}, "extras": {"billboardFacingCamera": false, "params": [{"Name": "Twig Mask Billboard Threshold", "Value": 50}, {"Name": "is Camera Facing Billboard", "Value": false}, {"Name": "is Billboard", "Value": true}]}}], "meshes": [{"name": "SM_wk1ncbxja_VarA", "primitives": [{"attributes": {"POSITION": 1, "TEXCOORD_0": 2, "_wind": 0}, "indices": 3, "material": 0}]}, {"name": "SM_wk1ncbxja_VarA_LOD1", "primitives": [{"attributes": {"POSITION": 5, "TEXCOORD_0": 6, "_wind": 4}, "indices": 7, "material": 0}]}, {"name": "SM_wk1ncbxja_VarA_LOD2", "primitives": [{"attributes": {"POSITION": 9, "TEXCOORD_0": 10, "_wind": 8}, "indices": 11, "material": 0}]}, {"name": "SM_wk1ncbxja_VarA_LOD3", "primitives": [{"attributes": {"POSITION": 13, "TEXCOORD_0": 14, "_wind": 12}, "indices": 15, "material": 1}]}, {"name": "SM_wk1ncbxja_VarB", "primitives": [{"attributes": {"POSITION": 17, "TEXCOORD_0": 18, "_wind": 16}, "indices": 19, "material": 0}]}, {"name": "SM_wk1ncbxja_VarB_LOD1", "primitives": [{"attributes": {"POSITION": 21, "TEXCOORD_0": 22, "_wind": 20}, "indices": 23, "material": 0}]}, {"name": "SM_wk1ncbxja_VarB_LOD2", "primitives": [{"attributes": {"POSITION": 25, "TEXCOORD_0": 26, "_wind": 24}, "indices": 27, "material": 0}]}, {"name": "SM_wk1ncbxja_VarB_LOD3", "primitives": [{"attributes": {"POSITION": 29, "TEXCOORD_0": 30, "_wind": 28}, "indices": 31, "material": 1}]}, {"name": "SM_wk1ncbxja_VarC", "primitives": [{"attributes": {"POSITION": 33, "TEXCOORD_0": 34, "_wind": 32}, "indices": 35, "material": 0}]}, {"name": "SM_wk1ncbxja_VarC_LOD1", "primitives": [{"attributes": {"POSITION": 37, "TEXCOORD_0": 38, "_wind": 36}, "indices": 39, "material": 0}]}, {"name": "SM_wk1ncbxja_VarC_LOD2", "primitives": [{"attributes": {"POSITION": 41, "TEXCOORD_0": 42, "_wind": 40}, "indices": 43, "material": 0}]}, {"name": "SM_wk1ncbxja_VarC_LOD3", "primitives": [{"attributes": {"POSITION": 45, "TEXCOORD_0": 46, "_wind": 44}, "indices": 47, "material": 1}]}, {"name": "SM_wk1ncbxja_VarD", "primitives": [{"attributes": {"POSITION": 49, "TEXCOORD_0": 50, "_wind": 48}, "indices": 51, "material": 0}]}, {"name": "SM_wk1ncbxja_VarD_LOD1", "primitives": [{"attributes": {"POSITION": 53, "TEXCOORD_0": 54, "_wind": 52}, "indices": 55, "material": 0}]}, {"name": "SM_wk1ncbxja_VarD_LOD2", "primitives": [{"attributes": {"POSITION": 57, "TEXCOORD_0": 58, "_wind": 56}, "indices": 59, "material": 0}]}, {"name": "SM_wk1ncbxja_VarD_LOD3", "primitives": [{"attributes": {"POSITION": 61, "TEXCOORD_0": 62, "_wind": 60}, "indices": 63, "material": 1}]}, {"name": "SM_wk1ncbxja_VarE", "primitives": [{"attributes": {"POSITION": 65, "TEXCOORD_0": 66, "_wind": 64}, "indices": 67, "material": 0}]}, {"name": "SM_wk1ncbxja_VarE_LOD1", "primitives": [{"attributes": {"POSITION": 69, "TEXCOORD_0": 70, "_wind": 68}, "indices": 71, "material": 0}]}, {"name": "SM_wk1ncbxja_VarE_LOD2", "primitives": [{"attributes": {"POSITION": 73, "TEXCOORD_0": 74, "_wind": 72}, "indices": 75, "material": 0}]}, {"name": "SM_wk1ncbxja_VarE_LOD3", "primitives": [{"attributes": {"POSITION": 77, "TEXCOORD_0": 78, "_wind": 76}, "indices": 79, "material": 1}]}, {"name": "SM_wk1ncbxja_VarF", "primitives": [{"attributes": {"POSITION": 81, "TEXCOORD_0": 82, "_wind": 80}, "indices": 83, "material": 0}]}, {"name": "SM_wk1ncbxja_VarF_LOD1", "primitives": [{"attributes": {"POSITION": 85, "TEXCOORD_0": 86, "_wind": 84}, "indices": 87, "material": 0}]}, {"name": "SM_wk1ncbxja_VarF_LOD2", "primitives": [{"attributes": {"POSITION": 89, "TEXCOORD_0": 90, "_wind": 88}, "indices": 91, "material": 0}]}, {"name": "SM_wk1ncbxja_VarF_LOD3", "primitives": [{"attributes": {"POSITION": 93, "TEXCOORD_0": 94, "_wind": 92}, "indices": 95, "material": 1}]}, {"name": "SM_wk1ncbxja_VarG", "primitives": [{"attributes": {"POSITION": 97, "TEXCOORD_0": 98, "_wind": 96}, "indices": 99, "material": 0}]}, {"name": "SM_wk1ncbxja_VarG_LOD1", "primitives": [{"attributes": {"POSITION": 101, "TEXCOORD_0": 102, "_wind": 100}, "indices": 103, "material": 0}]}, {"name": "SM_wk1ncbxja_VarG_LOD2", "primitives": [{"attributes": {"POSITION": 105, "TEXCOORD_0": 106, "_wind": 104}, "indices": 107, "material": 0}]}, {"name": "SM_wk1ncbxja_VarG_LOD3", "primitives": [{"attributes": {"POSITION": 109, "TEXCOORD_0": 110, "_wind": 108}, "indices": 111, "material": 1}]}, {"name": "SM_wk1ncbxja_VarH", "primitives": [{"attributes": {"POSITION": 113, "TEXCOORD_0": 114, "_wind": 112}, "indices": 115, "material": 0}]}, {"name": "SM_wk1ncbxja_VarH_LOD1", "primitives": [{"attributes": {"POSITION": 117, "TEXCOORD_0": 118, "_wind": 116}, "indices": 119, "material": 0}]}, {"name": "SM_wk1ncbxja_VarH_LOD2", "primitives": [{"attributes": {"POSITION": 121, "TEXCOORD_0": 122, "_wind": 120}, "indices": 123, "material": 0}]}, {"name": "SM_wk1ncbxja_VarH_LOD3", "primitives": [{"attributes": {"POSITION": 125, "TEXCOORD_0": 126, "_wind": 124}, "indices": 127, "material": 1}]}, {"name": "SM_wk1ncbxja_VarI", "primitives": [{"attributes": {"POSITION": 129, "TEXCOORD_0": 130, "_wind": 128}, "indices": 131, "material": 0}]}, {"name": "SM_wk1ncbxja_VarI_LOD1", "primitives": [{"attributes": {"POSITION": 133, "TEXCOORD_0": 134, "_wind": 132}, "indices": 135, "material": 0}]}, {"name": "SM_wk1ncbxja_VarI_LOD2", "primitives": [{"attributes": {"POSITION": 137, "TEXCOORD_0": 138, "_wind": 136}, "indices": 139, "material": 0}]}, {"name": "SM_wk1ncbxja_VarI_LOD3", "primitives": [{"attributes": {"POSITION": 141, "TEXCOORD_0": 142, "_wind": 140}, "indices": 143, "material": 1}]}, {"name": "SM_wk1ncbxja_VarJ", "primitives": [{"attributes": {"POSITION": 145, "TEXCOORD_0": 146, "_wind": 144}, "indices": 147, "material": 0}]}, {"name": "SM_wk1ncbxja_VarJ_LOD1", "primitives": [{"attributes": {"POSITION": 149, "TEXCOORD_0": 150, "_wind": 148}, "indices": 151, "material": 0}]}, {"name": "SM_wk1ncbxja_VarJ_LOD2", "primitives": [{"attributes": {"POSITION": 153, "TEXCOORD_0": 154, "_wind": 152}, "indices": 155, "material": 0}]}, {"name": "SM_wk1ncbxja_VarJ_LOD3", "primitives": [{"attributes": {"POSITION": 157, "TEXCOORD_0": 158, "_wind": 156}, "indices": 159, "material": 1}]}], "textures": [{"sampler": 0, "source": 0}, {"sampler": 0, "source": 1}, {"sampler": 0, "source": 2}, {"sampler": 0, "source": 3}, {"sampler": 0, "source": 4}], "images": [{"mimeType": "image/jpeg", "name": "T_wk1ncbxja_2K_N", "uri": "t0.jpg", "extras": {"mipgen": "sharpen_4"}}, {"mimeType": "image/jpeg", "name": "T_wk1ncbxja_2K_ORT", "uri": "t1.jpg", "extras": {"compression": "mask", "textureSlot": "Mask", "materialIndex": 0, "mipgen": "sharpen_6", "alphaCoverage": [0.333, 0, 0, 0], "scaleMips": true}}, {"mimeType": "image/png", "name": "T_wk1ncbxja_2K_B-O", "uri": "t2.png", "extras": {"mipgen": "sharpen_4"}}, {"mimeType": "image/png", "name": "T_wk1ncbxja_2K_Billboard_N-T", "uri": "t3.png", "extras": {"compression": "mask", "mipgen": "sharpen_4"}}, {"mimeType": "image/png", "name": "T_wk1ncbxja_2K_Billboard_B-O", "uri": "t4.png", "extras": {"mipgen": "sharpen_4", "alphaCoverage": [0, 0, 0, 0.333], "scaleMips": true}}], "accessors": [{"bufferView": 0, "componentType": 5123, "count": 24016, "normalized": true, "type": "VEC4"}, {"bufferView": 1, "componentType": 5126, "count": 24016, "max": [72.851318359375, 62.29460144042969, 0.004136422649025917], "min": [-73.66883850097656, -66.94793701171875, -174.78631591796875], "type": "VEC3"}, {"bufferView": 2, "componentType": 5126, "count": 24016, "type": "VEC2"}, {"bufferView": 3, "componentType": 5123, "count": 79947, "type": "SCALAR"}, {"bufferView": 4, "componentType": 5123, "count": 16557, "normalized": true, "type": "VEC4"}, {"bufferView": 5, "componentType": 5126, "count": 16557, "max": [72.82865142822266, 62.367164611816406, 0.006626134738326073], "min": [-73.65147399902344, -66.67135620117188, -174.76438903808594], "type": "VEC3"}, {"bufferView": 6, "componentType": 5126, "count": 16557, "type": "VEC2"}, {"bufferView": 7, "componentType": 5123, "count": 50130, "type": "SCALAR"}, {"bufferView": 8, "componentType": 5123, "count": 2848, "normalized": true, "type": "VEC4"}, {"bufferView": 9, "componentType": 5126, "count": 2848, "max": [71.0409164428711, 62.61988830566406, 0.006626134738326073], "min": [-70.98938751220703, -66.87630462646484, -174.0513153076172], "type": "VEC3"}, {"bufferView": 10, "componentType": 5126, "count": 2848, "type": "VEC2"}, {"bufferView": 11, "componentType": 5123, "count": 8325, "type": "SCALAR"}, {"bufferView": 12, "componentType": 5123, "count": 20, "normalized": true, "type": "VEC4"}, {"bufferView": 13, "componentType": 5126, "count": 20, "max": [72.823974609375, 62.23434066772461, 0.0040983837097883224], "min": [-73.62772369384766, -66.42459869384766, -174.7541961669922], "type": "VEC3"}, {"bufferView": 14, "componentType": 5126, "count": 20, "type": "VEC2"}, {"bufferView": 15, "componentType": 5123, "count": 48, "type": "SCALAR"}, {"bufferView": 16, "componentType": 5123, "count": 192749, "normalized": true, "type": "VEC4"}, {"bufferView": 17, "componentType": 5126, "count": 192749, "max": [85.78933715820312, 72.10680389404297, 0.06922513991594315], "min": [-91.32963562011719, -121.34668731689453, -222.8767852783203], "type": "VEC3"}, {"bufferView": 18, "componentType": 5126, "count": 192749, "type": "VEC2"}, {"bufferView": 19, "componentType": 5125, "count": 763566, "type": "SCALAR"}, {"bufferView": 20, "componentType": 5123, "count": 48030, "normalized": true, "type": "VEC4"}, {"bufferView": 21, "componentType": 5126, "count": 48030, "max": [85.87010192871094, 72.1981430053711, 0.08308494091033936], "min": [-91.46431732177734, -121.7479476928711, -222.4376220703125], "type": "VEC3"}, {"bufferView": 22, "componentType": 5126, "count": 48030, "type": "VEC2"}, {"bufferView": 23, "componentType": 5123, "count": 131211, "type": "SCALAR"}, {"bufferView": 24, "componentType": 5123, "count": 6947, "normalized": true, "type": "VEC4"}, {"bufferView": 25, "componentType": 5126, "count": 6947, "max": [86.39286804199219, 69.74232482910156, 0.08308494091033936], "min": [-90.67320251464844, -122.89856719970703, -225.2101593017578], "type": "VEC3"}, {"bufferView": 26, "componentType": 5126, "count": 6947, "type": "VEC2"}, {"bufferView": 27, "componentType": 5123, "count": 19731, "type": "SCALAR"}, {"bufferView": 28, "componentType": 5123, "count": 25, "normalized": true, "type": "VEC4"}, {"bufferView": 29, "componentType": 5126, "count": 25, "max": [85.7264175415039, 72.08966064453125, 0.0647680014371872], "min": [-91.3723373413086, -120.52645874023438, -222.61073303222656], "type": "VEC3"}, {"bufferView": 30, "componentType": 5126, "count": 25, "type": "VEC2"}, {"bufferView": 31, "componentType": 5123, "count": 63, "type": "SCALAR"}, {"bufferView": 32, "componentType": 5123, "count": 627587, "normalized": true, "type": "VEC4"}, {"bufferView": 33, "componentType": 5126, "count": 627587, "max": [168.06434631347656, 149.68577575683594, 0.4700612723827362], "min": [-151.49484252929688, -142.427978515625, -286.6498107910156], "type": "VEC3"}, {"bufferView": 34, "componentType": 5126, "count": 627587, "type": "VEC2"}, {"bufferView": 35, "componentType": 5125, "count": 2465799, "type": "SCALAR"}, {"bufferView": 36, "componentType": 5123, "count": 167971, "normalized": true, "type": "VEC4"}, {"bufferView": 37, "componentType": 5126, "count": 167971, "max": [168.3040313720703, 149.54208374023438, 0.4585835635662079], "min": [-151.6370391845703, -142.54861450195312, -286.7208557128906], "type": "VEC3"}, {"bufferView": 38, "componentType": 5126, "count": 167971, "type": "VEC2"}, {"bufferView": 39, "componentType": 5125, "count": 462909, "type": "SCALAR"}, {"bufferView": 40, "componentType": 5123, "count": 23965, "normalized": true, "type": "VEC4"}, {"bufferView": 41, "componentType": 5126, "count": 23965, "max": [167.40528869628906, 150.2010040283203, 0.45855242013931274], "min": [-151.86654663085938, -140.78353881835938, -287.823486328125], "type": "VEC3"}, {"bufferView": 42, "componentType": 5126, "count": 23965, "type": "VEC2"}, {"bufferView": 43, "componentType": 5123, "count": 68829, "type": "SCALAR"}, {"bufferView": 44, "componentType": 5123, "count": 25, "normalized": true, "type": "VEC4"}, {"bufferView": 45, "componentType": 5126, "count": 25, "max": [168.05557250976562, 149.3342742919922, 0.5017993450164795], "min": [-151.49484252929688, -142.44937133789062, -286.7188415527344], "type": "VEC3"}, {"bufferView": 46, "componentType": 5126, "count": 25, "type": "VEC2"}, {"bufferView": 47, "componentType": 5123, "count": 63, "type": "SCALAR"}, {"bufferView": 48, "componentType": 5123, "count": 272966, "normalized": true, "type": "VEC4"}, {"bufferView": 49, "componentType": 5126, "count": 272966, "max": [115.12594604492188, 152.40480041503906, 0.5957773923873901], "min": [-137.6141357421875, -145.9529266357422, -273.7730407714844], "type": "VEC3"}, {"bufferView": 50, "componentType": 5126, "count": 272966, "type": "VEC2"}, {"bufferView": 51, "componentType": 5125, "count": 1056252, "type": "SCALAR"}, {"bufferView": 52, "componentType": 5123, "count": 86503, "normalized": true, "type": "VEC4"}, {"bufferView": 53, "componentType": 5126, "count": 86503, "max": [115.5298080444336, 151.981201171875, 0.6750803589820862], "min": [-137.64334106445312, -146.11386108398438, -273.86578369140625], "type": "VEC3"}, {"bufferView": 54, "componentType": 5126, "count": 86503, "type": "VEC2"}, {"bufferView": 55, "componentType": 5125, "count": 245424, "type": "SCALAR"}, {"bufferView": 56, "componentType": 5123, "count": 15080, "normalized": true, "type": "VEC4"}, {"bufferView": 57, "componentType": 5126, "count": 15080, "max": [115.26811218261719, 153.52288818359375, 0.6750803589820862], "min": [-137.16880798339844, -144.6129913330078, -273.5076904296875], "type": "VEC3"}, {"bufferView": 58, "componentType": 5126, "count": 15080, "type": "VEC2"}, {"bufferView": 59, "componentType": 5123, "count": 43860, "type": "SCALAR"}, {"bufferView": 60, "componentType": 5123, "count": 22, "normalized": true, "type": "VEC4"}, {"bufferView": 61, "componentType": 5126, "count": 22, "max": [115.30291748046875, 151.30149841308594, 0.58708655834198], "min": [-137.58187866210938, -145.32598876953125, -273.7237243652344], "type": "VEC3"}, {"bufferView": 62, "componentType": 5126, "count": 22, "type": "VEC2"}, {"bufferView": 63, "componentType": 5123, "count": 54, "type": "SCALAR"}, {"bufferView": 64, "componentType": 5123, "count": 72309, "normalized": true, "type": "VEC4"}, {"bufferView": 65, "componentType": 5126, "count": 72309, "max": [110.0706787109375, 100.44139862060547, 0.22340081632137299], "min": [-115.51068115234375, -107.54151153564453, -257.9166259765625], "type": "VEC3"}, {"bufferView": 66, "componentType": 5126, "count": 72309, "type": "VEC2"}, {"bufferView": 67, "componentType": 5125, "count": 240252, "type": "SCALAR"}, {"bufferView": 68, "componentType": 5123, "count": 50447, "normalized": true, "type": "VEC4"}, {"bufferView": 69, "componentType": 5126, "count": 50447, "max": [109.90977478027344, 100.39509582519531, 0.24365778267383575], "min": [-116.213134765625, -107.5728988647461, -257.4761962890625], "type": "VEC3"}, {"bufferView": 70, "componentType": 5126, "count": 50447, "type": "VEC2"}, {"bufferView": 71, "componentType": 5123, "count": 153543, "type": "SCALAR"}, {"bufferView": 72, "componentType": 5123, "count": 8257, "normalized": true, "type": "VEC4"}, {"bufferView": 73, "componentType": 5126, "count": 8257, "max": [113.61807250976562, 101.69962310791016, 0.24365778267383575], "min": [-115.41212463378906, -107.44953155517578, -260.2099914550781], "type": "VEC3"}, {"bufferView": 74, "componentType": 5126, "count": 8257, "type": "VEC2"}, {"bufferView": 75, "componentType": 5123, "count": 24825, "type": "SCALAR"}, {"bufferView": 76, "componentType": 5123, "count": 26, "normalized": true, "type": "VEC4"}, {"bufferView": 77, "componentType": 5126, "count": 26, "max": [110.40129852294922, 100.31095886230469, 0.22340081632137299], "min": [-115.4129638671875, -107.49373626708984, -257.3373107910156], "type": "VEC3"}, {"bufferView": 78, "componentType": 5126, "count": 26, "type": "VEC2"}, {"bufferView": 79, "componentType": 5123, "count": 66, "type": "SCALAR"}, {"bufferView": 80, "componentType": 5123, "count": 809, "normalized": true, "type": "VEC4"}, {"bufferView": 81, "componentType": 5126, "count": 809, "max": [18.005380630493164, 14.42748737335205, 0.6069087386131287], "min": [-8.827451705932617, -15.080012321472168, -23.329708099365234], "type": "VEC3"}, {"bufferView": 82, "componentType": 5126, "count": 809, "type": "VEC2"}, {"bufferView": 83, "componentType": 5123, "count": 2565, "type": "SCALAR"}, {"bufferView": 84, "componentType": 5123, "count": 579, "normalized": true, "type": "VEC4"}, {"bufferView": 85, "componentType": 5126, "count": 579, "max": [17.836833953857422, 14.429269790649414, 0.6532082557678223], "min": [-8.827080726623535, -15.610708236694336, -23.09206199645996], "type": "VEC3"}, {"bufferView": 86, "componentType": 5126, "count": 579, "type": "VEC2"}, {"bufferView": 87, "componentType": 5123, "count": 1680, "type": "SCALAR"}, {"bufferView": 88, "componentType": 5123, "count": 108, "normalized": true, "type": "VEC4"}, {"bufferView": 89, "componentType": 5126, "count": 108, "max": [17.933055877685547, 15.037198066711426, 0.6109318733215332], "min": [-8.721553802490234, -14.851866722106934, -23.034902572631836], "type": "VEC3"}, {"bufferView": 90, "componentType": 5126, "count": 108, "type": "VEC2"}, {"bufferView": 91, "componentType": 5123, "count": 240, "type": "SCALAR"}, {"bufferView": 92, "componentType": 5123, "count": 16, "normalized": true, "type": "VEC4"}, {"bufferView": 93, "componentType": 5126, "count": 16, "max": [17.747089385986328, 14.40167236328125, 0.6727901697158813], "min": [-8.798834800720215, -14.895984649658203, -23.214366912841797], "type": "VEC3"}, {"bufferView": 94, "componentType": 5126, "count": 16, "type": "VEC2"}, {"bufferView": 95, "componentType": 5123, "count": 36, "type": "SCALAR"}, {"bufferView": 96, "componentType": 5123, "count": 1264, "normalized": true, "type": "VEC4"}, {"bufferView": 97, "componentType": 5126, "count": 1264, "max": [18.429176330566406, 13.536235809326172, 0.004721665754914284], "min": [-15.538756370544434, -40.758056640625, -60.27094268798828], "type": "VEC3"}, {"bufferView": 98, "componentType": 5126, "count": 1264, "type": "VEC2"}, {"bufferView": 99, "componentType": 5123, "count": 4275, "type": "SCALAR"}, {"bufferView": 100, "componentType": 5123, "count": 895, "normalized": true, "type": "VEC4"}, {"bufferView": 101, "componentType": 5126, "count": 895, "max": [18.3553524017334, 13.660534858703613, 0.41215792298316956], "min": [-15.276795387268066, -40.82805633544922, -60.310447692871094], "type": "VEC3"}, {"bufferView": 102, "componentType": 5126, "count": 895, "type": "VEC2"}, {"bufferView": 103, "componentType": 5123, "count": 2637, "type": "SCALAR"}, {"bufferView": 104, "componentType": 5123, "count": 269, "normalized": true, "type": "VEC4"}, {"bufferView": 105, "componentType": 5126, "count": 269, "max": [19.01287078857422, 13.600322723388672, 0.41215792298316956], "min": [-15.058570861816406, -42.08977508544922, -60.31498336791992], "type": "VEC3"}, {"bufferView": 106, "componentType": 5126, "count": 269, "type": "VEC2"}, {"bufferView": 107, "componentType": 5123, "count": 684, "type": "SCALAR"}, {"bufferView": 108, "componentType": 5123, "count": 17, "normalized": true, "type": "VEC4"}, {"bufferView": 109, "componentType": 5126, "count": 17, "max": [18.243162155151367, 13.552591323852539, 0.0027894973754882812], "min": [-15.421538352966309, -40.535888671875, -60.19729995727539], "type": "VEC3"}, {"bufferView": 110, "componentType": 5126, "count": 17, "type": "VEC2"}, {"bufferView": 111, "componentType": 5123, "count": 39, "type": "SCALAR"}, {"bufferView": 112, "componentType": 5123, "count": 2992, "normalized": true, "type": "VEC4"}, {"bufferView": 113, "componentType": 5126, "count": 2992, "max": [27.67917251586914, 27.239173889160156, 0.019570067524909973], "min": [-27.04133415222168, -38.5164794921875, -85.96290588378906], "type": "VEC3"}, {"bufferView": 114, "componentType": 5126, "count": 2992, "type": "VEC2"}, {"bufferView": 115, "componentType": 5123, "count": 10014, "type": "SCALAR"}, {"bufferView": 116, "componentType": 5123, "count": 2113, "normalized": true, "type": "VEC4"}, {"bufferView": 117, "componentType": 5126, "count": 2113, "max": [27.801265716552734, 27.191919326782227, 0.7923954129219055], "min": [-27.13467788696289, -38.55773162841797, -85.91609191894531], "type": "VEC3"}, {"bufferView": 118, "componentType": 5126, "count": 2113, "type": "VEC2"}, {"bufferView": 119, "componentType": 5123, "count": 6252, "type": "SCALAR"}, {"bufferView": 120, "componentType": 5123, "count": 498, "normalized": true, "type": "VEC4"}, {"bufferView": 121, "componentType": 5126, "count": 498, "max": [27.18429946899414, 28.063934326171875, 0.751630425453186], "min": [-25.091781616210938, -37.651981353759766, -86.45268249511719], "type": "VEC3"}, {"bufferView": 122, "componentType": 5126, "count": 498, "type": "VEC2"}, {"bufferView": 123, "componentType": 5123, "count": 1266, "type": "SCALAR"}, {"bufferView": 124, "componentType": 5123, "count": 17, "normalized": true, "type": "VEC4"}, {"bufferView": 125, "componentType": 5126, "count": 17, "max": [27.711538314819336, 26.792007446289062, 0.020807888358831406], "min": [-27.066421508789062, -38.03466033935547, -85.63655853271484], "type": "VEC3"}, {"bufferView": 126, "componentType": 5126, "count": 17, "type": "VEC2"}, {"bufferView": 127, "componentType": 5123, "count": 39, "type": "SCALAR"}, {"bufferView": 128, "componentType": 5123, "count": 13874, "normalized": true, "type": "VEC4"}, {"bufferView": 129, "componentType": 5126, "count": 13874, "max": [33.731109619140625, 38.572998046875, 0.6547749042510986], "min": [-46.60197830200195, -66.4755630493164, -109.97013854980469], "type": "VEC3"}, {"bufferView": 130, "componentType": 5126, "count": 13874, "type": "VEC2"}, {"bufferView": 131, "componentType": 5123, "count": 45630, "type": "SCALAR"}, {"bufferView": 132, "componentType": 5123, "count": 9720, "normalized": true, "type": "VEC4"}, {"bufferView": 133, "componentType": 5126, "count": 9720, "max": [33.698219299316406, 38.60121536254883, 1.4830714464187622], "min": [-46.572349548339844, -66.46124267578125, -109.96060180664062], "type": "VEC3"}, {"bufferView": 134, "componentType": 5126, "count": 9720, "type": "VEC2"}, {"bufferView": 135, "componentType": 5123, "count": 28464, "type": "SCALAR"}, {"bufferView": 136, "componentType": 5123, "count": 1380, "normalized": true, "type": "VEC4"}, {"bufferView": 137, "componentType": 5126, "count": 1380, "max": [34.88524627685547, 38.40967559814453, 1.4830714464187622], "min": [-47.35440444946289, -66.31684875488281, -109.58534240722656], "type": "VEC3"}, {"bufferView": 138, "componentType": 5126, "count": 1380, "type": "VEC2"}, {"bufferView": 139, "componentType": 5123, "count": 3348, "type": "SCALAR"}, {"bufferView": 140, "componentType": 5123, "count": 22, "normalized": true, "type": "VEC4"}, {"bufferView": 141, "componentType": 5126, "count": 22, "max": [32.82432556152344, 38.54737854003906, 0.7800004482269287], "min": [-46.61865234375, -66.44933319091797, -109.94702911376953], "type": "VEC3"}, {"bufferView": 142, "componentType": 5126, "count": 22, "type": "VEC2"}, {"bufferView": 143, "componentType": 5123, "count": 54, "type": "SCALAR"}, {"bufferView": 144, "componentType": 5123, "count": 20899, "normalized": true, "type": "VEC4"}, {"bufferView": 145, "componentType": 5126, "count": 20899, "max": [85.05365753173828, 75.06229400634766, 0.03316393122076988], "min": [-72.42990112304688, -74.64202880859375, -158.12599182128906], "type": "VEC3"}, {"bufferView": 146, "componentType": 5126, "count": 20899, "type": "VEC2"}, {"bufferView": 147, "componentType": 5123, "count": 71748, "type": "SCALAR"}, {"bufferView": 148, "componentType": 5123, "count": 14216, "normalized": true, "type": "VEC4"}, {"bufferView": 149, "componentType": 5126, "count": 14216, "max": [85.14374542236328, 75.19831085205078, 0.19872581958770752], "min": [-72.45787048339844, -74.54170227050781, -157.9089813232422], "type": "VEC3"}, {"bufferView": 150, "componentType": 5126, "count": 14216, "type": "VEC2"}, {"bufferView": 151, "componentType": 5123, "count": 44280, "type": "SCALAR"}, {"bufferView": 152, "componentType": 5123, "count": 2380, "normalized": true, "type": "VEC4"}, {"bufferView": 153, "componentType": 5126, "count": 2380, "max": [88.55435943603516, 73.14397430419922, 0.19872581958770752], "min": [-69.65254211425781, -77.46089172363281, -159.51495361328125], "type": "VEC3"}, {"bufferView": 154, "componentType": 5126, "count": 2380, "type": "VEC2"}, {"bufferView": 155, "componentType": 5123, "count": 7386, "type": "SCALAR"}, {"bufferView": 156, "componentType": 5123, "count": 23, "normalized": true, "type": "VEC4"}, {"bufferView": 157, "componentType": 5126, "count": 23, "max": [85.04389190673828, 75.08512115478516, -0.0059422338381409645], "min": [-72.39904022216797, -74.51499938964844, -157.520751953125], "type": "VEC3"}, {"bufferView": 158, "componentType": 5126, "count": 23, "type": "VEC2"}, {"bufferView": 159, "componentType": 5123, "count": 57, "type": "SCALAR"}], "bufferViews": [{"buffer": 0, "byteLength": 192128, "byteOffset": 0, "target": 34962}, {"buffer": 0, "byteLength": 288192, "byteOffset": 192128, "target": 34962}, {"buffer": 0, "byteLength": 192128, "byteOffset": 480320, "target": 34962}, {"buffer": 0, "byteLength": 159894, "byteOffset": 672448, "target": 34963}, {"buffer": 0, "byteLength": 132456, "byteOffset": 832344, "target": 34962}, {"buffer": 0, "byteLength": 198684, "byteOffset": 964800, "target": 34962}, {"buffer": 0, "byteLength": 132456, "byteOffset": 1163484, "target": 34962}, {"buffer": 0, "byteLength": 100260, "byteOffset": 1295940, "target": 34963}, {"buffer": 0, "byteLength": 22784, "byteOffset": 1396200, "target": 34962}, {"buffer": 0, "byteLength": 34176, "byteOffset": 1418984, "target": 34962}, {"buffer": 0, "byteLength": 22784, "byteOffset": 1453160, "target": 34962}, {"buffer": 0, "byteLength": 16650, "byteOffset": 1475944, "target": 34963}, {"buffer": 0, "byteLength": 160, "byteOffset": 1492596, "target": 34962}, {"buffer": 0, "byteLength": 240, "byteOffset": 1492756, "target": 34962}, {"buffer": 0, "byteLength": 160, "byteOffset": 1492996, "target": 34962}, {"buffer": 0, "byteLength": 96, "byteOffset": 1493156, "target": 34963}, {"buffer": 0, "byteLength": 1541992, "byteOffset": 1493252, "target": 34962}, {"buffer": 0, "byteLength": 2312988, "byteOffset": 3035244, "target": 34962}, {"buffer": 0, "byteLength": 1541992, "byteOffset": 5348232, "target": 34962}, {"buffer": 0, "byteLength": 3054264, "byteOffset": 6890224, "target": 34963}, {"buffer": 0, "byteLength": 384240, "byteOffset": 9944488, "target": 34962}, {"buffer": 0, "byteLength": 576360, "byteOffset": 10328728, "target": 34962}, {"buffer": 0, "byteLength": 384240, "byteOffset": 10905088, "target": 34962}, {"buffer": 0, "byteLength": 262422, "byteOffset": 11289328, "target": 34963}, {"buffer": 0, "byteLength": 55576, "byteOffset": 11551752, "target": 34962}, {"buffer": 0, "byteLength": 83364, "byteOffset": 11607328, "target": 34962}, {"buffer": 0, "byteLength": 55576, "byteOffset": 11690692, "target": 34962}, {"buffer": 0, "byteLength": 39462, "byteOffset": 11746268, "target": 34963}, {"buffer": 0, "byteLength": 200, "byteOffset": 11785732, "target": 34962}, {"buffer": 0, "byteLength": 300, "byteOffset": 11785932, "target": 34962}, {"buffer": 0, "byteLength": 200, "byteOffset": 11786232, "target": 34962}, {"buffer": 0, "byteLength": 126, "byteOffset": 11786432, "target": 34963}, {"buffer": 0, "byteLength": 5020696, "byteOffset": 11786560, "target": 34962}, {"buffer": 0, "byteLength": 7531044, "byteOffset": 16807256, "target": 34962}, {"buffer": 0, "byteLength": 5020696, "byteOffset": 24338300, "target": 34962}, {"buffer": 0, "byteLength": 9863196, "byteOffset": 29358996, "target": 34963}, {"buffer": 0, "byteLength": 1343768, "byteOffset": 39222192, "target": 34962}, {"buffer": 0, "byteLength": 2015652, "byteOffset": 40565960, "target": 34962}, {"buffer": 0, "byteLength": 1343768, "byteOffset": 42581612, "target": 34962}, {"buffer": 0, "byteLength": 1851636, "byteOffset": 43925380, "target": 34963}, {"buffer": 0, "byteLength": 191720, "byteOffset": 45777016, "target": 34962}, {"buffer": 0, "byteLength": 287580, "byteOffset": 45968736, "target": 34962}, {"buffer": 0, "byteLength": 191720, "byteOffset": 46256316, "target": 34962}, {"buffer": 0, "byteLength": 137658, "byteOffset": 46448036, "target": 34963}, {"buffer": 0, "byteLength": 200, "byteOffset": 46585696, "target": 34962}, {"buffer": 0, "byteLength": 300, "byteOffset": 46585896, "target": 34962}, {"buffer": 0, "byteLength": 200, "byteOffset": 46586196, "target": 34962}, {"buffer": 0, "byteLength": 126, "byteOffset": 46586396, "target": 34963}, {"buffer": 0, "byteLength": 2183728, "byteOffset": 46586524, "target": 34962}, {"buffer": 0, "byteLength": 3275592, "byteOffset": 48770252, "target": 34962}, {"buffer": 0, "byteLength": 2183728, "byteOffset": 52045844, "target": 34962}, {"buffer": 0, "byteLength": 4225008, "byteOffset": 54229572, "target": 34963}, {"buffer": 0, "byteLength": 692024, "byteOffset": 58454580, "target": 34962}, {"buffer": 0, "byteLength": 1038036, "byteOffset": 59146604, "target": 34962}, {"buffer": 0, "byteLength": 692024, "byteOffset": 60184640, "target": 34962}, {"buffer": 0, "byteLength": 981696, "byteOffset": 60876664, "target": 34963}, {"buffer": 0, "byteLength": 120640, "byteOffset": 61858360, "target": 34962}, {"buffer": 0, "byteLength": 180960, "byteOffset": 61979000, "target": 34962}, {"buffer": 0, "byteLength": 120640, "byteOffset": 62159960, "target": 34962}, {"buffer": 0, "byteLength": 87720, "byteOffset": 62280600, "target": 34963}, {"buffer": 0, "byteLength": 176, "byteOffset": 62368320, "target": 34962}, {"buffer": 0, "byteLength": 264, "byteOffset": 62368496, "target": 34962}, {"buffer": 0, "byteLength": 176, "byteOffset": 62368760, "target": 34962}, {"buffer": 0, "byteLength": 108, "byteOffset": 62368936, "target": 34963}, {"buffer": 0, "byteLength": 578472, "byteOffset": 62369044, "target": 34962}, {"buffer": 0, "byteLength": 867708, "byteOffset": 62947516, "target": 34962}, {"buffer": 0, "byteLength": 578472, "byteOffset": 63815224, "target": 34962}, {"buffer": 0, "byteLength": 961008, "byteOffset": 64393696, "target": 34963}, {"buffer": 0, "byteLength": 403576, "byteOffset": 65354704, "target": 34962}, {"buffer": 0, "byteLength": 605364, "byteOffset": 65758280, "target": 34962}, {"buffer": 0, "byteLength": 403576, "byteOffset": 66363644, "target": 34962}, {"buffer": 0, "byteLength": 307086, "byteOffset": 66767220, "target": 34963}, {"buffer": 0, "byteLength": 66056, "byteOffset": 67074308, "target": 34962}, {"buffer": 0, "byteLength": 99084, "byteOffset": 67140364, "target": 34962}, {"buffer": 0, "byteLength": 66056, "byteOffset": 67239448, "target": 34962}, {"buffer": 0, "byteLength": 49650, "byteOffset": 67305504, "target": 34963}, {"buffer": 0, "byteLength": 208, "byteOffset": 67355156, "target": 34962}, {"buffer": 0, "byteLength": 312, "byteOffset": 67355364, "target": 34962}, {"buffer": 0, "byteLength": 208, "byteOffset": 67355676, "target": 34962}, {"buffer": 0, "byteLength": 132, "byteOffset": 67355884, "target": 34963}, {"buffer": 0, "byteLength": 6472, "byteOffset": 67356016, "target": 34962}, {"buffer": 0, "byteLength": 9708, "byteOffset": 67362488, "target": 34962}, {"buffer": 0, "byteLength": 6472, "byteOffset": 67372196, "target": 34962}, {"buffer": 0, "byteLength": 5130, "byteOffset": 67378668, "target": 34963}, {"buffer": 0, "byteLength": 4632, "byteOffset": 67383800, "target": 34962}, {"buffer": 0, "byteLength": 6948, "byteOffset": 67388432, "target": 34962}, {"buffer": 0, "byteLength": 4632, "byteOffset": 67395380, "target": 34962}, {"buffer": 0, "byteLength": 3360, "byteOffset": 67400012, "target": 34963}, {"buffer": 0, "byteLength": 864, "byteOffset": 67403372, "target": 34962}, {"buffer": 0, "byteLength": 1296, "byteOffset": 67404236, "target": 34962}, {"buffer": 0, "byteLength": 864, "byteOffset": 67405532, "target": 34962}, {"buffer": 0, "byteLength": 480, "byteOffset": 67406396, "target": 34963}, {"buffer": 0, "byteLength": 128, "byteOffset": 67406876, "target": 34962}, {"buffer": 0, "byteLength": 192, "byteOffset": 67407004, "target": 34962}, {"buffer": 0, "byteLength": 128, "byteOffset": 67407196, "target": 34962}, {"buffer": 0, "byteLength": 72, "byteOffset": 67407324, "target": 34963}, {"buffer": 0, "byteLength": 10112, "byteOffset": 67407396, "target": 34962}, {"buffer": 0, "byteLength": 15168, "byteOffset": 67417508, "target": 34962}, {"buffer": 0, "byteLength": 10112, "byteOffset": 67432676, "target": 34962}, {"buffer": 0, "byteLength": 8550, "byteOffset": 67442788, "target": 34963}, {"buffer": 0, "byteLength": 7160, "byteOffset": 67451340, "target": 34962}, {"buffer": 0, "byteLength": 10740, "byteOffset": 67458500, "target": 34962}, {"buffer": 0, "byteLength": 7160, "byteOffset": 67469240, "target": 34962}, {"buffer": 0, "byteLength": 5274, "byteOffset": 67476400, "target": 34963}, {"buffer": 0, "byteLength": 2152, "byteOffset": 67481676, "target": 34962}, {"buffer": 0, "byteLength": 3228, "byteOffset": 67483828, "target": 34962}, {"buffer": 0, "byteLength": 2152, "byteOffset": 67487056, "target": 34962}, {"buffer": 0, "byteLength": 1368, "byteOffset": 67489208, "target": 34963}, {"buffer": 0, "byteLength": 136, "byteOffset": 67490576, "target": 34962}, {"buffer": 0, "byteLength": 204, "byteOffset": 67490712, "target": 34962}, {"buffer": 0, "byteLength": 136, "byteOffset": 67490916, "target": 34962}, {"buffer": 0, "byteLength": 78, "byteOffset": 67491052, "target": 34963}, {"buffer": 0, "byteLength": 23936, "byteOffset": 67491132, "target": 34962}, {"buffer": 0, "byteLength": 35904, "byteOffset": 67515068, "target": 34962}, {"buffer": 0, "byteLength": 23936, "byteOffset": 67550972, "target": 34962}, {"buffer": 0, "byteLength": 20028, "byteOffset": 67574908, "target": 34963}, {"buffer": 0, "byteLength": 16904, "byteOffset": 67594936, "target": 34962}, {"buffer": 0, "byteLength": 25356, "byteOffset": 67611840, "target": 34962}, {"buffer": 0, "byteLength": 16904, "byteOffset": 67637196, "target": 34962}, {"buffer": 0, "byteLength": 12504, "byteOffset": 67654100, "target": 34963}, {"buffer": 0, "byteLength": 3984, "byteOffset": 67666604, "target": 34962}, {"buffer": 0, "byteLength": 5976, "byteOffset": 67670588, "target": 34962}, {"buffer": 0, "byteLength": 3984, "byteOffset": 67676564, "target": 34962}, {"buffer": 0, "byteLength": 2532, "byteOffset": 67680548, "target": 34963}, {"buffer": 0, "byteLength": 136, "byteOffset": 67683080, "target": 34962}, {"buffer": 0, "byteLength": 204, "byteOffset": 67683216, "target": 34962}, {"buffer": 0, "byteLength": 136, "byteOffset": 67683420, "target": 34962}, {"buffer": 0, "byteLength": 78, "byteOffset": 67683556, "target": 34963}, {"buffer": 0, "byteLength": 110992, "byteOffset": 67683636, "target": 34962}, {"buffer": 0, "byteLength": 166488, "byteOffset": 67794628, "target": 34962}, {"buffer": 0, "byteLength": 110992, "byteOffset": 67961116, "target": 34962}, {"buffer": 0, "byteLength": 91260, "byteOffset": 68072108, "target": 34963}, {"buffer": 0, "byteLength": 77760, "byteOffset": 68163368, "target": 34962}, {"buffer": 0, "byteLength": 116640, "byteOffset": 68241128, "target": 34962}, {"buffer": 0, "byteLength": 77760, "byteOffset": 68357768, "target": 34962}, {"buffer": 0, "byteLength": 56928, "byteOffset": 68435528, "target": 34963}, {"buffer": 0, "byteLength": 11040, "byteOffset": 68492456, "target": 34962}, {"buffer": 0, "byteLength": 16560, "byteOffset": 68503496, "target": 34962}, {"buffer": 0, "byteLength": 11040, "byteOffset": 68520056, "target": 34962}, {"buffer": 0, "byteLength": 6696, "byteOffset": 68531096, "target": 34963}, {"buffer": 0, "byteLength": 176, "byteOffset": 68537792, "target": 34962}, {"buffer": 0, "byteLength": 264, "byteOffset": 68537968, "target": 34962}, {"buffer": 0, "byteLength": 176, "byteOffset": 68538232, "target": 34962}, {"buffer": 0, "byteLength": 108, "byteOffset": 68538408, "target": 34963}, {"buffer": 0, "byteLength": 167192, "byteOffset": 68538516, "target": 34962}, {"buffer": 0, "byteLength": 250788, "byteOffset": 68705708, "target": 34962}, {"buffer": 0, "byteLength": 167192, "byteOffset": 68956496, "target": 34962}, {"buffer": 0, "byteLength": 143496, "byteOffset": 69123688, "target": 34963}, {"buffer": 0, "byteLength": 113728, "byteOffset": 69267184, "target": 34962}, {"buffer": 0, "byteLength": 170592, "byteOffset": 69380912, "target": 34962}, {"buffer": 0, "byteLength": 113728, "byteOffset": 69551504, "target": 34962}, {"buffer": 0, "byteLength": 88560, "byteOffset": 69665232, "target": 34963}, {"buffer": 0, "byteLength": 19040, "byteOffset": 69753792, "target": 34962}, {"buffer": 0, "byteLength": 28560, "byteOffset": 69772832, "target": 34962}, {"buffer": 0, "byteLength": 19040, "byteOffset": 69801392, "target": 34962}, {"buffer": 0, "byteLength": 14772, "byteOffset": 69820432, "target": 34963}, {"buffer": 0, "byteLength": 184, "byteOffset": 69835204, "target": 34962}, {"buffer": 0, "byteLength": 276, "byteOffset": 69835388, "target": 34962}, {"buffer": 0, "byteLength": 184, "byteOffset": 69835664, "target": 34962}, {"buffer": 0, "byteLength": 114, "byteOffset": 69835848, "target": 34963}], "samplers": [{"magFilter": 9729, "minFilter": 9987}], "buffers": [{"byteLength": 69835964, "uri": "model.bin"}], "extras": {"tier": 2}}