{"asset": {"generator": "Khronos glTF Blender I/O v3.6.27", "version": "2.0"}, "scene": 0, "scenes": [{"name": "Scene", "nodes": [0]}], "nodes": [{"mesh": 0, "name": "rlCay_LOD0_TIER2_000", "rotation": [0.7071068286895752, 0, 0, 0.7071068286895752], "scale": [0.009999999776482582, 0.009999999776482582, 0.009999999776482582]}], "materials": [{"doubleSided": true, "name": "MI_rlCay", "normalTexture": {"index": 0}, "occlusionTexture": {"index": 1}, "pbrMetallicRoughness": {"baseColorTexture": {"index": 2}, "metallicRoughnessTexture": {"index": 1}}}], "meshes": [{"name": "S_rlCay_tier_2", "primitives": [{"attributes": {"POSITION": 0, "NORMAL": 1, "TEXCOORD_0": 2, "TANGENT": 3}, "indices": 4, "material": 0}]}], "textures": [{"sampler": 0, "source": 0}, {"sampler": 0, "source": 1}, {"sampler": 0, "source": 2}], "images": [{"mimeType": "image/jpeg", "name": "T_rlCay_2K_N", "uri": "t0.jpg"}, {"mimeType": "image/jpeg", "name": "T_rlCay_2K_ORM", "uri": "t1.jpg", "extras": {"compression": "mask"}}, {"mimeType": "image/jpeg", "name": "T_rlCay_2K_B", "uri": "t2.jpg"}], "accessors": [{"bufferView": 0, "componentType": 5126, "count": 2744, "max": [80.82911682128906, 69.65662384033203, 5.697449684143066], "min": [-79.17088317871094, -62.077518463134766, -141.69320678710938], "type": "VEC3"}, {"bufferView": 1, "componentType": 5126, "count": 2744, "type": "VEC3"}, {"bufferView": 2, "componentType": 5126, "count": 2744, "type": "VEC2"}, {"bufferView": 3, "componentType": 5126, "count": 2744, "type": "VEC4"}, {"bufferView": 4, "componentType": 5123, "count": 14859, "type": "SCALAR"}], "bufferViews": [{"buffer": 0, "byteLength": 32928, "byteOffset": 0, "target": 34962}, {"buffer": 0, "byteLength": 32928, "byteOffset": 32928, "target": 34962}, {"buffer": 0, "byteLength": 21952, "byteOffset": 65856, "target": 34962}, {"buffer": 0, "byteLength": 43904, "byteOffset": 87808, "target": 34962}, {"buffer": 0, "byteLength": 29718, "byteOffset": 131712, "target": 34963}], "samplers": [{"magFilter": 9729, "minFilter": 9987}], "buffers": [{"byteLength": 161432, "uri": "model.bin"}]}