{"asset": {"generator": "Khronos glTF Blender I/O v3.6.27", "version": "2.0"}, "scene": 0, "scenes": [{"name": "Scene", "nodes": [0]}], "nodes": [{"mesh": 0, "name": "wjuvdfeqx_LOD0_TIER2_000", "rotation": [0.7071068286895752, 0, 0, 0.7071068286895752], "scale": [0.009999999776482582, 0.009999999776482582, 0.009999999776482582]}], "materials": [{"doubleSided": true, "name": "MI_wjuvdfeqx", "normalTexture": {"index": 0}, "occlusionTexture": {"index": 1}, "pbrMetallicRoughness": {"baseColorTexture": {"index": 2}, "metallicRoughnessTexture": {"index": 1}}}], "meshes": [{"name": "S_wjuvdfeqx_tier_2", "primitives": [{"attributes": {"POSITION": 0, "NORMAL": 1, "TEXCOORD_0": 2, "TANGENT": 3}, "indices": 4, "material": 0}]}], "textures": [{"sampler": 0, "source": 0}, {"sampler": 0, "source": 1}, {"sampler": 0, "source": 2}], "images": [{"mimeType": "image/jpeg", "name": "T_wjuvdfeqx_2K_N", "uri": "t0.jpg"}, {"mimeType": "image/jpeg", "name": "T_wjuvdfeqx_2K_ORM", "uri": "t1.jpg", "extras": {"compression": "mask"}}, {"mimeType": "image/jpeg", "name": "T_wjuvdfeqx_2K_B", "uri": "t2.jpg"}], "accessors": [{"bufferView": 0, "componentType": 5126, "count": 2403, "max": [45.06558609008789, 12.234583854675293, 0.09805215895175934], "min": [-47.50996398925781, -12.330550193786621, -189.527587890625], "type": "VEC3"}, {"bufferView": 1, "componentType": 5126, "count": 2403, "type": "VEC3"}, {"bufferView": 2, "componentType": 5126, "count": 2403, "type": "VEC2"}, {"bufferView": 3, "componentType": 5126, "count": 2403, "type": "VEC4"}, {"bufferView": 4, "componentType": 5123, "count": 11580, "type": "SCALAR"}], "bufferViews": [{"buffer": 0, "byteLength": 28836, "byteOffset": 0, "target": 34962}, {"buffer": 0, "byteLength": 28836, "byteOffset": 28836, "target": 34962}, {"buffer": 0, "byteLength": 19224, "byteOffset": 57672, "target": 34962}, {"buffer": 0, "byteLength": 38448, "byteOffset": 76896, "target": 34962}, {"buffer": 0, "byteLength": 23160, "byteOffset": 115344, "target": 34963}], "samplers": [{"magFilter": 9729, "minFilter": 9987}], "buffers": [{"byteLength": 138504, "uri": "model.bin"}]}