{"asset": {"version": "2.0", "generator": "Houdini GLTF 2.0 Exporter"}, "accessors": [{"bufferView": 0, "componentType": 5123, "count": 25134, "type": "SCALAR", "min": [0], "max": [25133]}, {"bufferView": 1, "componentType": 5126, "count": 25134, "type": "VEC3", "min": [-1.68387055, -0.00421045441, -0.302794307], "max": [1.67931712, 0.859206498, 0.29183358]}, {"bufferView": 2, "componentType": 5126, "count": 25134, "type": "VEC3", "min": [-0.999997973, -1, -0.99999851], "max": [0.999993682, 1, 0.999999523]}, {"bufferView": 3, "componentType": 5126, "count": 25134, "type": "VEC2", "min": [0.00164129434, 0.00367200375], "max": [0.998026252, 0.998523653]}], "buffers": [{"uri": "model.bin", "byteLength": 854556, "name": "main_buffer"}], "bufferViews": [{"buffer": 0, "byteLength": 50268, "target": 34963}, {"buffer": 0, "byteOffset": 50268, "byteLength": 301608, "target": 34962}, {"buffer": 0, "byteOffset": 351876, "byteLength": 301608, "target": 34962}, {"buffer": 0, "byteOffset": 653484, "byteLength": 201072, "target": 34962}], "nodes": [{"mesh": 0, "name": "SM_vhtpearaw"}], "meshes": [{"primitives": [{"attributes": {"POSITION": 1, "NORMAL": 2, "TEXCOORD_0": 3}, "indices": 0, "material": 0}], "name": "SM_vhtpearaw"}], "scenes": [{"nodes": [0], "name": "geo"}], "scene": 0, "images": [{"mimeType": "image/jpeg", "name": "T_vhtpearaw_2k_B", "uri": "t0.jpg"}, {"mimeType": "image/jpeg", "name": "T_vhtpearaw_2k_N", "uri": "t1.jpg"}, {"mimeType": "image/jpeg", "name": "T_vhtpearaw_2k_ORM", "uri": "t2.jpg", "extras": {"compression": "mask"}}], "textures": [{"sampler": 0, "source": 0}, {"sampler": 0, "source": 1}, {"sampler": 0, "source": 2}], "materials": [{"name": "MI_vhtpearaw", "alphaMode": "OPAQUE", "doubleSided": true, "pbrMetallicRoughness": {"baseColorTexture": {"index": 0}, "metallicRoughnessTexture": {"index": 2}}, "normalTexture": {"index": 1}, "occlusionTexture": {"index": 2}}], "samplers": [{"magFilter": 9729, "minFilter": 9987}], "extras": {"tier": 2, "asset_type": "3d asset"}}