{"asset": {"generator": "Khronos glTF Blender I/O v3.6.27", "version": "2.0"}, "scene": 0, "scenes": [{"name": "Scene", "nodes": [0]}], "nodes": [{"mesh": 0, "name": "wfstcdnaw_LOD0_TIER1_000", "rotation": [0.7071068286895752, 0, 0, 0.7071068286895752], "scale": [0.009999999776482582, 0.009999999776482582, 0.009999999776482582]}], "materials": [{"doubleSided": true, "name": "MI_wfstcdnaw", "normalTexture": {"index": 0}, "occlusionTexture": {"index": 1}, "pbrMetallicRoughness": {"baseColorTexture": {"index": 2}, "metallicRoughnessTexture": {"index": 1}}, "extras": {"type": "fuzz"}}], "meshes": [{"name": "S_wfstcdnaw_tier_1", "primitives": [{"attributes": {"POSITION": 0, "NORMAL": 1, "TEXCOORD_0": 2, "TANGENT": 3}, "indices": 4, "material": 0}]}], "textures": [{"sampler": 0, "source": 0}, {"sampler": 0, "source": 1}, {"sampler": 0, "source": 2}, {"sampler": 0, "source": 3}, {"sampler": 0, "source": 4}], "images": [{"name": "T_wfstcdnaw_4K_N", "uri": "T_wfstcdnaw_1K_N.jpg"}, {"name": "T_wfstcdnaw_4K_ORM", "uri": "T_wfstcdnaw_1K_ORM.jpg", "extras": {"compression": "mask"}}, {"name": "T_wfstcdnaw_4K_B", "uri": "T_wfstcdnaw_1K_B.jpg"}, {"name": "T_wfstcdnaw_4K_H", "uri": "T_wfstcdnaw_1K_H.jpg", "extras": {"textureSlot": "HeightTexture", "compression": "displacement"}}, {"name": "T_wfstcdnaw_4K_F", "uri": "T_wfstcdnaw_1K_F.jpg"}], "accessors": [{"bufferView": 0, "componentType": 5126, "count": 8003, "max": [140.93650817871094, 101.66236114501953, 6.188637733459473], "min": [-57.12984085083008, -96.51858520507812, -123.14347076416016], "type": "VEC3"}, {"bufferView": 1, "componentType": 5126, "count": 8003, "type": "VEC3"}, {"bufferView": 2, "componentType": 5126, "count": 8003, "type": "VEC2"}, {"bufferView": 3, "componentType": 5126, "count": 8003, "type": "VEC4"}, {"bufferView": 4, "componentType": 5123, "count": 42756, "type": "SCALAR"}], "bufferViews": [{"buffer": 0, "byteLength": 96036, "byteOffset": 0, "target": 34962}, {"buffer": 0, "byteLength": 96036, "byteOffset": 96036, "target": 34962}, {"buffer": 0, "byteLength": 64024, "byteOffset": 192072, "target": 34962}, {"buffer": 0, "byteLength": 128048, "byteOffset": 256096, "target": 34962}, {"buffer": 0, "byteLength": 85512, "byteOffset": 384144, "target": 34963}], "samplers": [{"magFilter": 9729, "minFilter": 9987}], "buffers": [{"byteLength": 469656, "uri": "wfstcdnaw_tier_1.bin"}]}