{"asset": {"generator": "Khronos glTF Blender I/O v3.6.27", "version": "2.0"}, "scene": 0, "scenes": [{"name": "Scene", "nodes": [0]}], "nodes": [{"mesh": 0, "name": "wjuvde2qx_LOD0_TIER2_000", "rotation": [0.7071068286895752, 0, 0, 0.7071068286895752], "scale": [0.009999999776482582, 0.009999999776482582, 0.009999999776482582]}], "materials": [{"doubleSided": true, "name": "MI_wjuvde2qx", "normalTexture": {"index": 0}, "occlusionTexture": {"index": 1}, "pbrMetallicRoughness": {"baseColorTexture": {"index": 2}, "metallicRoughnessTexture": {"index": 1}}, "extras": {"type": "fuzz"}}], "meshes": [{"name": "S_wjuvde2qx_tier_2", "primitives": [{"attributes": {"POSITION": 0, "NORMAL": 1, "TEXCOORD_0": 2, "TANGENT": 3}, "indices": 4, "material": 0}]}], "textures": [{"sampler": 0, "source": 0}, {"sampler": 0, "source": 1}, {"sampler": 0, "source": 2}, {"sampler": 0, "source": 3}], "images": [{"mimeType": "image/jpeg", "name": "T_wjuvde2qx_2K_N", "uri": "t0.jpg"}, {"mimeType": "image/jpeg", "name": "T_wjuvde2qx_2K_ORM", "uri": "t1.jpg", "extras": {"compression": "mask"}}, {"mimeType": "image/jpeg", "name": "T_wjuvde2qx_2K_B", "uri": "t2.jpg"}, {"mimeType": "image/jpeg", "name": "T_wjuvde2qx_2K_F", "uri": "t3.jpg"}], "accessors": [{"bufferView": 0, "componentType": 5126, "count": 2628, "max": [28.356971740722656, 3.8864002227783203, 0.1171581819653511], "min": [-30.14092445373535, -4.145348072052002, -125.9222412109375], "type": "VEC3"}, {"bufferView": 1, "componentType": 5126, "count": 2628, "type": "VEC3"}, {"bufferView": 2, "componentType": 5126, "count": 2628, "type": "VEC2"}, {"bufferView": 3, "componentType": 5126, "count": 2628, "type": "VEC4"}, {"bufferView": 4, "componentType": 5123, "count": 11598, "type": "SCALAR"}], "bufferViews": [{"buffer": 0, "byteLength": 31536, "byteOffset": 0, "target": 34962}, {"buffer": 0, "byteLength": 31536, "byteOffset": 31536, "target": 34962}, {"buffer": 0, "byteLength": 21024, "byteOffset": 63072, "target": 34962}, {"buffer": 0, "byteLength": 42048, "byteOffset": 84096, "target": 34962}, {"buffer": 0, "byteLength": 23196, "byteOffset": 126144, "target": 34963}], "samplers": [{"magFilter": 9729, "minFilter": 9987}], "buffers": [{"byteLength": 149340, "uri": "model.bin"}]}