{"accessors": [{"bufferView": 2, "componentType": 5126, "count": 32, "max": [3.3541018962860107, 140.0, 101.40139770507812], "min": [-99.3541030883789, -5.25, 47.468849182128906], "type": "VEC3"}, {"bufferView": 2, "byteOffset": 384, "componentType": 5126, "count": 32, "max": [0.8944271802902222, 0.0, 0.8320503234863281], "min": [-0.8944271802902222, 0.0, -0.8320503234863281], "type": "VEC3"}, {"bufferView": 3, "componentType": 5126, "count": 32, "max": [0.0, 1.0, 0.0, 1.0], "min": [0.0, -1.0, 0.0, -1.0], "type": "VEC4"}, {"bufferView": 1, "componentType": 5126, "count": 32, "max": [5.856691837310791, 1.452388048171997], "min": [-1.2365200519561768, -0.187364399433136], "type": "VEC2"}, {"bufferView": 0, "componentType": 5125, "count": 48, "type": "SCALAR"}, {"bufferView": 2, "byteOffset": 768, "componentType": 5126, "count": 1186, "max": [3.3541018962860107, 140.0, 101.40139770507812], "min": [-99.3541030883789, -5.25, 4.5], "type": "VEC3"}, {"bufferView": 2, "byteOffset": 15000, "componentType": 5126, "count": 1186, "max": [1.0, 1.0, 1.0], "min": [-1.0, -1.0, -1.0], "type": "VEC3"}, {"bufferView": 3, "byteOffset": 512, "componentType": 5126, "count": 1186, "max": [1.0, 1.0, 1.0, 1.0], "min": [-1.0, -1.0, -1.0, -1.0], "type": "VEC4"}, {"bufferView": 1, "byteOffset": 256, "componentType": 5126, "count": 1186, "max": [6.149392127990723, 6.693169116973877], "min": [-4.023177146911621, -6.693169116973877], "type": "VEC2"}, {"bufferView": 0, "byteOffset": 192, "componentType": 5125, "count": 1980, "type": "SCALAR"}, {"bufferView": 2, "byteOffset": 29232, "componentType": 5126, "count": 40, "max": [-19.125, -0.8389099836349487, 4.5], "min": [-76.875, -15.401410102844238, 0.0], "type": "VEC3"}, {"bufferView": 2, "byteOffset": 29712, "componentType": 5126, "count": 40, "max": [1.0, 1.0, 1.0], "min": [-1.0, -1.0, -1.0], "type": "VEC3"}, {"bufferView": 3, "byteOffset": 19488, "componentType": 5126, "count": 40, "max": [0.0, 0.0, 0.9207215309143066, 1.0], "min": [-0.9207200407981873, -0.39022454619407654, -0.9207199215888977, -1.0], "type": "VEC4"}, {"bufferView": 1, "byteOffset": 9744, "componentType": 5126, "count": 40, "max": [1.9937100410461426, 1.5177290439605713], "min": [-0.46512240171432495, -0.1020629033446312], "type": "VEC2"}, {"bufferView": 0, "byteOffset": 8112, "componentType": 5125, "count": 60, "type": "SCALAR"}, {"bufferView": 2, "byteOffset": 30192, "componentType": 5126, "count": 120, "max": [-2.945662498474121, 139.1875, 4.5], "min": [-94.87508392333984, -2.845499038696289, 0.0], "type": "VEC3"}, {"bufferView": 2, "byteOffset": 31632, "componentType": 5126, "count": 120, "max": [1.0, 1.0, 1.0], "min": [-1.0, -1.0, -1.0], "type": "VEC3"}, {"bufferView": 3, "byteOffset": 20128, "componentType": 5126, "count": 120, "max": [1.0, 0.010471784509718418, 1.0, 1.0], "min": [-0.9999452233314514, -0.02094493992626667, -1.0, -1.0], "type": "VEC4"}, {"bufferView": 1, "byteOffset": 10064, "componentType": 5126, "count": 120, "max": [1.1863189935684204, 17.223779678344727], "min": [-0.641052782535553, -8.772153854370117], "type": "VEC2"}, {"bufferView": 0, "byteOffset": 8352, "componentType": 5125, "count": 180, "type": "SCALAR"}, {"bufferView": 2, "byteOffset": 33072, "componentType": 5126, "count": 4848, "max": [-22.014080047607422, -0.75, 74.1380615234375], "min": [-73.98592376708984, -2.3125, 13.5], "type": "VEC3"}, {"bufferView": 2, "byteOffset": 91248, "componentType": 5126, "count": 4848, "max": [1.0, 1.0, 1.0], "min": [-1.0, -1.0, -1.0], "type": "VEC3"}, {"bufferView": 3, "byteOffset": 22048, "componentType": 5126, "count": 4848, "max": [1.0, 1.0, 0.9915664792060852, 1.0], "min": [-1.0, -1.0, -0.996959388256073, -1.0], "type": "VEC4"}, {"bufferView": 1, "byteOffset": 11024, "componentType": 5126, "count": 4848, "max": [0.3022497892379761, 0.6851158142089844], "min": [-0.2001110017299652, -0.33668750524520874], "type": "VEC2"}, {"bufferView": 0, "byteOffset": 9072, "componentType": 5125, "count": 13236, "type": "SCALAR"}, {"bufferView": 2, "byteOffset": 149424, "componentType": 5126, "count": 2742, "max": [-23.528154373168945, -0.656000018119812, 69.125], "min": [-72.47184753417969, -1.0759999752044678, 13.5], "type": "VEC3"}, {"bufferView": 2, "byteOffset": 182328, "componentType": 5126, "count": 2742, "max": [1.0, 1.0, 1.0], "min": [-1.0, -1.0, -1.0], "type": "VEC3"}, {"bufferView": 1, "byteOffset": 49808, "componentType": 5126, "count": 2742, "max": [0.0, 0.0], "min": [0.0, 0.0], "type": "VEC2"}, {"bufferView": 0, "byteOffset": 62016, "componentType": 5125, "count": 7974, "type": "SCALAR"}, {"bufferView": 2, "byteOffset": 215232, "componentType": 5126, "count": 3486, "max": [-22.014080047607422, -0.656000018119812, 69.125], "min": [-73.98592376708984, -1.0759999752044678, 13.5], "type": "VEC3"}, {"bufferView": 2, "byteOffset": 257064, "componentType": 5126, "count": 3486, "max": [1.0, 1.0, 1.0], "min": [-1.0, -1.0, -1.0], "type": "VEC3"}, {"bufferView": 0, "byteOffset": 93912, "componentType": 5125, "count": 9594, "type": "SCALAR"}, {"bufferView": 2, "byteOffset": 298896, "componentType": 5126, "count": 696, "max": [-22.014080047607422, -0.656000018119812, 69.0625], "min": [-73.98592376708984, -1.0759999752044678, 13.5], "type": "VEC3"}, {"bufferView": 2, "byteOffset": 307248, "componentType": 5126, "count": 696, "max": [1.0, 1.9430390320795618e-14, 1.0], "min": [-1.0, -1.1770320204209004e-17, -1.0], "type": "VEC3"}, {"bufferView": 0, "byteOffset": 132288, "componentType": 5125, "count": 1548, "type": "SCALAR"}, {"bufferView": 2, "byteOffset": 315600, "componentType": 5126, "count": 48, "max": [-23.971830368041992, -0.8659999966621399, 68.36250305175781], "min": [-72.02816772460938, -0.8830891847610474, 14.199999809265137], "type": "VEC3"}, {"bufferView": 2, "byteOffset": 316176, "componentType": 5126, "count": 48, "max": [0.9914448857307434, -0.13052619993686676, -1.0968639812182185e-19], "min": [-0.9914448857307434, -0.13052619993686676, -1.3250530264219493e-15], "type": "VEC3"}, {"bufferView": 0, "byteOffset": 138480, "componentType": 5125, "count": 72, "type": "SCALAR"}], "asset": {"extras": {"author": "jimbogies (https://sketchfab.com/jimbogies)", "license": "CC-BY-4.0 (http://creativecommons.org/licenses/by/4.0/)", "source": "https://sketchfab.com/3d-models/backyard-utility-shed-70154ba65c7d4ba0b5f081fd0eb35f68", "title": "Backyard Utility Shed"}, "generator": "Sketchfab-12.66.0", "version": "2.0"}, "bufferViews": [{"buffer": 0, "byteLength": 138768, "name": "floatBufferViews", "target": 34963}, {"buffer": 0, "byteLength": 71744, "byteOffset": 138768, "byteStride": 8, "name": "floatBufferViews", "target": 34962}, {"buffer": 0, "byteLength": 316752, "byteOffset": 210512, "byteStride": 12, "name": "floatBufferViews", "target": 34962}, {"buffer": 0, "byteLength": 99616, "byteOffset": 527264, "byteStride": 16, "name": "floatBufferViews", "target": 34962}], "buffers": [{"byteLength": 626880, "uri": "model.bin"}], "images": [{"uri": "t0.jpg", "mimeType": "image/jpeg"}, {"uri": "t1.jpg", "mimeType": "image/jpeg"}, {"uri": "t2.jpg", "mimeType": "image/jpeg"}, {"uri": "t3.jpg", "mimeType": "image/jpeg"}, {"uri": "t4.jpg", "mimeType": "image/jpeg"}, {"uri": "t5.jpg", "mimeType": "image/jpeg"}, {"uri": "t6.jpg", "mimeType": "image/jpeg"}, {"uri": "t7.jpg", "mimeType": "image/jpeg"}, {"uri": "t8.jpg", "mimeType": "image/jpeg"}, {"uri": "t9.jpg", "mimeType": "image/jpeg"}, {"uri": "t10.jpg", "mimeType": "image/jpeg"}, {"uri": "t11.jpg", "mimeType": "image/jpeg"}, {"uri": "t12.jpg", "mimeType": "image/jpeg"}, {"uri": "t13.jpg", "mimeType": "image/jpeg"}, {"uri": "t14.jpg", "mimeType": "image/jpeg"}], "materials": [{"name": "Roof01", "normalTexture": {"index": 2}, "pbrMetallicRoughness": {"baseColorTexture": {"index": 0}, "metallicFactor": 0.0, "metallicRoughnessTexture": {"index": 1}}}, {"name": "Wood02", "normalTexture": {"index": 5}, "pbrMetallicRoughness": {"baseColorTexture": {"index": 3}, "metallicFactor": 0.0, "metallicRoughnessTexture": {"index": 4}}}, {"name": "Concrete05", "normalTexture": {"index": 8}, "pbrMetallicRoughness": {"baseColorTexture": {"index": 6}, "metallicFactor": 0.0, "metallicRoughnessTexture": {"index": 7}}}, {"name": "Bark01", "normalTexture": {"index": 11}, "pbrMetallicRoughness": {"baseColorTexture": {"index": 9}, "metallicFactor": 0.0, "metallicRoughnessTexture": {"index": 10}}}, {"name": "Metal08", "normalTexture": {"index": 14}, "pbrMetallicRoughness": {"baseColorTexture": {"index": 12}, "metallicFactor": 0.0, "metallicRoughnessTexture": {"index": 13}}}, {"name": "0131_Silver", "pbrMetallicRoughness": {"baseColorTexture": {"index": 12}, "metallicFactor": 0.2145161094, "roughnessFactor": 0.4090816506}}, {"name": "material", "pbrMetallicRoughness": {"baseColorFactor": [0.643137, 0.698039, 0.733333, 1.0], "metallicFactor": 0.0, "roughnessFactor": 0.6}}, {"name": "0109_DarkSlateBlue", "pbrMetallicRoughness": {"baseColorFactor": [0.282353, 0.239216, 0.545098, 1.0], "metallicFactor": 0.0, "roughnessFactor": 0.6}}, {"name": "material_0", "pbrMetallicRoughness": {"metallicFactor": 0.0, "roughnessFactor": 0.6}}], "meshes": [{"name": "Material2", "primitives": [{"attributes": {"NORMAL": 1, "POSITION": 0, "TANGENT": 2, "TEXCOORD_0": 3}, "indices": 4, "material": 0, "mode": 4}]}, {"name": "Material2", "primitives": [{"attributes": {"NORMAL": 6, "POSITION": 5, "TANGENT": 7, "TEXCOORD_0": 8}, "indices": 9, "material": 1, "mode": 4}]}, {"name": "Material2", "primitives": [{"attributes": {"NORMAL": 11, "POSITION": 10, "TANGENT": 12, "TEXCOORD_0": 13}, "indices": 14, "material": 2, "mode": 4}]}, {"name": "Material2", "primitives": [{"attributes": {"NORMAL": 16, "POSITION": 15, "TANGENT": 17, "TEXCOORD_0": 18}, "indices": 19, "material": 3, "mode": 4}]}, {"name": "Material2", "primitives": [{"attributes": {"NORMAL": 21, "POSITION": 20, "TANGENT": 22, "TEXCOORD_0": 23}, "indices": 24, "material": 4, "mode": 4}]}, {"name": "Material2", "primitives": [{"attributes": {"NORMAL": 26, "POSITION": 25, "TEXCOORD_0": 27}, "indices": 28, "material": 5, "mode": 4}]}, {"name": "Material2", "primitives": [{"attributes": {"NORMAL": 30, "POSITION": 29}, "indices": 31, "material": 6, "mode": 4}]}, {"name": "Material3", "primitives": [{"attributes": {"NORMAL": 33, "POSITION": 32}, "indices": 34, "material": 7, "mode": 4}]}, {"name": "Material3", "primitives": [{"attributes": {"NORMAL": 36, "POSITION": 35}, "indices": 37, "material": 8, "mode": 4}]}], "nodes": [{"children": [1], "matrix": [1.0, 0.0, 0.0, 0.0, 0.0, 2.220446049250313e-16, -1.0, 0.0, 0.0, 1.0, 2.220446049250313e-16, 0.0, 0.0, 0.0, 0.0, 1.0], "name": "Sketchfab_model"}, {"children": [2, 3, 4, 5, 6, 7, 8, 9, 10, 11], "name": "Collada visual scene group"}, {"mesh": 0, "name": "Material2"}, {"mesh": 1, "name": "Material2"}, {"mesh": 2, "name": "Material2"}, {"mesh": 3, "name": "Material2"}, {"mesh": 4, "name": "Material2"}, {"mesh": 5, "name": "Material2"}, {"mesh": 6, "name": "Material2"}, {"mesh": 7, "name": "Material3"}, {"mesh": 8, "name": "Material3"}, {"children": [12], "name": "SketchUp"}, {"children": [13], "matrix": [0.7486342, -0.6629834, -2.081668e-17, 0.0, 0.08186904, 0.09244571, 0.9923463, 0.0, -0.6579091, -0.7429044, 0.1234858, 0.0, -152.5555, -113.0838, 95.92096, 1.0], "name": "skp_camera_Last_Saved_SketchUp_View"}, {"name": "ID1"}], "samplers": [{"magFilter": 9729, "minFilter": 9987, "wrapS": 10497, "wrapT": 10497}], "scene": 0, "scenes": [{"name": "Sketchfab_Scene", "nodes": [0]}], "textures": [{"sampler": 0, "source": 0}, {"sampler": 0, "source": 1}, {"sampler": 0, "source": 2}, {"sampler": 0, "source": 3}, {"sampler": 0, "source": 4}, {"sampler": 0, "source": 5}, {"sampler": 0, "source": 6}, {"sampler": 0, "source": 7}, {"sampler": 0, "source": 8}, {"sampler": 0, "source": 9}, {"sampler": 0, "source": 10}, {"sampler": 0, "source": 11}, {"sampler": 0, "source": 12}, {"sampler": 0, "source": 13}, {"sampler": 0, "source": 14}]}