{"asset": {"generator": "Khronos glTF Blender I/O v3.6.27", "version": "2.0"}, "scene": 0, "scenes": [{"name": "Scene", "nodes": [0]}], "nodes": [{"mesh": 0, "name": "wbdjciudw_LOD0_TIER2_000", "rotation": [0.7071068286895752, 0, 0, 0.7071068286895752], "scale": [0.009999999776482582, 0.009999999776482582, 0.009999999776482582]}], "materials": [{"doubleSided": true, "name": "MI_wbdjciudw", "normalTexture": {"index": 0}, "occlusionTexture": {"index": 1}, "pbrMetallicRoughness": {"baseColorTexture": {"index": 2}, "metallicRoughnessTexture": {"index": 1}}}], "meshes": [{"name": "S_wbdjciudw_tier_2", "primitives": [{"attributes": {"POSITION": 0, "NORMAL": 1, "TEXCOORD_0": 2, "TANGENT": 3}, "indices": 4, "material": 0}]}], "textures": [{"sampler": 0, "source": 0}, {"sampler": 0, "source": 1}, {"sampler": 0, "source": 2}], "images": [{"mimeType": "image/jpeg", "name": "T_wbdjciudw_2K_N", "uri": "t0.jpg"}, {"mimeType": "image/jpeg", "name": "T_wbdjciudw_2K_ORM", "uri": "t1.jpg", "extras": {"compression": "mask"}}, {"mimeType": "image/jpeg", "name": "T_wbdjciudw_2K_B", "uri": "t2.jpg"}], "accessors": [{"bufferView": 0, "componentType": 5126, "count": 1499, "max": [70.3055419921875, 4.562160015106201, 0.0005240231985226274], "min": [-70.30448913574219, -4.567655563354492, -233.11891174316406], "type": "VEC3"}, {"bufferView": 1, "componentType": 5126, "count": 1499, "type": "VEC3"}, {"bufferView": 2, "componentType": 5126, "count": 1499, "type": "VEC2"}, {"bufferView": 3, "componentType": 5126, "count": 1499, "type": "VEC4"}, {"bufferView": 4, "componentType": 5123, "count": 5844, "type": "SCALAR"}], "bufferViews": [{"buffer": 0, "byteLength": 17988, "byteOffset": 0, "target": 34962}, {"buffer": 0, "byteLength": 17988, "byteOffset": 17988, "target": 34962}, {"buffer": 0, "byteLength": 11992, "byteOffset": 35976, "target": 34962}, {"buffer": 0, "byteLength": 23984, "byteOffset": 47968, "target": 34962}, {"buffer": 0, "byteLength": 11688, "byteOffset": 71952, "target": 34963}], "samplers": [{"magFilter": 9729, "minFilter": 9987}], "buffers": [{"byteLength": 83640, "uri": "model.bin"}]}