{"asset": {"generator": "Khronos glTF Blender I/O v3.6.27", "version": "2.0"}, "scene": 0, "scenes": [{"name": "Scene", "nodes": [0, 1]}], "nodes": [{"mesh": 0, "name": "sepxW_LOD0_TIER2_000", "rotation": [0.7071068286895752, 0, 0, 0.7071068286895752], "scale": [0.009999999776482582, 0.009999999776482582, 0.009999999776482582]}, {"mesh": 1, "name": "sepxW_LOD0_TIER2_001", "rotation": [0.7071068286895752, 0, 0, 0.7071068286895752], "scale": [0.009999999776482582, 0.009999999776482582, 0.009999999776482582]}], "materials": [{"doubleSided": true, "name": "MI_sepxW", "normalTexture": {"index": 0}, "occlusionTexture": {"index": 1}, "pbrMetallicRoughness": {"baseColorTexture": {"index": 2}, "metallicRoughnessTexture": {"index": 1}}}], "meshes": [{"name": "S_sepxW_tier_2", "primitives": [{"attributes": {"POSITION": 0, "NORMAL": 1, "TEXCOORD_0": 2, "TANGENT": 3}, "indices": 4, "material": 0}]}, {"name": "S_sepxW_tier_2.001", "primitives": [{"attributes": {"POSITION": 5, "NORMAL": 6, "TEXCOORD_0": 7, "TANGENT": 8}, "indices": 9, "material": 0}]}], "textures": [{"sampler": 0, "source": 0}, {"sampler": 0, "source": 1}, {"sampler": 0, "source": 2}], "images": [{"mimeType": "image/jpeg", "name": "T_sepxW_2K_N", "uri": "t0.jpg"}, {"mimeType": "image/jpeg", "name": "T_sepxW_2K_ORM", "uri": "t1.jpg", "extras": {"compression": "mask"}}, {"mimeType": "image/jpeg", "name": "T_sepxW_2K_B", "uri": "t2.jpg"}], "accessors": [{"bufferView": 0, "componentType": 5126, "count": 1927, "max": [51.9998779296875, 8.69908332824707, 1.00034499168396], "min": [-52.00012969970703, -8.702645301818848, -10.225550651550293], "type": "VEC3"}, {"bufferView": 1, "componentType": 5126, "count": 1927, "type": "VEC3"}, {"bufferView": 2, "componentType": 5126, "count": 1927, "type": "VEC2"}, {"bufferView": 3, "componentType": 5126, "count": 1927, "type": "VEC4"}, {"bufferView": 4, "componentType": 5123, "count": 10161, "type": "SCALAR"}, {"bufferView": 5, "componentType": 5126, "count": 1731, "max": [51.891746520996094, 8.634462356567383, 0.67571622133255], "min": [-51.891746520996094, -8.632681846618652, -10.529825210571289], "type": "VEC3"}, {"bufferView": 6, "componentType": 5126, "count": 1731, "type": "VEC3"}, {"bufferView": 7, "componentType": 5126, "count": 1731, "type": "VEC2"}, {"bufferView": 8, "componentType": 5126, "count": 1731, "type": "VEC4"}, {"bufferView": 9, "componentType": 5123, "count": 9147, "type": "SCALAR"}], "bufferViews": [{"buffer": 0, "byteLength": 23124, "byteOffset": 0, "target": 34962}, {"buffer": 0, "byteLength": 23124, "byteOffset": 23124, "target": 34962}, {"buffer": 0, "byteLength": 15416, "byteOffset": 46248, "target": 34962}, {"buffer": 0, "byteLength": 30832, "byteOffset": 61664, "target": 34962}, {"buffer": 0, "byteLength": 20322, "byteOffset": 92496, "target": 34963}, {"buffer": 0, "byteLength": 20772, "byteOffset": 112820, "target": 34962}, {"buffer": 0, "byteLength": 20772, "byteOffset": 133592, "target": 34962}, {"buffer": 0, "byteLength": 13848, "byteOffset": 154364, "target": 34962}, {"buffer": 0, "byteLength": 27696, "byteOffset": 168212, "target": 34962}, {"buffer": 0, "byteLength": 18294, "byteOffset": 195908, "target": 34963}], "samplers": [{"magFilter": 9729, "minFilter": 9987}], "buffers": [{"byteLength": 214204, "uri": "model.bin"}]}