{"asset": {"generator": "Khronos glTF Blender I/O v3.6.27", "version": "2.0"}, "scene": 0, "scenes": [{"name": "Scene", "nodes": [0, 1, 2, 3, 4, 5, 6, 7, 8, 9, 10, 11, 12, 13, 14, 15, 16, 17, 18, 19, 20, 21, 22, 23, 24, 25, 26, 27, 28, 29, 30, 31]}], "nodes": [{"mesh": 0, "name": "SM_wf0oefeja_VarA", "rotation": [0.7071068286895752, 0, 0, 0.7071068286895752], "scale": [0.009999999776482582, 0.009999999776482582, 0.009999999776482582]}, {"mesh": 1, "name": "SM_wf0oefeja_VarA_LOD1", "rotation": [0.7071068286895752, 0, 0, 0.7071068286895752], "scale": [0.009999999776482582, 0.009999999776482582, 0.009999999776482582], "extras": {"lod": {"index": 1, "mesh": "SM_wf0oefeja_VarA"}}}, {"mesh": 2, "name": "SM_wf0oefeja_VarA_LOD2", "rotation": [0.7071068286895752, 0, 0, 0.7071068286895752], "scale": [0.009999999776482582, 0.009999999776482582, 0.009999999776482582], "extras": {"lod": {"index": 2, "mesh": "SM_wf0oefeja_VarA"}}}, {"mesh": 3, "name": "SM_wf0oefeja_VarA_LOD3", "rotation": [0.7071068286895752, 0, 0, 0.7071068286895752], "scale": [0.009999999776482582, 0.009999999776482582, 0.009999999776482582], "extras": {"lod": {"index": 3, "mesh": "SM_wf0oefeja_VarA"}}}, {"mesh": 4, "name": "SM_wf0oefeja_VarB", "rotation": [0.7071068286895752, 0, 0, 0.7071068286895752], "scale": [0.009999999776482582, 0.009999999776482582, 0.009999999776482582]}, {"mesh": 5, "name": "SM_wf0oefeja_VarB_LOD1", "rotation": [0.7071068286895752, 0, 0, 0.7071068286895752], "scale": [0.009999999776482582, 0.009999999776482582, 0.009999999776482582], "extras": {"lod": {"index": 1, "mesh": "SM_wf0oefeja_VarB"}}}, {"mesh": 6, "name": "SM_wf0oefeja_VarB_LOD2", "rotation": [0.7071068286895752, 0, 0, 0.7071068286895752], "scale": [0.009999999776482582, 0.009999999776482582, 0.009999999776482582], "extras": {"lod": {"index": 2, "mesh": "SM_wf0oefeja_VarB"}}}, {"mesh": 7, "name": "SM_wf0oefeja_VarB_LOD3", "rotation": [0.7071068286895752, 0, 0, 0.7071068286895752], "scale": [0.009999999776482582, 0.009999999776482582, 0.009999999776482582], "extras": {"lod": {"index": 3, "mesh": "SM_wf0oefeja_VarB"}}}, {"mesh": 8, "name": "SM_wf0oefeja_VarC", "rotation": [0.7071068286895752, 0, 0, 0.7071068286895752], "scale": [0.009999999776482582, 0.009999999776482582, 0.009999999776482582]}, {"mesh": 9, "name": "SM_wf0oefeja_VarC_LOD1", "rotation": [0.7071068286895752, 0, 0, 0.7071068286895752], "scale": [0.009999999776482582, 0.009999999776482582, 0.009999999776482582], "extras": {"lod": {"index": 1, "mesh": "SM_wf0oefeja_VarC"}}}, {"mesh": 10, "name": "SM_wf0oefeja_VarC_LOD2", "rotation": [0.7071068286895752, 0, 0, 0.7071068286895752], "scale": [0.009999999776482582, 0.009999999776482582, 0.009999999776482582], "extras": {"lod": {"index": 2, "mesh": "SM_wf0oefeja_VarC"}}}, {"mesh": 11, "name": "SM_wf0oefeja_VarC_LOD3", "rotation": [0.7071068286895752, 0, 0, 0.7071068286895752], "scale": [0.009999999776482582, 0.009999999776482582, 0.009999999776482582], "extras": {"lod": {"index": 3, "mesh": "SM_wf0oefeja_VarC"}}}, {"mesh": 12, "name": "SM_wf0oefeja_VarD", "rotation": [0.7071068286895752, 0, 0, 0.7071068286895752], "scale": [0.009999999776482582, 0.009999999776482582, 0.009999999776482582]}, {"mesh": 13, "name": "SM_wf0oefeja_VarD_LOD1", "rotation": [0.7071068286895752, 0, 0, 0.7071068286895752], "scale": [0.009999999776482582, 0.009999999776482582, 0.009999999776482582], "extras": {"lod": {"index": 1, "mesh": "SM_wf0oefeja_VarD"}}}, {"mesh": 14, "name": "SM_wf0oefeja_VarD_LOD2", "rotation": [0.7071068286895752, 0, 0, 0.7071068286895752], "scale": [0.009999999776482582, 0.009999999776482582, 0.009999999776482582], "extras": {"lod": {"index": 2, "mesh": "SM_wf0oefeja_VarD"}}}, {"mesh": 15, "name": "SM_wf0oefeja_VarD_LOD3", "rotation": [0.7071068286895752, 0, 0, 0.7071068286895752], "scale": [0.009999999776482582, 0.009999999776482582, 0.009999999776482582], "extras": {"lod": {"index": 3, "mesh": "SM_wf0oefeja_VarD"}}}, {"mesh": 16, "name": "SM_wf0oefeja_VarE", "rotation": [0.7071068286895752, 0, 0, 0.7071068286895752], "scale": [0.009999999776482582, 0.009999999776482582, 0.009999999776482582]}, {"mesh": 17, "name": "SM_wf0oefeja_VarE_LOD1", "rotation": [0.7071068286895752, 0, 0, 0.7071068286895752], "scale": [0.009999999776482582, 0.009999999776482582, 0.009999999776482582], "extras": {"lod": {"index": 1, "mesh": "SM_wf0oefeja_VarE"}}}, {"mesh": 18, "name": "SM_wf0oefeja_VarE_LOD2", "rotation": [0.7071068286895752, 0, 0, 0.7071068286895752], "scale": [0.009999999776482582, 0.009999999776482582, 0.009999999776482582], "extras": {"lod": {"index": 2, "mesh": "SM_wf0oefeja_VarE"}}}, {"mesh": 19, "name": "SM_wf0oefeja_VarE_LOD3", "rotation": [0.7071068286895752, 0, 0, 0.7071068286895752], "scale": [0.009999999776482582, 0.009999999776482582, 0.009999999776482582], "extras": {"lod": {"index": 3, "mesh": "SM_wf0oefeja_VarE"}}}, {"mesh": 20, "name": "SM_wf0oefeja_VarF", "rotation": [0.7071068286895752, 0, 0, 0.7071068286895752], "scale": [0.009999999776482582, 0.009999999776482582, 0.009999999776482582]}, {"mesh": 21, "name": "SM_wf0oefeja_VarF_LOD1", "rotation": [0.7071068286895752, 0, 0, 0.7071068286895752], "scale": [0.009999999776482582, 0.009999999776482582, 0.009999999776482582], "extras": {"lod": {"index": 1, "mesh": "SM_wf0oefeja_VarF"}}}, {"mesh": 22, "name": "SM_wf0oefeja_VarF_LOD2", "rotation": [0.7071068286895752, 0, 0, 0.7071068286895752], "scale": [0.009999999776482582, 0.009999999776482582, 0.009999999776482582], "extras": {"lod": {"index": 2, "mesh": "SM_wf0oefeja_VarF"}}}, {"mesh": 23, "name": "SM_wf0oefeja_VarF_LOD3", "rotation": [0.7071068286895752, 0, 0, 0.7071068286895752], "scale": [0.009999999776482582, 0.009999999776482582, 0.009999999776482582], "extras": {"lod": {"index": 3, "mesh": "SM_wf0oefeja_VarF"}}}, {"mesh": 24, "name": "SM_wf0oefeja_VarG", "rotation": [0.7071068286895752, 0, 0, 0.7071068286895752], "scale": [0.009999999776482582, 0.009999999776482582, 0.009999999776482582]}, {"mesh": 25, "name": "SM_wf0oefeja_VarG_LOD1", "rotation": [0.7071068286895752, 0, 0, 0.7071068286895752], "scale": [0.009999999776482582, 0.009999999776482582, 0.009999999776482582], "extras": {"lod": {"index": 1, "mesh": "SM_wf0oefeja_VarG"}}}, {"mesh": 26, "name": "SM_wf0oefeja_VarG_LOD2", "rotation": [0.7071068286895752, 0, 0, 0.7071068286895752], "scale": [0.009999999776482582, 0.009999999776482582, 0.009999999776482582], "extras": {"lod": {"index": 2, "mesh": "SM_wf0oefeja_VarG"}}}, {"mesh": 27, "name": "SM_wf0oefeja_VarG_LOD3", "rotation": [0.7071068286895752, 0, 0, 0.7071068286895752], "scale": [0.009999999776482582, 0.009999999776482582, 0.009999999776482582], "extras": {"lod": {"index": 3, "mesh": "SM_wf0oefeja_VarG"}}}, {"mesh": 28, "name": "SM_wf0oefeja_VarH", "rotation": [0.7071068286895752, 0, 0, 0.7071068286895752], "scale": [0.009999999776482582, 0.009999999776482582, 0.009999999776482582]}, {"mesh": 29, "name": "SM_wf0oefeja_VarH_LOD1", "rotation": [0.7071068286895752, 0, 0, 0.7071068286895752], "scale": [0.009999999776482582, 0.009999999776482582, 0.009999999776482582], "extras": {"lod": {"index": 1, "mesh": "SM_wf0oefeja_VarH"}}}, {"mesh": 30, "name": "SM_wf0oefeja_VarH_LOD2", "rotation": [0.7071068286895752, 0, 0, 0.7071068286895752], "scale": [0.009999999776482582, 0.009999999776482582, 0.009999999776482582], "extras": {"lod": {"index": 2, "mesh": "SM_wf0oefeja_VarH"}}}, {"mesh": 31, "name": "SM_wf0oefeja_VarH_LOD3", "rotation": [0.7071068286895752, 0, 0, 0.7071068286895752], "scale": [0.009999999776482582, 0.009999999776482582, 0.009999999776482582], "extras": {"lod": {"index": 3, "mesh": "SM_wf0oefeja_VarH"}}}], "materials": [{"alphaMode": "MASK", "doubleSided": true, "name": "MI_wf0oefeja", "normalTexture": {"index": 0}, "pbrMetallicRoughness": {"baseColorTexture": {"index": 2}, "metallicRoughnessTexture": {"index": 1}, "metallicFactor": 0}, "extras": {"params": [{"Name": "Twig Mask Strength", "Value": 0.30000001192092896}, {"Name": "Specular Branches", "Value": 0.699999988079071}, {"Name": "Specular Leaves", "Value": 0.44999998807907104}, {"Name": "Normal Strength", "Value": 0.800000011920929}, {"Name": "Roughness Branches", "Value": 0.6000000238418579}, {"Name": "Roughness Leaves", "Value": 0.6000000238418579}, {"Name": "use Gradient Branch Mask", "Value": true}, {"Name": "Split Base Color Controls", "Value": true}, {"Name": "Tint Leaf Backside", "Value": true}, {"Name": "change Roughness of Backside", "Value": true}, {"Name": "Split Translucency Controls", "Value": true}, {"Name": "use Growth Effect", "Value": false}, {"Name": "Base Color Controls", "Value": [1, 1.2000000476837158, 0.800000011920929, 0]}, {"Name": "Base Color Controls Leaves", "Value": [1, 0.8999999761581421, 1, 0]}, {"Name": "Base Color Controls Branches", "Value": [1, 1, 1, 0]}, {"Name": "Base Color Tint Leaf Backside", "Value": [0.4885520040988922, 0.5, 0.33072900772094727, 1]}, {"Name": "Base Color Controls Leaf Backside", "Value": [0.699999988079071, 1, 1, 0]}, {"Name": "Translucency Controls", "Value": [1, 3, 0.800000011920929, 0]}, {"Name": "Translucency Tint Leaves", "Value": [0.6578630208969116, 0.7760419845581055, 0.508787989616394, 1]}, {"Name": "Translucency Controls Leaves", "Value": [1, 2, 0.6499999761581421, 0]}, {"Name": "Translucency Controls Branches", "Value": [1, 5, 0.800000011920929, 0]}]}}, {"alphaMode": "MASK", "doubleSided": true, "name": "MI_wf0oefeja_Billboard", "normalTexture": {"index": 3}, "pbrMetallicRoughness": {"baseColorTexture": {"index": 4}, "metallicFactor": 0, "roughnessFactor": 0.8}, "extras": {"billboardFacingCamera": false, "params": [{"Name": "is Camera Facing Billboard", "Value": false}, {"Name": "is Billboard", "Value": true}, {"Name": "Split Translucency Controls", "Value": true}, {"Name": "Base Color Controls", "Value": [1, 1.2000000476837158, 0.800000011920929, 0]}, {"Name": "Translucency Controls", "Value": [1, 1, 1, 0]}, {"Name": "Translucency Tint Leaves", "Value": [0.7438840270042419, 0.90625, 0.69098299741745, 1]}, {"Name": "Translucency Controls Leaves", "Value": [1, 3, 0.800000011920929, 0]}, {"Name": "Translucency Controls Branches", "Value": [1, 0.10000000149011612, 1, 0]}]}}], "meshes": [{"name": "SM_wf0oefeja_VarA", "primitives": [{"attributes": {"POSITION": 1, "TEXCOORD_0": 2, "_wind": 0}, "indices": 3, "material": 0}]}, {"name": "SM_wf0oefeja_VarA_LOD1", "primitives": [{"attributes": {"POSITION": 5, "TEXCOORD_0": 6, "_wind": 4}, "indices": 7, "material": 0}]}, {"name": "SM_wf0oefeja_VarA_LOD2", "primitives": [{"attributes": {"POSITION": 9, "TEXCOORD_0": 10, "_wind": 8}, "indices": 11, "material": 0}]}, {"name": "SM_wf0oefeja_VarA_LOD3", "primitives": [{"attributes": {"POSITION": 13, "TEXCOORD_0": 14, "_wind": 12}, "indices": 15, "material": 1}]}, {"name": "SM_wf0oefeja_VarB", "primitives": [{"attributes": {"POSITION": 17, "TEXCOORD_0": 18, "_wind": 16}, "indices": 19, "material": 0}]}, {"name": "SM_wf0oefeja_VarB_LOD1", "primitives": [{"attributes": {"POSITION": 21, "TEXCOORD_0": 22, "_wind": 20}, "indices": 23, "material": 0}]}, {"name": "SM_wf0oefeja_VarB_LOD2", "primitives": [{"attributes": {"POSITION": 25, "TEXCOORD_0": 26, "_wind": 24}, "indices": 27, "material": 0}]}, {"name": "SM_wf0oefeja_VarB_LOD3", "primitives": [{"attributes": {"POSITION": 29, "TEXCOORD_0": 30, "_wind": 28}, "indices": 31, "material": 1}]}, {"name": "SM_wf0oefeja_VarC", "primitives": [{"attributes": {"POSITION": 33, "TEXCOORD_0": 34, "_wind": 32}, "indices": 35, "material": 0}]}, {"name": "SM_wf0oefeja_VarC_LOD1", "primitives": [{"attributes": {"POSITION": 37, "TEXCOORD_0": 38, "_wind": 36}, "indices": 39, "material": 0}]}, {"name": "SM_wf0oefeja_VarC_LOD2", "primitives": [{"attributes": {"POSITION": 41, "TEXCOORD_0": 42, "_wind": 40}, "indices": 43, "material": 0}]}, {"name": "SM_wf0oefeja_VarC_LOD3", "primitives": [{"attributes": {"POSITION": 45, "TEXCOORD_0": 46, "_wind": 44}, "indices": 47, "material": 1}]}, {"name": "SM_wf0oefeja_VarD", "primitives": [{"attributes": {"POSITION": 49, "TEXCOORD_0": 50, "_wind": 48}, "indices": 51, "material": 0}]}, {"name": "SM_wf0oefeja_VarD_LOD1", "primitives": [{"attributes": {"POSITION": 53, "TEXCOORD_0": 54, "_wind": 52}, "indices": 55, "material": 0}]}, {"name": "SM_wf0oefeja_VarD_LOD2", "primitives": [{"attributes": {"POSITION": 57, "TEXCOORD_0": 58, "_wind": 56}, "indices": 59, "material": 0}]}, {"name": "SM_wf0oefeja_VarD_LOD3", "primitives": [{"attributes": {"POSITION": 61, "TEXCOORD_0": 62, "_wind": 60}, "indices": 63, "material": 1}]}, {"name": "SM_wf0oefeja_VarE", "primitives": [{"attributes": {"POSITION": 65, "TEXCOORD_0": 66, "_wind": 64}, "indices": 67, "material": 0}]}, {"name": "SM_wf0oefeja_VarE_LOD1", "primitives": [{"attributes": {"POSITION": 69, "TEXCOORD_0": 70, "_wind": 68}, "indices": 71, "material": 0}]}, {"name": "SM_wf0oefeja_VarE_LOD2", "primitives": [{"attributes": {"POSITION": 73, "TEXCOORD_0": 74, "_wind": 72}, "indices": 75, "material": 0}]}, {"name": "SM_wf0oefeja_VarE_LOD3", "primitives": [{"attributes": {"POSITION": 77, "TEXCOORD_0": 78, "_wind": 76}, "indices": 79, "material": 1}]}, {"name": "SM_wf0oefeja_VarF", "primitives": [{"attributes": {"POSITION": 81, "TEXCOORD_0": 82, "_wind": 80}, "indices": 83, "material": 0}]}, {"name": "SM_wf0oefeja_VarF_LOD1", "primitives": [{"attributes": {"POSITION": 85, "TEXCOORD_0": 86, "_wind": 84}, "indices": 87, "material": 0}]}, {"name": "SM_wf0oefeja_VarF_LOD2", "primitives": [{"attributes": {"POSITION": 89, "TEXCOORD_0": 90, "_wind": 88}, "indices": 91, "material": 0}]}, {"name": "SM_wf0oefeja_VarF_LOD3", "primitives": [{"attributes": {"POSITION": 93, "TEXCOORD_0": 94, "_wind": 92}, "indices": 95, "material": 1}]}, {"name": "SM_wf0oefeja_VarG", "primitives": [{"attributes": {"POSITION": 97, "TEXCOORD_0": 98, "_wind": 96}, "indices": 99, "material": 0}]}, {"name": "SM_wf0oefeja_VarG_LOD1", "primitives": [{"attributes": {"POSITION": 101, "TEXCOORD_0": 102, "_wind": 100}, "indices": 103, "material": 0}]}, {"name": "SM_wf0oefeja_VarG_LOD2", "primitives": [{"attributes": {"POSITION": 105, "TEXCOORD_0": 106, "_wind": 104}, "indices": 107, "material": 0}]}, {"name": "SM_wf0oefeja_VarG_LOD3", "primitives": [{"attributes": {"POSITION": 109, "TEXCOORD_0": 110, "_wind": 108}, "indices": 111, "material": 1}]}, {"name": "SM_wf0oefeja_VarH", "primitives": [{"attributes": {"POSITION": 113, "TEXCOORD_0": 114, "_wind": 112}, "indices": 115, "material": 0}]}, {"name": "SM_wf0oefeja_VarH_LOD1", "primitives": [{"attributes": {"POSITION": 117, "TEXCOORD_0": 118, "_wind": 116}, "indices": 119, "material": 0}]}, {"name": "SM_wf0oefeja_VarH_LOD2", "primitives": [{"attributes": {"POSITION": 121, "TEXCOORD_0": 122, "_wind": 120}, "indices": 123, "material": 0}]}, {"name": "SM_wf0oefeja_VarH_LOD3", "primitives": [{"attributes": {"POSITION": 125, "TEXCOORD_0": 126, "_wind": 124}, "indices": 127, "material": 1}]}], "textures": [{"sampler": 0, "source": 0}, {"sampler": 0, "source": 1}, {"sampler": 0, "source": 2}, {"sampler": 0, "source": 3}, {"sampler": 0, "source": 4}], "images": [{"mimeType": "image/jpeg", "name": "T_wf0oefeja_2K_N", "uri": "t0.jpg", "extras": {"mipgen": "sharpen_4"}}, {"mimeType": "image/jpeg", "name": "T_wf0oefeja_2K_ORT", "uri": "t1.jpg", "extras": {"compression": "mask", "textureSlot": "Mask", "materialIndex": 0, "mipgen": "sharpen_6", "alphaCoverage": [0.333, 0, 0, 0], "scaleMips": true}}, {"mimeType": "image/png", "name": "T_wf0oefeja_2K_B-O", "uri": "t2.png", "extras": {"mipgen": "sharpen_4"}}, {"mimeType": "image/png", "name": "T_wf0oefeja_2K_Billboard_N-T", "uri": "t3.png", "extras": {"compression": "mask", "mipgen": "sharpen_4"}}, {"mimeType": "image/png", "name": "T_wf0oefeja_2K_Billboard_B-O", "uri": "t4.png", "extras": {"mipgen": "sharpen_4", "alphaCoverage": [0, 0, 0, 0.333], "scaleMips": true}}], "accessors": [{"bufferView": 0, "componentType": 5123, "count": 1752, "normalized": true, "type": "VEC4"}, {"bufferView": 1, "componentType": 5126, "count": 1752, "max": [12.330012321472168, 17.068056106567383, 0.33332914113998413], "min": [-16.98405647277832, -14.163142204284668, -38.39251708984375], "type": "VEC3"}, {"bufferView": 2, "componentType": 5126, "count": 1752, "type": "VEC2"}, {"bufferView": 3, "componentType": 5123, "count": 5388, "type": "SCALAR"}, {"bufferView": 4, "componentType": 5123, "count": 1315, "normalized": true, "type": "VEC4"}, {"bufferView": 5, "componentType": 5126, "count": 1315, "max": [12.342097282409668, 17.042251586914062, 0.33442795276641846], "min": [-16.944673538208008, -14.147491455078125, -38.40066909790039], "type": "VEC3"}, {"bufferView": 6, "componentType": 5126, "count": 1315, "type": "VEC2"}, {"bufferView": 7, "componentType": 5123, "count": 3729, "type": "SCALAR"}, {"bufferView": 8, "componentType": 5123, "count": 522, "normalized": true, "type": "VEC4"}, {"bufferView": 9, "componentType": 5126, "count": 522, "max": [12.372774124145508, 17.086753845214844, 0.33442777395248413], "min": [-17.002777099609375, -14.168448448181152, -38.36623001098633], "type": "VEC3"}, {"bufferView": 10, "componentType": 5126, "count": 522, "type": "VEC2"}, {"bufferView": 11, "componentType": 5123, "count": 1626, "type": "SCALAR"}, {"bufferView": 12, "componentType": 5123, "count": 15, "normalized": true, "type": "VEC4"}, {"bufferView": 13, "componentType": 5126, "count": 15, "max": [12.298731803894043, 17.03476905822754, 0.1361120045185089], "min": [-16.932674407958984, -14.134900093078613, -38.23550796508789], "type": "VEC3"}, {"bufferView": 14, "componentType": 5126, "count": 15, "type": "VEC2"}, {"bufferView": 15, "componentType": 5123, "count": 33, "type": "SCALAR"}, {"bufferView": 16, "componentType": 5123, "count": 704, "normalized": true, "type": "VEC4"}, {"bufferView": 17, "componentType": 5126, "count": 704, "max": [10.64914321899414, 7.1502909660339355, 0.5771322846412659], "min": [-10.0707426071167, -6.720819473266602, -31.948392868041992], "type": "VEC3"}, {"bufferView": 18, "componentType": 5126, "count": 704, "type": "VEC2"}, {"bufferView": 19, "componentType": 5123, "count": 2154, "type": "SCALAR"}, {"bufferView": 20, "componentType": 5123, "count": 524, "normalized": true, "type": "VEC4"}, {"bufferView": 21, "componentType": 5126, "count": 524, "max": [10.661147117614746, 7.02817440032959, 0.5028046369552612], "min": [-10.04915714263916, -6.737318515777588, -31.833351135253906], "type": "VEC3"}, {"bufferView": 22, "componentType": 5126, "count": 524, "type": "VEC2"}, {"bufferView": 23, "componentType": 5123, "count": 1473, "type": "SCALAR"}, {"bufferView": 24, "componentType": 5123, "count": 201, "normalized": true, "type": "VEC4"}, {"bufferView": 25, "componentType": 5126, "count": 201, "max": [10.692948341369629, 6.668111801147461, 0.5028046369552612], "min": [-9.777359962463379, -6.133411407470703, -31.769195556640625], "type": "VEC3"}, {"bufferView": 26, "componentType": 5126, "count": 201, "type": "VEC2"}, {"bufferView": 27, "componentType": 5123, "count": 627, "type": "SCALAR"}, {"bufferView": 28, "componentType": 5123, "count": 14, "normalized": true, "type": "VEC4"}, {"bufferView": 29, "componentType": 5126, "count": 14, "max": [10.615604400634766, 7.116426467895508, 0.39198869466781616], "min": [-9.934492111206055, -6.704705238342285, -31.821176528930664], "type": "VEC3"}, {"bufferView": 30, "componentType": 5126, "count": 14, "type": "VEC2"}, {"bufferView": 31, "componentType": 5123, "count": 30, "type": "SCALAR"}, {"bufferView": 32, "componentType": 5123, "count": 707, "normalized": true, "type": "VEC4"}, {"bufferView": 33, "componentType": 5126, "count": 707, "max": [6.0403876304626465, 6.553260803222656, 0.38809365034103394], "min": [-6.3989973068237305, -5.666060924530029, -15.921607971191406], "type": "VEC3"}, {"bufferView": 34, "componentType": 5126, "count": 707, "type": "VEC2"}, {"bufferView": 35, "componentType": 5123, "count": 2163, "type": "SCALAR"}, {"bufferView": 36, "componentType": 5123, "count": 527, "normalized": true, "type": "VEC4"}, {"bufferView": 37, "componentType": 5126, "count": 527, "max": [6.022565841674805, 6.557133674621582, 0.3827098309993744], "min": [-6.394660472869873, -5.711956024169922, -15.925010681152344], "type": "VEC3"}, {"bufferView": 38, "componentType": 5126, "count": 527, "type": "VEC2"}, {"bufferView": 39, "componentType": 5123, "count": 1473, "type": "SCALAR"}, {"bufferView": 40, "componentType": 5123, "count": 201, "normalized": true, "type": "VEC4"}, {"bufferView": 41, "componentType": 5126, "count": 201, "max": [5.574865818023682, 6.704591274261475, 0.3825206160545349], "min": [-6.525845050811768, -5.824450969696045, -15.935659408569336], "type": "VEC3"}, {"bufferView": 42, "componentType": 5126, "count": 201, "type": "VEC2"}, {"bufferView": 43, "componentType": 5123, "count": 636, "type": "SCALAR"}, {"bufferView": 44, "componentType": 5123, "count": 12, "normalized": true, "type": "VEC4"}, {"bufferView": 45, "componentType": 5126, "count": 12, "max": [5.521378040313721, 6.205634593963623, 0.21666470170021057], "min": [-6.36990213394165, -4.687241554260254, -15.876026153564453], "type": "VEC3"}, {"bufferView": 46, "componentType": 5126, "count": 12, "type": "VEC2"}, {"bufferView": 47, "componentType": 5123, "count": 24, "type": "SCALAR"}, {"bufferView": 48, "componentType": 5123, "count": 33731, "normalized": true, "type": "VEC4"}, {"bufferView": 49, "componentType": 5126, "count": 33731, "max": [73.48797607421875, 50.32924270629883, 0.7546199560165405], "min": [-63.04802322387695, -77.0036392211914, -65.39181518554688], "type": "VEC3"}, {"bufferView": 50, "componentType": 5126, "count": 33731, "type": "VEC2"}, {"bufferView": 51, "componentType": 5123, "count": 102150, "type": "SCALAR"}, {"bufferView": 52, "componentType": 5123, "count": 18260, "normalized": true, "type": "VEC4"}, {"bufferView": 53, "componentType": 5126, "count": 18260, "max": [73.4689712524414, 50.32052993774414, 2.285167694091797], "min": [-63.13314437866211, -77.04275512695312, -65.3514404296875], "type": "VEC3"}, {"bufferView": 54, "componentType": 5126, "count": 18260, "type": "VEC2"}, {"bufferView": 55, "componentType": 5123, "count": 50430, "type": "SCALAR"}, {"bufferView": 56, "componentType": 5123, "count": 4875, "normalized": true, "type": "VEC4"}, {"bufferView": 57, "componentType": 5126, "count": 4875, "max": [74.09534454345703, 50.52042770385742, 2.285167694091797], "min": [-63.49317932128906, -76.65714263916016, -65.85945129394531], "type": "VEC3"}, {"bufferView": 58, "componentType": 5126, "count": 4875, "type": "VEC2"}, {"bufferView": 59, "componentType": 5123, "count": 15546, "type": "SCALAR"}, {"bufferView": 60, "componentType": 5123, "count": 21, "normalized": true, "type": "VEC4"}, {"bufferView": 61, "componentType": 5126, "count": 21, "max": [73.5169677734375, 49.96412658691406, 0.7549699544906616], "min": [-63.06840896606445, -76.98727416992188, -65.35719299316406], "type": "VEC3"}, {"bufferView": 62, "componentType": 5126, "count": 21, "type": "VEC2"}, {"bufferView": 63, "componentType": 5123, "count": 51, "type": "SCALAR"}, {"bufferView": 64, "componentType": 5123, "count": 17686, "normalized": true, "type": "VEC4"}, {"bufferView": 65, "componentType": 5126, "count": 17686, "max": [36.288089752197266, 64.19364166259766, 0.7515398859977722], "min": [-78.09294128417969, -54.435359954833984, -76.9327392578125], "type": "VEC3"}, {"bufferView": 66, "componentType": 5126, "count": 17686, "type": "VEC2"}, {"bufferView": 67, "componentType": 5123, "count": 53412, "type": "SCALAR"}, {"bufferView": 68, "componentType": 5123, "count": 9078, "normalized": true, "type": "VEC4"}, {"bufferView": 69, "componentType": 5126, "count": 9078, "max": [36.31426239013672, 64.17082214355469, 1.8534564971923828], "min": [-78.0997085571289, -54.426902770996094, -76.98967742919922], "type": "VEC3"}, {"bufferView": 70, "componentType": 5126, "count": 9078, "type": "VEC2"}, {"bufferView": 71, "componentType": 5123, "count": 24978, "type": "SCALAR"}, {"bufferView": 72, "componentType": 5123, "count": 2391, "normalized": true, "type": "VEC4"}, {"bufferView": 73, "componentType": 5126, "count": 2391, "max": [36.44721984863281, 64.20266723632812, 1.8534564971923828], "min": [-78.06532287597656, -54.61553192138672, -76.53718566894531], "type": "VEC3"}, {"bufferView": 74, "componentType": 5126, "count": 2391, "type": "VEC2"}, {"bufferView": 75, "componentType": 5123, "count": 7515, "type": "SCALAR"}, {"bufferView": 76, "componentType": 5123, "count": 20, "normalized": true, "type": "VEC4"}, {"bufferView": 77, "componentType": 5126, "count": 20, "max": [36.539859771728516, 64.13623046875, 0.7544995546340942], "min": [-77.91873168945312, -54.15671920776367, -76.92371368408203], "type": "VEC3"}, {"bufferView": 78, "componentType": 5126, "count": 20, "type": "VEC2"}, {"bufferView": 79, "componentType": 5123, "count": 48, "type": "SCALAR"}, {"bufferView": 80, "componentType": 5123, "count": 10335, "normalized": true, "type": "VEC4"}, {"bufferView": 81, "componentType": 5126, "count": 10335, "max": [37.64609146118164, 23.683040618896484, 0.5158906579017639], "min": [-62.551021575927734, -54.951358795166016, -103.84038543701172], "type": "VEC3"}, {"bufferView": 82, "componentType": 5126, "count": 10335, "type": "VEC2"}, {"bufferView": 83, "componentType": 5123, "count": 31404, "type": "SCALAR"}, {"bufferView": 84, "componentType": 5123, "count": 5597, "normalized": true, "type": "VEC4"}, {"bufferView": 85, "componentType": 5126, "count": 5597, "max": [37.63853454589844, 23.909074783325195, 1.8897881507873535], "min": [-62.550724029541016, -54.95880126953125, -103.83429718017578], "type": "VEC3"}, {"bufferView": 86, "componentType": 5126, "count": 5597, "type": "VEC2"}, {"bufferView": 87, "componentType": 5123, "count": 15447, "type": "SCALAR"}, {"bufferView": 88, "componentType": 5123, "count": 1551, "normalized": true, "type": "VEC4"}, {"bufferView": 89, "componentType": 5126, "count": 1551, "max": [37.65202713012695, 23.555744171142578, 1.845900297164917], "min": [-62.58720016479492, -54.97718048095703, -103.84822845458984], "type": "VEC3"}, {"bufferView": 90, "componentType": 5126, "count": 1551, "type": "VEC2"}, {"bufferView": 91, "componentType": 5123, "count": 4872, "type": "SCALAR"}, {"bufferView": 92, "componentType": 5123, "count": 16, "normalized": true, "type": "VEC4"}, {"bufferView": 93, "componentType": 5126, "count": 16, "max": [37.66242599487305, 24.21759605407715, 0.5076595544815063], "min": [-62.495487213134766, -54.93419647216797, -103.81531524658203], "type": "VEC3"}, {"bufferView": 94, "componentType": 5126, "count": 16, "type": "VEC2"}, {"bufferView": 95, "componentType": 5123, "count": 36, "type": "SCALAR"}, {"bufferView": 96, "componentType": 5123, "count": 5925, "normalized": true, "type": "VEC4"}, {"bufferView": 97, "componentType": 5126, "count": 5925, "max": [47.30336380004883, 30.96601676940918, 0.7636703252792358], "min": [-27.984821319580078, -19.559431076049805, -58.86710739135742], "type": "VEC3"}, {"bufferView": 98, "componentType": 5126, "count": 5925, "type": "VEC2"}, {"bufferView": 99, "componentType": 5123, "count": 17802, "type": "SCALAR"}, {"bufferView": 100, "componentType": 5123, "count": 3152, "normalized": true, "type": "VEC4"}, {"bufferView": 101, "componentType": 5126, "count": 3152, "max": [47.28841018676758, 31.049177169799805, 0.9307440519332886], "min": [-27.956968307495117, -19.5120849609375, -58.883792877197266], "type": "VEC3"}, {"bufferView": 102, "componentType": 5126, "count": 3152, "type": "VEC2"}, {"bufferView": 103, "componentType": 5123, "count": 8529, "type": "SCALAR"}, {"bufferView": 104, "componentType": 5123, "count": 986, "normalized": true, "type": "VEC4"}, {"bufferView": 105, "componentType": 5126, "count": 986, "max": [47.31489181518555, 30.84961700439453, 0.9037907123565674], "min": [-27.995868682861328, -19.53693962097168, -58.89271545410156], "type": "VEC3"}, {"bufferView": 106, "componentType": 5126, "count": 986, "type": "VEC2"}, {"bufferView": 107, "componentType": 5123, "count": 2862, "type": "SCALAR"}, {"bufferView": 108, "componentType": 5123, "count": 14, "normalized": true, "type": "VEC4"}, {"bufferView": 109, "componentType": 5126, "count": 14, "max": [47.27102279663086, 30.949708938598633, 0.7458972930908203], "min": [-27.249500274658203, -19.503637313842773, -58.846439361572266], "type": "VEC3"}, {"bufferView": 110, "componentType": 5126, "count": 14, "type": "VEC2"}, {"bufferView": 111, "componentType": 5123, "count": 30, "type": "SCALAR"}, {"bufferView": 112, "componentType": 5123, "count": 9105, "normalized": true, "type": "VEC4"}, {"bufferView": 113, "componentType": 5126, "count": 9105, "max": [24.29399871826172, 61.423091888427734, 0.7557919025421143], "min": [-41.58144760131836, -20.442739486694336, -50.97907638549805], "type": "VEC3"}, {"bufferView": 114, "componentType": 5126, "count": 9105, "type": "VEC2"}, {"bufferView": 115, "componentType": 5123, "count": 27576, "type": "SCALAR"}, {"bufferView": 116, "componentType": 5123, "count": 4897, "normalized": true, "type": "VEC4"}, {"bufferView": 117, "componentType": 5126, "count": 4897, "max": [24.284181594848633, 61.42862319946289, 0.8502917289733887], "min": [-41.58881759643555, -20.442707061767578, -50.99994659423828], "type": "VEC3"}, {"bufferView": 118, "componentType": 5126, "count": 4897, "type": "VEC2"}, {"bufferView": 119, "componentType": 5123, "count": 13428, "type": "SCALAR"}, {"bufferView": 120, "componentType": 5123, "count": 1381, "normalized": true, "type": "VEC4"}, {"bufferView": 121, "componentType": 5126, "count": 1381, "max": [24.297204971313477, 61.44119644165039, 0.784813642501831], "min": [-41.60897445678711, -20.489961624145508, -51.932334899902344], "type": "VEC3"}, {"bufferView": 122, "componentType": 5126, "count": 1381, "type": "VEC2"}, {"bufferView": 123, "componentType": 5123, "count": 4341, "type": "SCALAR"}, {"bufferView": 124, "componentType": 5123, "count": 17, "normalized": true, "type": "VEC4"}, {"bufferView": 125, "componentType": 5126, "count": 17, "max": [24.27619171142578, 61.39324188232422, 0.7076297402381897], "min": [-41.555355072021484, -20.431222915649414, -50.928489685058594], "type": "VEC3"}, {"bufferView": 126, "componentType": 5126, "count": 17, "type": "VEC2"}, {"bufferView": 127, "componentType": 5123, "count": 39, "type": "SCALAR"}], "bufferViews": [{"buffer": 0, "byteLength": 14016, "byteOffset": 0, "target": 34962}, {"buffer": 0, "byteLength": 21024, "byteOffset": 14016, "target": 34962}, {"buffer": 0, "byteLength": 14016, "byteOffset": 35040, "target": 34962}, {"buffer": 0, "byteLength": 10776, "byteOffset": 49056, "target": 34963}, {"buffer": 0, "byteLength": 10520, "byteOffset": 59832, "target": 34962}, {"buffer": 0, "byteLength": 15780, "byteOffset": 70352, "target": 34962}, {"buffer": 0, "byteLength": 10520, "byteOffset": 86132, "target": 34962}, {"buffer": 0, "byteLength": 7458, "byteOffset": 96652, "target": 34963}, {"buffer": 0, "byteLength": 4176, "byteOffset": 104112, "target": 34962}, {"buffer": 0, "byteLength": 6264, "byteOffset": 108288, "target": 34962}, {"buffer": 0, "byteLength": 4176, "byteOffset": 114552, "target": 34962}, {"buffer": 0, "byteLength": 3252, "byteOffset": 118728, "target": 34963}, {"buffer": 0, "byteLength": 120, "byteOffset": 121980, "target": 34962}, {"buffer": 0, "byteLength": 180, "byteOffset": 122100, "target": 34962}, {"buffer": 0, "byteLength": 120, "byteOffset": 122280, "target": 34962}, {"buffer": 0, "byteLength": 66, "byteOffset": 122400, "target": 34963}, {"buffer": 0, "byteLength": 5632, "byteOffset": 122468, "target": 34962}, {"buffer": 0, "byteLength": 8448, "byteOffset": 128100, "target": 34962}, {"buffer": 0, "byteLength": 5632, "byteOffset": 136548, "target": 34962}, {"buffer": 0, "byteLength": 4308, "byteOffset": 142180, "target": 34963}, {"buffer": 0, "byteLength": 4192, "byteOffset": 146488, "target": 34962}, {"buffer": 0, "byteLength": 6288, "byteOffset": 150680, "target": 34962}, {"buffer": 0, "byteLength": 4192, "byteOffset": 156968, "target": 34962}, {"buffer": 0, "byteLength": 2946, "byteOffset": 161160, "target": 34963}, {"buffer": 0, "byteLength": 1608, "byteOffset": 164108, "target": 34962}, {"buffer": 0, "byteLength": 2412, "byteOffset": 165716, "target": 34962}, {"buffer": 0, "byteLength": 1608, "byteOffset": 168128, "target": 34962}, {"buffer": 0, "byteLength": 1254, "byteOffset": 169736, "target": 34963}, {"buffer": 0, "byteLength": 112, "byteOffset": 170992, "target": 34962}, {"buffer": 0, "byteLength": 168, "byteOffset": 171104, "target": 34962}, {"buffer": 0, "byteLength": 112, "byteOffset": 171272, "target": 34962}, {"buffer": 0, "byteLength": 60, "byteOffset": 171384, "target": 34963}, {"buffer": 0, "byteLength": 5656, "byteOffset": 171444, "target": 34962}, {"buffer": 0, "byteLength": 8484, "byteOffset": 177100, "target": 34962}, {"buffer": 0, "byteLength": 5656, "byteOffset": 185584, "target": 34962}, {"buffer": 0, "byteLength": 4326, "byteOffset": 191240, "target": 34963}, {"buffer": 0, "byteLength": 4216, "byteOffset": 195568, "target": 34962}, {"buffer": 0, "byteLength": 6324, "byteOffset": 199784, "target": 34962}, {"buffer": 0, "byteLength": 4216, "byteOffset": 206108, "target": 34962}, {"buffer": 0, "byteLength": 2946, "byteOffset": 210324, "target": 34963}, {"buffer": 0, "byteLength": 1608, "byteOffset": 213272, "target": 34962}, {"buffer": 0, "byteLength": 2412, "byteOffset": 214880, "target": 34962}, {"buffer": 0, "byteLength": 1608, "byteOffset": 217292, "target": 34962}, {"buffer": 0, "byteLength": 1272, "byteOffset": 218900, "target": 34963}, {"buffer": 0, "byteLength": 96, "byteOffset": 220172, "target": 34962}, {"buffer": 0, "byteLength": 144, "byteOffset": 220268, "target": 34962}, {"buffer": 0, "byteLength": 96, "byteOffset": 220412, "target": 34962}, {"buffer": 0, "byteLength": 48, "byteOffset": 220508, "target": 34963}, {"buffer": 0, "byteLength": 269848, "byteOffset": 220556, "target": 34962}, {"buffer": 0, "byteLength": 404772, "byteOffset": 490404, "target": 34962}, {"buffer": 0, "byteLength": 269848, "byteOffset": 895176, "target": 34962}, {"buffer": 0, "byteLength": 204300, "byteOffset": 1165024, "target": 34963}, {"buffer": 0, "byteLength": 146080, "byteOffset": 1369324, "target": 34962}, {"buffer": 0, "byteLength": 219120, "byteOffset": 1515404, "target": 34962}, {"buffer": 0, "byteLength": 146080, "byteOffset": 1734524, "target": 34962}, {"buffer": 0, "byteLength": 100860, "byteOffset": 1880604, "target": 34963}, {"buffer": 0, "byteLength": 39000, "byteOffset": 1981464, "target": 34962}, {"buffer": 0, "byteLength": 58500, "byteOffset": 2020464, "target": 34962}, {"buffer": 0, "byteLength": 39000, "byteOffset": 2078964, "target": 34962}, {"buffer": 0, "byteLength": 31092, "byteOffset": 2117964, "target": 34963}, {"buffer": 0, "byteLength": 168, "byteOffset": 2149056, "target": 34962}, {"buffer": 0, "byteLength": 252, "byteOffset": 2149224, "target": 34962}, {"buffer": 0, "byteLength": 168, "byteOffset": 2149476, "target": 34962}, {"buffer": 0, "byteLength": 102, "byteOffset": 2149644, "target": 34963}, {"buffer": 0, "byteLength": 141488, "byteOffset": 2149748, "target": 34962}, {"buffer": 0, "byteLength": 212232, "byteOffset": 2291236, "target": 34962}, {"buffer": 0, "byteLength": 141488, "byteOffset": 2503468, "target": 34962}, {"buffer": 0, "byteLength": 106824, "byteOffset": 2644956, "target": 34963}, {"buffer": 0, "byteLength": 72624, "byteOffset": 2751780, "target": 34962}, {"buffer": 0, "byteLength": 108936, "byteOffset": 2824404, "target": 34962}, {"buffer": 0, "byteLength": 72624, "byteOffset": 2933340, "target": 34962}, {"buffer": 0, "byteLength": 49956, "byteOffset": 3005964, "target": 34963}, {"buffer": 0, "byteLength": 19128, "byteOffset": 3055920, "target": 34962}, {"buffer": 0, "byteLength": 28692, "byteOffset": 3075048, "target": 34962}, {"buffer": 0, "byteLength": 19128, "byteOffset": 3103740, "target": 34962}, {"buffer": 0, "byteLength": 15030, "byteOffset": 3122868, "target": 34963}, {"buffer": 0, "byteLength": 160, "byteOffset": 3137900, "target": 34962}, {"buffer": 0, "byteLength": 240, "byteOffset": 3138060, "target": 34962}, {"buffer": 0, "byteLength": 160, "byteOffset": 3138300, "target": 34962}, {"buffer": 0, "byteLength": 96, "byteOffset": 3138460, "target": 34963}, {"buffer": 0, "byteLength": 82680, "byteOffset": 3138556, "target": 34962}, {"buffer": 0, "byteLength": 124020, "byteOffset": 3221236, "target": 34962}, {"buffer": 0, "byteLength": 82680, "byteOffset": 3345256, "target": 34962}, {"buffer": 0, "byteLength": 62808, "byteOffset": 3427936, "target": 34963}, {"buffer": 0, "byteLength": 44776, "byteOffset": 3490744, "target": 34962}, {"buffer": 0, "byteLength": 67164, "byteOffset": 3535520, "target": 34962}, {"buffer": 0, "byteLength": 44776, "byteOffset": 3602684, "target": 34962}, {"buffer": 0, "byteLength": 30894, "byteOffset": 3647460, "target": 34963}, {"buffer": 0, "byteLength": 12408, "byteOffset": 3678356, "target": 34962}, {"buffer": 0, "byteLength": 18612, "byteOffset": 3690764, "target": 34962}, {"buffer": 0, "byteLength": 12408, "byteOffset": 3709376, "target": 34962}, {"buffer": 0, "byteLength": 9744, "byteOffset": 3721784, "target": 34963}, {"buffer": 0, "byteLength": 128, "byteOffset": 3731528, "target": 34962}, {"buffer": 0, "byteLength": 192, "byteOffset": 3731656, "target": 34962}, {"buffer": 0, "byteLength": 128, "byteOffset": 3731848, "target": 34962}, {"buffer": 0, "byteLength": 72, "byteOffset": 3731976, "target": 34963}, {"buffer": 0, "byteLength": 47400, "byteOffset": 3732048, "target": 34962}, {"buffer": 0, "byteLength": 71100, "byteOffset": 3779448, "target": 34962}, {"buffer": 0, "byteLength": 47400, "byteOffset": 3850548, "target": 34962}, {"buffer": 0, "byteLength": 35604, "byteOffset": 3897948, "target": 34963}, {"buffer": 0, "byteLength": 25216, "byteOffset": 3933552, "target": 34962}, {"buffer": 0, "byteLength": 37824, "byteOffset": 3958768, "target": 34962}, {"buffer": 0, "byteLength": 25216, "byteOffset": 3996592, "target": 34962}, {"buffer": 0, "byteLength": 17058, "byteOffset": 4021808, "target": 34963}, {"buffer": 0, "byteLength": 7888, "byteOffset": 4038868, "target": 34962}, {"buffer": 0, "byteLength": 11832, "byteOffset": 4046756, "target": 34962}, {"buffer": 0, "byteLength": 7888, "byteOffset": 4058588, "target": 34962}, {"buffer": 0, "byteLength": 5724, "byteOffset": 4066476, "target": 34963}, {"buffer": 0, "byteLength": 112, "byteOffset": 4072200, "target": 34962}, {"buffer": 0, "byteLength": 168, "byteOffset": 4072312, "target": 34962}, {"buffer": 0, "byteLength": 112, "byteOffset": 4072480, "target": 34962}, {"buffer": 0, "byteLength": 60, "byteOffset": 4072592, "target": 34963}, {"buffer": 0, "byteLength": 72840, "byteOffset": 4072652, "target": 34962}, {"buffer": 0, "byteLength": 109260, "byteOffset": 4145492, "target": 34962}, {"buffer": 0, "byteLength": 72840, "byteOffset": 4254752, "target": 34962}, {"buffer": 0, "byteLength": 55152, "byteOffset": 4327592, "target": 34963}, {"buffer": 0, "byteLength": 39176, "byteOffset": 4382744, "target": 34962}, {"buffer": 0, "byteLength": 58764, "byteOffset": 4421920, "target": 34962}, {"buffer": 0, "byteLength": 39176, "byteOffset": 4480684, "target": 34962}, {"buffer": 0, "byteLength": 26856, "byteOffset": 4519860, "target": 34963}, {"buffer": 0, "byteLength": 11048, "byteOffset": 4546716, "target": 34962}, {"buffer": 0, "byteLength": 16572, "byteOffset": 4557764, "target": 34962}, {"buffer": 0, "byteLength": 11048, "byteOffset": 4574336, "target": 34962}, {"buffer": 0, "byteLength": 8682, "byteOffset": 4585384, "target": 34963}, {"buffer": 0, "byteLength": 136, "byteOffset": 4594068, "target": 34962}, {"buffer": 0, "byteLength": 204, "byteOffset": 4594204, "target": 34962}, {"buffer": 0, "byteLength": 136, "byteOffset": 4594408, "target": 34962}, {"buffer": 0, "byteLength": 78, "byteOffset": 4594544, "target": 34963}], "samplers": [{"magFilter": 9729, "minFilter": 9987}], "buffers": [{"byteLength": 4594624, "uri": "model.bin"}], "extras": {"tier": 2}}