{"asset": {"generator": "Khronos glTF Blender I/O v3.6.27", "version": "2.0"}, "scene": 0, "scenes": [{"name": "Scene", "nodes": [0]}], "nodes": [{"mesh": 0, "name": "ukpidjpaw_LOD0_TIER2_000", "rotation": [0.7071068286895752, 0, 0, 0.7071068286895752], "scale": [0.009999999776482582, 0.009999999776482582, 0.009999999776482582]}], "materials": [{"doubleSided": true, "name": "MI_ukpidjpaw", "normalTexture": {"index": 0}, "occlusionTexture": {"index": 1}, "pbrMetallicRoughness": {"baseColorTexture": {"index": 2}, "metallicRoughnessTexture": {"index": 1}}}], "meshes": [{"name": "S_ukpidjpaw_tier_2", "primitives": [{"attributes": {"POSITION": 0, "NORMAL": 1, "TEXCOORD_0": 2, "TANGENT": 3}, "indices": 4, "material": 0}]}], "textures": [{"sampler": 0, "source": 0}, {"sampler": 0, "source": 1}, {"sampler": 0, "source": 2}], "images": [{"mimeType": "image/jpeg", "name": "T_ukpidjpaw_2K_N", "uri": "t0.jpg"}, {"mimeType": "image/jpeg", "name": "T_ukpidjpaw_2K_ORM", "uri": "t1.jpg", "extras": {"compression": "mask"}}, {"mimeType": "image/jpeg", "name": "T_ukpidjpaw_2K_B", "uri": "t2.jpg"}], "accessors": [{"bufferView": 0, "componentType": 5126, "count": 3894, "max": [24.508281707763672, 2.4890060424804688, 34.42668914794922], "min": [-24.587387084960938, -2.523664712905884, -34.42420959472656], "type": "VEC3"}, {"bufferView": 1, "componentType": 5126, "count": 3894, "type": "VEC3"}, {"bufferView": 2, "componentType": 5126, "count": 3894, "type": "VEC2"}, {"bufferView": 3, "componentType": 5126, "count": 3894, "type": "VEC4"}, {"bufferView": 4, "componentType": 5123, "count": 15942, "type": "SCALAR"}], "bufferViews": [{"buffer": 0, "byteLength": 46728, "byteOffset": 0, "target": 34962}, {"buffer": 0, "byteLength": 46728, "byteOffset": 46728, "target": 34962}, {"buffer": 0, "byteLength": 31152, "byteOffset": 93456, "target": 34962}, {"buffer": 0, "byteLength": 62304, "byteOffset": 124608, "target": 34962}, {"buffer": 0, "byteLength": 31884, "byteOffset": 186912, "target": 34963}], "samplers": [{"magFilter": 9729, "minFilter": 9987}], "buffers": [{"byteLength": 218796, "uri": "model.bin"}]}