{"asset": {"generator": "Khronos glTF Blender I/O v3.6.27", "version": "2.0"}, "scene": 0, "scenes": [{"name": "Scene", "nodes": [0]}], "nodes": [{"mesh": 0, "name": "xiwcfassc_LOD0_TIER2_000", "rotation": [0.7071068286895752, 0, 0, 0.7071068286895752], "scale": [0.009999999776482582, 0.009999999776482582, 0.009999999776482582]}], "materials": [{"doubleSided": true, "name": "MI_xiwcfassc", "normalTexture": {"index": 0}, "occlusionTexture": {"index": 1}, "pbrMetallicRoughness": {"baseColorTexture": {"index": 2}, "metallicRoughnessTexture": {"index": 1}}}], "meshes": [{"name": "S_xiwcfassc_tier_2", "primitives": [{"attributes": {"POSITION": 0, "NORMAL": 1, "TEXCOORD_0": 2, "TANGENT": 3}, "indices": 4, "material": 0}]}], "textures": [{"sampler": 0, "source": 0}, {"sampler": 0, "source": 1}, {"sampler": 0, "source": 2}], "images": [{"mimeType": "image/jpeg", "name": "T_xiwcfassc_2K_N", "uri": "t0.jpg"}, {"mimeType": "image/jpeg", "name": "T_xiwcfassc_2K_ORM", "uri": "t1.jpg", "extras": {"compression": "mask"}}, {"mimeType": "image/jpeg", "name": "T_xiwcfassc_2K_B", "uri": "t2.jpg"}], "accessors": [{"bufferView": 0, "componentType": 5126, "count": 7376, "max": [74.82437896728516, 51.245147705078125, 0.27417489886283875], "min": [-75.34699249267578, -50.21698760986328, -103.48442840576172], "type": "VEC3"}, {"bufferView": 1, "componentType": 5126, "count": 7376, "type": "VEC3"}, {"bufferView": 2, "componentType": 5126, "count": 7376, "type": "VEC2"}, {"bufferView": 3, "componentType": 5126, "count": 7376, "type": "VEC4"}, {"bufferView": 4, "componentType": 5123, "count": 31674, "type": "SCALAR"}], "bufferViews": [{"buffer": 0, "byteLength": 88512, "byteOffset": 0, "target": 34962}, {"buffer": 0, "byteLength": 88512, "byteOffset": 88512, "target": 34962}, {"buffer": 0, "byteLength": 59008, "byteOffset": 177024, "target": 34962}, {"buffer": 0, "byteLength": 118016, "byteOffset": 236032, "target": 34962}, {"buffer": 0, "byteLength": 63348, "byteOffset": 354048, "target": 34963}], "samplers": [{"magFilter": 9729, "minFilter": 9987}], "buffers": [{"byteLength": 417396, "uri": "model.bin"}]}