{"asset": {"generator": "Khronos glTF Blender I/O v3.6.27", "version": "2.0"}, "scene": 0, "scenes": [{"name": "Scene", "nodes": [0]}], "nodes": [{"mesh": 0, "name": "tmruaaeda_LOD0_TIER2_000", "rotation": [0.7071068286895752, 0, 0, 0.7071068286895752], "scale": [0.009999999776482582, 0.009999999776482582, 0.009999999776482582]}], "materials": [{"doubleSided": true, "name": "MI_tmruaaeda", "normalTexture": {"index": 0}, "occlusionTexture": {"index": 1}, "pbrMetallicRoughness": {"baseColorTexture": {"index": 2}, "metallicRoughnessTexture": {"index": 1}}}], "meshes": [{"name": "S_tmruaaeda_tier_2", "primitives": [{"attributes": {"POSITION": 0, "NORMAL": 1, "TEXCOORD_0": 2, "TANGENT": 3}, "indices": 4, "material": 0}]}], "textures": [{"sampler": 0, "source": 0}, {"sampler": 0, "source": 1}, {"sampler": 0, "source": 2}], "images": [{"mimeType": "image/jpeg", "name": "T_tmruaaeda_2K_N", "uri": "t0.jpg"}, {"mimeType": "image/jpeg", "name": "T_tmruaaeda_2K_ORM", "uri": "t1.jpg", "extras": {"compression": "mask"}}, {"mimeType": "image/jpeg", "name": "T_tmruaaeda_2K_B", "uri": "t2.jpg"}], "accessors": [{"bufferView": 0, "componentType": 5126, "count": 8537, "max": [29.982866287231445, 66.98100280761719, 0.07169723510742188], "min": [-29.995466232299805, -73.68479919433594, -42.0831298828125], "type": "VEC3"}, {"bufferView": 1, "componentType": 5126, "count": 8537, "type": "VEC3"}, {"bufferView": 2, "componentType": 5126, "count": 8537, "type": "VEC2"}, {"bufferView": 3, "componentType": 5126, "count": 8537, "type": "VEC4"}, {"bufferView": 4, "componentType": 5123, "count": 40686, "type": "SCALAR"}], "bufferViews": [{"buffer": 0, "byteLength": 102444, "byteOffset": 0, "target": 34962}, {"buffer": 0, "byteLength": 102444, "byteOffset": 102444, "target": 34962}, {"buffer": 0, "byteLength": 68296, "byteOffset": 204888, "target": 34962}, {"buffer": 0, "byteLength": 136592, "byteOffset": 273184, "target": 34962}, {"buffer": 0, "byteLength": 81372, "byteOffset": 409776, "target": 34963}], "samplers": [{"magFilter": 9729, "minFilter": 9987}], "buffers": [{"byteLength": 491148, "uri": "model.bin"}]}