{"asset":{"generator":"Khronos glTF Blender I/O v3.6.27","version":"2.0"},"scene":0,"scenes":[{"name":"Scene","nodes":[0,1,2,3,4]}],"nodes":[{"mesh":0,"name":"pdvcB_LOD0_TIER2_000","rotation":[0.7071068286895752,0,0,0.7071068286895752],"scale":[0.009999999776482582,0.009999999776482582,0.009999999776482582]},{"mesh":1,"name":"pdvcB_LOD0_TIER2_001","rotation":[0.7071068286895752,0,0,0.7071068286895752],"scale":[0.009999999776482582,0.009999999776482582,0.009999999776482582]},{"mesh":2,"name":"pdvcB_LOD0_TIER2_002","rotation":[0.7071068286895752,0,0,0.7071068286895752],"scale":[0.009999999776482582,0.009999999776482582,0.009999999776482582]},{"mesh":3,"name":"pdvcB_LOD0_TIER2_003","rotation":[0.7071068286895752,0,0,0.7071068286895752],"scale":[0.009999999776482582,0.009999999776482582,0.009999999776482582]},{"mesh":4,"name":"pdvcB_LOD0_TIER2_004","rotation":[0.7071068286895752,0,0,0.7071068286895752],"scale":[0.009999999776482582,0.009999999776482582,0.009999999776482582]}],"materials":[{"doubleSided":false,"name":"MI_pdvcB","normalTexture":{"index":0},"pbrMetallicRoughness":{"baseColorTexture":{"index":2},"metallicRoughnessTexture":{"index":1},"metallicFactor":0}}],"meshes":[{"name":"S_pdvcB_tier_2","primitives":[{"attributes":{"POSITION":0,"NORMAL":1,"TEXCOORD_0":2,"TANGENT":3},"indices":4,"material":0}]},{"name":"S_pdvcB_tier_2.001","primitives":[{"attributes":{"POSITION":5,"NORMAL":6,"TEXCOORD_0":7,"TANGENT":8},"indices":9,"material":0}]},{"name":"S_pdvcB_tier_2.002","primitives":[{"attributes":{"POSITION":10,"NORMAL":11,"TEXCOORD_0":12,"TANGENT":13},"indices":14,"material":0}]},{"name":"S_pdvcB_tier_2.003","primitives":[{"attributes":{"POSITION":15,"NORMAL":16,"TEXCOORD_0":17,"TANGENT":18},"indices":19,"material":0}]},{"name":"S_pdvcB_tier_2.004","primitives":[{"attributes":{"POSITION":20,"NORMAL":21,"TEXCOORD_0":22,"TANGENT":23},"indices":24,"material":0}]}],"textures":[{"sampler":0,"source":0},{"sampler":0,"source":1},{"sampler":0,"source":2}],"images":[{"uri":"t0.jpg"},{"uri":"t1.jpg"},{"uri":"t2.jpg"}],"accessors":[{"bufferView":0,"componentType":5126,"count":562,"max":[4.999999523162842,4.768198013305664,0],"min":[-4.999999523162842,-4.768198013305664,-10.950488090515137],"type":"VEC3"},{"bufferView":1,"componentType":5126,"count":562,"type":"VEC3"},{"bufferView":2,"componentType":5126,"count":562,"type":"VEC2"},{"bufferView":3,"componentType":5126,"count":562,"type":"VEC4"},{"bufferView":4,"componentType":5123,"count":2832,"type":"SCALAR"},{"bufferView":5,"componentType":5126,"count":442,"max":[3.788804054260254,3.9054882526397705,0],"min":[-3.788806915283203,-3.9054882526397705,-8.885854721069336],"type":"VEC3"},{"bufferView":6,"componentType":5126,"count":442,"type":"VEC3"},{"bufferView":7,"componentType":5126,"count":442,"type":"VEC2"},{"bufferView":8,"componentType":5126,"count":442,"type":"VEC4"},{"bufferView":9,"componentType":5123,"count":2118,"type":"SCALAR"},{"bufferView":10,"componentType":5126,"count":527,"max":[3.9554543495178223,3.270871162414551,0],"min":[-3.9554567337036133,-3.270871162414551,-5.329673767089844],"type":"VEC3"},{"bufferView":11,"componentType":5126,"count":527,"type":"VEC3"},{"bufferView":12,"componentType":5126,"count":527,"type":"VEC2"},{"bufferView":13,"componentType":5126,"count":527,"type":"VEC4"},{"bufferView":14,"componentType":5123,"count":2394,"type":"SCALAR"},{"bufferView":15,"componentType":5126,"count":213,"max":[1.5620845556259155,1.712346076965332,0],"min":[-1.5620845556259155,-1.712346076965332,-5.008097171783447],"type":"VEC3"},{"bufferView":16,"componentType":5126,"count":213,"type":"VEC3"},{"bufferView":17,"componentType":5126,"count":213,"type":"VEC2"},{"bufferView":18,"componentType":5126,"count":213,"type":"VEC4"},{"bufferView":19,"componentType":5123,"count":942,"type":"SCALAR"},{"bufferView":20,"componentType":5126,"count":190,"max":[1.4292234182357788,1.3276838064193726,0],"min":[-1.4292259216308594,-1.3276838064193726,-4.64383602142334],"type":"VEC3"},{"bufferView":21,"componentType":5126,"count":190,"type":"VEC3"},{"bufferView":22,"componentType":5126,"count":190,"type":"VEC2"},{"bufferView":23,"componentType":5126,"count":190,"type":"VEC4"},{"bufferView":24,"componentType":5123,"count":816,"type":"SCALAR"}],"bufferViews":[{"buffer":0,"byteLength":6744,"byteOffset":0,"target":34962},{"buffer":0,"byteLength":6744,"byteOffset":6744,"target":34962},{"buffer":0,"byteLength":4496,"byteOffset":13488,"target":34962},{"buffer":0,"byteLength":8992,"byteOffset":17984,"target":34962},{"buffer":0,"byteLength":5664,"byteOffset":26976,"target":34963},{"buffer":0,"byteLength":5304,"byteOffset":32640,"target":34962},{"buffer":0,"byteLength":5304,"byteOffset":37944,"target":34962},{"buffer":0,"byteLength":3536,"byteOffset":43248,"target":34962},{"buffer":0,"byteLength":7072,"byteOffset":46784,"target":34962},{"buffer":0,"byteLength":4236,"byteOffset":53856,"target":34963},{"buffer":0,"byteLength":6324,"byteOffset":58092,"target":34962},{"buffer":0,"byteLength":6324,"byteOffset":64416,"target":34962},{"buffer":0,"byteLength":4216,"byteOffset":70740,"target":34962},{"buffer":0,"byteLength":8432,"byteOffset":74956,"target":34962},{"buffer":0,"byteLength":4788,"byteOffset":83388,"target":34963},{"buffer":0,"byteLength":2556,"byteOffset":88176,"target":34962},{"buffer":0,"byteLength":2556,"byteOffset":90732,"target":34962},{"buffer":0,"byteLength":1704,"byteOffset":93288,"target":34962},{"buffer":0,"byteLength":3408,"byteOffset":94992,"target":34962},{"buffer":0,"byteLength":1884,"byteOffset":98400,"target":34963},{"buffer":0,"byteLength":2280,"byteOffset":100284,"target":34962},{"buffer":0,"byteLength":2280,"byteOffset":102564,"target":34962},{"buffer":0,"byteLength":1520,"byteOffset":104844,"target":34962},{"buffer":0,"byteLength":3040,"byteOffset":106364,"target":34962},{"buffer":0,"byteLength":1632,"byteOffset":109404,"target":34963}],"samplers":[{"magFilter":9729,"minFilter":9987}],"buffers":[{"byteLength":111036,"uri":"model.bin"}]}