{"asset": {"version": "2.0", "generator": "Houdini GLTF 2.0 Exporter"}, "accessors": [{"bufferView": 0, "componentType": 5123, "count": 9054, "type": "SCALAR", "min": [0], "max": [9053]}, {"bufferView": 1, "componentType": 5126, "count": 9054, "type": "VEC3", "min": [-0.161248878, -0.00242171856, -0.161845475], "max": [0.160543174, 1.58449638, 0.161978468]}, {"bufferView": 2, "componentType": 5126, "count": 9054, "type": "VEC3", "min": [-0.99986428, -0.999992311, -0.999958634], "max": [0.999564767, 0.999996126, 0.999994338]}, {"bufferView": 3, "componentType": 5126, "count": 9054, "type": "VEC2", "min": [0.000675022602, 0.0300200582], "max": [0.998757839, 0.999610245]}, {"bufferView": 4, "componentType": 5123, "count": 13152, "type": "SCALAR", "min": [0], "max": [13151]}, {"bufferView": 5, "componentType": 5126, "count": 13152, "type": "VEC3", "min": [-0.308224797, 1.11888242, -0.275207847], "max": [0.265504211, 1.63436759, 0.290524542]}, {"bufferView": 6, "componentType": 5126, "count": 13152, "type": "VEC3", "min": [-0.998968363, -0.999990821, -0.99973762], "max": [0.999342561, 0.999994874, 0.999533355]}, {"bufferView": 7, "componentType": 5126, "count": 13152, "type": "VEC2", "min": [-0.00100067258, 0.0471801758], "max": [0.99765569, 0.999073029]}], "buffers": [{"uri": "model.bin", "byteLength": 755004, "name": "main_buffer"}], "bufferViews": [{"buffer": 0, "byteLength": 18108, "target": 34963}, {"buffer": 0, "byteOffset": 18108, "byteLength": 108648, "target": 34962}, {"buffer": 0, "byteOffset": 126756, "byteLength": 108648, "target": 34962}, {"buffer": 0, "byteOffset": 235404, "byteLength": 72432, "target": 34962}, {"buffer": 0, "byteOffset": 307836, "byteLength": 26304, "target": 34963}, {"buffer": 0, "byteOffset": 334140, "byteLength": 157824, "target": 34962}, {"buffer": 0, "byteOffset": 491964, "byteLength": 157824, "target": 34962}, {"buffer": 0, "byteOffset": 649788, "byteLength": 105216, "target": 34962}], "nodes": [{"mesh": 0, "name": "SM_vi5hbjgga_0"}, {"mesh": 1, "name": "SM_vi5hbjgga_1"}], "meshes": [{"primitives": [{"attributes": {"POSITION": 1, "NORMAL": 2, "TEXCOORD_0": 3}, "indices": 0, "material": 0}], "name": "SM_vi5hbjgga_0"}, {"primitives": [{"attributes": {"POSITION": 5, "NORMAL": 6, "TEXCOORD_0": 7}, "indices": 4, "material": 0}], "name": "SM_vi5hbjgga_1"}], "scenes": [{"nodes": [0, 1], "name": "geo"}], "scene": 0, "images": [{"mimeType": "image/jpeg", "name": "T_vi5hbjgga_2k_B", "uri": "t0.jpg"}, {"mimeType": "image/jpeg", "name": "T_vi5hbjgga_2k_N", "uri": "t1.jpg"}, {"mimeType": "image/jpeg", "name": "T_vi5hbjgga_2k_ORM", "uri": "t2.jpg", "extras": {"compression": "mask"}}], "textures": [{"sampler": 0, "source": 0}, {"sampler": 0, "source": 1}, {"sampler": 0, "source": 2}], "materials": [{"name": "MI_vi5hbjgga", "alphaMode": "OPAQUE", "doubleSided": true, "pbrMetallicRoughness": {"baseColorTexture": {"index": 0}, "metallicRoughnessTexture": {"index": 2}}, "normalTexture": {"index": 1}, "occlusionTexture": {"index": 2}}], "samplers": [{"magFilter": 9729, "minFilter": 9987}], "extras": {"tier": 2, "asset_type": "3d asset"}}