{"asset": {"version": "2.0", "generator": "Houdini GLTF 2.0 Exporter"}, "accessors": [{"bufferView": 0, "componentType": 5123, "count": 8742, "type": "SCALAR", "min": [0], "max": [8741]}, {"bufferView": 1, "componentType": 5126, "count": 8742, "type": "VEC3", "min": [-0.345664471, -0.00225658435, -0.0364003666], "max": [0.275620252, 1.77553427, 0.0363337286]}, {"bufferView": 2, "componentType": 5126, "count": 8742, "type": "VEC3", "min": [-0.999944925, -0.999827683, -1], "max": [0.999898911, 0.999932051, 0.999999702]}, {"bufferView": 3, "componentType": 5126, "count": 8742, "type": "VEC2", "min": [0.000483958982, 0.000789642334], "max": [0.99927932, 0.999540627]}, {"bufferView": 4, "componentType": 5125, "count": 8742, "type": "SCALAR", "min": [0], "max": [0]}, {"bufferView": 5, "componentType": 5125, "count": 8742, "type": "SCALAR", "min": [1], "max": [1]}, {"bufferView": 6, "componentType": 5125, "count": 8742, "type": "SCALAR", "min": [0], "max": [0]}], "buffers": [{"uri": "model.bin", "byteLength": 402132, "name": "main_buffer"}], "bufferViews": [{"buffer": 0, "byteLength": 17484, "target": 34963}, {"buffer": 0, "byteOffset": 17484, "byteLength": 104904, "target": 34962}, {"buffer": 0, "byteOffset": 122388, "byteLength": 104904, "target": 34962}, {"buffer": 0, "byteOffset": 227292, "byteLength": 69936, "target": 34962}, {"buffer": 0, "byteOffset": 297228, "byteLength": 34968, "target": 34962}, {"buffer": 0, "byteOffset": 332196, "byteLength": 34968, "target": 34962}, {"buffer": 0, "byteOffset": 367164, "byteLength": 34968, "target": 34962}], "nodes": [{"mesh": 0, "name": "SM_uknkefiqx"}], "meshes": [{"primitives": [{"attributes": {"_pieceCount": 6, "_Aset_other_various_M_uknkefiqx_LOD2": 5, "_class": 4, "TEXCOORD_0": 3, "NORMAL": 2, "POSITION": 1}, "indices": 0, "material": 0}], "name": "SM_uknkefiqx"}], "scenes": [{"nodes": [0], "name": "geo"}], "scene": 0, "images": [{"mimeType": "image/jpeg", "name": "T_uknkefiqx_2k_B", "uri": "t0.jpg"}, {"mimeType": "image/jpeg", "name": "T_uknkefiqx_2k_N", "uri": "t1.jpg"}, {"mimeType": "image/jpeg", "name": "T_uknkefiqx_2k_ORM", "uri": "t2.jpg", "extras": {"compression": "mask"}}], "textures": [{"sampler": 0, "source": 0}, {"sampler": 0, "source": 1}, {"sampler": 0, "source": 2}], "materials": [{"name": "MI_uknkefiqx", "alphaMode": "OPAQUE", "doubleSided": true, "pbrMetallicRoughness": {"baseColorTexture": {"index": 0}, "metallicRoughnessTexture": {"index": 2}}, "normalTexture": {"index": 1}, "occlusionTexture": {"index": 2}}], "samplers": [{"magFilter": 9729, "minFilter": 9987}], "extras": {"tier": 2, "asset_type": "3d asset"}}