{"accessors": [{"bufferView": 2, "componentType": 5126, "count": 361, "max": [0.26337701082229614, 1.0, 0.7817429900169373], "min": [-0.26337701082229614, -1.0, -0.7817429900169373], "type": "VEC3"}, {"bufferView": 2, "byteOffset": 4332, "componentType": 5126, "count": 361, "max": [0.9999966621398926, 0.9999987483024597, 0.9999988675117493], "min": [-1.0, -0.9999985694885254, -0.9999988675117493], "type": "VEC3"}, {"bufferView": 3, "componentType": 5126, "count": 361, "max": [0.9999992251396179, 1.0, 1.0, 1.0], "min": [-0.9999992251396179, -0.9999956488609314, -1.0, 1.0], "type": "VEC4"}, {"bufferView": 1, "componentType": 5126, "count": 361, "max": [0.9486500024795532, 0.9900000095367432], "min": [0.009999999776482582, 0.009999999776482582], "type": "VEC2"}, {"bufferView": 0, "componentType": 5125, "count": 1410, "type": "SCALAR"}], "asset": {"extras": {"author": "shedmon (https://sketchfab.com/shedmon)", "license": "CC-BY-4.0 (http://creativecommons.org/licenses/by/4.0/)", "source": "https://sketchfab.com/3d-models/wardrobe-89cb6b89ce7644f0ac5a73382b72a80b", "title": "Wardrobe"}, "generator": "Sketchfab-12.65.0", "version": "2.0"}, "bufferViews": [{"buffer": 0, "byteLength": 5640, "name": "floatBufferViews", "target": 34963}, {"buffer": 0, "byteLength": 2888, "byteOffset": 5640, "byteStride": 8, "name": "floatBufferViews", "target": 34962}, {"buffer": 0, "byteLength": 8664, "byteOffset": 8528, "byteStride": 12, "name": "floatBufferViews", "target": 34962}, {"buffer": 0, "byteLength": 5776, "byteOffset": 17192, "byteStride": 16, "name": "floatBufferViews", "target": 34962}], "buffers": [{"byteLength": 22968, "uri": "model.bin"}], "images": [{"uri": "t0.jpg", "mimeType": "image/jpeg"}, {"uri": "t1.jpg", "mimeType": "image/jpeg"}, {"uri": "t2.jpg", "mimeType": "image/jpeg"}], "materials": [{"doubleSided": true, "name": "Default", "normalTexture": {"index": 2}, "occlusionTexture": {"index": 1}, "pbrMetallicRoughness": {"baseColorTexture": {"index": 0}, "metallicRoughnessTexture": {"index": 1}}}], "meshes": [{"name": "defaultMaterial", "primitives": [{"attributes": {"NORMAL": 1, "POSITION": 0, "TANGENT": 2, "TEXCOORD_0": 3}, "indices": 4, "material": 0, "mode": 4}]}], "nodes": [{"children": [1], "matrix": [0.9753040075302124, 0.0, 0.0, 0.0, 0.0, 2.1656099303384577e-16, -0.9753040075302124, 0.0, 0.0, 0.9753040075302124, 2.1656099303384577e-16, 0.0, 0.0, 0.0, 0.0, 1.0], "name": "Sketchfab_model"}, {"children": [2], "matrix": [1.0, 0.0, 0.0, 0.0, 0.0, -4.371139006309477e-08, 0.999999999999999, 0.0, 0.0, -0.999999999999999, -4.371139006309477e-08, 0.0, 0.0, 0.0, 0.0, 1.0], "name": "Collada visual scene group"}, {"children": [3], "name": "g"}, {"mesh": 0, "name": "defaultMaterial"}], "samplers": [{"magFilter": 9729, "minFilter": 9987, "wrapS": 10497, "wrapT": 10497}], "scene": 0, "scenes": [{"name": "Sketchfab_Scene", "nodes": [0]}], "textures": [{"sampler": 0, "source": 0}, {"sampler": 0, "source": 1}, {"sampler": 0, "source": 2}]}