{"asset": {"version": "2.0", "generator": "Houdini GLTF 2.0 Exporter"}, "accessors": [{"bufferView": 0, "componentType": 5125, "count": 46098, "type": "SCALAR", "min": [0], "max": [46097]}, {"bufferView": 1, "componentType": 5126, "count": 46098, "type": "VEC3", "min": [-0.209945992, 0, -0.234136], "max": [0.210018992, 0.791590989, 0.234507009]}, {"bufferView": 2, "componentType": 5126, "count": 46098, "type": "VEC3", "min": [-0.999963522, -0.999997258, -0.999985456], "max": [0.999994755, 0.999882996, 0.999997199]}, {"bufferView": 3, "componentType": 5126, "count": 46098, "type": "VEC2", "min": [-0.000199999995, 0.000999987125], "max": [0.999100029, 1.00010002]}, {"bufferView": 4, "componentType": 5125, "count": 46098, "type": "SCALAR", "min": [0], "max": [0]}, {"bufferView": 5, "componentType": 5125, "count": 46098, "type": "SCALAR", "min": [1], "max": [1]}, {"bufferView": 6, "componentType": 5125, "count": 46098, "type": "SCALAR", "min": [0], "max": [0]}], "buffers": [{"uri": "model.bin", "byteLength": 2212704, "name": "main_buffer"}], "bufferViews": [{"buffer": 0, "byteLength": 184392, "target": 34963}, {"buffer": 0, "byteOffset": 184392, "byteLength": 553176, "target": 34962}, {"buffer": 0, "byteOffset": 737568, "byteLength": 553176, "target": 34962}, {"buffer": 0, "byteOffset": 1290744, "byteLength": 368784, "target": 34962}, {"buffer": 0, "byteOffset": 1659528, "byteLength": 184392, "target": 34962}, {"buffer": 0, "byteOffset": 1843920, "byteLength": 184392, "target": 34962}, {"buffer": 0, "byteOffset": 2028312, "byteLength": 184392, "target": 34962}], "nodes": [{"mesh": 0, "name": "SM_uh4ocfafa"}], "meshes": [{"primitives": [{"attributes": {"_pieceCount": 6, "_Aset_street__S_uh4ocfafa_LOD2": 5, "_class": 4, "TEXCOORD_0": 3, "NORMAL": 2, "POSITION": 1}, "indices": 0, "material": 0}], "name": "SM_uh4ocfafa"}], "scenes": [{"nodes": [0], "name": "geo"}], "scene": 0, "images": [{"mimeType": "image/jpeg", "name": "T_uh4ocfafa_2k_B", "uri": "t0.jpg"}, {"mimeType": "image/jpeg", "name": "T_uh4ocfafa_2k_N", "uri": "t1.jpg"}, {"mimeType": "image/jpeg", "name": "T_uh4ocfafa_2k_ORM", "uri": "t2.jpg", "extras": {"compression": "mask"}}], "textures": [{"sampler": 0, "source": 0}, {"sampler": 0, "source": 1}, {"sampler": 0, "source": 2}], "materials": [{"name": "MI_uh4ocfafa", "alphaMode": "OPAQUE", "doubleSided": true, "pbrMetallicRoughness": {"baseColorTexture": {"index": 0}, "metallicRoughnessTexture": {"index": 2}}, "normalTexture": {"index": 1}, "occlusionTexture": {"index": 2}}], "samplers": [{"magFilter": 9729, "minFilter": 9987}], "extras": {"tier": 2, "asset_type": "3d asset"}}