{"asset": {"generator": "Khronos glTF Blender I/O v3.6.27", "version": "2.0"}, "scene": 0, "scenes": [{"name": "Scene", "nodes": [0, 1, 2, 3, 4]}], "nodes": [{"mesh": 0, "name": "xh0rah1iy_LOD0_TIER2_000", "rotation": [0.7071068286895752, 0, 0, 0.7071068286895752], "scale": [0.009999999776482582, 0.009999999776482582, 0.009999999776482582]}, {"mesh": 1, "name": "xh0rah1iy_LOD0_TIER2_001", "rotation": [0.7071068286895752, 0, 0, 0.7071068286895752], "scale": [0.009999999776482582, 0.009999999776482582, 0.009999999776482582]}, {"mesh": 2, "name": "xh0rah1iy_LOD0_TIER2_002", "rotation": [0.7071068286895752, 0, 0, 0.7071068286895752], "scale": [0.009999999776482582, 0.009999999776482582, 0.009999999776482582]}, {"mesh": 3, "name": "xh0rah1iy_LOD0_TIER2_003", "rotation": [0.7071068286895752, 0, 0, 0.7071068286895752], "scale": [0.009999999776482582, 0.009999999776482582, 0.009999999776482582]}, {"mesh": 4, "name": "xh0rah1iy_LOD0_TIER2_004", "rotation": [0.7071068286895752, 0, 0, 0.7071068286895752], "scale": [0.009999999776482582, 0.009999999776482582, 0.009999999776482582]}], "materials": [{"doubleSided": true, "name": "MI_xh0rah1iy", "normalTexture": {"index": 0}, "occlusionTexture": {"index": 1}, "pbrMetallicRoughness": {"baseColorTexture": {"index": 2}, "metallicRoughnessTexture": {"index": 1}}}], "meshes": [{"name": "S_xh0rah1iy_tier_2", "primitives": [{"attributes": {"POSITION": 0, "NORMAL": 1, "TEXCOORD_0": 2, "TANGENT": 3}, "indices": 4, "material": 0}]}, {"name": "S_xh0rah1iy_tier_2.001", "primitives": [{"attributes": {"POSITION": 5, "NORMAL": 6, "TEXCOORD_0": 7, "TANGENT": 8}, "indices": 9, "material": 0}]}, {"name": "S_xh0rah1iy_tier_2.002", "primitives": [{"attributes": {"POSITION": 10, "NORMAL": 11, "TEXCOORD_0": 12, "TANGENT": 13}, "indices": 14, "material": 0}]}, {"name": "S_xh0rah1iy_tier_2.003", "primitives": [{"attributes": {"POSITION": 15, "NORMAL": 16, "TEXCOORD_0": 17, "TANGENT": 18}, "indices": 19, "material": 0}]}, {"name": "S_xh0rah1iy_tier_2.004", "primitives": [{"attributes": {"POSITION": 20, "NORMAL": 21, "TEXCOORD_0": 22, "TANGENT": 23}, "indices": 24, "material": 0}]}], "textures": [{"sampler": 0, "source": 0}, {"sampler": 0, "source": 1}, {"sampler": 0, "source": 2}], "images": [{"mimeType": "image/jpeg", "name": "T_xh0rah1iy_2K_N", "uri": "t0.jpg"}, {"mimeType": "image/jpeg", "name": "T_xh0rah1iy_2K_ORM", "uri": "t1.jpg", "extras": {"compression": "mask"}}, {"mimeType": "image/jpeg", "name": "T_xh0rah1iy_2K_B", "uri": "t2.jpg"}], "accessors": [{"bufferView": 0, "componentType": 5126, "count": 11029, "max": [300, 5.192440032958984, 0.006004059221595526], "min": [-9.112648010253906, -8.055024147033691, -100.00778198242188], "type": "VEC3"}, {"bufferView": 1, "componentType": 5126, "count": 11029, "type": "VEC3"}, {"bufferView": 2, "componentType": 5126, "count": 11029, "type": "VEC2"}, {"bufferView": 3, "componentType": 5126, "count": 11029, "type": "VEC4"}, {"bufferView": 4, "componentType": 5123, "count": 27426, "type": "SCALAR"}, {"bufferView": 5, "componentType": 5126, "count": 10507, "max": [300, 5.2668986320495605, 0.0006669472204521298], "min": [-8.508065223693848, -11.77479076385498, -103.60189819335938], "type": "VEC3"}, {"bufferView": 6, "componentType": 5126, "count": 10507, "type": "VEC3"}, {"bufferView": 7, "componentType": 5126, "count": 10507, "type": "VEC2"}, {"bufferView": 8, "componentType": 5126, "count": 10507, "type": "VEC4"}, {"bufferView": 9, "componentType": 5123, "count": 26586, "type": "SCALAR"}, {"bufferView": 10, "componentType": 5126, "count": 12962, "max": [300.0000305175781, 5.885130882263184, 0.0008639065199531615], "min": [-10.768983840942383, -13.128917694091797, -102.42549896240234], "type": "VEC3"}, {"bufferView": 11, "componentType": 5126, "count": 12962, "type": "VEC3"}, {"bufferView": 12, "componentType": 5126, "count": 12962, "type": "VEC2"}, {"bufferView": 13, "componentType": 5126, "count": 12962, "type": "VEC4"}, {"bufferView": 14, "componentType": 5123, "count": 34884, "type": "SCALAR"}, {"bufferView": 15, "componentType": 5126, "count": 6737, "max": [16.167444229125977, 4.43214225769043, 0.0018076954875141382], "min": [-3.059778828173876e-05, -13.314491271972656, -107.74961853027344], "type": "VEC3"}, {"bufferView": 16, "componentType": 5126, "count": 6737, "type": "VEC3"}, {"bufferView": 17, "componentType": 5126, "count": 6737, "type": "VEC2"}, {"bufferView": 18, "componentType": 5126, "count": 6737, "type": "VEC4"}, {"bufferView": 19, "componentType": 5123, "count": 25524, "type": "SCALAR"}, {"bufferView": 20, "componentType": 5126, "count": 13167, "max": [300.0000305175781, 4.950945854187012, 0.001777187455445528], "min": [-8.508318901062012, -13.173200607299805, -99.96435546875], "type": "VEC3"}, {"bufferView": 21, "componentType": 5126, "count": 13167, "type": "VEC3"}, {"bufferView": 22, "componentType": 5126, "count": 13167, "type": "VEC2"}, {"bufferView": 23, "componentType": 5126, "count": 13167, "type": "VEC4"}, {"bufferView": 24, "componentType": 5123, "count": 35952, "type": "SCALAR"}], "bufferViews": [{"buffer": 0, "byteLength": 132348, "byteOffset": 0, "target": 34962}, {"buffer": 0, "byteLength": 132348, "byteOffset": 132348, "target": 34962}, {"buffer": 0, "byteLength": 88232, "byteOffset": 264696, "target": 34962}, {"buffer": 0, "byteLength": 176464, "byteOffset": 352928, "target": 34962}, {"buffer": 0, "byteLength": 54852, "byteOffset": 529392, "target": 34963}, {"buffer": 0, "byteLength": 126084, "byteOffset": 584244, "target": 34962}, {"buffer": 0, "byteLength": 126084, "byteOffset": 710328, "target": 34962}, {"buffer": 0, "byteLength": 84056, "byteOffset": 836412, "target": 34962}, {"buffer": 0, "byteLength": 168112, "byteOffset": 920468, "target": 34962}, {"buffer": 0, "byteLength": 53172, "byteOffset": 1088580, "target": 34963}, {"buffer": 0, "byteLength": 155544, "byteOffset": 1141752, "target": 34962}, {"buffer": 0, "byteLength": 155544, "byteOffset": 1297296, "target": 34962}, {"buffer": 0, "byteLength": 103696, "byteOffset": 1452840, "target": 34962}, {"buffer": 0, "byteLength": 207392, "byteOffset": 1556536, "target": 34962}, {"buffer": 0, "byteLength": 69768, "byteOffset": 1763928, "target": 34963}, {"buffer": 0, "byteLength": 80844, "byteOffset": 1833696, "target": 34962}, {"buffer": 0, "byteLength": 80844, "byteOffset": 1914540, "target": 34962}, {"buffer": 0, "byteLength": 53896, "byteOffset": 1995384, "target": 34962}, {"buffer": 0, "byteLength": 107792, "byteOffset": 2049280, "target": 34962}, {"buffer": 0, "byteLength": 51048, "byteOffset": 2157072, "target": 34963}, {"buffer": 0, "byteLength": 158004, "byteOffset": 2208120, "target": 34962}, {"buffer": 0, "byteLength": 158004, "byteOffset": 2366124, "target": 34962}, {"buffer": 0, "byteLength": 105336, "byteOffset": 2524128, "target": 34962}, {"buffer": 0, "byteLength": 210672, "byteOffset": 2629464, "target": 34962}, {"buffer": 0, "byteLength": 71904, "byteOffset": 2840136, "target": 34963}], "samplers": [{"magFilter": 9729, "minFilter": 9987}], "buffers": [{"byteLength": 2912040, "uri": "model.bin"}]}