{"asset": {"generator": "Khronos glTF Blender I/O v3.6.27", "version": "2.0"}, "scene": 0, "scenes": [{"name": "Scene", "nodes": [0, 1, 2, 3, 4]}], "nodes": [{"mesh": 0, "name": "tlhjacuva_LOD0_TIER2_000", "rotation": [0.7071068286895752, 0, 0, 0.7071068286895752], "scale": [0.009999999776482582, 0.009999999776482582, 0.009999999776482582]}, {"mesh": 1, "name": "tlhjacuva_LOD0_TIER2_001", "rotation": [0.7071068286895752, 0, 0, 0.7071068286895752], "scale": [0.009999999776482582, 0.009999999776482582, 0.009999999776482582]}, {"mesh": 2, "name": "tlhjacuva_LOD0_TIER2_002", "rotation": [0.7071068286895752, 0, 0, 0.7071068286895752], "scale": [0.009999999776482582, 0.009999999776482582, 0.009999999776482582]}, {"mesh": 3, "name": "tlhjacuva_LOD0_TIER2_003", "rotation": [0.7071068286895752, 0, 0, 0.7071068286895752], "scale": [0.009999999776482582, 0.009999999776482582, 0.009999999776482582]}, {"mesh": 4, "name": "tlhjacuva_LOD0_TIER2_004", "rotation": [0.7071068286895752, 0, 0, 0.7071068286895752], "scale": [0.009999999776482582, 0.009999999776482582, 0.009999999776482582]}], "materials": [{"doubleSided": true, "name": "MI_tlhjacuva", "normalTexture": {"index": 0}, "occlusionTexture": {"index": 1}, "pbrMetallicRoughness": {"baseColorTexture": {"index": 2}, "metallicRoughnessTexture": {"index": 1}}}], "meshes": [{"name": "S_tlhjacuva_tier_2", "primitives": [{"attributes": {"POSITION": 0, "NORMAL": 1, "TEXCOORD_0": 2, "TANGENT": 3}, "indices": 4, "material": 0}]}, {"name": "S_tlhjacuva_tier_2.001", "primitives": [{"attributes": {"POSITION": 5, "NORMAL": 6, "TEXCOORD_0": 7, "TANGENT": 8}, "indices": 9, "material": 0}]}, {"name": "S_tlhjacuva_tier_2.002", "primitives": [{"attributes": {"POSITION": 10, "NORMAL": 11, "TEXCOORD_0": 12, "TANGENT": 13}, "indices": 14, "material": 0}]}, {"name": "S_tlhjacuva_tier_2.003", "primitives": [{"attributes": {"POSITION": 15, "NORMAL": 16, "TEXCOORD_0": 17, "TANGENT": 18}, "indices": 19, "material": 0}]}, {"name": "S_tlhjacuva_tier_2.004", "primitives": [{"attributes": {"POSITION": 20, "NORMAL": 21, "TEXCOORD_0": 22, "TANGENT": 23}, "indices": 24, "material": 0}]}], "textures": [{"sampler": 0, "source": 0}, {"sampler": 0, "source": 1}, {"sampler": 0, "source": 2}], "images": [{"mimeType": "image/jpeg", "name": "T_tlhjacuva_2K_N", "uri": "t0.jpg"}, {"mimeType": "image/jpeg", "name": "T_tlhjacuva_2K_ORM", "uri": "t1.jpg", "extras": {"compression": "mask"}}, {"mimeType": "image/jpeg", "name": "T_tlhjacuva_2K_B", "uri": "t2.jpg"}], "accessors": [{"bufferView": 0, "componentType": 5126, "count": 1380, "max": [4.238979816436768, 3.4408011436462402, 1.5120277404785156], "min": [-4.246158123016357, -3.4340097904205322, -1.5071927309036255], "type": "VEC3"}, {"bufferView": 1, "componentType": 5126, "count": 1380, "type": "VEC3"}, {"bufferView": 2, "componentType": 5126, "count": 1380, "type": "VEC2"}, {"bufferView": 3, "componentType": 5126, "count": 1380, "type": "VEC4"}, {"bufferView": 4, "componentType": 5123, "count": 7134, "type": "SCALAR"}, {"bufferView": 5, "componentType": 5126, "count": 1308, "max": [4.231211185455322, 2.852348804473877, 2.037480115890503], "min": [-4.180711269378662, -2.8540079593658447, -2.056722402572632], "type": "VEC3"}, {"bufferView": 6, "componentType": 5126, "count": 1308, "type": "VEC3"}, {"bufferView": 7, "componentType": 5126, "count": 1308, "type": "VEC2"}, {"bufferView": 8, "componentType": 5126, "count": 1308, "type": "VEC4"}, {"bufferView": 9, "componentType": 5123, "count": 6384, "type": "SCALAR"}, {"bufferView": 10, "componentType": 5126, "count": 1306, "max": [8.204840660095215, 6.772138595581055, 2.0015907287597656], "min": [-8.185020446777344, -6.772153854370117, -2.016903877258301], "type": "VEC3"}, {"bufferView": 11, "componentType": 5126, "count": 1306, "type": "VEC3"}, {"bufferView": 12, "componentType": 5126, "count": 1306, "type": "VEC2"}, {"bufferView": 13, "componentType": 5126, "count": 1306, "type": "VEC4"}, {"bufferView": 14, "componentType": 5123, "count": 6324, "type": "SCALAR"}, {"bufferView": 15, "componentType": 5126, "count": 1282, "max": [6.1077165603637695, 4.718382835388184, 1.2690678834915161], "min": [-6.068429946899414, -4.7279815673828125, -1.2696202993392944], "type": "VEC3"}, {"bufferView": 16, "componentType": 5126, "count": 1282, "type": "VEC3"}, {"bufferView": 17, "componentType": 5126, "count": 1282, "type": "VEC2"}, {"bufferView": 18, "componentType": 5126, "count": 1282, "type": "VEC4"}, {"bufferView": 19, "componentType": 5123, "count": 6384, "type": "SCALAR"}, {"bufferView": 20, "componentType": 5126, "count": 1632, "max": [4.585541248321533, 2.745074510574341, 1.5093542337417603], "min": [-4.583379745483398, -2.757434606552124, -1.5040013790130615], "type": "VEC3"}, {"bufferView": 21, "componentType": 5126, "count": 1632, "type": "VEC3"}, {"bufferView": 22, "componentType": 5126, "count": 1632, "type": "VEC2"}, {"bufferView": 23, "componentType": 5126, "count": 1632, "type": "VEC4"}, {"bufferView": 24, "componentType": 5123, "count": 8112, "type": "SCALAR"}], "bufferViews": [{"buffer": 0, "byteLength": 16560, "byteOffset": 0, "target": 34962}, {"buffer": 0, "byteLength": 16560, "byteOffset": 16560, "target": 34962}, {"buffer": 0, "byteLength": 11040, "byteOffset": 33120, "target": 34962}, {"buffer": 0, "byteLength": 22080, "byteOffset": 44160, "target": 34962}, {"buffer": 0, "byteLength": 14268, "byteOffset": 66240, "target": 34963}, {"buffer": 0, "byteLength": 15696, "byteOffset": 80508, "target": 34962}, {"buffer": 0, "byteLength": 15696, "byteOffset": 96204, "target": 34962}, {"buffer": 0, "byteLength": 10464, "byteOffset": 111900, "target": 34962}, {"buffer": 0, "byteLength": 20928, "byteOffset": 122364, "target": 34962}, {"buffer": 0, "byteLength": 12768, "byteOffset": 143292, "target": 34963}, {"buffer": 0, "byteLength": 15672, "byteOffset": 156060, "target": 34962}, {"buffer": 0, "byteLength": 15672, "byteOffset": 171732, "target": 34962}, {"buffer": 0, "byteLength": 10448, "byteOffset": 187404, "target": 34962}, {"buffer": 0, "byteLength": 20896, "byteOffset": 197852, "target": 34962}, {"buffer": 0, "byteLength": 12648, "byteOffset": 218748, "target": 34963}, {"buffer": 0, "byteLength": 15384, "byteOffset": 231396, "target": 34962}, {"buffer": 0, "byteLength": 15384, "byteOffset": 246780, "target": 34962}, {"buffer": 0, "byteLength": 10256, "byteOffset": 262164, "target": 34962}, {"buffer": 0, "byteLength": 20512, "byteOffset": 272420, "target": 34962}, {"buffer": 0, "byteLength": 12768, "byteOffset": 292932, "target": 34963}, {"buffer": 0, "byteLength": 19584, "byteOffset": 305700, "target": 34962}, {"buffer": 0, "byteLength": 19584, "byteOffset": 325284, "target": 34962}, {"buffer": 0, "byteLength": 13056, "byteOffset": 344868, "target": 34962}, {"buffer": 0, "byteLength": 26112, "byteOffset": 357924, "target": 34962}, {"buffer": 0, "byteLength": 16224, "byteOffset": 384036, "target": 34963}], "samplers": [{"magFilter": 9729, "minFilter": 9987}], "buffers": [{"byteLength": 400260, "uri": "model.bin"}]}