{"asset": {"generator": "Khronos glTF Blender I/O v3.6.27", "version": "2.0"}, "scene": 0, "scenes": [{"name": "Scene", "nodes": [0]}], "nodes": [{"mesh": 0, "name": "ujijbfhba_LOD0_TIER2_000", "rotation": [0.7071068286895752, 0, 0, 0.7071068286895752], "scale": [0.009999999776482582, 0.009999999776482582, 0.009999999776482582]}], "materials": [{"doubleSided": true, "name": "MI_ujijbfhba", "normalTexture": {"index": 0}, "occlusionTexture": {"index": 1}, "pbrMetallicRoughness": {"baseColorTexture": {"index": 2}, "metallicRoughnessTexture": {"index": 1}}}], "meshes": [{"name": "S_ujijbfhba_tier_2", "primitives": [{"attributes": {"POSITION": 0, "NORMAL": 1, "TEXCOORD_0": 2, "TANGENT": 3}, "indices": 4, "material": 0}]}], "textures": [{"sampler": 0, "source": 0}, {"sampler": 0, "source": 1}, {"sampler": 0, "source": 2}], "images": [{"mimeType": "image/jpeg", "name": "T_ujijbfhba_2K_N", "uri": "t0.jpg"}, {"mimeType": "image/jpeg", "name": "T_ujijbfhba_2K_ORM", "uri": "t1.jpg", "extras": {"compression": "mask"}}, {"mimeType": "image/jpeg", "name": "T_ujijbfhba_2K_B", "uri": "t2.jpg"}], "accessors": [{"bufferView": 0, "componentType": 5126, "count": 8570, "max": [30.987268447875977, 33.884944915771484, 0.6246674060821533], "min": [-31.562877655029297, -33.41520309448242, -125.53246307373047], "type": "VEC3"}, {"bufferView": 1, "componentType": 5126, "count": 8570, "type": "VEC3"}, {"bufferView": 2, "componentType": 5126, "count": 8570, "type": "VEC2"}, {"bufferView": 3, "componentType": 5126, "count": 8570, "type": "VEC4"}, {"bufferView": 4, "componentType": 5123, "count": 44016, "type": "SCALAR"}], "bufferViews": [{"buffer": 0, "byteLength": 102840, "byteOffset": 0, "target": 34962}, {"buffer": 0, "byteLength": 102840, "byteOffset": 102840, "target": 34962}, {"buffer": 0, "byteLength": 68560, "byteOffset": 205680, "target": 34962}, {"buffer": 0, "byteLength": 137120, "byteOffset": 274240, "target": 34962}, {"buffer": 0, "byteLength": 88032, "byteOffset": 411360, "target": 34963}], "samplers": [{"magFilter": 9729, "minFilter": 9987}], "buffers": [{"byteLength": 499392, "uri": "model.bin"}]}