{"asset": {"generator": "Khronos glTF Blender I/O v3.6.27", "version": "2.0"}, "scene": 0, "scenes": [{"name": "Scene", "nodes": [0]}], "nodes": [{"mesh": 0, "name": "ubitfhtfa_LOD0_TIER2_000", "rotation": [0.7071068286895752, 0, 0, 0.7071068286895752], "scale": [0.009999999776482582, 0.009999999776482582, 0.009999999776482582]}], "materials": [{"doubleSided": true, "name": "MI_ubitfhtfa", "normalTexture": {"index": 0}, "occlusionTexture": {"index": 1}, "pbrMetallicRoughness": {"baseColorTexture": {"index": 2}, "metallicRoughnessTexture": {"index": 1}}}], "meshes": [{"name": "S_ubitfhtfa_tier_2", "primitives": [{"attributes": {"POSITION": 0, "NORMAL": 1, "TEXCOORD_0": 2, "TANGENT": 3}, "indices": 4, "material": 0}]}], "textures": [{"sampler": 0, "source": 0}, {"sampler": 0, "source": 1}, {"sampler": 0, "source": 2}], "images": [{"mimeType": "image/jpeg", "name": "T_ubitfhtfa_2K_N", "uri": "t0.jpg"}, {"mimeType": "image/jpeg", "name": "T_ubitfhtfa_2K_ORM", "uri": "t1.jpg", "extras": {"compression": "mask"}}, {"mimeType": "image/jpeg", "name": "T_ubitfhtfa_2K_B", "uri": "t2.jpg"}], "accessors": [{"bufferView": 0, "componentType": 5126, "count": 4808, "max": [269.5220947265625, 27.529823303222656, 0.7774109244346619], "min": [-269.4958190917969, -27.501953125, -89.34532165527344], "type": "VEC3"}, {"bufferView": 1, "componentType": 5126, "count": 4808, "type": "VEC3"}, {"bufferView": 2, "componentType": 5126, "count": 4808, "type": "VEC2"}, {"bufferView": 3, "componentType": 5126, "count": 4808, "type": "VEC4"}, {"bufferView": 4, "componentType": 5123, "count": 26460, "type": "SCALAR"}], "bufferViews": [{"buffer": 0, "byteLength": 57696, "byteOffset": 0, "target": 34962}, {"buffer": 0, "byteLength": 57696, "byteOffset": 57696, "target": 34962}, {"buffer": 0, "byteLength": 38464, "byteOffset": 115392, "target": 34962}, {"buffer": 0, "byteLength": 76928, "byteOffset": 153856, "target": 34962}, {"buffer": 0, "byteLength": 52920, "byteOffset": 230784, "target": 34963}], "samplers": [{"magFilter": 9729, "minFilter": 9987}], "buffers": [{"byteLength": 283704, "uri": "model.bin"}]}