{"accessors": [{"bufferView": 2, "componentType": 5126, "count": 132, "max": [62.5625, 112.7520980834961, 136.29559326171875], "min": [-63.4375, -95.125, 0.0], "type": "VEC3"}, {"bufferView": 2, "byteOffset": 1584, "componentType": 5126, "count": 132, "max": [1.0, 1.0, 1.0], "min": [-1.0, -1.0, -1.0], "type": "VEC3"}, {"bufferView": 3, "componentType": 5126, "count": 132, "max": [9.052671885001473e-06, 0.25881898403167725, 1.0, 1.0], "min": [-0.965925931930542, -0.5519371032714844, -1.0, -1.0], "type": "VEC4"}, {"bufferView": 1, "componentType": 5126, "count": 132, "max": [1.0039210319519043, 3.2130720615386963], "min": [-1.1228760480880737, -3.1189539432525635], "type": "VEC2"}, {"bufferView": 0, "componentType": 5125, "count": 324, "type": "SCALAR"}, {"bufferView": 2, "byteOffset": 3168, "componentType": 5126, "count": 1024, "max": [62.5625, 104.125, 142.29559326171875], "min": [-63.4375, -104.125, 0.0], "type": "VEC3"}, {"bufferView": 2, "byteOffset": 15456, "componentType": 5126, "count": 1024, "max": [1.0, 1.0, 1.0], "min": [-1.0, -1.0, -1.0], "type": "VEC3"}, {"bufferView": 3, "byteOffset": 2112, "componentType": 5126, "count": 1024, "max": [1.0, 1.0, 1.0, 1.0], "min": [-1.0, -1.0, -1.0, -1.0], "type": "VEC4"}, {"bufferView": 1, "byteOffset": 1056, "componentType": 5126, "count": 1024, "max": [0.92975252866745, 4.271612167358398], "min": [-0.10255970060825348, -4.271612167358398], "type": "VEC2"}, {"bufferView": 0, "byteOffset": 1296, "componentType": 5125, "count": 1680, "type": "SCALAR"}, {"bufferView": 2, "byteOffset": 27744, "componentType": 5126, "count": 480, "max": [62.5625, 112.7520980834961, 142.29559326171875], "min": [-63.4375, -104.125, 0.5], "type": "VEC3"}, {"bufferView": 2, "byteOffset": 33504, "componentType": 5126, "count": 480, "max": [1.0, 1.0, 1.0], "min": [-1.0, -1.0, -1.0], "type": "VEC3"}, {"bufferView": 3, "byteOffset": 18496, "componentType": 5126, "count": 480, "max": [1.0, 0.5519370436668396, 1.0, 1.0], "min": [-1.0, -0.46025311946868896, -1.0, -1.0], "type": "VEC4"}, {"bufferView": 1, "byteOffset": 9248, "componentType": 5126, "count": 480, "max": [1.812880039215088, 2.976979970932007], "min": [-1.0690629482269287, -0.05858179181814194], "type": "VEC2"}, {"bufferView": 0, "byteOffset": 8016, "componentType": 5125, "count": 792, "type": "SCALAR"}, {"bufferView": 2, "byteOffset": 39264, "componentType": 5126, "count": 4, "max": [10.554465293884277, 96.125, 98.38684844970703], "min": [7.510365009307861, 95.125, 98.38684844970703], "type": "VEC3"}, {"bufferView": 2, "byteOffset": 39312, "componentType": 5126, "count": 4, "max": [0.0, 0.0, -1.0], "min": [0.0, 0.0, -1.0], "type": "VEC3"}, {"bufferView": 0, "byteOffset": 11184, "componentType": 5125, "count": 6, "type": "SCALAR"}], "asset": {"extras": {"author": "jimbogies (https://sketchfab.com/jimbogies)", "license": "CC-BY-4.0 (http://creativecommons.org/licenses/by/4.0/)", "source": "https://sketchfab.com/3d-models/simple-old-shed-f9e2f13c6b5e4e1192f44eb742dabd13", "title": "Simple Old Shed"}, "generator": "Sketchfab-16.31.0", "version": "2.0"}, "bufferViews": [{"buffer": 0, "byteLength": 11208, "name": "floatBufferViews", "target": 34963}, {"buffer": 0, "byteLength": 13088, "byteOffset": 11208, "byteStride": 8, "name": "floatBufferViews", "target": 34962}, {"buffer": 0, "byteLength": 39360, "byteOffset": 24296, "byteStride": 12, "name": "floatBufferViews", "target": 34962}, {"buffer": 0, "byteLength": 26176, "byteOffset": 63656, "byteStride": 16, "name": "floatBufferViews", "target": 34962}], "buffers": [{"byteLength": 89832, "uri": "model.bin"}], "images": [{"uri": "t0.jpg", "mimeType": "image/jpeg"}, {"uri": "t1.jpg", "mimeType": "image/jpeg"}, {"uri": "t2.jpg", "mimeType": "image/jpeg"}, {"uri": "t3.jpg", "mimeType": "image/jpeg"}, {"uri": "t4.jpg", "mimeType": "image/jpeg"}, {"uri": "t5.jpg", "mimeType": "image/jpeg"}, {"uri": "t6.jpg", "mimeType": "image/jpeg"}, {"uri": "t7.jpg", "mimeType": "image/jpeg"}, {"uri": "t8.jpg", "mimeType": "image/jpeg"}], "materials": [{"name": "planks_albedo", "normalTexture": {"index": 2}, "pbrMetallicRoughness": {"baseColorTexture": {"index": 0}, "metallicFactor": 0.0, "metallicRoughnessTexture": {"index": 1}}}, {"name": "wood_albedo", "normalTexture": {"index": 5}, "pbrMetallicRoughness": {"baseColorTexture": {"index": 3}, "metallicFactor": 0.0, "metallicRoughnessTexture": {"index": 4}}}, {"name": "metal_albedo", "normalTexture": {"index": 8, "scale": 0.3946678694639831}, "pbrMetallicRoughness": {"baseColorTexture": {"index": 6}, "metallicFactor": 0.0, "metallicRoughnessTexture": {"index": 7}}}, {"name": "material", "pbrMetallicRoughness": {"metallicFactor": 0.0, "roughnessFactor": 0.6}}], "meshes": [{"name": "Material2", "primitives": [{"attributes": {"NORMAL": 1, "POSITION": 0, "TANGENT": 2, "TEXCOORD_0": 3}, "indices": 4, "material": 0, "mode": 4}]}, {"name": "Material2", "primitives": [{"attributes": {"NORMAL": 6, "POSITION": 5, "TANGENT": 7, "TEXCOORD_0": 8}, "indices": 9, "material": 1, "mode": 4}]}, {"name": "Material2", "primitives": [{"attributes": {"NORMAL": 11, "POSITION": 10, "TANGENT": 12, "TEXCOORD_0": 13}, "indices": 14, "material": 2, "mode": 4}]}, {"name": "Material2", "primitives": [{"attributes": {"NORMAL": 16, "POSITION": 15}, "indices": 17, "material": 3, "mode": 4}]}], "nodes": [{"children": [1], "matrix": [1.0, 0.0, 0.0, 0.0, 0.0, 2.220446049250313e-16, -1.0, 0.0, 0.0, 1.0, 2.220446049250313e-16, 0.0, 0.0, 0.0, 0.0, 1.0], "name": "Sketchfab_model"}, {"children": [2, 3, 4, 5, 6], "name": "Collada visual scene group"}, {"mesh": 0, "name": "Material2"}, {"mesh": 1, "name": "Material2"}, {"mesh": 2, "name": "Material2"}, {"mesh": 3, "name": "Material2"}, {"children": [7], "name": "SketchUp"}, {"children": [8], "matrix": [-0.8193072, 0.5733547, 0.0, 0.0, -0.02481964, -0.03546654, 0.9990626, 0.0, 0.5728173, 0.8185392, 0.04328845, 0.0, 179.2417, 299.0994, 82.28887, 1.0], "name": "skp_camera_Last_Saved_SketchUp_View"}, {"name": "ID1"}], "samplers": [{"magFilter": 9729, "minFilter": 9987, "wrapS": 10497, "wrapT": 10497}], "scene": 0, "scenes": [{"name": "Sketchfab_Scene", "nodes": [0]}], "textures": [{"sampler": 0, "source": 0}, {"sampler": 0, "source": 1}, {"sampler": 0, "source": 2}, {"sampler": 0, "source": 3}, {"sampler": 0, "source": 4}, {"sampler": 0, "source": 5}, {"sampler": 0, "source": 6}, {"sampler": 0, "source": 7}, {"sampler": 0, "source": 8}]}