{"asset":{"generator":"Khronos glTF Blender I/O v3.6.27","version":"2.0"},"scene":0,"scenes":[{"name":"Scene","nodes":[0,1,2,3,4,5,6,7,8,9,10,11,12,13,14,15,16,17,18,19,20,21,22,23,24,25,26,27,28,29,30,31,32]}],"nodes":[{"mesh":0,"name":"SM_ujzjfexja_VarA","rotation":[0.7071068286895752,0,0,0.7071068286895752],"scale":[0.009999999776482582,0.009999999776482582,0.009999999776482582]},{"mesh":1,"name":"SM_ujzjfexja_VarA_LOD1","rotation":[0.7071068286895752,0,0,0.7071068286895752],"scale":[0.009999999776482582,0.009999999776482582,0.009999999776482582],"extras":{"lod":{"index":1,"mesh":"SM_ujzjfexja_VarA"}}},{"mesh":2,"name":"SM_ujzjfexja_VarA_LOD2","rotation":[0.7071068286895752,0,0,0.7071068286895752],"scale":[0.009999999776482582,0.009999999776482582,0.009999999776482582],"extras":{"lod":{"index":2,"mesh":"SM_ujzjfexja_VarA"}}},{"mesh":3,"name":"SM_ujzjfexja_VarB","rotation":[0.7071068286895752,0,0,0.7071068286895752],"scale":[0.009999999776482582,0.009999999776482582,0.009999999776482582]},{"mesh":4,"name":"SM_ujzjfexja_VarB_LOD1","rotation":[0.7071068286895752,0,0,0.7071068286895752],"scale":[0.009999999776482582,0.009999999776482582,0.009999999776482582],"extras":{"lod":{"index":1,"mesh":"SM_ujzjfexja_VarB"}}},{"mesh":5,"name":"SM_ujzjfexja_VarB_LOD2","rotation":[0.7071068286895752,0,0,0.7071068286895752],"scale":[0.009999999776482582,0.009999999776482582,0.009999999776482582],"extras":{"lod":{"index":2,"mesh":"SM_ujzjfexja_VarB"}}},{"mesh":6,"name":"SM_ujzjfexja_VarC","rotation":[0.7071068286895752,0,0,0.7071068286895752],"scale":[0.009999999776482582,0.009999999776482582,0.009999999776482582]},{"mesh":7,"name":"SM_ujzjfexja_VarC_LOD1","rotation":[0.7071068286895752,0,0,0.7071068286895752],"scale":[0.009999999776482582,0.009999999776482582,0.009999999776482582],"extras":{"lod":{"index":1,"mesh":"SM_ujzjfexja_VarC"}}},{"mesh":8,"name":"SM_ujzjfexja_VarC_LOD2","rotation":[0.7071068286895752,0,0,0.7071068286895752],"scale":[0.009999999776482582,0.009999999776482582,0.009999999776482582],"extras":{"lod":{"index":2,"mesh":"SM_ujzjfexja_VarC"}}},{"mesh":9,"name":"SM_ujzjfexja_VarD","rotation":[0.7071068286895752,0,0,0.7071068286895752],"scale":[0.009999999776482582,0.009999999776482582,0.009999999776482582]},{"mesh":10,"name":"SM_ujzjfexja_VarD_LOD1","rotation":[0.7071068286895752,0,0,0.7071068286895752],"scale":[0.009999999776482582,0.009999999776482582,0.009999999776482582],"extras":{"lod":{"index":1,"mesh":"SM_ujzjfexja_VarD"}}},{"mesh":11,"name":"SM_ujzjfexja_VarD_LOD2","rotation":[0.7071068286895752,0,0,0.7071068286895752],"scale":[0.009999999776482582,0.009999999776482582,0.009999999776482582],"extras":{"lod":{"index":2,"mesh":"SM_ujzjfexja_VarD"}}},{"mesh":12,"name":"SM_ujzjfexja_VarE","rotation":[0.7071068286895752,0,0,0.7071068286895752],"scale":[0.009999999776482582,0.009999999776482582,0.009999999776482582]},{"mesh":13,"name":"SM_ujzjfexja_VarE_LOD1","rotation":[0.7071068286895752,0,0,0.7071068286895752],"scale":[0.009999999776482582,0.009999999776482582,0.009999999776482582],"extras":{"lod":{"index":1,"mesh":"SM_ujzjfexja_VarE"}}},{"mesh":14,"name":"SM_ujzjfexja_VarE_LOD2","rotation":[0.7071068286895752,0,0,0.7071068286895752],"scale":[0.009999999776482582,0.009999999776482582,0.009999999776482582],"extras":{"lod":{"index":2,"mesh":"SM_ujzjfexja_VarE"}}},{"mesh":15,"name":"SM_ujzjfexja_VarF","rotation":[0.7071068286895752,0,0,0.7071068286895752],"scale":[0.009999999776482582,0.009999999776482582,0.009999999776482582]},{"mesh":16,"name":"SM_ujzjfexja_VarF_LOD1","rotation":[0.7071068286895752,0,0,0.7071068286895752],"scale":[0.009999999776482582,0.009999999776482582,0.009999999776482582],"extras":{"lod":{"index":1,"mesh":"SM_ujzjfexja_VarF"}}},{"mesh":17,"name":"SM_ujzjfexja_VarF_LOD2","rotation":[0.7071068286895752,0,0,0.7071068286895752],"scale":[0.009999999776482582,0.009999999776482582,0.009999999776482582],"extras":{"lod":{"index":2,"mesh":"SM_ujzjfexja_VarF"}}},{"mesh":18,"name":"SM_ujzjfexja_VarG","rotation":[0.7071068286895752,0,0,0.7071068286895752],"scale":[0.009999999776482582,0.009999999776482582,0.009999999776482582]},{"mesh":19,"name":"SM_ujzjfexja_VarG_LOD1","rotation":[0.7071068286895752,0,0,0.7071068286895752],"scale":[0.009999999776482582,0.009999999776482582,0.009999999776482582],"extras":{"lod":{"index":1,"mesh":"SM_ujzjfexja_VarG"}}},{"mesh":20,"name":"SM_ujzjfexja_VarG_LOD2","rotation":[0.7071068286895752,0,0,0.7071068286895752],"scale":[0.009999999776482582,0.009999999776482582,0.009999999776482582],"extras":{"lod":{"index":2,"mesh":"SM_ujzjfexja_VarG"}}},{"mesh":21,"name":"SM_ujzjfexja_VarH","rotation":[0.7071068286895752,0,0,0.7071068286895752],"scale":[0.009999999776482582,0.009999999776482582,0.009999999776482582]},{"mesh":22,"name":"SM_ujzjfexja_VarH_LOD1","rotation":[0.7071068286895752,0,0,0.7071068286895752],"scale":[0.009999999776482582,0.009999999776482582,0.009999999776482582],"extras":{"lod":{"index":1,"mesh":"SM_ujzjfexja_VarH"}}},{"mesh":23,"name":"SM_ujzjfexja_VarH_LOD2","rotation":[0.7071068286895752,0,0,0.7071068286895752],"scale":[0.009999999776482582,0.009999999776482582,0.009999999776482582],"extras":{"lod":{"index":2,"mesh":"SM_ujzjfexja_VarH"}}},{"mesh":24,"name":"SM_ujzjfexja_VarI","rotation":[0.7071068286895752,0,0,0.7071068286895752],"scale":[0.009999999776482582,0.009999999776482582,0.009999999776482582]},{"mesh":25,"name":"SM_ujzjfexja_VarI_LOD1","rotation":[0.7071068286895752,0,0,0.7071068286895752],"scale":[0.009999999776482582,0.009999999776482582,0.009999999776482582],"extras":{"lod":{"index":1,"mesh":"SM_ujzjfexja_VarI"}}},{"mesh":26,"name":"SM_ujzjfexja_VarI_LOD2","rotation":[0.7071068286895752,0,0,0.7071068286895752],"scale":[0.009999999776482582,0.009999999776482582,0.009999999776482582],"extras":{"lod":{"index":2,"mesh":"SM_ujzjfexja_VarI"}}},{"mesh":27,"name":"SM_ujzjfexja_VarJ","rotation":[0.7071068286895752,0,0,0.7071068286895752],"scale":[0.009999999776482582,0.009999999776482582,0.009999999776482582]},{"mesh":28,"name":"SM_ujzjfexja_VarJ_LOD1","rotation":[0.7071068286895752,0,0,0.7071068286895752],"scale":[0.009999999776482582,0.009999999776482582,0.009999999776482582],"extras":{"lod":{"index":1,"mesh":"SM_ujzjfexja_VarJ"}}},{"mesh":29,"name":"SM_ujzjfexja_VarJ_LOD2","rotation":[0.7071068286895752,0,0,0.7071068286895752],"scale":[0.009999999776482582,0.009999999776482582,0.009999999776482582],"extras":{"lod":{"index":2,"mesh":"SM_ujzjfexja_VarJ"}}},{"mesh":30,"name":"SM_ujzjfexja_VarK","rotation":[0.7071068286895752,0,0,0.7071068286895752],"scale":[0.009999999776482582,0.009999999776482582,0.009999999776482582]},{"mesh":31,"name":"SM_ujzjfexja_VarK_LOD1","rotation":[0.7071068286895752,0,0,0.7071068286895752],"scale":[0.009999999776482582,0.009999999776482582,0.009999999776482582],"extras":{"lod":{"index":1,"mesh":"SM_ujzjfexja_VarK"}}},{"mesh":32,"name":"SM_ujzjfexja_VarK_LOD2","rotation":[0.7071068286895752,0,0,0.7071068286895752],"scale":[0.009999999776482582,0.009999999776482582,0.009999999776482582],"extras":{"lod":{"index":2,"mesh":"SM_ujzjfexja_VarK"}}}],"materials":[{"alphaMode":"MASK","doubleSided":true,"name":"MI_ujzjfexja","normalTexture":{"index":0},"pbrMetallicRoughness":{"baseColorTexture":{"index":2},"metallicRoughnessTexture":{"index":1},"metallicFactor":0},"extras":{"params":[{"Name":"Health Offset","Value":13},{"Name":"Tint Translucency","Value":true},{"Name":"use Growth Effect","Value":false},{"Name":"Base Color Controls","Value":[0.8999999761581421,0.800000011920929,1.2000000476837158,0]},{"Name":"Translucency Tint","Value":[0.3871519863605499,0.5052080154418945,0.21576599776744843,1]},{"Name":"Translucency Controls","Value":[0.8999999761581421,5,0.6000000238418579,0]}]},"alphaCutoff":0.5},{"alphaMode":"MASK","doubleSided":true,"name":"MI_ujzjfexja_Billboard","normalTexture":{"index":3},"pbrMetallicRoughness":{"baseColorTexture":{"index":4},"metallicFactor":0,"roughnessFactor":0.8},"extras":{"billboardFacingCamera":true,"params":[{"Name":"is Camera Facing Billboard","Value":true},{"Name":"is Billboard","Value":true},{"Name":"Tint Translucency","Value":true},{"Name":"Base Color Controls","Value":[0.8999999761581421,0.800000011920929,1.2000000476837158,0]},{"Name":"Translucency Tint","Value":[0.5898119807243347,0.8020830154418945,0.28165099024772644,1]},{"Name":"Translucency Controls","Value":[0.8999999761581421,5,0.6000000238418579,0]}]},"alphaCutoff":0.5}],"meshes":[{"name":"SM_ujzjfexja_VarA","primitives":[{"attributes":{"COLOR_0":0,"POSITION":1,"TEXCOORD_0":2,"TEXCOORD_1":3},"indices":4,"material":0}]},{"name":"SM_ujzjfexja_VarA_LOD1","primitives":[{"attributes":{"COLOR_0":5,"POSITION":6,"TEXCOORD_0":7,"TEXCOORD_1":8},"indices":9,"material":0}]},{"name":"SM_ujzjfexja_VarA_LOD2","primitives":[{"attributes":{"COLOR_0":10,"POSITION":11,"TEXCOORD_0":12},"indices":13,"material":1}]},{"name":"SM_ujzjfexja_VarB","primitives":[{"attributes":{"COLOR_0":14,"POSITION":15,"TEXCOORD_0":16,"TEXCOORD_1":17},"indices":18,"material":0}]},{"name":"SM_ujzjfexja_VarB_LOD1","primitives":[{"attributes":{"COLOR_0":19,"POSITION":20,"TEXCOORD_0":21,"TEXCOORD_1":22},"indices":23,"material":0}]},{"name":"SM_ujzjfexja_VarB_LOD2","primitives":[{"attributes":{"COLOR_0":24,"POSITION":25,"TEXCOORD_0":26},"indices":27,"material":1}]},{"name":"SM_ujzjfexja_VarC","primitives":[{"attributes":{"COLOR_0":28,"POSITION":29,"TEXCOORD_0":30,"TEXCOORD_1":31},"indices":32,"material":0}]},{"name":"SM_ujzjfexja_VarC_LOD1","primitives":[{"attributes":{"COLOR_0":33,"POSITION":34,"TEXCOORD_0":35,"TEXCOORD_1":36},"indices":37,"material":0}]},{"name":"SM_ujzjfexja_VarC_LOD2","primitives":[{"attributes":{"COLOR_0":38,"POSITION":39,"TEXCOORD_0":40},"indices":27,"material":1}]},{"name":"SM_ujzjfexja_VarD","primitives":[{"attributes":{"COLOR_0":41,"POSITION":42,"TEXCOORD_0":43,"TEXCOORD_1":44},"indices":45,"material":0}]},{"name":"SM_ujzjfexja_VarD_LOD1","primitives":[{"attributes":{"COLOR_0":46,"POSITION":47,"TEXCOORD_0":48,"TEXCOORD_1":49},"indices":50,"material":0}]},{"name":"SM_ujzjfexja_VarD_LOD2","primitives":[{"attributes":{"COLOR_0":51,"POSITION":52,"TEXCOORD_0":53},"indices":54,"material":1}]},{"name":"SM_ujzjfexja_VarE","primitives":[{"attributes":{"COLOR_0":55,"POSITION":56,"TEXCOORD_0":57,"TEXCOORD_1":58},"indices":59,"material":0}]},{"name":"SM_ujzjfexja_VarE_LOD1","primitives":[{"attributes":{"COLOR_0":60,"POSITION":61,"TEXCOORD_0":62,"TEXCOORD_1":63},"indices":64,"material":0}]},{"name":"SM_ujzjfexja_VarE_LOD2","primitives":[{"attributes":{"COLOR_0":65,"POSITION":66,"TEXCOORD_0":67},"indices":54,"material":1}]},{"name":"SM_ujzjfexja_VarF","primitives":[{"attributes":{"COLOR_0":68,"POSITION":69,"TEXCOORD_0":70,"TEXCOORD_1":71},"indices":72,"material":0}]},{"name":"SM_ujzjfexja_VarF_LOD1","primitives":[{"attributes":{"COLOR_0":73,"POSITION":74,"TEXCOORD_0":75,"TEXCOORD_1":76},"indices":77,"material":0}]},{"name":"SM_ujzjfexja_VarF_LOD2","primitives":[{"attributes":{"COLOR_0":78,"POSITION":79,"TEXCOORD_0":80},"indices":54,"material":1}]},{"name":"SM_ujzjfexja_VarG","primitives":[{"attributes":{"COLOR_0":81,"POSITION":82,"TEXCOORD_0":83,"TEXCOORD_1":84},"indices":85,"material":0}]},{"name":"SM_ujzjfexja_VarG_LOD1","primitives":[{"attributes":{"COLOR_0":86,"POSITION":87,"TEXCOORD_0":88,"TEXCOORD_1":89},"indices":90,"material":0}]},{"name":"SM_ujzjfexja_VarG_LOD2","primitives":[{"attributes":{"COLOR_0":91,"POSITION":92,"TEXCOORD_0":93},"indices":54,"material":1}]},{"name":"SM_ujzjfexja_VarH","primitives":[{"attributes":{"COLOR_0":94,"POSITION":95,"TEXCOORD_0":96,"TEXCOORD_1":97},"indices":98,"material":0}]},{"name":"SM_ujzjfexja_VarH_LOD1","primitives":[{"attributes":{"COLOR_0":99,"POSITION":100,"TEXCOORD_0":101,"TEXCOORD_1":102},"indices":103,"material":0}]},{"name":"SM_ujzjfexja_VarH_LOD2","primitives":[{"attributes":{"COLOR_0":104,"POSITION":105,"TEXCOORD_0":106},"indices":13,"material":1}]},{"name":"SM_ujzjfexja_VarI","primitives":[{"attributes":{"COLOR_0":107,"POSITION":108,"TEXCOORD_0":109,"TEXCOORD_1":110},"indices":111,"material":0}]},{"name":"SM_ujzjfexja_VarI_LOD1","primitives":[{"attributes":{"COLOR_0":112,"POSITION":113,"TEXCOORD_0":114,"TEXCOORD_1":115},"indices":116,"material":0}]},{"name":"SM_ujzjfexja_VarI_LOD2","primitives":[{"attributes":{"COLOR_0":117,"POSITION":118,"TEXCOORD_0":119},"indices":120,"material":1}]},{"name":"SM_ujzjfexja_VarJ","primitives":[{"attributes":{"COLOR_0":121,"POSITION":122,"TEXCOORD_0":123,"TEXCOORD_1":124},"indices":125,"material":0}]},{"name":"SM_ujzjfexja_VarJ_LOD1","primitives":[{"attributes":{"COLOR_0":126,"POSITION":127,"TEXCOORD_0":128,"TEXCOORD_1":129},"indices":130,"material":0}]},{"name":"SM_ujzjfexja_VarJ_LOD2","primitives":[{"attributes":{"COLOR_0":131,"POSITION":132,"TEXCOORD_0":133},"indices":13,"material":1}]},{"name":"SM_ujzjfexja_VarK","primitives":[{"attributes":{"COLOR_0":134,"POSITION":135,"TEXCOORD_0":136,"TEXCOORD_1":137},"indices":138,"material":0}]},{"name":"SM_ujzjfexja_VarK_LOD1","primitives":[{"attributes":{"COLOR_0":139,"POSITION":140,"TEXCOORD_0":141,"TEXCOORD_1":142},"indices":143,"material":0}]},{"name":"SM_ujzjfexja_VarK_LOD2","primitives":[{"attributes":{"COLOR_0":144,"POSITION":145,"TEXCOORD_0":146},"indices":147,"material":1}]}],"textures":[{"sampler":0,"source":0},{"sampler":0,"source":1},{"sampler":0,"source":2},{"sampler":0,"source":3},{"sampler":0,"source":4}],"images":[{"uri":"t0.jpg"},{"uri":"t1.jpg"},{"uri":"t2.png"},{"uri":"t3.png"},{"uri":"t4.png"}],"accessors":[{"bufferView":0,"componentType":5123,"count":81,"normalized":true,"type":"VEC4"},{"bufferView":1,"componentType":5126,"count":81,"max":[1.8662810325622559,3.5215086936950684,0.059167906641960144],"min":[-3.8627889156341553,-4.358193397521973,-7.476312637329102],"type":"VEC3"},{"bufferView":2,"componentType":5126,"count":81,"type":"VEC2"},{"bufferView":3,"componentType":5126,"count":81,"type":"VEC2"},{"bufferView":4,"componentType":5123,"count":240,"type":"SCALAR"},{"bufferView":5,"componentType":5123,"count":48,"normalized":true,"type":"VEC4"},{"bufferView":6,"componentType":5126,"count":48,"max":[1.9062082767486572,3.59010910987854,0.05917093902826309],"min":[-3.9826228618621826,-4.163690090179443,-6.9841227531433105],"type":"VEC3"},{"bufferView":7,"componentType":5126,"count":48,"type":"VEC2"},{"bufferView":8,"componentType":5126,"count":48,"type":"VEC2"},{"bufferView":9,"componentType":5123,"count":108,"type":"SCALAR"},{"bufferView":10,"componentType":5123,"count":4,"normalized":true,"type":"VEC4"},{"bufferView":11,"componentType":5126,"count":4,"max":[1.885379433631897,0,0.05916766822338104],"min":[-3.7570278644561768,0,-7.528086185455322],"type":"VEC3"},{"bufferView":12,"componentType":5126,"count":4,"type":"VEC2"},{"bufferView":13,"componentType":5123,"count":6,"type":"SCALAR"},{"bufferView":14,"componentType":5123,"count":213,"normalized":true,"type":"VEC4"},{"bufferView":15,"componentType":5126,"count":213,"max":[7.795277118682861,5.608661651611328,0.2283608317375183],"min":[-6.006948471069336,-7.531617641448975,-15.469924926757812],"type":"VEC3"},{"bufferView":16,"componentType":5126,"count":213,"type":"VEC2"},{"bufferView":17,"componentType":5126,"count":213,"type":"VEC2"},{"bufferView":18,"componentType":5123,"count":525,"type":"SCALAR"},{"bufferView":19,"componentType":5123,"count":151,"normalized":true,"type":"VEC4"},{"bufferView":20,"componentType":5126,"count":151,"max":[7.713662147521973,5.545373439788818,0.22833405435085297],"min":[-5.805792808532715,-6.81007719039917,-15.384276390075684],"type":"VEC3"},{"bufferView":21,"componentType":5126,"count":151,"type":"VEC2"},{"bufferView":22,"componentType":5126,"count":151,"type":"VEC2"},{"bufferView":23,"componentType":5123,"count":339,"type":"SCALAR"},{"bufferView":24,"componentType":5123,"count":6,"normalized":true,"type":"VEC4"},{"bufferView":25,"componentType":5126,"count":6,"max":[7.558584213256836,0,0.28463634848594666],"min":[-6.266531467437744,0,-15.49263858795166],"type":"VEC3"},{"bufferView":26,"componentType":5126,"count":6,"type":"VEC2"},{"bufferView":27,"componentType":5123,"count":12,"type":"SCALAR"},{"bufferView":28,"componentType":5123,"count":38,"normalized":true,"type":"VEC4"},{"bufferView":29,"componentType":5126,"count":38,"max":[5.2443318367004395,1.2543681859970093,0.384013295173645],"min":[-2.7141027450561523,-3.8521621227264404,-12.084243774414062],"type":"VEC3"},{"bufferView":30,"componentType":5126,"count":38,"type":"VEC2"},{"bufferView":31,"componentType":5126,"count":38,"type":"VEC2"},{"bufferView":32,"componentType":5123,"count":102,"type":"SCALAR"},{"bufferView":33,"componentType":5123,"count":15,"normalized":true,"type":"VEC4"},{"bufferView":34,"componentType":5126,"count":15,"max":[5.55974817276001,1.2312296628952026,0.35916954278945923],"min":[-2.678306818008423,-3.801586389541626,-12.233561515808105],"type":"VEC3"},{"bufferView":35,"componentType":5126,"count":15,"type":"VEC2"},{"bufferView":36,"componentType":5126,"count":15,"type":"VEC2"},{"bufferView":37,"componentType":5123,"count":33,"type":"SCALAR"},{"bufferView":38,"componentType":5123,"count":6,"normalized":true,"type":"VEC4"},{"bufferView":39,"componentType":5126,"count":6,"max":[5.1905646324157715,0,0.32454919815063477],"min":[-2.637282371520996,0,-12.314091682434082],"type":"VEC3"},{"bufferView":40,"componentType":5126,"count":6,"type":"VEC2"},{"bufferView":41,"componentType":5123,"count":252,"normalized":true,"type":"VEC4"},{"bufferView":42,"componentType":5126,"count":252,"max":[6.309637546539307,6.02132511138916,0.10580077022314072],"min":[-5.519589424133301,-6.309638023376465,-1.927565574645996],"type":"VEC3"},{"bufferView":43,"componentType":5126,"count":252,"type":"VEC2"},{"bufferView":44,"componentType":5126,"count":252,"type":"VEC2"},{"bufferView":45,"componentType":5123,"count":756,"type":"SCALAR"},{"bufferView":46,"componentType":5123,"count":168,"normalized":true,"type":"VEC4"},{"bufferView":47,"componentType":5126,"count":168,"max":[6.477689743041992,6.076428413391113,0.10580077022314072],"min":[-5.420011520385742,-6.477811813354492,-1.8083864450454712],"type":"VEC3"},{"bufferView":48,"componentType":5126,"count":168,"type":"VEC2"},{"bufferView":49,"componentType":5126,"count":168,"type":"VEC2"},{"bufferView":50,"componentType":5123,"count":378,"type":"SCALAR"},{"bufferView":51,"componentType":5123,"count":3,"normalized":true,"type":"VEC4"},{"bufferView":52,"componentType":5126,"count":3,"max":[6.329372406005859,0,-0.0327223464846611],"min":[-5.407839775085449,0,-1.1606954336166382],"type":"VEC3"},{"bufferView":53,"componentType":5126,"count":3,"type":"VEC2"},{"bufferView":54,"componentType":5123,"count":3,"type":"SCALAR"},{"bufferView":55,"componentType":5123,"count":216,"normalized":true,"type":"VEC4"},{"bufferView":56,"componentType":5126,"count":216,"max":[4.655276775360107,5.163325786590576,0.09912094473838806],"min":[-4.658474922180176,-5.113790988922119,-1.6866873502731323],"type":"VEC3"},{"bufferView":57,"componentType":5126,"count":216,"type":"VEC2"},{"bufferView":58,"componentType":5126,"count":216,"type":"VEC2"},{"bufferView":59,"componentType":5123,"count":648,"type":"SCALAR"},{"bufferView":60,"componentType":5123,"count":144,"normalized":true,"type":"VEC4"},{"bufferView":61,"componentType":5126,"count":144,"max":[4.750454425811768,5.333991050720215,0.09912094473838806],"min":[-4.778733253479004,-5.28076696395874,-1.6054447889328003],"type":"VEC3"},{"bufferView":62,"componentType":5126,"count":144,"type":"VEC2"},{"bufferView":63,"componentType":5126,"count":144,"type":"VEC2"},{"bufferView":64,"componentType":5123,"count":324,"type":"SCALAR"},{"bufferView":65,"componentType":5123,"count":3,"normalized":true,"type":"VEC4"},{"bufferView":66,"componentType":5126,"count":3,"max":[4.611254692077637,0,-0.8541072010993958],"min":[-4.660086154937744,0,-1.1115849018096924],"type":"VEC3"},{"bufferView":67,"componentType":5126,"count":3,"type":"VEC2"},{"bufferView":68,"componentType":5123,"count":121,"normalized":true,"type":"VEC4"},{"bufferView":69,"componentType":5126,"count":121,"max":[1.0806102752685547,1.3106977939605713,0.9286863803863525],"min":[-1.3633878231048584,-1.5969194173812866,-5.967634677886963],"type":"VEC3"},{"bufferView":70,"componentType":5126,"count":121,"type":"VEC2"},{"bufferView":71,"componentType":5126,"count":121,"type":"VEC2"},{"bufferView":72,"componentType":5123,"count":351,"type":"SCALAR"},{"bufferView":73,"componentType":5123,"count":78,"normalized":true,"type":"VEC4"},{"bufferView":74,"componentType":5126,"count":78,"max":[1.1317120790481567,1.3495157957077026,0.9301071166992188],"min":[-1.347672700881958,-1.6259878873825073,-5.967099666595459],"type":"VEC3"},{"bufferView":75,"componentType":5126,"count":78,"type":"VEC2"},{"bufferView":76,"componentType":5126,"count":78,"type":"VEC2"},{"bufferView":77,"componentType":5123,"count":174,"type":"SCALAR"},{"bufferView":78,"componentType":5123,"count":3,"normalized":true,"type":"VEC4"},{"bufferView":79,"componentType":5126,"count":3,"max":[0.04001408815383911,0,0.8319182991981506],"min":[-1.3643066883087158,0,-5.5735063552856445],"type":"VEC3"},{"bufferView":80,"componentType":5126,"count":3,"type":"VEC2"},{"bufferView":81,"componentType":5123,"count":120,"normalized":true,"type":"VEC4"},{"bufferView":82,"componentType":5126,"count":120,"max":[3.541792154312134,3.3279292583465576,0.021284641698002815],"min":[-2.210787773132324,-3.482898235321045,-7.964877605438232],"type":"VEC3"},{"bufferView":83,"componentType":5126,"count":120,"type":"VEC2"},{"bufferView":84,"componentType":5126,"count":120,"type":"VEC2"},{"bufferView":85,"componentType":5123,"count":360,"type":"SCALAR"},{"bufferView":86,"componentType":5123,"count":72,"normalized":true,"type":"VEC4"},{"bufferView":87,"componentType":5126,"count":72,"max":[3.8101327419281006,3.464725971221924,0.021285047754645348],"min":[-2.3622865676879883,-3.4886295795440674,-7.394715309143066],"type":"VEC3"},{"bufferView":88,"componentType":5126,"count":72,"type":"VEC2"},{"bufferView":89,"componentType":5126,"count":72,"type":"VEC2"},{"bufferView":90,"componentType":5123,"count":162,"type":"SCALAR"},{"bufferView":91,"componentType":5123,"count":3,"normalized":true,"type":"VEC4"},{"bufferView":92,"componentType":5126,"count":3,"max":[2.101433753967285,0,0.03816674277186394],"min":[-2.100114583969116,0,-7.818928241729736],"type":"VEC3"},{"bufferView":93,"componentType":5126,"count":3,"type":"VEC2"},{"bufferView":94,"componentType":5123,"count":185,"normalized":true,"type":"VEC4"},{"bufferView":95,"componentType":5126,"count":185,"max":[13.236676216125488,13.916633605957031,0.15374214947223663],"min":[-13.912728309631348,-13.23711109161377,-8.24969482421875],"type":"VEC3"},{"bufferView":96,"componentType":5126,"count":185,"type":"VEC2"},{"bufferView":97,"componentType":5126,"count":185,"type":"VEC2"},{"bufferView":98,"componentType":5123,"count":573,"type":"SCALAR"},{"bufferView":99,"componentType":5123,"count":124,"normalized":true,"type":"VEC4"},{"bufferView":100,"componentType":5126,"count":124,"max":[13.010677337646484,13.74783706665039,0.15374214947223663],"min":[-13.745054244995117,-13.010679244995117,-8.222014427185059],"type":"VEC3"},{"bufferView":101,"componentType":5126,"count":124,"type":"VEC2"},{"bufferView":102,"componentType":5126,"count":124,"type":"VEC2"},{"bufferView":103,"componentType":5123,"count":288,"type":"SCALAR"},{"bufferView":104,"componentType":5123,"count":4,"normalized":true,"type":"VEC4"},{"bufferView":105,"componentType":5126,"count":4,"max":[11.503746032714844,0,0.15374407172203064],"min":[-13.862249374389648,0,-8.281523704528809],"type":"VEC3"},{"bufferView":106,"componentType":5126,"count":4,"type":"VEC2"},{"bufferView":107,"componentType":5123,"count":182,"normalized":true,"type":"VEC4"},{"bufferView":108,"componentType":5126,"count":182,"max":[7.95578670501709,13.73873519897461,0.06690281629562378],"min":[-9.618119239807129,-12.604485511779785,-7.29528284072876],"type":"VEC3"},{"bufferView":109,"componentType":5126,"count":182,"type":"VEC2"},{"bufferView":110,"componentType":5126,"count":182,"type":"VEC2"},{"bufferView":111,"componentType":5123,"count":561,"type":"SCALAR"},{"bufferView":112,"componentType":5123,"count":122,"normalized":true,"type":"VEC4"},{"bufferView":113,"componentType":5126,"count":122,"max":[8.248793601989746,13.78622817993164,0.06696280092000961],"min":[-9.805205345153809,-12.371431350708008,-7.333808422088623],"type":"VEC3"},{"bufferView":114,"componentType":5126,"count":122,"type":"VEC2"},{"bufferView":115,"componentType":5126,"count":122,"type":"VEC2"},{"bufferView":116,"componentType":5123,"count":282,"type":"SCALAR"},{"bufferView":117,"componentType":5123,"count":7,"normalized":true,"type":"VEC4"},{"bufferView":118,"componentType":5126,"count":7,"max":[8.01062297821045,0,-0.004927616100758314],"min":[-9.703289031982422,0,-7.287392616271973],"type":"VEC3"},{"bufferView":119,"componentType":5126,"count":7,"type":"VEC2"},{"bufferView":120,"componentType":5123,"count":15,"type":"SCALAR"},{"bufferView":121,"componentType":5123,"count":177,"normalized":true,"type":"VEC4"},{"bufferView":122,"componentType":5126,"count":177,"max":[15.805931091308594,13.381227493286133,0.18240001797676086],"min":[-12.517521858215332,-15.81131362915039,-5.090095043182373],"type":"VEC3"},{"bufferView":123,"componentType":5126,"count":177,"type":"VEC2"},{"bufferView":124,"componentType":5126,"count":177,"type":"VEC2"},{"bufferView":125,"componentType":5123,"count":564,"type":"SCALAR"},{"bufferView":126,"componentType":5123,"count":118,"normalized":true,"type":"VEC4"},{"bufferView":127,"componentType":5126,"count":118,"max":[16.26272201538086,14.148722648620605,0.18847960233688354],"min":[-12.328269004821777,-15.980392456054688,-5.114821910858154],"type":"VEC3"},{"bufferView":128,"componentType":5126,"count":118,"type":"VEC2"},{"bufferView":129,"componentType":5126,"count":118,"type":"VEC2"},{"bufferView":130,"componentType":5123,"count":282,"type":"SCALAR"},{"bufferView":131,"componentType":5123,"count":4,"normalized":true,"type":"VEC4"},{"bufferView":132,"componentType":5126,"count":4,"max":[15.365947723388672,0,-0.9496393799781799],"min":[-12.368858337402344,0,-4.9876909255981445],"type":"VEC3"},{"bufferView":133,"componentType":5126,"count":4,"type":"VEC2"},{"bufferView":134,"componentType":5123,"count":132,"normalized":true,"type":"VEC4"},{"bufferView":135,"componentType":5126,"count":132,"max":[9.884515762329102,8.77583122253418,0.1950090229511261],"min":[-11.132851600646973,-7.721460819244385,-7.038475036621094],"type":"VEC3"},{"bufferView":136,"componentType":5126,"count":132,"type":"VEC2"},{"bufferView":137,"componentType":5126,"count":132,"type":"VEC2"},{"bufferView":138,"componentType":5123,"count":408,"type":"SCALAR"},{"bufferView":139,"componentType":5123,"count":88,"normalized":true,"type":"VEC4"},{"bufferView":140,"componentType":5126,"count":88,"max":[10.02531909942627,9.047552108764648,0.22124363481998444],"min":[-10.859063148498535,-8.087286949157715,-7.093470573425293],"type":"VEC3"},{"bufferView":141,"componentType":5126,"count":88,"type":"VEC2"},{"bufferView":142,"componentType":5126,"count":88,"type":"VEC2"},{"bufferView":143,"componentType":5123,"count":204,"type":"SCALAR"},{"bufferView":144,"componentType":5123,"count":4,"normalized":true,"type":"VEC4"},{"bufferView":145,"componentType":5126,"count":4,"max":[9.766372680664062,0,0.14142782986164093],"min":[-11.068933486938477,0,-7.038480758666992],"type":"VEC3"},{"bufferView":146,"componentType":5126,"count":4,"type":"VEC2"},{"bufferView":147,"componentType":5123,"count":6,"type":"SCALAR"}],"bufferViews":[{"buffer":0,"byteLength":648,"byteOffset":0,"target":34962},{"buffer":0,"byteLength":972,"byteOffset":648,"target":34962},{"buffer":0,"byteLength":648,"byteOffset":1620,"target":34962},{"buffer":0,"byteLength":648,"byteOffset":2268,"target":34962},{"buffer":0,"byteLength":480,"byteOffset":2916,"target":34963},{"buffer":0,"byteLength":384,"byteOffset":3396,"target":34962},{"buffer":0,"byteLength":576,"byteOffset":3780,"target":34962},{"buffer":0,"byteLength":384,"byteOffset":4356,"target":34962},{"buffer":0,"byteLength":384,"byteOffset":4740,"target":34962},{"buffer":0,"byteLength":216,"byteOffset":5124,"target":34963},{"buffer":0,"byteLength":32,"byteOffset":5340,"target":34962},{"buffer":0,"byteLength":48,"byteOffset":5372,"target":34962},{"buffer":0,"byteLength":32,"byteOffset":5420,"target":34962},{"buffer":0,"byteLength":12,"byteOffset":5452,"target":34963},{"buffer":0,"byteLength":1704,"byteOffset":5464,"target":34962},{"buffer":0,"byteLength":2556,"byteOffset":7168,"target":34962},{"buffer":0,"byteLength":1704,"byteOffset":9724,"target":34962},{"buffer":0,"byteLength":1704,"byteOffset":11428,"target":34962},{"buffer":0,"byteLength":1050,"byteOffset":13132,"target":34963},{"buffer":0,"byteLength":1208,"byteOffset":14184,"target":34962},{"buffer":0,"byteLength":1812,"byteOffset":15392,"target":34962},{"buffer":0,"byteLength":1208,"byteOffset":17204,"target":34962},{"buffer":0,"byteLength":1208,"byteOffset":18412,"target":34962},{"buffer":0,"byteLength":678,"byteOffset":19620,"target":34963},{"buffer":0,"byteLength":48,"byteOffset":20300,"target":34962},{"buffer":0,"byteLength":72,"byteOffset":20348,"target":34962},{"buffer":0,"byteLength":48,"byteOffset":20420,"target":34962},{"buffer":0,"byteLength":24,"byteOffset":20468,"target":34963},{"buffer":0,"byteLength":304,"byteOffset":20492,"target":34962},{"buffer":0,"byteLength":456,"byteOffset":20796,"target":34962},{"buffer":0,"byteLength":304,"byteOffset":21252,"target":34962},{"buffer":0,"byteLength":304,"byteOffset":21556,"target":34962},{"buffer":0,"byteLength":204,"byteOffset":21860,"target":34963},{"buffer":0,"byteLength":120,"byteOffset":22064,"target":34962},{"buffer":0,"byteLength":180,"byteOffset":22184,"target":34962},{"buffer":0,"byteLength":120,"byteOffset":22364,"target":34962},{"buffer":0,"byteLength":120,"byteOffset":22484,"target":34962},{"buffer":0,"byteLength":66,"byteOffset":22604,"target":34963},{"buffer":0,"byteLength":48,"byteOffset":22672,"target":34962},{"buffer":0,"byteLength":72,"byteOffset":22720,"target":34962},{"buffer":0,"byteLength":48,"byteOffset":22792,"target":34962},{"buffer":0,"byteLength":2016,"byteOffset":22840,"target":34962},{"buffer":0,"byteLength":3024,"byteOffset":24856,"target":34962},{"buffer":0,"byteLength":2016,"byteOffset":27880,"target":34962},{"buffer":0,"byteLength":2016,"byteOffset":29896,"target":34962},{"buffer":0,"byteLength":1512,"byteOffset":31912,"target":34963},{"buffer":0,"byteLength":1344,"byteOffset":33424,"target":34962},{"buffer":0,"byteLength":2016,"byteOffset":34768,"target":34962},{"buffer":0,"byteLength":1344,"byteOffset":36784,"target":34962},{"buffer":0,"byteLength":1344,"byteOffset":38128,"target":34962},{"buffer":0,"byteLength":756,"byteOffset":39472,"target":34963},{"buffer":0,"byteLength":24,"byteOffset":40228,"target":34962},{"buffer":0,"byteLength":36,"byteOffset":40252,"target":34962},{"buffer":0,"byteLength":24,"byteOffset":40288,"target":34962},{"buffer":0,"byteLength":6,"byteOffset":40312,"target":34963},{"buffer":0,"byteLength":1728,"byteOffset":40320,"target":34962},{"buffer":0,"byteLength":2592,"byteOffset":42048,"target":34962},{"buffer":0,"byteLength":1728,"byteOffset":44640,"target":34962},{"buffer":0,"byteLength":1728,"byteOffset":46368,"target":34962},{"buffer":0,"byteLength":1296,"byteOffset":48096,"target":34963},{"buffer":0,"byteLength":1152,"byteOffset":49392,"target":34962},{"buffer":0,"byteLength":1728,"byteOffset":50544,"target":34962},{"buffer":0,"byteLength":1152,"byteOffset":52272,"target":34962},{"buffer":0,"byteLength":1152,"byteOffset":53424,"target":34962},{"buffer":0,"byteLength":648,"byteOffset":54576,"target":34963},{"buffer":0,"byteLength":24,"byteOffset":55224,"target":34962},{"buffer":0,"byteLength":36,"byteOffset":55248,"target":34962},{"buffer":0,"byteLength":24,"byteOffset":55284,"target":34962},{"buffer":0,"byteLength":968,"byteOffset":55308,"target":34962},{"buffer":0,"byteLength":1452,"byteOffset":56276,"target":34962},{"buffer":0,"byteLength":968,"byteOffset":57728,"target":34962},{"buffer":0,"byteLength":968,"byteOffset":58696,"target":34962},{"buffer":0,"byteLength":702,"byteOffset":59664,"target":34963},{"buffer":0,"byteLength":624,"byteOffset":60368,"target":34962},{"buffer":0,"byteLength":936,"byteOffset":60992,"target":34962},{"buffer":0,"byteLength":624,"byteOffset":61928,"target":34962},{"buffer":0,"byteLength":624,"byteOffset":62552,"target":34962},{"buffer":0,"byteLength":348,"byteOffset":63176,"target":34963},{"buffer":0,"byteLength":24,"byteOffset":63524,"target":34962},{"buffer":0,"byteLength":36,"byteOffset":63548,"target":34962},{"buffer":0,"byteLength":24,"byteOffset":63584,"target":34962},{"buffer":0,"byteLength":960,"byteOffset":63608,"target":34962},{"buffer":0,"byteLength":1440,"byteOffset":64568,"target":34962},{"buffer":0,"byteLength":960,"byteOffset":66008,"target":34962},{"buffer":0,"byteLength":960,"byteOffset":66968,"target":34962},{"buffer":0,"byteLength":720,"byteOffset":67928,"target":34963},{"buffer":0,"byteLength":576,"byteOffset":68648,"target":34962},{"buffer":0,"byteLength":864,"byteOffset":69224,"target":34962},{"buffer":0,"byteLength":576,"byteOffset":70088,"target":34962},{"buffer":0,"byteLength":576,"byteOffset":70664,"target":34962},{"buffer":0,"byteLength":324,"byteOffset":71240,"target":34963},{"buffer":0,"byteLength":24,"byteOffset":71564,"target":34962},{"buffer":0,"byteLength":36,"byteOffset":71588,"target":34962},{"buffer":0,"byteLength":24,"byteOffset":71624,"target":34962},{"buffer":0,"byteLength":1480,"byteOffset":71648,"target":34962},{"buffer":0,"byteLength":2220,"byteOffset":73128,"target":34962},{"buffer":0,"byteLength":1480,"byteOffset":75348,"target":34962},{"buffer":0,"byteLength":1480,"byteOffset":76828,"target":34962},{"buffer":0,"byteLength":1146,"byteOffset":78308,"target":34963},{"buffer":0,"byteLength":992,"byteOffset":79456,"target":34962},{"buffer":0,"byteLength":1488,"byteOffset":80448,"target":34962},{"buffer":0,"byteLength":992,"byteOffset":81936,"target":34962},{"buffer":0,"byteLength":992,"byteOffset":82928,"target":34962},{"buffer":0,"byteLength":576,"byteOffset":83920,"target":34963},{"buffer":0,"byteLength":32,"byteOffset":84496,"target":34962},{"buffer":0,"byteLength":48,"byteOffset":84528,"target":34962},{"buffer":0,"byteLength":32,"byteOffset":84576,"target":34962},{"buffer":0,"byteLength":1456,"byteOffset":84608,"target":34962},{"buffer":0,"byteLength":2184,"byteOffset":86064,"target":34962},{"buffer":0,"byteLength":1456,"byteOffset":88248,"target":34962},{"buffer":0,"byteLength":1456,"byteOffset":89704,"target":34962},{"buffer":0,"byteLength":1122,"byteOffset":91160,"target":34963},{"buffer":0,"byteLength":976,"byteOffset":92284,"target":34962},{"buffer":0,"byteLength":1464,"byteOffset":93260,"target":34962},{"buffer":0,"byteLength":976,"byteOffset":94724,"target":34962},{"buffer":0,"byteLength":976,"byteOffset":95700,"target":34962},{"buffer":0,"byteLength":564,"byteOffset":96676,"target":34963},{"buffer":0,"byteLength":56,"byteOffset":97240,"target":34962},{"buffer":0,"byteLength":84,"byteOffset":97296,"target":34962},{"buffer":0,"byteLength":56,"byteOffset":97380,"target":34962},{"buffer":0,"byteLength":30,"byteOffset":97436,"target":34963},{"buffer":0,"byteLength":1416,"byteOffset":97468,"target":34962},{"buffer":0,"byteLength":2124,"byteOffset":98884,"target":34962},{"buffer":0,"byteLength":1416,"byteOffset":101008,"target":34962},{"buffer":0,"byteLength":1416,"byteOffset":102424,"target":34962},{"buffer":0,"byteLength":1128,"byteOffset":103840,"target":34963},{"buffer":0,"byteLength":944,"byteOffset":104968,"target":34962},{"buffer":0,"byteLength":1416,"byteOffset":105912,"target":34962},{"buffer":0,"byteLength":944,"byteOffset":107328,"target":34962},{"buffer":0,"byteLength":944,"byteOffset":108272,"target":34962},{"buffer":0,"byteLength":564,"byteOffset":109216,"target":34963},{"buffer":0,"byteLength":32,"byteOffset":109780,"target":34962},{"buffer":0,"byteLength":48,"byteOffset":109812,"target":34962},{"buffer":0,"byteLength":32,"byteOffset":109860,"target":34962},{"buffer":0,"byteLength":1056,"byteOffset":109892,"target":34962},{"buffer":0,"byteLength":1584,"byteOffset":110948,"target":34962},{"buffer":0,"byteLength":1056,"byteOffset":112532,"target":34962},{"buffer":0,"byteLength":1056,"byteOffset":113588,"target":34962},{"buffer":0,"byteLength":816,"byteOffset":114644,"target":34963},{"buffer":0,"byteLength":704,"byteOffset":115460,"target":34962},{"buffer":0,"byteLength":1056,"byteOffset":116164,"target":34962},{"buffer":0,"byteLength":704,"byteOffset":117220,"target":34962},{"buffer":0,"byteLength":704,"byteOffset":117924,"target":34962},{"buffer":0,"byteLength":408,"byteOffset":118628,"target":34963},{"buffer":0,"byteLength":32,"byteOffset":119036,"target":34962},{"buffer":0,"byteLength":48,"byteOffset":119068,"target":34962},{"buffer":0,"byteLength":32,"byteOffset":119116,"target":34962},{"buffer":0,"byteLength":12,"byteOffset":119148,"target":34963}],"samplers":[{"magFilter":9729,"minFilter":9987}],"buffers":[{"byteLength":119160,"uri":"model.bin"}],"extras":{"tier":2}}