{"asset": {"generator": "Khronos glTF Blender I/O v3.6.27", "version": "2.0"}, "scene": 0, "scenes": [{"name": "Scene", "nodes": [0]}], "nodes": [{"mesh": 0, "name": "ukkpdhqbw_LOD0_TIER2_000", "rotation": [0.7071068286895752, 0, 0, 0.7071068286895752], "scale": [0.009999999776482582, 0.009999999776482582, 0.009999999776482582]}], "materials": [{"doubleSided": true, "name": "MI_ukkpdhqbw", "normalTexture": {"index": 0}, "occlusionTexture": {"index": 1}, "pbrMetallicRoughness": {"baseColorTexture": {"index": 2}, "metallicRoughnessTexture": {"index": 1}}}], "meshes": [{"name": "S_ukkpdhqbw_tier_2", "primitives": [{"attributes": {"POSITION": 0, "NORMAL": 1, "TEXCOORD_0": 2, "TANGENT": 3}, "indices": 4, "material": 0}]}], "textures": [{"sampler": 0, "source": 0}, {"sampler": 0, "source": 1}, {"sampler": 0, "source": 2}], "images": [{"mimeType": "image/jpeg", "name": "T_ukkpdhqbw_2K_N", "uri": "t0.jpg"}, {"mimeType": "image/jpeg", "name": "T_ukkpdhqbw_2K_ORM", "uri": "t1.jpg", "extras": {"compression": "mask"}}, {"mimeType": "image/jpeg", "name": "T_ukkpdhqbw_2K_B", "uri": "t2.jpg"}], "accessors": [{"bufferView": 0, "componentType": 5126, "count": 2407, "max": [32.11968231201172, 4.2444748878479, 45.105186462402344], "min": [-32.096229553222656, -0.47822925448417664, -45.10344314575195], "type": "VEC3"}, {"bufferView": 1, "componentType": 5126, "count": 2407, "type": "VEC3"}, {"bufferView": 2, "componentType": 5126, "count": 2407, "type": "VEC2"}, {"bufferView": 3, "componentType": 5126, "count": 2407, "type": "VEC4"}, {"bufferView": 4, "componentType": 5123, "count": 12264, "type": "SCALAR"}], "bufferViews": [{"buffer": 0, "byteLength": 28884, "byteOffset": 0, "target": 34962}, {"buffer": 0, "byteLength": 28884, "byteOffset": 28884, "target": 34962}, {"buffer": 0, "byteLength": 19256, "byteOffset": 57768, "target": 34962}, {"buffer": 0, "byteLength": 38512, "byteOffset": 77024, "target": 34962}, {"buffer": 0, "byteLength": 24528, "byteOffset": 115536, "target": 34963}], "samplers": [{"magFilter": 9729, "minFilter": 9987}], "buffers": [{"byteLength": 140064, "uri": "model.bin"}]}