{"asset": {"generator": "Khronos glTF Blender I/O v3.6.27", "version": "2.0"}, "scene": 0, "scenes": [{"name": "Scene", "nodes": [0, 1, 2, 3, 4, 5, 6, 7]}], "nodes": [{"mesh": 0, "name": "SM_vdknafgha_VarA", "rotation": [0.7071068286895752, 0, 0, 0.7071068286895752], "scale": [0.009999999776482582, 0.009999999776482582, 0.009999999776482582]}, {"mesh": 1, "name": "SM_vdknafgha_VarB", "rotation": [0.7071068286895752, 0, 0, 0.7071068286895752], "scale": [0.009999999776482582, 0.009999999776482582, 0.009999999776482582]}, {"mesh": 2, "name": "SM_vdknafgha_VarC", "rotation": [0.7071068286895752, 0, 0, 0.7071068286895752], "scale": [0.009999999776482582, 0.009999999776482582, 0.009999999776482582]}, {"mesh": 3, "name": "SM_vdknafgha_VarD", "rotation": [0.7071068286895752, 0, 0, 0.7071068286895752], "scale": [0.009999999776482582, 0.009999999776482582, 0.009999999776482582]}, {"mesh": 4, "name": "SM_vdknafgha_VarE", "rotation": [0.7071068286895752, 0, 0, 0.7071068286895752], "scale": [0.009999999776482582, 0.009999999776482582, 0.009999999776482582]}, {"mesh": 5, "name": "SM_vdknafgha_VarF", "rotation": [0.7071068286895752, 0, 0, 0.7071068286895752], "scale": [0.009999999776482582, 0.009999999776482582, 0.009999999776482582]}, {"mesh": 6, "name": "SM_vdknafgha_VarG", "rotation": [0.7071068286895752, 0, 0, 0.7071068286895752], "scale": [0.009999999776482582, 0.009999999776482582, 0.009999999776482582]}, {"mesh": 7, "name": "SM_vdknafgha_VarH", "rotation": [0.7071068286895752, 0, 0, 0.7071068286895752], "scale": [0.009999999776482582, 0.009999999776482582, 0.009999999776482582]}], "materials": [{"alphaMode": "MASK", "doubleSided": true, "name": "MI_vdknafgha", "normalTexture": {"index": 0}, "pbrMetallicRoughness": {"baseColorTexture": {"index": 2}, "metallicRoughnessTexture": {"index": 1}, "metallicFactor": 0}, "extras": {"params": [{"Name": "Split Translucency Controls", "Value": true}, {"Name": "use Growth Effect", "Value": false}, {"Name": "Translucency Tint Leaves", "Value": [1, 1, 1, 1]}, {"Name": "Translucency Controls Leaves", "Value": [1, 0, 1, 0]}, {"Name": "Translucency Controls Branches", "Value": [0.800000011920929, 0, 0.6000000238418579, 0]}]}}], "meshes": [{"name": "SM_vdknafgha_VarA", "primitives": [{"attributes": {"POSITION": 1, "TEXCOORD_0": 2, "_wind": 0}, "indices": 3, "material": 0}]}, {"name": "SM_vdknafgha_VarB", "primitives": [{"attributes": {"POSITION": 5, "TEXCOORD_0": 6, "_wind": 4}, "indices": 7, "material": 0}]}, {"name": "SM_vdknafgha_VarC", "primitives": [{"attributes": {"POSITION": 9, "TEXCOORD_0": 10, "_wind": 8}, "indices": 11, "material": 0}]}, {"name": "SM_vdknafgha_VarD", "primitives": [{"attributes": {"POSITION": 13, "TEXCOORD_0": 14, "_wind": 12}, "indices": 15, "material": 0}]}, {"name": "SM_vdknafgha_VarE", "primitives": [{"attributes": {"POSITION": 17, "TEXCOORD_0": 18, "_wind": 16}, "indices": 19, "material": 0}]}, {"name": "SM_vdknafgha_VarF", "primitives": [{"attributes": {"POSITION": 21, "TEXCOORD_0": 22, "_wind": 20}, "indices": 23, "material": 0}]}, {"name": "SM_vdknafgha_VarG", "primitives": [{"attributes": {"POSITION": 25, "TEXCOORD_0": 26, "_wind": 24}, "indices": 27, "material": 0}]}, {"name": "SM_vdknafgha_VarH", "primitives": [{"attributes": {"POSITION": 29, "TEXCOORD_0": 30, "_wind": 28}, "indices": 31, "material": 0}]}], "textures": [{"sampler": 0, "source": 0}, {"sampler": 0, "source": 1}, {"sampler": 0, "source": 2}], "images": [{"mimeType": "image/png", "name": "T_vdknafgha_4K_N", "uri": "T_vdknafgha_1K_N.jpg", "extras": {"mipgen": "sharpen_4"}}, {"mimeType": "image/png", "name": "T_vdknafgha_4K_ORT", "uri": "T_vdknafgha_1K_ORT.jpg", "extras": {"compression": "mask", "textureSlot": "Mask", "materialIndex": 0, "mipgen": "sharpen_6", "alphaCoverage": [0.333, 0, 0, 0], "scaleMips": true}}, {"mimeType": "image/png", "name": "T_vdknafgha_4K_B-O", "uri": "T_vdknafgha_1K_B-O.png", "extras": {"mipgen": "sharpen_4"}}], "accessors": [{"bufferView": 0, "componentType": 5123, "count": 20741, "normalized": true, "type": "VEC4"}, {"bufferView": 1, "componentType": 5126, "count": 20741, "max": [12.117610931396484, 21.638498306274414, 1.2088927030563354], "min": [-17.23921012878418, -15.122243881225586, -28.728300094604492], "type": "VEC3"}, {"bufferView": 2, "componentType": 5126, "count": 20741, "type": "VEC2"}, {"bufferView": 3, "componentType": 5123, "count": 62523, "type": "SCALAR"}, {"bufferView": 4, "componentType": 5123, "count": 17823, "normalized": true, "type": "VEC4"}, {"bufferView": 5, "componentType": 5126, "count": 17823, "max": [12.84191608428955, 15.665656089782715, 1.1318585872650146], "min": [-13.542567253112793, -14.147305488586426, -24.980297088623047], "type": "VEC3"}, {"bufferView": 6, "componentType": 5126, "count": 17823, "type": "VEC2"}, {"bufferView": 7, "componentType": 5123, "count": 53532, "type": "SCALAR"}, {"bufferView": 8, "componentType": 5123, "count": 63892, "normalized": true, "type": "VEC4"}, {"bufferView": 9, "componentType": 5126, "count": 63892, "max": [43.19780731201172, 35.56060028076172, 1.3269736766815186], "min": [-39.036293029785156, -37.82866668701172, -43.654937744140625], "type": "VEC3"}, {"bufferView": 10, "componentType": 5126, "count": 63892, "type": "VEC2"}, {"bufferView": 11, "componentType": 5123, "count": 195291, "type": "SCALAR"}, {"bufferView": 12, "componentType": 5123, "count": 12941, "normalized": true, "type": "VEC4"}, {"bufferView": 13, "componentType": 5126, "count": 12941, "max": [20.346637725830078, 23.759937286376953, 1.4397473335266113], "min": [-21.90941047668457, -15.952436447143555, -31.222211837768555], "type": "VEC3"}, {"bufferView": 14, "componentType": 5126, "count": 12941, "type": "VEC2"}, {"bufferView": 15, "componentType": 5123, "count": 38889, "type": "SCALAR"}, {"bufferView": 16, "componentType": 5123, "count": 27817, "normalized": true, "type": "VEC4"}, {"bufferView": 17, "componentType": 5126, "count": 27817, "max": [32.40359115600586, 29.911327362060547, 2.9986095428466797], "min": [-41.37016677856445, -38.38192367553711, -44.50252151489258], "type": "VEC3"}, {"bufferView": 18, "componentType": 5126, "count": 27817, "type": "VEC2"}, {"bufferView": 19, "componentType": 5123, "count": 84069, "type": "SCALAR"}, {"bufferView": 20, "componentType": 5123, "count": 36390, "normalized": true, "type": "VEC4"}, {"bufferView": 21, "componentType": 5126, "count": 36390, "max": [40.75366973876953, 29.074016571044922, 2.754850149154663], "min": [-31.083520889282227, -29.828542709350586, -49.86796569824219], "type": "VEC3"}, {"bufferView": 22, "componentType": 5126, "count": 36390, "type": "VEC2"}, {"bufferView": 23, "componentType": 5123, "count": 110625, "type": "SCALAR"}, {"bufferView": 24, "componentType": 5123, "count": 102875, "normalized": true, "type": "VEC4"}, {"bufferView": 25, "componentType": 5126, "count": 102875, "max": [57.83346939086914, 51.305328369140625, 5.686242580413818], "min": [-58.095497131347656, -51.615875244140625, -59.855918884277344], "type": "VEC3"}, {"bufferView": 26, "componentType": 5126, "count": 102875, "type": "VEC2"}, {"bufferView": 27, "componentType": 5125, "count": 315228, "type": "SCALAR"}, {"bufferView": 28, "componentType": 5123, "count": 44540, "normalized": true, "type": "VEC4"}, {"bufferView": 29, "componentType": 5126, "count": 44540, "max": [61.64763641357422, 28.169452667236328, 1.6888409852981567], "min": [-34.328697204589844, -28.839242935180664, -51.89576721191406], "type": "VEC3"}, {"bufferView": 30, "componentType": 5126, "count": 44540, "type": "VEC2"}, {"bufferView": 31, "componentType": 5123, "count": 135183, "type": "SCALAR"}], "bufferViews": [{"buffer": 0, "byteLength": 165928, "byteOffset": 0, "target": 34962}, {"buffer": 0, "byteLength": 248892, "byteOffset": 165928, "target": 34962}, {"buffer": 0, "byteLength": 165928, "byteOffset": 414820, "target": 34962}, {"buffer": 0, "byteLength": 125046, "byteOffset": 580748, "target": 34963}, {"buffer": 0, "byteLength": 142584, "byteOffset": 705796, "target": 34962}, {"buffer": 0, "byteLength": 213876, "byteOffset": 848380, "target": 34962}, {"buffer": 0, "byteLength": 142584, "byteOffset": 1062256, "target": 34962}, {"buffer": 0, "byteLength": 107064, "byteOffset": 1204840, "target": 34963}, {"buffer": 0, "byteLength": 511136, "byteOffset": 1311904, "target": 34962}, {"buffer": 0, "byteLength": 766704, "byteOffset": 1823040, "target": 34962}, {"buffer": 0, "byteLength": 511136, "byteOffset": 2589744, "target": 34962}, {"buffer": 0, "byteLength": 390582, "byteOffset": 3100880, "target": 34963}, {"buffer": 0, "byteLength": 103528, "byteOffset": 3491464, "target": 34962}, {"buffer": 0, "byteLength": 155292, "byteOffset": 3594992, "target": 34962}, {"buffer": 0, "byteLength": 103528, "byteOffset": 3750284, "target": 34962}, {"buffer": 0, "byteLength": 77778, "byteOffset": 3853812, "target": 34963}, {"buffer": 0, "byteLength": 222536, "byteOffset": 3931592, "target": 34962}, {"buffer": 0, "byteLength": 333804, "byteOffset": 4154128, "target": 34962}, {"buffer": 0, "byteLength": 222536, "byteOffset": 4487932, "target": 34962}, {"buffer": 0, "byteLength": 168138, "byteOffset": 4710468, "target": 34963}, {"buffer": 0, "byteLength": 291120, "byteOffset": 4878608, "target": 34962}, {"buffer": 0, "byteLength": 436680, "byteOffset": 5169728, "target": 34962}, {"buffer": 0, "byteLength": 291120, "byteOffset": 5606408, "target": 34962}, {"buffer": 0, "byteLength": 221250, "byteOffset": 5897528, "target": 34963}, {"buffer": 0, "byteLength": 823000, "byteOffset": 6118780, "target": 34962}, {"buffer": 0, "byteLength": 1234500, "byteOffset": 6941780, "target": 34962}, {"buffer": 0, "byteLength": 823000, "byteOffset": 8176280, "target": 34962}, {"buffer": 0, "byteLength": 1260912, "byteOffset": 8999280, "target": 34963}, {"buffer": 0, "byteLength": 356320, "byteOffset": 10260192, "target": 34962}, {"buffer": 0, "byteLength": 534480, "byteOffset": 10616512, "target": 34962}, {"buffer": 0, "byteLength": 356320, "byteOffset": 11150992, "target": 34962}, {"buffer": 0, "byteLength": 270366, "byteOffset": 11507312, "target": 34963}], "samplers": [{"magFilter": 9729, "minFilter": 9987}], "buffers": [{"byteLength": 11777680, "uri": "vdknafgha_tier_0.bin"}], "extras": {"tier": 0}}