{"asset": {"generator": "Khronos glTF Blender I/O v3.6.27", "version": "2.0"}, "scene": 0, "scenes": [{"name": "Scene", "nodes": [0]}], "nodes": [{"mesh": 0, "name": "vlwmahl_LOD0_TIER2_000", "rotation": [0.7071068286895752, 0, 0, 0.7071068286895752], "scale": [0.009999999776482582, 0.009999999776482582, 0.009999999776482582]}], "materials": [{"doubleSided": true, "name": "MI_vlwmahl", "normalTexture": {"index": 0}, "occlusionTexture": {"index": 1}, "pbrMetallicRoughness": {"baseColorTexture": {"index": 2}, "metallicRoughnessTexture": {"index": 1}}}], "meshes": [{"name": "S_vlwmahl_tier_2", "primitives": [{"attributes": {"POSITION": 0, "NORMAL": 1, "TEXCOORD_0": 2, "TANGENT": 3}, "indices": 4, "material": 0}]}], "textures": [{"sampler": 0, "source": 0}, {"sampler": 0, "source": 1}, {"sampler": 0, "source": 2}], "images": [{"mimeType": "image/jpeg", "name": "T_vlwmahl_2K_N", "uri": "t0.jpg"}, {"mimeType": "image/jpeg", "name": "T_vlwmahl_2K_ORM", "uri": "t1.jpg", "extras": {"compression": "mask"}}, {"mimeType": "image/jpeg", "name": "T_vlwmahl_2K_B", "uri": "t2.jpg"}], "accessors": [{"bufferView": 0, "componentType": 5126, "count": 1996, "max": [42.59605407714844, 18.882709503173828, 11.531679153442383], "min": [-42.59605407714844, -0.22080230712890625, -11.531679153442383], "type": "VEC3"}, {"bufferView": 1, "componentType": 5126, "count": 1996, "type": "VEC3"}, {"bufferView": 2, "componentType": 5126, "count": 1996, "type": "VEC2"}, {"bufferView": 3, "componentType": 5126, "count": 1996, "type": "VEC4"}, {"bufferView": 4, "componentType": 5123, "count": 8718, "type": "SCALAR"}], "bufferViews": [{"buffer": 0, "byteLength": 23952, "byteOffset": 0, "target": 34962}, {"buffer": 0, "byteLength": 23952, "byteOffset": 23952, "target": 34962}, {"buffer": 0, "byteLength": 15968, "byteOffset": 47904, "target": 34962}, {"buffer": 0, "byteLength": 31936, "byteOffset": 63872, "target": 34962}, {"buffer": 0, "byteLength": 17436, "byteOffset": 95808, "target": 34963}], "samplers": [{"magFilter": 9729, "minFilter": 9987}], "buffers": [{"byteLength": 113244, "uri": "model.bin"}]}